# Blender 4.1.0
# www.blender.org
mtllib Wall.mtl
o Cube
v 1.000000 1.800000 0.850000
v 0.900000 2.000000 0.850000
v 0.900000 2.000000 -0.850000
v 1.000000 1.800000 -0.850000
v -1.000000 1.800000 -0.850000
v -0.900000 2.000000 -0.850000
v -0.850000 2.000000 -0.900000
v -0.850000 1.800000 -1.000000
v -0.850000 1.800000 1.000000
v -0.850000 2.000000 0.900000
v -0.900000 2.000000 0.850000
v -1.000000 1.800000 0.850000
v 0.850000 2.000000 0.900000
v 0.850000 1.800000 1.000000
v 0.850000 1.800000 -1.000000
v 0.850000 2.000000 -0.900000
v -0.900000 1.700000 -1.000000
v -1.000000 1.700000 -0.900000
v -1.000000 1.700000 0.900000
v -0.900000 1.700000 1.000000
v 0.900000 1.700000 1.000000
v 1.000000 1.700000 0.900000
v 1.000000 1.700000 -0.900000
v 0.900000 1.700000 -1.000000
v -0.850000 -1.800000 -1.000000
v -0.850000 -2.000000 -0.900000
v -0.900000 -2.000000 -0.850000
v -1.000000 -1.800000 -0.850000
v -1.000000 -1.700000 -0.900000
v -0.900000 -1.700000 -1.000000
v 0.850000 -2.000000 -0.900000
v 0.850000 -1.800000 -1.000000
v 0.900000 -1.700000 -1.000000
v 1.000000 -1.700000 -0.900000
v 1.000000 -1.800000 -0.850000
v 0.900000 -2.000000 -0.850000
v 0.900000 -2.000000 0.850000
v 1.000000 -1.800000 0.850000
v 1.000000 -1.700000 0.900000
v 0.900000 -1.700000 1.000000
v 0.850000 -1.800000 1.000000
v 0.850000 -2.000000 0.900000
v -0.900000 -1.700000 1.000000
v -1.000000 -1.700000 0.900000
v -1.000000 -1.800000 0.850000
v -0.900000 -2.000000 0.850000
v -0.850000 -2.000000 0.900000
v -0.850000 -1.800000 1.000000
vn 0.6667 -0.3333 -0.6667
vn -0.0000 1.0000 -0.0000
vn 0.6667 0.3333 -0.6667
vn -0.0000 -0.0000 1.0000
vn -0.6667 -0.3333 -0.6667
vn -0.6667 0.3333 0.6667
vn -0.0000 -1.0000 -0.0000
vn -0.0000 -0.0000 -1.0000
vn 0.6667 -0.3333 0.6667
vn -0.6667 -0.3333 0.6667
vn 1.0000 -0.0000 -0.0000
vn 0.8944 0.4472 -0.0000
vn 0.6667 0.3333 0.6667
vn -0.8944 0.4472 -0.0000
vn -0.0000 0.4472 0.8944
vn -0.0000 0.4472 -0.8944
vn -0.6667 0.3333 -0.6667
vn -0.7071 -0.0000 -0.7071
vn 0.7071 -0.0000 -0.7071
vn -0.0000 -0.4472 -0.8944
vn 0.8944 -0.4472 -0.0000
vn 0.7071 -0.0000 0.7071
vn -0.0000 -0.4472 0.8944
vn -0.7071 -0.0000 0.7071
vn -0.8944 -0.4472 -0.0000
vn -1.0000 -0.0000 -0.0000
vt 0.256250 0.850000
vt 0.393750 0.612500
vt 0.287500 0.318750
vt 0.643750 0.737500
vt 0.637500 0.731250
vt 0.862500 0.518750
vt 0.725000 0.868750
vt 0.775000 0.818750
vt 0.762500 0.431250
vt 0.393750 0.487500
vt 0.387500 0.481250
vt 0.612500 0.268750
vt 0.387500 0.731250
vt 0.393750 0.737500
vt 0.393750 0.762500
vt 0.625000 0.493750
vt 0.625000 0.506250
vt 0.612500 0.518750
vt 0.143750 0.737500
vt 0.137500 0.731250
vt 0.362500 0.518750
vt 0.393750 0.987500
vt 0.387500 0.981250
vt 0.612500 0.768750
vt 0.237500 0.418750
vt 0.393750 0.262500
vt 0.275000 0.381250
vt 0.356250 0.512500
vt 0.368750 0.500000
vt 0.393750 0.237500
vt 0.387500 0.231250
vt 0.612500 0.018750
vt 0.625000 0.218750
vt 0.625000 0.031250
vt 0.712500 0.331250
vt 0.756250 0.387500
vt 0.743750 0.400000
vt 0.637500 0.518750
vt 0.625000 0.468750
vt 0.625000 0.281250
vt 0.625000 0.968750
vt 0.625000 0.781250
vt 0.631250 0.750000
vt 0.618750 0.750000
vt 0.606250 0.737500
vt 0.593750 0.000000
vt 0.393750 0.012500
vt 0.406250 0.000000
vt 0.356250 0.737500
vt 0.156250 0.750000
vt 0.125000 0.531250
vt 0.125000 0.718750
vt 0.606250 0.237500
vt 0.143750 0.512500
vt 0.343750 0.500000
vt 0.393750 0.512500
vt 0.606250 0.487500
vt 0.606250 0.512500
vt 0.362500 0.731250
vt 0.243750 0.462500
vt 0.306250 0.900000
vt 0.387500 0.418750
vt 0.643750 0.512500
vt 0.856250 0.512500
vt 0.862500 0.731250
vt 0.856250 0.737500
vt 0.706250 0.287500
vt 0.606250 0.387500
vt 0.612500 0.581250
vt 0.387500 0.268750
vt 0.606250 0.262500
vt 0.612500 0.481250
vt 0.387500 0.768750
vt 0.375000 0.756250
vt 0.375000 0.743750
vt 0.137500 0.518750
vt 0.606250 0.762500
vt 0.612500 0.981250
vt 0.606250 0.987500
vt 0.225000 0.431250
vt 0.293750 0.362500
vt 0.381250 0.500000
vt 0.387500 0.518750
vt 0.387500 0.018750
vt 0.606250 0.012500
vt 0.612500 0.231250
vt 0.693750 0.350000
vt 0.612500 0.731250
vt 0.343750 0.750000
vt 0.156250 0.500000
s 0
usemtl Material.002
f 32/1/1 34/2/1 36/3/1
f 7/4/2 6/5/2 2/6/2
f 16/7/3 3/8/3 4/9/3
f 43/10/4 48/11/4 14/12/4
f 28/13/5 29/14/5 30/15/5
f 10/16/6 11/17/6 12/18/6
f 31/19/7 36/20/7 46/21/7
f 33/22/8 32/23/8 8/24/8
f 38/25/9 40/26/9 42/27/9
f 46/21/10 47/28/10 48/29/10
f 39/30/11 38/31/11 4/32/11
f 2/33/12 4/32/12 3/34/12
f 2/35/13 13/36/13 14/37/13
f 6/5/14 12/18/14 11/38/14
f 10/39/15 14/12/15 13/40/15
f 16/41/16 8/24/16 7/42/16
f 8/43/17 17/44/17 18/45/17
f 18/45/18 30/15/18 29/14/18
f 24/46/19 34/47/19 33/48/19
f 26/49/20 32/50/20 31/19/20
f 38/51/21 36/20/21 35/52/21
f 22/53/22 40/26/22 39/30/22
f 42/54/23 48/55/23 47/28/23
f 44/56/24 20/57/24 19/58/24
f 46/21/25 28/13/25 27/59/25
f 29/14/26 28/13/26 12/18/26
f 36/3/1 31/60/1 32/1/1
f 32/1/1 33/61/1 34/2/1
f 34/2/1 35/62/1 36/3/1
f 6/5/2 11/38/2 10/63/2
f 10/63/2 13/64/2 6/5/2
f 13/64/2 2/6/2 6/5/2
f 2/6/2 3/65/2 16/66/2
f 16/66/2 7/4/2 2/6/2
f 4/9/3 23/67/3 24/68/3
f 24/68/3 15/69/3 4/9/3
f 15/69/3 16/7/3 4/9/3
f 48/11/4 41/70/4 40/26/4
f 40/26/4 21/71/4 48/11/4
f 21/71/4 14/12/4 48/11/4
f 14/12/4 9/72/4 20/57/4
f 20/57/4 43/10/4 14/12/4
f 30/15/5 25/73/5 26/74/5
f 26/74/5 27/75/5 30/15/5
f 27/75/5 28/13/5 30/15/5
f 12/18/6 19/58/6 20/57/6
f 20/57/6 9/72/6 12/18/6
f 9/72/6 10/16/6 12/18/6
f 36/20/7 37/76/7 42/54/7
f 42/54/7 47/28/7 36/20/7
f 47/28/7 46/21/7 36/20/7
f 46/21/7 27/59/7 26/49/7
f 26/49/7 31/19/7 46/21/7
f 32/23/8 25/73/8 30/15/8
f 30/15/8 17/77/8 32/23/8
f 17/77/8 8/24/8 32/23/8
f 8/24/8 15/78/8 24/79/8
f 24/79/8 33/22/8 8/24/8
f 42/27/9 37/80/9 38/25/9
f 38/25/9 39/81/9 40/26/9
f 40/26/9 41/70/9 42/27/9
f 48/29/10 43/82/10 44/56/10
f 44/56/10 45/83/10 48/29/10
f 45/83/10 46/21/10 48/29/10
f 38/31/11 35/84/11 34/47/11
f 34/47/11 23/85/11 38/31/11
f 23/85/11 4/32/11 38/31/11
f 4/32/11 1/86/11 22/53/11
f 22/53/11 39/30/11 4/32/11
f 2/33/12 1/86/12 4/32/12
f 14/37/13 21/87/13 22/53/13
f 22/53/13 1/86/13 14/37/13
f 1/86/13 2/35/13 14/37/13
f 6/5/14 5/88/14 12/18/14
f 10/39/15 9/72/15 14/12/15
f 16/41/16 15/78/16 8/24/16
f 18/45/17 5/88/17 6/5/17
f 6/5/17 7/4/17 18/45/17
f 7/4/17 8/43/17 18/45/17
f 18/45/18 17/77/18 30/15/18
f 24/46/19 23/85/19 34/47/19
f 26/49/20 25/89/20 32/50/20
f 38/51/21 37/76/21 36/20/21
f 22/53/22 21/71/22 40/26/22
f 42/54/23 41/90/23 48/55/23
f 44/56/24 43/10/24 20/57/24
f 46/21/25 45/83/25 28/13/25
f 28/13/26 45/83/26 44/56/26
f 44/56/26 19/58/26 28/13/26
f 19/58/26 12/18/26 28/13/26
f 12/18/26 5/88/26 18/45/26
f 18/45/26 29/14/26 12/18/26
