# Blender 4.1.1
# www.blender.org
mtllib Next.mtl
o テキスト
v -2.802861 0.410185 -0.050000
v -2.872120 0.497482 -0.050000
v -2.937824 0.579000 -0.050000
v -2.995009 0.626963 -0.050000
v -3.051972 0.632037 -0.050000
v -3.113824 0.590000 -0.050000
v -3.178824 0.518407 -0.050000
v -3.247824 0.437259 -0.050000
v -3.314824 0.361000 -0.050000
v -3.386750 0.283926 -0.050000
v -3.473565 0.195741 -0.050000
v -3.564824 0.110000 -0.050000
v -3.500824 0.037000 -0.050000
v -3.421898 0.116296 -0.050000
v -3.340750 0.204037 -0.050000
v -3.265824 0.288000 -0.050000
v -3.198676 0.366889 -0.050000
v -3.133306 0.445778 -0.050000
v -3.078824 0.510000 -0.050000
v -3.042342 0.539000 -0.050000
v -3.012972 0.536667 -0.050000
v -2.981824 0.507000 -0.050000
v -2.925861 0.434667 -0.050000
v -2.861454 0.350333 -0.050000
v -2.802824 0.276000 -0.050000
v -2.781528 0.249148 -0.050000
v -2.761120 0.222519 -0.050000
v -2.743824 0.199000 -0.050000
v -2.669824 0.274000 -0.050000
v -2.693602 0.293556 -0.050000
v -2.716712 0.315111 -0.050000
v -2.741824 0.340000 -0.050000
v -2.241861 0.268037 -0.050000
v -2.369453 0.392296 -0.050000
v -2.466824 0.529000 -0.050000
v -2.514824 0.446000 -0.050000
v -2.411898 0.314778 -0.050000
v -2.281416 0.193556 -0.050000
v -2.129824 0.089000 -0.050000
v -2.020231 0.034852 -0.050000
v -1.903750 -0.007519 -0.050000
v -1.798824 -0.035000 -0.050000
v -1.752824 0.046000 -0.050000
v -1.865676 0.071852 -0.050000
v -1.980306 0.110815 -0.050000
v -2.087824 0.162000 -0.050000
v -1.925824 0.331000 -0.050000
v -1.860379 0.375630 -0.050000
v -1.779602 0.426704 -0.050000
v -1.706824 0.468000 -0.050000
v -1.751824 0.536000 -0.050000
v -1.825268 0.493667 -0.050000
v -1.908046 0.442667 -0.050000
v -1.970824 0.401000 -0.050000
v -2.365824 0.565000 -0.050000
v -2.338454 0.618852 -0.050000
v -2.307528 0.673148 -0.050000
v -2.274824 0.723000 -0.050000
v -2.329824 0.746000 -0.050000
v -2.359935 0.700259 -0.050000
v -2.394046 0.644074 -0.050000
v -2.422824 0.591000 -0.050000
v -2.499824 0.615000 -0.050000
v -2.470750 0.668741 -0.050000
v -2.438565 0.721593 -0.050000
v -2.404824 0.770000 -0.050000
v -2.460824 0.794000 -0.050000
v -2.492157 0.749000 -0.050000
v -2.526824 0.693333 -0.050000
v -2.556824 0.641000 -0.050000
v -2.072824 0.551000 -0.050000
v -2.008639 0.596963 -0.050000
v -1.928676 0.650037 -0.050000
v -1.857824 0.694000 -0.050000
v -1.902824 0.761000 -0.050000
v -1.975750 0.716667 -0.050000
v -2.057565 0.663000 -0.050000
v -2.119824 0.620000 -0.050000
v -1.013343 0.428000 -0.050000
v -1.244306 0.428000 -0.050000
v -1.402824 0.428000 -0.050000
v -1.448157 0.428852 -0.050000
v -1.484157 0.430815 -0.050000
v -1.510824 0.433000 -0.050000
v -1.510824 0.335000 -0.050000
v -1.484194 0.336741 -0.050000
v -1.447120 0.338926 -0.050000
v -1.403824 0.340000 -0.050000
v -1.244824 0.340000 -0.050000
v -1.013824 0.340000 -0.050000
v -0.854824 0.340000 -0.050000
v -0.801231 0.339370 -0.050000
v -0.753417 0.337630 -0.050000
v -0.715824 0.335000 -0.050000
v -0.715824 0.433000 -0.050000
v -0.752750 0.430815 -0.050000
v -0.800565 0.428852 -0.050000
v -0.854824 0.428000 -0.050000
v 0.020361 0.484000 -0.050000
v -0.270342 0.484000 -0.050000
v -0.450824 0.484000 -0.050000
v -0.475046 0.484407 -0.050000
v -0.502602 0.485926 -0.050000
v -0.528824 0.489000 -0.050000
v -0.528824 0.406000 -0.050000
v -0.504157 0.406963 -0.050000
v -0.476824 0.407704 -0.050000
v -0.450824 0.408000 -0.050000
v -0.178824 0.408000 -0.050000
v -0.171083 0.305667 -0.050000
v -0.152231 0.214667 -0.050000
v -0.119824 0.135000 -0.050000
v -0.071639 0.067556 -0.050000
v -0.003676 0.004111 -0.050000
v 0.077176 -0.048000 -0.050000
v 0.151176 0.007000 -0.050000
v 0.076176 0.046889 -0.050000
v 0.011176 0.099444 -0.050000
v -0.037824 0.160000 -0.050000
v -0.071750 0.234519 -0.050000
v -0.089231 0.317481 -0.050000
v -0.095824 0.408000 -0.050000
v 0.204176 0.408000 -0.050000
v 0.233843 0.407926 -0.050000
v 0.262843 0.407407 -0.050000
v 0.291176 0.406000 -0.050000
v 0.291176 0.489000 -0.050000
v 0.263065 0.486370 -0.050000
v 0.234287 0.484630 -0.050000
v 0.204176 0.484000 -0.050000
v -0.037379 0.734000 -0.050000
v -0.207268 0.734000 -0.050000
v -0.323824 0.734000 -0.050000
v -0.353935 0.734667 -0.050000
v -0.386046 0.736667 -0.050000
v -0.416824 0.740000 -0.050000
v -0.416824 0.657000 -0.050000
v -0.386268 0.658667 -0.050000
v -0.354379 0.659667 -0.050000
v -0.323824 0.660000 -0.050000
v -0.207305 0.660000 -0.050000
v -0.037676 0.660000 -0.050000
v 0.080176 0.660000 -0.050000
v 0.112880 0.659667 -0.050000
v 0.143806 0.658667 -0.050000
v 0.171176 0.657000 -0.050000
v 0.171176 0.740000 -0.050000
v 0.142509 0.737111 -0.050000
v 0.112509 0.734889 -0.050000
v 0.081176 0.734000 -0.050000
v 0.654065 0.530815 -0.050000
v 0.711621 0.428852 -0.050000
v 0.779176 0.332000 -0.050000
v 0.671250 0.232037 -0.050000
v 0.568435 0.125630 -0.050000
v 0.487176 0.033000 -0.050000
v 0.557176 -0.027000 -0.050000
v 0.635583 0.069333 -0.050000
v 0.730435 0.172333 -0.050000
v 0.832176 0.270000 -0.050000
v 0.947954 0.158074 -0.050000
v 1.079065 0.057926 -0.050000
v 1.222176 -0.022000 -0.050000
v 1.286176 0.045000 -0.050000
v 1.130695 0.124444 -0.050000
v 0.990991 0.227889 -0.050000
v 0.874176 0.342000 -0.050000
v 0.806472 0.429852 -0.050000
v 0.747213 0.528148 -0.050000
v 0.708176 0.620000 -0.050000
v 0.817509 0.620000 -0.050000
v 0.989509 0.620000 -0.050000
v 1.098176 0.620000 -0.050000
v 1.137472 0.618926 -0.050000
v 1.175880 0.616741 -0.050000
v 1.199176 0.615000 -0.050000
v 1.199176 0.706000 -0.050000
v 1.173435 0.703556 -0.050000
v 1.134583 0.701111 -0.050000
v 1.098176 0.700000 -0.050000
v 0.988546 0.700000 -0.050000
v 0.819806 0.700000 -0.050000
v 0.712176 0.700000 -0.050000
v 0.681621 0.700963 -0.050000
v 0.656398 0.703704 -0.050000
v 0.637176 0.708000 -0.050000
v 0.586176 0.669000 -0.050000
v 0.593991 0.657148 -0.050000
v 0.603361 0.640852 -0.050000
v 0.611176 0.625000 -0.050000
v 2.203472 0.214815 -0.050000
v 2.163880 0.155185 -0.050000
v 2.117176 0.136000 -0.050000
v 2.068472 0.159630 -0.050000
v 2.017547 0.235704 -0.050000
v 1.966176 0.372000 -0.050000
v 1.942991 0.458444 -0.050000
v 1.924028 0.549556 -0.050000
v 1.910176 0.642000 -0.050000
v 2.075880 0.577556 -0.050000
v 2.182472 0.457111 -0.050000
v 2.220176 0.318000 -0.050000
v 1.954028 0.182815 -0.050000
v 2.031991 0.078852 -0.050000
v 2.120176 0.044000 -0.050000
v 2.205880 0.076556 -0.050000
v 2.271806 0.168444 -0.050000
v 2.298176 0.311000 -0.050000
v 2.239102 0.512963 -0.050000
v 2.082917 0.660704 -0.050000
v 1.861176 0.718000 -0.050000
v 1.657880 0.667704 -0.050000
v 1.525472 0.535630 -0.050000
v 1.478176 0.350000 -0.050000
v 1.522732 0.164778 -0.050000
v 1.650621 0.034889 -0.050000
v 1.853176 -0.031000 -0.050000
v 1.900176 0.043000 -0.050000
v 1.868769 0.046593 -0.050000
v 1.839584 0.051074 -0.050000
v 1.814176 0.056000 -0.050000
v 1.691435 0.107444 -0.050000
v 1.597584 0.205556 -0.050000
v 1.560176 0.353000 -0.050000
v 1.591621 0.492222 -0.050000
v 1.682398 0.595444 -0.050000
v 1.827176 0.644000 -0.050000
v 1.842287 0.547963 -0.050000
v 1.862065 0.450370 -0.050000
v 1.887176 0.355000 -0.050000
v 3.212472 0.729889 -0.050000
v 3.142546 0.683444 -0.050000
v 3.088176 0.639000 -0.050000
v 3.136176 0.578000 -0.050000
v 3.188880 0.623815 -0.050000
v 3.257806 0.673185 -0.050000
v 3.329176 0.717000 -0.050000
v 3.284176 0.771000 -0.050000
v 3.078176 0.329000 -0.050000
v 3.141695 0.223815 -0.050000
v 3.209658 0.118185 -0.050000
v 3.275176 0.021000 -0.050000
v 3.344176 0.073000 -0.050000
v 3.278917 0.160556 -0.050000
v 3.206102 0.267444 -0.050000
v 3.136176 0.379000 -0.050000
v 2.864139 0.772370 -0.050000
v 2.877880 0.720630 -0.050000
v 2.893176 0.670000 -0.050000
v 2.524176 0.670000 -0.050000
v 2.509176 0.674000 -0.050000
v 2.454176 0.644000 -0.050000
v 2.485176 0.545000 -0.050000
v 2.522176 0.450667 -0.050000
v 2.559176 0.371000 -0.050000
v 2.578880 0.381519 -0.050000
v 2.602139 0.393148 -0.050000
v 2.623176 0.403000 -0.050000
v 2.597547 0.459037 -0.050000
v 2.571472 0.525963 -0.050000
v 2.549176 0.596000 -0.050000
v 2.918176 0.596000 -0.050000
v 2.950806 0.517259 -0.050000
v 2.986547 0.446074 -0.050000
v 3.025176 0.384000 -0.050000
v 3.046065 0.398222 -0.050000
v 3.072954 0.413778 -0.050000
v 3.097176 0.426000 -0.050000
v 3.027287 0.541333 -0.050000
v 2.972065 0.683333 -0.050000
v 2.932176 0.840000 -0.050000
v 2.852176 0.825000 -0.050000
v 2.737176 0.484000 -0.050000
v 2.737472 0.460630 -0.050000
v 2.738213 0.436370 -0.050000
v 2.739176 0.411000 -0.050000
v 2.676435 0.227296 -0.050000
v 2.573917 0.084704 -0.050000
v 2.425176 -0.007000 -0.050000
v 2.443472 -0.026333 -0.050000
v 2.461546 -0.050333 -0.050000
v 2.475176 -0.073000 -0.050000
v 2.602621 0.006185 -0.050000
v 2.698065 0.119815 -0.050000
v 2.766176 0.265000 -0.050000
v 2.823472 0.142296 -0.050000
v 2.926547 0.023370 -0.050000
v 3.089176 -0.084000 -0.050000
v 3.105065 -0.063852 -0.050000
v 3.125621 -0.042815 -0.050000
v 3.146176 -0.026000 -0.050000
v 2.924435 0.141370 -0.050000
v 2.834250 0.322296 -0.050000
v 2.817176 0.485000 -0.050000
v 2.817176 0.547000 -0.050000
v 2.737176 0.547000 -0.050000
v -2.802861 0.410185 0.050000
v -2.872120 0.497482 0.050000
v -2.937824 0.579000 0.050000
v -2.995009 0.626963 0.050000
v -3.051972 0.632037 0.050000
v -3.113824 0.590000 0.050000
v -3.178824 0.518407 0.050000
v -3.247824 0.437259 0.050000
v -3.314824 0.361000 0.050000
v -3.386750 0.283926 0.050000
v -3.473565 0.195741 0.050000
v -3.564824 0.110000 0.050000
v -3.500824 0.037000 0.050000
v -3.421898 0.116296 0.050000
v -3.340750 0.204037 0.050000
v -3.265824 0.288000 0.050000
v -3.198676 0.366889 0.050000
v -3.133306 0.445778 0.050000
v -3.078824 0.510000 0.050000
v -3.042342 0.539000 0.050000
v -3.012972 0.536667 0.050000
v -2.981824 0.507000 0.050000
v -2.925861 0.434667 0.050000
v -2.861454 0.350333 0.050000
v -2.802824 0.276000 0.050000
v -2.781528 0.249148 0.050000
v -2.761120 0.222519 0.050000
v -2.743824 0.199000 0.050000
v -2.669824 0.274000 0.050000
v -2.693602 0.293556 0.050000
v -2.716712 0.315111 0.050000
v -2.741824 0.340000 0.050000
v -2.241861 0.268037 0.050000
v -2.369453 0.392296 0.050000
v -2.466824 0.529000 0.050000
v -2.514824 0.446000 0.050000
v -2.411898 0.314778 0.050000
v -2.281416 0.193556 0.050000
v -2.129824 0.089000 0.050000
v -2.020231 0.034852 0.050000
v -1.903750 -0.007519 0.050000
v -1.798824 -0.035000 0.050000
v -1.752824 0.046000 0.050000
v -1.865676 0.071852 0.050000
v -1.980306 0.110815 0.050000
v -2.087824 0.162000 0.050000
v -1.925824 0.331000 0.050000
v -1.860379 0.375630 0.050000
v -1.779602 0.426704 0.050000
v -1.706824 0.468000 0.050000
v -1.751824 0.536000 0.050000
v -1.825268 0.493667 0.050000
v -1.908046 0.442667 0.050000
v -1.970824 0.401000 0.050000
v -2.365824 0.565000 0.050000
v -2.338454 0.618852 0.050000
v -2.307528 0.673148 0.050000
v -2.274824 0.723000 0.050000
v -2.329824 0.746000 0.050000
v -2.359935 0.700259 0.050000
v -2.394046 0.644074 0.050000
v -2.422824 0.591000 0.050000
v -2.499824 0.615000 0.050000
v -2.470750 0.668741 0.050000
v -2.438565 0.721593 0.050000
v -2.404824 0.770000 0.050000
v -2.460824 0.794000 0.050000
v -2.492157 0.749000 0.050000
v -2.526824 0.693333 0.050000
v -2.556824 0.641000 0.050000
v -2.072824 0.551000 0.050000
v -2.008639 0.596963 0.050000
v -1.928676 0.650037 0.050000
v -1.857824 0.694000 0.050000
v -1.902824 0.761000 0.050000
v -1.975750 0.716667 0.050000
v -2.057565 0.663000 0.050000
v -2.119824 0.620000 0.050000
v -1.013343 0.428000 0.050000
v -1.244306 0.428000 0.050000
v -1.402824 0.428000 0.050000
v -1.448157 0.428852 0.050000
v -1.484157 0.430815 0.050000
v -1.510824 0.433000 0.050000
v -1.510824 0.335000 0.050000
v -1.484194 0.336741 0.050000
v -1.447120 0.338926 0.050000
v -1.403824 0.340000 0.050000
v -1.244824 0.340000 0.050000
v -1.013824 0.340000 0.050000
v -0.854824 0.340000 0.050000
v -0.801231 0.339370 0.050000
v -0.753417 0.337630 0.050000
v -0.715824 0.335000 0.050000
v -0.715824 0.433000 0.050000
v -0.752750 0.430815 0.050000
v -0.800565 0.428852 0.050000
v -0.854824 0.428000 0.050000
v 0.020361 0.484000 0.050000
v -0.270342 0.484000 0.050000
v -0.450824 0.484000 0.050000
v -0.475046 0.484407 0.050000
v -0.502602 0.485926 0.050000
v -0.528824 0.489000 0.050000
v -0.528824 0.406000 0.050000
v -0.504157 0.406963 0.050000
v -0.476824 0.407704 0.050000
v -0.450824 0.408000 0.050000
v -0.178824 0.408000 0.050000
v -0.171083 0.305667 0.050000
v -0.152231 0.214667 0.050000
v -0.119824 0.135000 0.050000
v -0.071639 0.067556 0.050000
v -0.003676 0.004111 0.050000
v 0.077176 -0.048000 0.050000
v 0.151176 0.007000 0.050000
v 0.076176 0.046889 0.050000
v 0.011176 0.099444 0.050000
v -0.037824 0.160000 0.050000
v -0.071750 0.234519 0.050000
v -0.089231 0.317481 0.050000
v -0.095824 0.408000 0.050000
v 0.204176 0.408000 0.050000
v 0.233843 0.407926 0.050000
v 0.262843 0.407407 0.050000
v 0.291176 0.406000 0.050000
v 0.291176 0.489000 0.050000
v 0.263065 0.486370 0.050000
v 0.234287 0.484630 0.050000
v 0.204176 0.484000 0.050000
v -0.037379 0.734000 0.050000
v -0.207268 0.734000 0.050000
v -0.323824 0.734000 0.050000
v -0.353935 0.734667 0.050000
v -0.386046 0.736667 0.050000
v -0.416824 0.740000 0.050000
v -0.416824 0.657000 0.050000
v -0.386268 0.658667 0.050000
v -0.354379 0.659667 0.050000
v -0.323824 0.660000 0.050000
v -0.207305 0.660000 0.050000
v -0.037676 0.660000 0.050000
v 0.080176 0.660000 0.050000
v 0.112880 0.659667 0.050000
v 0.143806 0.658667 0.050000
v 0.171176 0.657000 0.050000
v 0.171176 0.740000 0.050000
v 0.142509 0.737111 0.050000
v 0.112509 0.734889 0.050000
v 0.081176 0.734000 0.050000
v 0.654065 0.530815 0.050000
v 0.711621 0.428852 0.050000
v 0.779176 0.332000 0.050000
v 0.671250 0.232037 0.050000
v 0.568435 0.125630 0.050000
v 0.487176 0.033000 0.050000
v 0.557176 -0.027000 0.050000
v 0.635583 0.069333 0.050000
v 0.730435 0.172333 0.050000
v 0.832176 0.270000 0.050000
v 0.947954 0.158074 0.050000
v 1.079065 0.057926 0.050000
v 1.222176 -0.022000 0.050000
v 1.286176 0.045000 0.050000
v 1.130695 0.124444 0.050000
v 0.990991 0.227889 0.050000
v 0.874176 0.342000 0.050000
v 0.806472 0.429852 0.050000
v 0.747213 0.528148 0.050000
v 0.708176 0.620000 0.050000
v 0.817509 0.620000 0.050000
v 0.989509 0.620000 0.050000
v 1.098176 0.620000 0.050000
v 1.137472 0.618926 0.050000
v 1.175880 0.616741 0.050000
v 1.199176 0.615000 0.050000
v 1.199176 0.706000 0.050000
v 1.173435 0.703556 0.050000
v 1.134583 0.701111 0.050000
v 1.098176 0.700000 0.050000
v 0.988546 0.700000 0.050000
v 0.819806 0.700000 0.050000
v 0.712176 0.700000 0.050000
v 0.681621 0.700963 0.050000
v 0.656398 0.703704 0.050000
v 0.637176 0.708000 0.050000
v 0.586176 0.669000 0.050000
v 0.593991 0.657148 0.050000
v 0.603361 0.640852 0.050000
v 0.611176 0.625000 0.050000
v 2.203472 0.214815 0.050000
v 2.163880 0.155185 0.050000
v 2.117176 0.136000 0.050000
v 2.068472 0.159630 0.050000
v 2.017547 0.235704 0.050000
v 1.966176 0.372000 0.050000
v 1.942991 0.458444 0.050000
v 1.924028 0.549556 0.050000
v 1.910176 0.642000 0.050000
v 2.075880 0.577556 0.050000
v 2.182472 0.457111 0.050000
v 2.220176 0.318000 0.050000
v 1.954028 0.182815 0.050000
v 2.031991 0.078852 0.050000
v 2.120176 0.044000 0.050000
v 2.205880 0.076556 0.050000
v 2.271806 0.168444 0.050000
v 2.298176 0.311000 0.050000
v 2.239102 0.512963 0.050000
v 2.082917 0.660704 0.050000
v 1.861176 0.718000 0.050000
v 1.657880 0.667704 0.050000
v 1.525472 0.535630 0.050000
v 1.478176 0.350000 0.050000
v 1.522732 0.164778 0.050000
v 1.650621 0.034889 0.050000
v 1.853176 -0.031000 0.050000
v 1.900176 0.043000 0.050000
v 1.868769 0.046593 0.050000
v 1.839584 0.051074 0.050000
v 1.814176 0.056000 0.050000
v 1.691435 0.107444 0.050000
v 1.597584 0.205556 0.050000
v 1.560176 0.353000 0.050000
v 1.591621 0.492222 0.050000
v 1.682398 0.595444 0.050000
v 1.827176 0.644000 0.050000
v 1.842287 0.547963 0.050000
v 1.862065 0.450370 0.050000
v 1.887176 0.355000 0.050000
v 3.212472 0.729889 0.050000
v 3.142546 0.683444 0.050000
v 3.088176 0.639000 0.050000
v 3.136176 0.578000 0.050000
v 3.188880 0.623815 0.050000
v 3.257806 0.673185 0.050000
v 3.329176 0.717000 0.050000
v 3.284176 0.771000 0.050000
v 3.078176 0.329000 0.050000
v 3.141695 0.223815 0.050000
v 3.209658 0.118185 0.050000
v 3.275176 0.021000 0.050000
v 3.344176 0.073000 0.050000
v 3.278917 0.160556 0.050000
v 3.206102 0.267444 0.050000
v 3.136176 0.379000 0.050000
v 2.864139 0.772370 0.050000
v 2.877880 0.720630 0.050000
v 2.893176 0.670000 0.050000
v 2.524176 0.670000 0.050000
v 2.509176 0.674000 0.050000
v 2.454176 0.644000 0.050000
v 2.485176 0.545000 0.050000
v 2.522176 0.450667 0.050000
v 2.559176 0.371000 0.050000
v 2.578880 0.381519 0.050000
v 2.602139 0.393148 0.050000
v 2.623176 0.403000 0.050000
v 2.597547 0.459037 0.050000
v 2.571472 0.525963 0.050000
v 2.549176 0.596000 0.050000
v 2.918176 0.596000 0.050000
v 2.950806 0.517259 0.050000
v 2.986547 0.446074 0.050000
v 3.025176 0.384000 0.050000
v 3.046065 0.398222 0.050000
v 3.072954 0.413778 0.050000
v 3.097176 0.426000 0.050000
v 3.027287 0.541333 0.050000
v 2.972065 0.683333 0.050000
v 2.932176 0.840000 0.050000
v 2.852176 0.825000 0.050000
v 2.737176 0.484000 0.050000
v 2.737472 0.460630 0.050000
v 2.738213 0.436370 0.050000
v 2.739176 0.411000 0.050000
v 2.676435 0.227296 0.050000
v 2.573917 0.084704 0.050000
v 2.425176 -0.007000 0.050000
v 2.443472 -0.026333 0.050000
v 2.461546 -0.050333 0.050000
v 2.475176 -0.073000 0.050000
v 2.602621 0.006185 0.050000
v 2.698065 0.119815 0.050000
v 2.766176 0.265000 0.050000
v 2.823472 0.142296 0.050000
v 2.926547 0.023370 0.050000
v 3.089176 -0.084000 0.050000
v 3.105065 -0.063852 0.050000
v 3.125621 -0.042815 0.050000
v 3.146176 -0.026000 0.050000
v 2.924435 0.141370 0.050000
v 2.834250 0.322296 0.050000
v 2.817176 0.485000 0.050000
v 2.817176 0.547000 0.050000
v 2.737176 0.547000 0.050000
v 3.212472 0.729889 0.050000
v 3.212472 0.729889 -0.050000
v 3.142546 0.683444 0.050000
v 3.142546 0.683444 -0.050000
v 3.088176 0.639000 0.050000
v 3.088176 0.639000 -0.050000
v 3.136176 0.578000 0.050000
v 3.136176 0.578000 -0.050000
v 3.188880 0.623815 0.050000
v 3.188880 0.623815 -0.050000
v 3.257806 0.673185 0.050000
v 3.257806 0.673185 -0.050000
v 3.329176 0.717000 0.050000
v 3.329176 0.717000 -0.050000
v 3.284176 0.771000 0.050000
v 3.284176 0.771000 -0.050000
v 3.078176 0.329000 0.050000
v 3.078176 0.329000 -0.050000
v 3.141695 0.223815 0.050000
v 3.141695 0.223815 -0.050000
v 3.209658 0.118185 0.050000
v 3.209658 0.118185 -0.050000
v 3.275176 0.021000 0.050000
v 3.275176 0.021000 -0.050000
v 3.344176 0.073000 0.050000
v 3.344176 0.073000 -0.050000
v 3.278917 0.160556 0.050000
v 3.278917 0.160556 -0.050000
v 3.206102 0.267444 0.050000
v 3.206102 0.267444 -0.050000
v 3.136176 0.379000 0.050000
v 3.136176 0.379000 -0.050000
v 2.864139 0.772370 0.050000
v 2.864139 0.772370 -0.050000
v 2.877880 0.720630 0.050000
v 2.877880 0.720630 -0.050000
v 2.893176 0.670000 0.050000
v 2.893176 0.670000 -0.050000
v 2.524176 0.670000 0.050000
v 2.524176 0.670000 -0.050000
v 2.509176 0.674000 0.050000
v 2.509176 0.674000 -0.050000
v 2.454176 0.644000 0.050000
v 2.454176 0.644000 -0.050000
v 2.485176 0.545000 0.050000
v 2.485176 0.545000 -0.050000
v 2.522176 0.450667 0.050000
v 2.522176 0.450667 -0.050000
v 2.559176 0.371000 0.050000
v 2.559176 0.371000 -0.050000
v 2.578880 0.381519 0.050000
v 2.578880 0.381519 -0.050000
v 2.602139 0.393148 0.050000
v 2.602139 0.393148 -0.050000
v 2.623176 0.403000 0.050000
v 2.623176 0.403000 -0.050000
v 2.597547 0.459037 0.050000
v 2.597547 0.459037 -0.050000
v 2.571472 0.525963 0.050000
v 2.571472 0.525963 -0.050000
v 2.549176 0.596000 0.050000
v 2.549176 0.596000 -0.050000
v 2.918176 0.596000 0.050000
v 2.918176 0.596000 -0.050000
v 2.950806 0.517259 0.050000
v 2.950806 0.517259 -0.050000
v 2.986547 0.446074 0.050000
v 2.986547 0.446074 -0.050000
v 3.025176 0.384000 0.050000
v 3.025176 0.384000 -0.050000
v 3.046065 0.398222 0.050000
v 3.046065 0.398222 -0.050000
v 3.072954 0.413778 0.050000
v 3.072954 0.413778 -0.050000
v 3.097176 0.426000 0.050000
v 3.097176 0.426000 -0.050000
v 3.027287 0.541333 0.050000
v 3.027287 0.541333 -0.050000
v 2.972065 0.683333 0.050000
v 2.972065 0.683333 -0.050000
v 2.932176 0.840000 0.050000
v 2.932176 0.840000 -0.050000
v 2.852176 0.825000 0.050000
v 2.852176 0.825000 -0.050000
v 2.737176 0.484000 0.050000
v 2.737176 0.484000 -0.050000
v 2.737472 0.460630 0.050000
v 2.737472 0.460630 -0.050000
v 2.738213 0.436370 0.050000
v 2.738213 0.436370 -0.050000
v 2.739176 0.411000 0.050000
v 2.739176 0.411000 -0.050000
v 2.676435 0.227296 0.050000
v 2.676435 0.227296 -0.050000
v 2.573917 0.084704 0.050000
v 2.573917 0.084704 -0.050000
v 2.425176 -0.007000 0.050000
v 2.425176 -0.007000 -0.050000
v 2.443472 -0.026333 0.050000
v 2.443472 -0.026333 -0.050000
v 2.461546 -0.050333 0.050000
v 2.461546 -0.050333 -0.050000
v 2.475176 -0.073000 0.050000
v 2.475176 -0.073000 -0.050000
v 2.602621 0.006185 0.050000
v 2.602621 0.006185 -0.050000
v 2.698065 0.119815 0.050000
v 2.698065 0.119815 -0.050000
v 2.766176 0.265000 0.050000
v 2.766176 0.265000 -0.050000
v 2.823472 0.142296 0.050000
v 2.823472 0.142296 -0.050000
v 2.926547 0.023370 0.050000
v 2.926547 0.023370 -0.050000
v 3.089176 -0.084000 0.050000
v 3.089176 -0.084000 -0.050000
v 3.105065 -0.063852 0.050000
v 3.105065 -0.063852 -0.050000
v 3.125621 -0.042815 0.050000
v 3.125621 -0.042815 -0.050000
v 3.146176 -0.026000 0.050000
v 3.146176 -0.026000 -0.050000
v 2.924435 0.141370 0.050000
v 2.924435 0.141370 -0.050000
v 2.834250 0.322296 0.050000
v 2.834250 0.322296 -0.050000
v 2.817176 0.485000 0.050000
v 2.817176 0.485000 -0.050000
v 2.817176 0.547000 0.050000
v 2.817176 0.547000 -0.050000
v 2.737176 0.547000 0.050000
v 2.737176 0.547000 -0.050000
v 2.203472 0.214815 0.050000
v 2.203472 0.214815 -0.050000
v 2.163880 0.155185 0.050000
v 2.163880 0.155185 -0.050000
v 2.117176 0.136000 0.050000
v 2.117176 0.136000 -0.050000
v 2.068472 0.159630 0.050000
v 2.068472 0.159630 -0.050000
v 2.017547 0.235704 0.050000
v 2.017547 0.235704 -0.050000
v 1.966176 0.372000 0.050000
v 1.966176 0.372000 -0.050000
v 1.942991 0.458444 0.050000
v 1.942991 0.458444 -0.050000
v 1.924028 0.549556 0.050000
v 1.924028 0.549556 -0.050000
v 1.910176 0.642000 0.050000
v 1.910176 0.642000 -0.050000
v 2.075880 0.577556 0.050000
v 2.075880 0.577556 -0.050000
v 2.182472 0.457111 0.050000
v 2.182472 0.457111 -0.050000
v 2.220176 0.318000 0.050000
v 2.220176 0.318000 -0.050000
v 1.954028 0.182815 0.050000
v 1.954028 0.182815 -0.050000
v 2.031991 0.078852 0.050000
v 2.031991 0.078852 -0.050000
v 2.120176 0.044000 0.050000
v 2.120176 0.044000 -0.050000
v 2.205880 0.076556 0.050000
v 2.205880 0.076556 -0.050000
v 2.271806 0.168444 0.050000
v 2.271806 0.168444 -0.050000
v 2.298176 0.311000 0.050000
v 2.298176 0.311000 -0.050000
v 2.239102 0.512963 0.050000
v 2.239102 0.512963 -0.050000
v 2.082917 0.660704 0.050000
v 2.082917 0.660704 -0.050000
v 1.861176 0.718000 0.050000
v 1.861176 0.718000 -0.050000
v 1.657880 0.667704 0.050000
v 1.657880 0.667704 -0.050000
v 1.525472 0.535630 0.050000
v 1.525472 0.535630 -0.050000
v 1.478176 0.350000 0.050000
v 1.478176 0.350000 -0.050000
v 1.522732 0.164778 0.050000
v 1.522732 0.164778 -0.050000
v 1.650621 0.034889 0.050000
v 1.650621 0.034889 -0.050000
v 1.853176 -0.031000 0.050000
v 1.853176 -0.031000 -0.050000
v 1.900176 0.043000 0.050000
v 1.900176 0.043000 -0.050000
v 1.868769 0.046593 0.050000
v 1.868769 0.046593 -0.050000
v 1.839584 0.051074 0.050000
v 1.839584 0.051074 -0.050000
v 1.814176 0.056000 0.050000
v 1.814176 0.056000 -0.050000
v 1.691435 0.107444 0.050000
v 1.691435 0.107444 -0.050000
v 1.597584 0.205556 0.050000
v 1.597584 0.205556 -0.050000
v 1.560176 0.353000 0.050000
v 1.560176 0.353000 -0.050000
v 1.591621 0.492222 0.050000
v 1.591621 0.492222 -0.050000
v 1.682398 0.595444 0.050000
v 1.682398 0.595444 -0.050000
v 1.827176 0.644000 0.050000
v 1.827176 0.644000 -0.050000
v 1.842287 0.547963 0.050000
v 1.842287 0.547963 -0.050000
v 1.862065 0.450370 0.050000
v 1.862065 0.450370 -0.050000
v 1.887176 0.355000 0.050000
v 1.887176 0.355000 -0.050000
v 0.654065 0.530815 0.050000
v 0.654065 0.530815 -0.050000
v 0.711621 0.428852 0.050000
v 0.711621 0.428852 -0.050000
v 0.779176 0.332000 0.050000
v 0.779176 0.332000 -0.050000
v 0.671250 0.232037 0.050000
v 0.671250 0.232037 -0.050000
v 0.568435 0.125630 0.050000
v 0.568435 0.125630 -0.050000
v 0.487176 0.033000 0.050000
v 0.487176 0.033000 -0.050000
v 0.557176 -0.027000 0.050000
v 0.557176 -0.027000 -0.050000
v 0.635583 0.069333 0.050000
v 0.635583 0.069333 -0.050000
v 0.730435 0.172333 0.050000
v 0.730435 0.172333 -0.050000
v 0.832176 0.270000 0.050000
v 0.832176 0.270000 -0.050000
v 0.947954 0.158074 0.050000
v 0.947954 0.158074 -0.050000
v 1.079065 0.057926 0.050000
v 1.079065 0.057926 -0.050000
v 1.222176 -0.022000 0.050000
v 1.222176 -0.022000 -0.050000
v 1.286176 0.045000 0.050000
v 1.286176 0.045000 -0.050000
v 1.130695 0.124444 0.050000
v 1.130695 0.124444 -0.050000
v 0.990991 0.227889 0.050000
v 0.990991 0.227889 -0.050000
v 0.874176 0.342000 0.050000
v 0.874176 0.342000 -0.050000
v 0.806472 0.429852 0.050000
v 0.806472 0.429852 -0.050000
v 0.747213 0.528148 0.050000
v 0.747213 0.528148 -0.050000
v 0.708176 0.620000 0.050000
v 0.708176 0.620000 -0.050000
v 0.817509 0.620000 0.050000
v 0.817509 0.620000 -0.050000
v 0.989509 0.620000 0.050000
v 0.989509 0.620000 -0.050000
v 1.098176 0.620000 0.050000
v 1.098176 0.620000 -0.050000
v 1.137472 0.618926 0.050000
v 1.137472 0.618926 -0.050000
v 1.175880 0.616741 0.050000
v 1.175880 0.616741 -0.050000
v 1.199176 0.615000 0.050000
v 1.199176 0.615000 -0.050000
v 1.199176 0.706000 0.050000
v 1.199176 0.706000 -0.050000
v 1.173435 0.703556 0.050000
v 1.173435 0.703556 -0.050000
v 1.134583 0.701111 0.050000
v 1.134583 0.701111 -0.050000
v 1.098176 0.700000 0.050000
v 1.098176 0.700000 -0.050000
v 0.988546 0.700000 0.050000
v 0.988546 0.700000 -0.050000
v 0.819806 0.700000 0.050000
v 0.819806 0.700000 -0.050000
v 0.712176 0.700000 0.050000
v 0.712176 0.700000 -0.050000
v 0.681621 0.700963 0.050000
v 0.681621 0.700963 -0.050000
v 0.656398 0.703704 0.050000
v 0.656398 0.703704 -0.050000
v 0.637176 0.708000 0.050000
v 0.637176 0.708000 -0.050000
v 0.586176 0.669000 0.050000
v 0.586176 0.669000 -0.050000
v 0.593991 0.657148 0.050000
v 0.593991 0.657148 -0.050000
v 0.603361 0.640852 0.050000
v 0.603361 0.640852 -0.050000
v 0.611176 0.625000 0.050000
v 0.611176 0.625000 -0.050000
v -0.037379 0.734000 0.050000
v -0.037379 0.734000 -0.050000
v -0.207268 0.734000 0.050000
v -0.207268 0.734000 -0.050000
v -0.323824 0.734000 0.050000
v -0.323824 0.734000 -0.050000
v -0.353935 0.734667 0.050000
v -0.353935 0.734667 -0.050000
v -0.386046 0.736667 0.050000
v -0.386046 0.736667 -0.050000
v -0.416824 0.740000 0.050000
v -0.416824 0.740000 -0.050000
v -0.416824 0.657000 0.050000
v -0.416824 0.657000 -0.050000
v -0.386268 0.658667 0.050000
v -0.386268 0.658667 -0.050000
v -0.354379 0.659667 0.050000
v -0.354379 0.659667 -0.050000
v -0.323824 0.660000 0.050000
v -0.323824 0.660000 -0.050000
v -0.207305 0.660000 0.050000
v -0.207305 0.660000 -0.050000
v -0.037676 0.660000 0.050000
v -0.037676 0.660000 -0.050000
v 0.080176 0.660000 0.050000
v 0.080176 0.660000 -0.050000
v 0.112880 0.659667 0.050000
v 0.112880 0.659667 -0.050000
v 0.143806 0.658667 0.050000
v 0.143806 0.658667 -0.050000
v 0.171176 0.657000 0.050000
v 0.171176 0.657000 -0.050000
v 0.171176 0.740000 0.050000
v 0.171176 0.740000 -0.050000
v 0.142509 0.737111 0.050000
v 0.142509 0.737111 -0.050000
v 0.112509 0.734889 0.050000
v 0.112509 0.734889 -0.050000
v 0.081176 0.734000 0.050000
v 0.081176 0.734000 -0.050000
v 0.020361 0.484000 0.050000
v 0.020361 0.484000 -0.050000
v -0.270342 0.484000 0.050000
v -0.270342 0.484000 -0.050000
v -0.450824 0.484000 0.050000
v -0.450824 0.484000 -0.050000
v -0.475046 0.484407 0.050000
v -0.475046 0.484407 -0.050000
v -0.502602 0.485926 0.050000
v -0.502602 0.485926 -0.050000
v -0.528824 0.489000 0.050000
v -0.528824 0.489000 -0.050000
v -0.528824 0.406000 0.050000
v -0.528824 0.406000 -0.050000
v -0.504157 0.406963 0.050000
v -0.504157 0.406963 -0.050000
v -0.476824 0.407704 0.050000
v -0.476824 0.407704 -0.050000
v -0.450824 0.408000 0.050000
v -0.450824 0.408000 -0.050000
v -0.178824 0.408000 0.050000
v -0.178824 0.408000 -0.050000
v -0.171083 0.305667 0.050000
v -0.171083 0.305667 -0.050000
v -0.152231 0.214667 0.050000
v -0.152231 0.214667 -0.050000
v -0.119824 0.135000 0.050000
v -0.119824 0.135000 -0.050000
v -0.071639 0.067556 0.050000
v -0.071639 0.067556 -0.050000
v -0.003676 0.004111 0.050000
v -0.003676 0.004111 -0.050000
v 0.077176 -0.048000 0.050000
v 0.077176 -0.048000 -0.050000
v 0.151176 0.007000 0.050000
v 0.151176 0.007000 -0.050000
v 0.076176 0.046889 0.050000
v 0.076176 0.046889 -0.050000
v 0.011176 0.099444 0.050000
v 0.011176 0.099444 -0.050000
v -0.037824 0.160000 0.050000
v -0.037824 0.160000 -0.050000
v -0.071750 0.234519 0.050000
v -0.071750 0.234519 -0.050000
v -0.089231 0.317481 0.050000
v -0.089231 0.317481 -0.050000
v -0.095824 0.408000 0.050000
v -0.095824 0.408000 -0.050000
v 0.204176 0.408000 0.050000
v 0.204176 0.408000 -0.050000
v 0.233843 0.407926 0.050000
v 0.233843 0.407926 -0.050000
v 0.262843 0.407407 0.050000
v 0.262843 0.407407 -0.050000
v 0.291176 0.406000 0.050000
v 0.291176 0.406000 -0.050000
v 0.291176 0.489000 0.050000
v 0.291176 0.489000 -0.050000
v 0.263065 0.486370 0.050000
v 0.263065 0.486370 -0.050000
v 0.234287 0.484630 0.050000
v 0.234287 0.484630 -0.050000
v 0.204176 0.484000 0.050000
v 0.204176 0.484000 -0.050000
v -1.013343 0.428000 0.050000
v -1.013343 0.428000 -0.050000
v -1.244306 0.428000 0.050000
v -1.244306 0.428000 -0.050000
v -1.402824 0.428000 0.050000
v -1.402824 0.428000 -0.050000
v -1.448157 0.428852 0.050000
v -1.448157 0.428852 -0.050000
v -1.484157 0.430815 0.050000
v -1.484157 0.430815 -0.050000
v -1.510824 0.433000 0.050000
v -1.510824 0.433000 -0.050000
v -1.510824 0.335000 0.050000
v -1.510824 0.335000 -0.050000
v -1.484194 0.336741 0.050000
v -1.484194 0.336741 -0.050000
v -1.447120 0.338926 0.050000
v -1.447120 0.338926 -0.050000
v -1.403824 0.340000 0.050000
v -1.403824 0.340000 -0.050000
v -1.244824 0.340000 0.050000
v -1.244824 0.340000 -0.050000
v -1.013824 0.340000 0.050000
v -1.013824 0.340000 -0.050000
v -0.854824 0.340000 0.050000
v -0.854824 0.340000 -0.050000
v -0.801231 0.339370 0.050000
v -0.801231 0.339370 -0.050000
v -0.753417 0.337630 0.050000
v -0.753417 0.337630 -0.050000
v -0.715824 0.335000 0.050000
v -0.715824 0.335000 -0.050000
v -0.715824 0.433000 0.050000
v -0.715824 0.433000 -0.050000
v -0.752750 0.430815 0.050000
v -0.752750 0.430815 -0.050000
v -0.800565 0.428852 0.050000
v -0.800565 0.428852 -0.050000
v -0.854824 0.428000 0.050000
v -0.854824 0.428000 -0.050000
v -2.365824 0.565000 0.050000
v -2.365824 0.565000 -0.050000
v -2.338454 0.618852 0.050000
v -2.338454 0.618852 -0.050000
v -2.307528 0.673148 0.050000
v -2.307528 0.673148 -0.050000
v -2.274824 0.723000 0.050000
v -2.274824 0.723000 -0.050000
v -2.329824 0.746000 0.050000
v -2.329824 0.746000 -0.050000
v -2.359935 0.700259 0.050000
v -2.359935 0.700259 -0.050000
v -2.394046 0.644074 0.050000
v -2.394046 0.644074 -0.050000
v -2.422824 0.591000 0.050000
v -2.422824 0.591000 -0.050000
v -2.499824 0.615000 0.050000
v -2.499824 0.615000 -0.050000
v -2.470750 0.668741 0.050000
v -2.470750 0.668741 -0.050000
v -2.438565 0.721593 0.050000
v -2.438565 0.721593 -0.050000
v -2.404824 0.770000 0.050000
v -2.404824 0.770000 -0.050000
v -2.460824 0.794000 0.050000
v -2.460824 0.794000 -0.050000
v -2.492157 0.749000 0.050000
v -2.492157 0.749000 -0.050000
v -2.526824 0.693333 0.050000
v -2.526824 0.693333 -0.050000
v -2.556824 0.641000 0.050000
v -2.556824 0.641000 -0.050000
v -2.072824 0.551000 0.050000
v -2.072824 0.551000 -0.050000
v -2.008639 0.596963 0.050000
v -2.008639 0.596963 -0.050000
v -1.928676 0.650037 0.050000
v -1.928676 0.650037 -0.050000
v -1.857824 0.694000 0.050000
v -1.857824 0.694000 -0.050000
v -1.902824 0.761000 0.050000
v -1.902824 0.761000 -0.050000
v -1.975750 0.716667 0.050000
v -1.975750 0.716667 -0.050000
v -2.057565 0.663000 0.050000
v -2.057565 0.663000 -0.050000
v -2.119824 0.620000 0.050000
v -2.119824 0.620000 -0.050000
v -2.241861 0.268037 0.050000
v -2.241861 0.268037 -0.050000
v -2.369453 0.392296 0.050000
v -2.369453 0.392296 -0.050000
v -2.466824 0.529000 0.050000
v -2.466824 0.529000 -0.050000
v -2.514824 0.446000 0.050000
v -2.514824 0.446000 -0.050000
v -2.411898 0.314778 0.050000
v -2.411898 0.314778 -0.050000
v -2.281416 0.193556 0.050000
v -2.281416 0.193556 -0.050000
v -2.129824 0.089000 0.050000
v -2.129824 0.089000 -0.050000
v -2.020231 0.034852 0.050000
v -2.020231 0.034852 -0.050000
v -1.903750 -0.007519 0.050000
v -1.903750 -0.007519 -0.050000
v -1.798824 -0.035000 0.050000
v -1.798824 -0.035000 -0.050000
v -1.752824 0.046000 0.050000
v -1.752824 0.046000 -0.050000
v -1.865676 0.071852 0.050000
v -1.865676 0.071852 -0.050000
v -1.980306 0.110815 0.050000
v -1.980306 0.110815 -0.050000
v -2.087824 0.162000 0.050000
v -2.087824 0.162000 -0.050000
v -1.925824 0.331000 0.050000
v -1.925824 0.331000 -0.050000
v -1.860379 0.375630 0.050000
v -1.860379 0.375630 -0.050000
v -1.779602 0.426704 0.050000
v -1.779602 0.426704 -0.050000
v -1.706824 0.468000 0.050000
v -1.706824 0.468000 -0.050000
v -1.751824 0.536000 0.050000
v -1.751824 0.536000 -0.050000
v -1.825268 0.493667 0.050000
v -1.825268 0.493667 -0.050000
v -1.908046 0.442667 0.050000
v -1.908046 0.442667 -0.050000
v -1.970824 0.401000 0.050000
v -1.970824 0.401000 -0.050000
v -2.802861 0.410185 0.050000
v -2.802861 0.410185 -0.050000
v -2.872120 0.497482 0.050000
v -2.872120 0.497482 -0.050000
v -2.937824 0.579000 0.050000
v -2.937824 0.579000 -0.050000
v -2.995009 0.626963 0.050000
v -2.995009 0.626963 -0.050000
v -3.051972 0.632037 0.050000
v -3.051972 0.632037 -0.050000
v -3.113824 0.590000 0.050000
v -3.113824 0.590000 -0.050000
v -3.178824 0.518407 0.050000
v -3.178824 0.518407 -0.050000
v -3.247824 0.437259 0.050000
v -3.247824 0.437259 -0.050000
v -3.314824 0.361000 0.050000
v -3.314824 0.361000 -0.050000
v -3.386750 0.283926 0.050000
v -3.386750 0.283926 -0.050000
v -3.473565 0.195741 0.050000
v -3.473565 0.195741 -0.050000
v -3.564824 0.110000 0.050000
v -3.564824 0.110000 -0.050000
v -3.500824 0.037000 0.050000
v -3.500824 0.037000 -0.050000
v -3.421898 0.116296 0.050000
v -3.421898 0.116296 -0.050000
v -3.340750 0.204037 0.050000
v -3.340750 0.204037 -0.050000
v -3.265824 0.288000 0.050000
v -3.265824 0.288000 -0.050000
v -3.198676 0.366889 0.050000
v -3.198676 0.366889 -0.050000
v -3.133306 0.445778 0.050000
v -3.133306 0.445778 -0.050000
v -3.078824 0.510000 0.050000
v -3.078824 0.510000 -0.050000
v -3.042342 0.539000 0.050000
v -3.042342 0.539000 -0.050000
v -3.012972 0.536667 0.050000
v -3.012972 0.536667 -0.050000
v -2.981824 0.507000 0.050000
v -2.981824 0.507000 -0.050000
v -2.925861 0.434667 0.050000
v -2.925861 0.434667 -0.050000
v -2.861454 0.350333 0.050000
v -2.861454 0.350333 -0.050000
v -2.802824 0.276000 0.050000
v -2.802824 0.276000 -0.050000
v -2.781528 0.249148 0.050000
v -2.781528 0.249148 -0.050000
v -2.761120 0.222519 0.050000
v -2.761120 0.222519 -0.050000
v -2.743824 0.199000 0.050000
v -2.743824 0.199000 -0.050000
v -2.669824 0.274000 0.050000
v -2.669824 0.274000 -0.050000
v -2.693602 0.293556 0.050000
v -2.693602 0.293556 -0.050000
v -2.716712 0.315111 0.050000
v -2.716712 0.315111 -0.050000
v -2.741824 0.340000 0.050000
v -2.741824 0.340000 -0.050000
vn -0.0000 -0.0000 -1.0000
vn -0.0000 -0.0000 1.0000
vn -0.5938 0.8046 -0.0000
vn -0.5256 0.8507 -0.0000
vn -0.9940 0.1092 -0.0000
vn -0.0941 -0.9956 -0.0000
vn 0.6199 -0.7847 -0.0000
vn 0.5531 -0.8331 -0.0000
vn 0.9868 -0.1620 -0.0000
vn 0.1768 0.9842 -0.0000
vn 0.1768 0.9843 -0.0000
vn -0.8486 -0.5291 -0.0000
vn -0.9875 0.1574 -0.0000
vn -0.8351 -0.5501 -0.0000
vn -0.1652 -0.9863 -0.0000
vn 0.9899 -0.1418 -0.0000
vn -0.1651 -0.9863 -0.0000
vn 0.8143 0.5804 -0.0000
vn 0.9899 -0.1417 -0.0000
vn 0.8370 0.5472 -0.0000
vn 0.1492 0.9888 -0.0000
vn 0.1491 0.9888 -0.0000
vn -0.9620 -0.2730 -0.0000
vn -0.9710 -0.2392 -0.0000
vn -0.8029 0.5962 -0.0000
vn 0.1299 0.9915 -0.0000
vn -0.8029 0.5961 -0.0000
vn -0.1191 0.9929 -0.0000
vn -0.9272 0.3746 -0.0000
vn -0.9432 -0.3322 -0.0000
vn -0.9194 -0.3934 -0.0000
vn -0.3173 -0.9483 -0.0000
vn 0.4591 -0.8884 -0.0000
vn 0.4357 -0.9001 -0.0000
vn 0.9387 -0.3447 -0.0000
vn 0.9210 0.3896 -0.0000
vn 0.9428 0.3334 -0.0000
vn 0.8073 -0.5902 -0.0000
vn -0.5555 -0.8315 -0.0000
vn -0.9093 -0.4160 -0.0000
vn -0.8723 -0.4890 -0.0000
vn -0.2067 -0.9784 -0.0000
vn 0.5321 -0.8467 -0.0000
vn 0.4758 -0.8795 -0.0000
vn 0.9612 -0.2757 -0.0000
vn 0.8970 0.4420 -0.0000
vn 0.9523 0.3052 -0.0000
vn 0.5380 0.8429 -0.0000
vn -0.8359 0.5489 -0.0000
vn 0.5380 0.8430 -0.0000
vn -0.8359 0.5488 -0.0000
vn -0.9998 -0.0216 -0.0000
vn -1.0000 -0.0063 -0.0000
vn -0.9994 -0.0342 -0.0000
vn -0.9894 0.1451 -0.0000
vn -0.8887 0.4584 -0.0000
vn -0.6816 0.7317 -0.0000
vn -0.9915 0.1299 -0.0000
vn -0.7638 -0.6455 -0.0000
vn -0.8290 -0.5592 -0.0000
vn -0.2345 -0.9721 -0.0000
vn 0.6549 -0.7557 -0.0000
vn 0.8426 -0.5385 -0.0000
vn -0.0009 -1.0000 -0.0000
vn -0.8389 -0.5442 -0.0000
vn -0.6595 -0.7517 -0.0000
vn 0.1591 -0.9873 -0.0000
vn 0.7513 -0.6600 -0.0000
vn 0.6752 -0.7376 -0.0000
vn 0.9998 0.0196 -0.0000
vn 0.6753 -0.7376 -0.0000
vn 0.7691 0.6391 -0.0000
vn 0.9998 0.0195 -0.0000
vn 0.9601 0.2797 -0.0000
vn 0.9986 0.0523 -0.0000
vn 0.7071 0.7071 -0.0000
vn -0.7071 0.7071 -0.0000
vn -0.6344 0.7730 -0.0000
vn -0.9311 0.3647 -0.0000
vn 0.0310 0.9995 -0.0000
vn 0.6566 0.7542 -0.0000
vn 0.8892 0.4575 -0.0000
vn 0.9520 0.3062 -0.0000
vn 0.9728 0.2315 -0.0000
vn 0.9844 0.1760 -0.0000
vn 0.6244 -0.7811 -0.0000
vn -0.5717 -0.8204 -0.0000
vn -0.8802 -0.4747 -0.0000
vn -0.9986 -0.0521 -0.0000
vn -0.8802 -0.4746 -0.0000
vn -0.6067 -0.7950 -0.0000
vn -0.8743 -0.4855 -0.0000
vn -0.0067 -1.0000 -0.0000
vn 0.6097 -0.7926 -0.0000
vn 0.9200 -0.3918 -0.0000
vn 0.6098 -0.7926 -0.0000
vn 0.9987 0.0508 -0.0000
vn 0.8531 0.5217 -0.0000
vn 0.4840 0.8751 -0.0000
vn 0.0052 1.0000 -0.0000
vn -0.4911 0.8711 -0.0000
vn -0.8688 0.4952 -0.0000
vn -1.0000 0.0067 -0.0000
vn -0.8743 -0.4854 -0.0000
vn -0.5259 -0.8505 -0.0000
vn 0.3384 -0.9410 -0.0000
vn 0.9024 0.4309 -0.0000
vn 0.1327 0.9912 -0.0000
vn 0.1711 0.9853 -0.0000
vn 0.2900 0.9570 -0.0000
vn 0.5665 0.8241 -0.0000
vn 0.8748 0.4845 -0.0000
vn 0.9999 0.0132 -0.0000
vn 0.8908 -0.4544 -0.0000
vn 0.5535 -0.8329 -0.0000
vn -0.5189 -0.8548 -0.0000
vn -0.9842 -0.1771 -0.0000
vn -0.9740 -0.2267 -0.0000
vn -0.9511 -0.3088 -0.0000
vn -0.8465 -0.5324 -0.0000
vn -0.8913 -0.4534 -0.0000
vn -0.9942 0.1071 -0.0000
vn -0.6996 0.7145 -0.0000
vn -0.7357 0.6774 -0.0000
vn -0.9975 -0.0710 -0.0000
vn 0.0894 -0.9960 -0.0000
vn 0.7559 -0.6546 -0.0000
vn 0.7144 -0.6997 -0.0000
vn -0.0017 -1.0000 -0.0000
vn -0.6521 -0.7581 -0.0000
vn -0.0018 -1.0000 -0.0000
vn -0.5487 -0.8360 -0.0000
vn 0.1489 -0.9888 -0.0000
vn 0.9859 0.1671 -0.0000
vn 0.5268 0.8500 -0.0000
vn 0.9859 0.1672 -0.0000
vn 0.6484 0.7613 -0.0000
vn 0.7473 0.6645 -0.0000
vn 0.8256 0.5643 -0.0000
vn 0.8906 0.4548 -0.0000
vn 0.8340 -0.5517 -0.0000
vn -0.0000 -1.0000 -0.0000
vn 0.8340 -0.5518 -0.0000
vn -0.0137 -0.9999 -0.0000
vn -0.0421 -0.9991 -0.0000
vn -0.0657 -0.9978 -0.0000
vn 0.6803 -0.7330 -0.0000
vn 0.6729 0.7398 -0.0000
vn -0.0787 0.9969 -0.0000
vn -0.0467 0.9989 -0.0000
vn -0.0153 0.9999 -0.0000
vn -0.0000 1.0000 -0.0000
vn 0.0158 0.9999 -0.0000
vn 0.0698 0.9976 -0.0000
vn 0.1633 0.9866 -0.0000
vn -0.2148 0.9767 -0.0000
vn -0.9860 0.1667 -0.0000
vn -0.8513 -0.5247 -0.0000
vn -0.8824 -0.4706 -0.0000
vn -0.9036 -0.4284 -0.0000
vn -0.9036 -0.4283 -0.0000
vn 0.0111 0.9999 -0.0000
vn 0.0422 0.9991 -0.0000
vn 0.0849 0.9964 -0.0000
vn -0.6680 0.7442 -0.0000
vn -0.6876 -0.7261 -0.0000
vn 0.0429 -0.9991 -0.0000
vn 0.0211 -0.9998 -0.0000
vn 0.0055 -1.0000 -0.0000
vn -0.0051 -1.0000 -0.0000
vn -0.0213 -0.9998 -0.0000
vn -0.0466 -0.9989 -0.0000
vn 0.6853 -0.7283 -0.0000
vn 0.6707 0.7417 -0.0000
vn -0.0871 0.9962 -0.0000
vn -0.0511 0.9987 -0.0000
vn -0.0142 0.9999 -0.0000
vn 0.0084 1.0000 -0.0000
vn 0.0359 0.9994 -0.0000
vn 0.0858 0.9963 -0.0000
vn -0.6647 0.7471 -0.0000
vn -0.6932 -0.7208 -0.0000
vn 0.0331 -0.9995 -0.0000
vn 0.0192 -0.9998 -0.0000
vn 0.0057 -1.0000 -0.0000
vn -0.6799 -0.7333 -0.0000
vn -0.9902 -0.1394 -0.0000
vn -0.9567 -0.2910 -0.0000
vn -0.8760 -0.4824 -0.0000
vn -0.7518 -0.6594 -0.0000
vn -0.6145 -0.7889 -0.0000
vn 0.0333 -0.9994 -0.0000
vn 0.9972 0.0751 -0.0000
vn 0.5517 0.8341 -0.0000
vn 0.7070 0.7072 -0.0000
vn 0.8505 0.5259 -0.0000
vn 0.9500 0.3122 -0.0000
vn 0.9902 0.1397 -0.0000
vn 0.9500 0.3121 -0.0000
vn 0.7324 -0.6809 -0.0000
vn -0.0012 -1.0000 -0.0000
vn -0.0102 -0.9999 -0.0000
vn -0.0337 -0.9994 -0.0000
vn 0.6894 -0.7244 -0.0000
vn 0.6734 0.7393 -0.0000
vn -0.0768 0.9970 -0.0000
vn -0.0406 0.9992 -0.0000
vn -0.0105 0.9999 -0.0000
vn -0.0407 0.9992 -0.0000
vn 0.0094 1.0000 -0.0000
vn 0.0366 0.9993 -0.0000
vn 0.0681 0.9977 -0.0000
vn -0.6776 0.7354 -0.0000
vn -0.6837 -0.7298 -0.0000
vn 0.0620 -0.9981 -0.0000
vn 0.0418 -0.9991 -0.0000
vn 0.0124 -0.9999 -0.0000
vn -0.0059 -1.0000 -0.0000
vn -0.0241 -0.9997 -0.0000
vn -0.0531 -0.9986 -0.0000
vn 0.6820 -0.7313 -0.0000
vn 0.6859 0.7277 -0.0000
vn -0.0500 0.9987 -0.0000
vn -0.0284 0.9996 -0.0000
vn -0.0078 1.0000 -0.0000
vn 0.8804 -0.4741 -0.0000
vn 0.3300 -0.9440 -0.0000
vn 0.8530 -0.5220 -0.0000
vn 0.8805 -0.4741 -0.0000
vn 0.9562 0.2927 -0.0000
vn -0.2919 0.9564 -0.0000
vn -0.8452 0.5345 -0.0000
vn -0.8672 0.4980 -0.0000
vn -0.9483 -0.3174 -0.0000
vn 0.8671 -0.4981 -0.0000
vn 0.3179 -0.9481 -0.0000
vn 0.8376 -0.5462 -0.0000
vn 0.9614 0.2750 -0.0000
vn -0.2752 0.9614 -0.0000
vn -0.8350 0.5502 -0.0000
vn -0.8584 0.5131 -0.0000
vn -0.9520 -0.3062 -0.0000
vn 0.5677 -0.8232 -0.0000
vn -0.1748 -0.9846 -0.0000
vn 0.5402 -0.8415 -0.0000
vn 0.9776 -0.2104 -0.0000
vn 0.2149 0.9766 -0.0000
vn -0.5341 0.8455 -0.0000
vn -0.5584 0.8296 -0.0000
vn -0.9831 0.1832 -0.0000
vn -0.9831 0.1831 -0.0000
vn 0.7592 0.6509 -0.0000
vn 0.6346 0.7728 -0.0000
vn -0.0473 0.9989 -0.0000
vn -0.9975 -0.0703 -0.0000
vn -0.7360 -0.6770 -0.0000
vn -0.6258 -0.7800 -0.0000
vn -0.5067 -0.8621 -0.0000
vn -0.3930 -0.9195 -0.0000
vn -0.2979 -0.9546 -0.0000
vn 0.3885 -0.9214 -0.0000
vn 0.9153 0.4028 -0.0000
vn 0.3886 -0.9214 -0.0000
vn 0.2729 0.9620 -0.0000
vn 0.3765 0.9264 -0.0000
vn 0.5000 0.8660 -0.0000
vn 0.5490 -0.8358 -0.0000
vn -0.1991 -0.9800 -0.0000
vn -0.1992 -0.9800 -0.0000
vn 0.5141 -0.8577 -0.0000
vn 0.9725 -0.2329 -0.0000
vn 0.2296 0.9733 -0.0000
vn -0.5120 0.8590 -0.0000
vn -0.5388 0.8424 -0.0000
vn -0.9787 0.2053 -0.0000
vn 0.7810 0.6245 -0.0000
vn 0.7692 0.6390 -0.0000
vn 0.7140 0.7002 -0.0000
vn 0.3833 0.9236 -0.0000
vn -0.2513 0.9679 -0.0000
vn -0.6558 0.7549 -0.0000
vn -0.7512 0.6601 -0.0000
vn -0.7566 0.6539 -0.0000
vn -0.7413 0.6712 -0.0000
vn -0.7219 0.6920 -0.0000
vn -0.6988 0.7153 -0.0000
vn -0.9988 0.0484 -0.0000
vn -0.0317 -0.9995 -0.0000
vn -0.9988 0.0483 -0.0000
vn 0.7216 -0.6923 -0.0000
vn -0.0316 -0.9995 -0.0000
vn 0.7402 -0.6724 -0.0000
vn 0.7539 -0.6570 -0.0000
vn 0.7658 -0.6431 -0.0000
vn 0.7663 -0.6425 -0.0000
vn 0.6957 -0.7183 -0.0000
vn 0.2919 -0.9565 -0.0000
vn -0.4079 -0.9130 -0.0000
vn -0.7424 -0.6699 -0.0000
vn -0.7928 -0.6094 -0.0000
vn -0.7900 -0.6131 -0.0000
vn -0.7843 -0.6203 -0.0000
vn -0.7886 -0.6148 -0.0000
vn -0.7997 -0.6004 -0.0000
vn -0.7886 -0.6149 -0.0000
vn -0.0722 -0.9974 -0.0000
vn 0.9987 0.0519 -0.0000
vn 0.6590 0.7522 -0.0000
vn 0.6931 0.7208 -0.0000
vn 0.7298 0.6837 -0.0000
vt 0.096774 0.000000
vt 0.161290 0.000000
vt 0.129032 0.000000
vt 0.064516 0.000000
vt 0.193548 0.000000
vt 0.032258 0.000000
vt 0.645161 0.000000
vt 0.612903 0.000000
vt 0.580645 0.000000
vt 0.677419 0.000000
vt 0.225806 0.000000
vt 0.548387 0.000000
vt 0.709677 0.000000
vt 0.000000 0.000000
vt 0.516129 0.000000
vt 0.258065 0.000000
vt 0.741935 0.000000
vt 1.000000 0.000000
vt 0.483871 0.000000
vt 0.290323 0.000000
vt 0.774194 0.000000
vt 0.967742 0.000000
vt 0.935484 0.000000
vt 0.903226 0.000000
vt 0.451613 0.000000
vt 0.322581 0.000000
vt 0.806452 0.000000
vt 0.870968 0.000000
vt 0.838710 0.000000
vt 0.419355 0.000000
vt 0.354839 0.000000
vt 0.387097 0.000000
vt 0.733333 0.000000
vt 0.777778 0.000000
vt 0.755556 0.000000
vt 0.711111 0.000000
vt 0.800000 0.000000
vt 0.555556 0.000000
vt 0.600000 0.000000
vt 0.577778 0.000000
vt 0.533333 0.000000
vt 0.688889 0.000000
vt 0.622222 0.000000
vt 0.822222 0.000000
vt 0.511111 0.000000
vt 0.666667 0.000000
vt 0.644444 0.000000
vt 0.488889 0.000000
vt 0.911111 0.000000
vt 0.955556 0.000000
vt 0.933333 0.000000
vt 0.977778 0.000000
vt 0.888889 0.000000
vt 0.866667 0.000000
vt 0.844444 0.000000
vt 0.377778 0.000000
vt 0.422222 0.000000
vt 0.400000 0.000000
vt 0.022222 0.000000
vt 0.066667 0.000000
vt 0.044444 0.000000
vt 0.444444 0.000000
vt 0.355556 0.000000
vt 0.088889 0.000000
vt 0.466667 0.000000
vt 0.333333 0.000000
vt 0.311111 0.000000
vt 0.111111 0.000000
vt 0.288889 0.000000
vt 0.133333 0.000000
vt 0.266667 0.000000
vt 0.244444 0.000000
vt 0.155556 0.000000
vt 0.222222 0.000000
vt 0.200000 0.000000
vt 0.177778 0.000000
vt 0.789474 0.000000
vt 0.894737 0.000000
vt 0.842105 0.000000
vt 0.210526 0.000000
vt 0.315789 0.000000
vt 0.263158 0.000000
vt 0.947368 0.000000
vt 0.157895 0.000000
vt 0.105263 0.000000
vt 0.052632 0.000000
vt 0.736842 0.000000
vt 0.684211 0.000000
vt 0.631579 0.000000
vt 0.578947 0.000000
vt 0.526316 0.000000
vt 0.473684 0.000000
vt 0.421053 0.000000
vt 0.368421 0.000000
vt 0.921569 0.000000
vt 0.960784 0.000000
vt 0.941176 0.000000
vt 0.705882 0.000000
vt 0.745098 0.000000
vt 0.725490 0.000000
vt 0.980392 0.000000
vt 0.686275 0.000000
vt 0.627451 0.000000
vt 0.647059 0.000000
vt 0.901961 0.000000
vt 0.882353 0.000000
vt 0.862745 0.000000
vt 0.843137 0.000000
vt 0.823529 0.000000
vt 0.803922 0.000000
vt 0.784314 0.000000
vt 0.764706 0.000000
vt 0.529412 0.000000
vt 0.568627 0.000000
vt 0.549020 0.000000
vt 0.078431 0.000000
vt 0.117647 0.000000
vt 0.098039 0.000000
vt 0.588235 0.000000
vt 0.058824 0.000000
vt 0.607843 0.000000
vt 0.039216 0.000000
vt 0.019608 0.000000
vt 0.509804 0.000000
vt 0.490196 0.000000
vt 0.470588 0.000000
vt 0.196078 0.000000
vt 0.176471 0.000000
vt 0.156863 0.000000
vt 0.137255 0.000000
vt 0.450980 0.000000
vt 0.431373 0.000000
vt 0.215686 0.000000
vt 0.411765 0.000000
vt 0.235294 0.000000
vt 0.392157 0.000000
vt 0.254902 0.000000
vt 0.372549 0.000000
vt 0.274510 0.000000
vt 0.352941 0.000000
vt 0.294118 0.000000
vt 0.313726 0.000000
vt 0.871795 0.000000
vt 0.923077 0.000000
vt 0.897436 0.000000
vt 0.641026 0.000000
vt 0.692308 0.000000
vt 0.846154 0.000000
vt 0.717949 0.000000
vt 0.743590 0.000000
vt 0.820513 0.000000
vt 0.769231 0.000000
vt 0.794872 0.000000
vt 0.615385 0.000000
vt 0.948718 0.000000
vt 0.589744 0.000000
vt 0.974359 0.000000
vt 0.564103 0.000000
vt 0.538462 0.000000
vt 0.512821 0.000000
vt 0.487179 0.000000
vt 0.461538 0.000000
vt 0.025641 0.000000
vt 0.435897 0.000000
vt 0.410256 0.000000
vt 0.051282 0.000000
vt 0.384615 0.000000
vt 0.230769 0.000000
vt 0.076923 0.000000
vt 0.256410 0.000000
vt 0.205128 0.000000
vt 0.102564 0.000000
vt 0.358974 0.000000
vt 0.179487 0.000000
vt 0.282051 0.000000
vt 0.128205 0.000000
vt 0.153846 0.000000
vt 0.307692 0.000000
vt 0.630769 0.000000
vt 0.246154 0.000000
vt 0.261538 0.000000
vt 0.092308 0.000000
vt 0.107692 0.000000
vt 0.015385 0.000000
vt 0.276923 0.000000
vt 0.030769 0.000000
vt 0.584615 0.000000
vt 0.292308 0.000000
vt 0.323077 0.000000
vt 0.061538 0.000000
vt 0.476923 0.000000
vt 0.338462 0.000000
vt 0.046154 0.000000
vt 0.492308 0.000000
vt 0.446154 0.000000
vt 0.969231 0.000000
vt 0.984615 0.000000
vt 0.646154 0.000000
vt 0.353846 0.000000
vt 0.569231 0.000000
vt 0.430769 0.000000
vt 0.507692 0.000000
vt 0.953846 0.000000
vt 0.661538 0.000000
vt 0.676923 0.000000
vt 0.415385 0.000000
vt 0.369231 0.000000
vt 0.553846 0.000000
vt 0.523077 0.000000
vt 0.707692 0.000000
vt 0.215385 0.000000
vt 0.123077 0.000000
vt 0.138462 0.000000
vt 0.938462 0.000000
vt 0.830769 0.000000
vt 0.815385 0.000000
vt 0.723077 0.000000
vt 0.184615 0.000000
vt 0.861538 0.000000
vt 0.169231 0.000000
vt 0.738462 0.000000
vt 0.907692 0.000000
vt 0.892308 0.000000
vt 0.876923 0.000000
vt 0.784615 0.000000
vt 0.753846 0.000000
vt 0.125000 1.000000
vt 0.000000 1.000000
vt 0.250000 1.000000
vt 0.125000 0.000000
vt 0.375000 1.000000
vt 0.250000 0.000000
vt 0.500000 1.000000
vt 0.375000 0.000000
vt 0.625000 1.000000
vt 0.500000 0.000000
vt 0.750000 1.000000
vt 0.625000 0.000000
vt 0.875000 1.000000
vt 0.750000 0.000000
vt 1.000000 1.000000
vt 0.875000 0.000000
vt 0.038462 1.000000
vt 0.076923 1.000000
vt 0.038462 0.000000
vt 0.115385 1.000000
vt 0.153846 1.000000
vt 0.115385 0.000000
vt 0.192308 1.000000
vt 0.230769 1.000000
vt 0.192308 0.000000
vt 0.269231 1.000000
vt 0.307692 1.000000
vt 0.269231 0.000000
vt 0.346154 1.000000
vt 0.384615 1.000000
vt 0.346154 0.000000
vt 0.423077 1.000000
vt 0.461538 1.000000
vt 0.423077 0.000000
vt 0.538462 1.000000
vt 0.576923 1.000000
vt 0.615385 1.000000
vt 0.576923 0.000000
vt 0.653846 1.000000
vt 0.692308 1.000000
vt 0.653846 0.000000
vt 0.730769 1.000000
vt 0.769231 1.000000
vt 0.730769 0.000000
vt 0.807692 1.000000
vt 0.846154 1.000000
vt 0.807692 0.000000
vt 0.884615 1.000000
vt 0.923077 1.000000
vt 0.884615 0.000000
vt 0.961538 1.000000
vt 0.961538 0.000000
vt 0.041667 1.000000
vt 0.083333 1.000000
vt 0.041667 0.000000
vt 0.083333 0.000000
vt 0.166667 1.000000
vt 0.208333 1.000000
vt 0.166667 0.000000
vt 0.208333 0.000000
vt 0.291667 1.000000
vt 0.333333 1.000000
vt 0.291667 0.000000
vt 0.416667 1.000000
vt 0.458333 1.000000
vt 0.416667 0.000000
vt 0.458333 0.000000
vt 0.541667 1.000000
vt 0.583333 1.000000
vt 0.541667 0.000000
vt 0.583333 0.000000
vt 0.666667 1.000000
vt 0.708333 1.000000
vt 0.708333 0.000000
vt 0.791667 1.000000
vt 0.833333 1.000000
vt 0.791667 0.000000
vt 0.833333 0.000000
vt 0.916667 1.000000
vt 0.958333 1.000000
vt 0.916667 0.000000
vt 0.958333 0.000000
vt 0.035714 1.000000
vt 0.071429 1.000000
vt 0.035714 0.000000
vt 0.107143 1.000000
vt 0.071429 0.000000
vt 0.142857 1.000000
vt 0.107143 0.000000
vt 0.178571 1.000000
vt 0.142857 0.000000
vt 0.214286 1.000000
vt 0.178571 0.000000
vt 0.214286 0.000000
vt 0.285714 1.000000
vt 0.321429 1.000000
vt 0.285714 0.000000
vt 0.357143 1.000000
vt 0.321429 0.000000
vt 0.392857 1.000000
vt 0.357143 0.000000
vt 0.428571 1.000000
vt 0.392857 0.000000
vt 0.464286 1.000000
vt 0.428571 0.000000
vt 0.464286 0.000000
vt 0.535714 1.000000
vt 0.571429 1.000000
vt 0.535714 0.000000
vt 0.607143 1.000000
vt 0.571429 0.000000
vt 0.642857 1.000000
vt 0.607143 0.000000
vt 0.678571 1.000000
vt 0.642857 0.000000
vt 0.714286 1.000000
vt 0.678571 0.000000
vt 0.714286 0.000000
vt 0.785714 1.000000
vt 0.821429 1.000000
vt 0.785714 0.000000
vt 0.857143 1.000000
vt 0.821429 0.000000
vt 0.892857 1.000000
vt 0.857143 0.000000
vt 0.928571 1.000000
vt 0.892857 0.000000
vt 0.964286 1.000000
vt 0.928571 0.000000
vt 0.964286 0.000000
vt 0.025000 1.000000
vt 0.050000 1.000000
vt 0.025000 0.000000
vt 0.075000 1.000000
vt 0.050000 0.000000
vt 0.100000 1.000000
vt 0.075000 0.000000
vt 0.100000 0.000000
vt 0.150000 1.000000
vt 0.175000 1.000000
vt 0.150000 0.000000
vt 0.200000 1.000000
vt 0.175000 0.000000
vt 0.225000 1.000000
vt 0.225000 0.000000
vt 0.275000 1.000000
vt 0.300000 1.000000
vt 0.275000 0.000000
vt 0.325000 1.000000
vt 0.300000 0.000000
vt 0.350000 1.000000
vt 0.325000 0.000000
vt 0.350000 0.000000
vt 0.400000 1.000000
vt 0.425000 1.000000
vt 0.450000 1.000000
vt 0.425000 0.000000
vt 0.475000 1.000000
vt 0.450000 0.000000
vt 0.475000 0.000000
vt 0.525000 1.000000
vt 0.550000 1.000000
vt 0.525000 0.000000
vt 0.575000 1.000000
vt 0.550000 0.000000
vt 0.600000 1.000000
vt 0.575000 0.000000
vt 0.650000 1.000000
vt 0.675000 1.000000
vt 0.650000 0.000000
vt 0.700000 1.000000
vt 0.675000 0.000000
vt 0.725000 1.000000
vt 0.700000 0.000000
vt 0.725000 0.000000
vt 0.775000 1.000000
vt 0.800000 1.000000
vt 0.775000 0.000000
vt 0.825000 1.000000
vt 0.850000 1.000000
vt 0.825000 0.000000
vt 0.850000 0.000000
vt 0.900000 1.000000
vt 0.925000 1.000000
vt 0.900000 0.000000
vt 0.950000 1.000000
vt 0.925000 0.000000
vt 0.975000 1.000000
vt 0.950000 0.000000
vt 0.975000 0.000000
vt 0.031250 1.000000
vt 0.062500 1.000000
vt 0.031250 0.000000
vt 0.093750 1.000000
vt 0.062500 0.000000
vt 0.093750 0.000000
vt 0.156250 1.000000
vt 0.187500 1.000000
vt 0.156250 0.000000
vt 0.218750 1.000000
vt 0.187500 0.000000
vt 0.218750 0.000000
vt 0.281250 1.000000
vt 0.312500 1.000000
vt 0.281250 0.000000
vt 0.343750 1.000000
vt 0.312500 0.000000
vt 0.343750 0.000000
vt 0.406250 1.000000
vt 0.437500 1.000000
vt 0.406250 0.000000
vt 0.468750 1.000000
vt 0.437500 0.000000
vt 0.468750 0.000000
vt 0.531250 1.000000
vt 0.562500 1.000000
vt 0.531250 0.000000
vt 0.593750 1.000000
vt 0.562500 0.000000
vt 0.593750 0.000000
vt 0.656250 1.000000
vt 0.687500 1.000000
vt 0.656250 0.000000
vt 0.718750 1.000000
vt 0.687500 0.000000
vt 0.718750 0.000000
vt 0.781250 1.000000
vt 0.812500 1.000000
vt 0.781250 0.000000
vt 0.843750 1.000000
vt 0.812500 0.000000
vt 0.843750 0.000000
vt 0.906250 1.000000
vt 0.937500 1.000000
vt 0.906250 0.000000
vt 0.968750 1.000000
vt 0.937500 0.000000
vt 0.968750 0.000000
s 0
usemtl マテリアル.001
f 4/1/1 6/2/1 5/3/1
f 3/4/1 6/2/1 4/1/1
f 3/4/1 7/5/1 6/2/1
f 2/6/1 21/7/1 3/4/1
f 21/7/1 20/8/1 3/4/1
f 20/8/1 7/5/1 3/4/1
f 19/9/1 7/5/1 20/8/1
f 2/6/1 22/10/1 21/7/1
f 19/9/1 8/11/1 7/5/1
f 18/12/1 8/11/1 19/9/1
f 2/6/1 23/13/1 22/10/1
f 1/14/1 23/13/1 2/6/1
f 17/15/1 8/11/1 18/12/1
f 17/15/1 9/16/1 8/11/1
f 1/14/1 24/17/1 23/13/1
f 32/18/1 24/17/1 1/14/1
f 16/19/1 9/16/1 17/15/1
f 16/19/1 10/20/1 9/16/1
f 32/18/1 25/21/1 24/17/1
f 31/22/1 25/21/1 32/18/1
f 30/23/1 25/21/1 31/22/1
f 29/24/1 25/21/1 30/23/1
f 15/25/1 10/20/1 16/19/1
f 15/25/1 11/26/1 10/20/1
f 29/24/1 26/27/1 25/21/1
f 28/28/1 27/29/1 29/24/1
f 27/29/1 26/27/1 29/24/1
f 14/30/1 11/26/1 15/25/1
f 14/30/1 12/31/1 11/26/1
f 13/32/1 12/31/1 14/30/1
f 66/33/1 68/34/1 67/35/1
f 65/36/1 68/34/1 66/33/1
f 65/36/1 69/37/1 68/34/1
f 58/38/1 60/39/1 59/40/1
f 57/41/1 60/39/1 58/38/1
f 64/42/1 69/37/1 65/36/1
f 57/41/1 61/43/1 60/39/1
f 64/42/1 70/44/1 69/37/1
f 56/45/1 61/43/1 57/41/1
f 63/46/1 70/44/1 64/42/1
f 56/45/1 62/47/1 61/43/1
f 55/48/1 62/47/1 56/45/1
f 74/49/1 76/50/1 75/51/1
f 74/49/1 77/52/1 76/50/1
f 73/53/1 77/52/1 74/49/1
f 73/53/1 78/18/1 77/52/1
f 72/54/1 78/18/1 73/53/1
f 72/54/1 71/55/1 78/18/1
f 50/56/1 52/57/1 51/58/1
f 34/59/1 36/60/1 35/61/1
f 50/56/1 53/62/1 52/57/1
f 49/63/1 53/62/1 50/56/1
f 34/59/1 37/64/1 36/60/1
f 49/63/1 54/65/1 53/62/1
f 48/66/1 54/65/1 49/63/1
f 48/66/1 47/67/1 54/65/1
f 33/14/1 37/64/1 34/59/1
f 33/14/1 38/68/1 37/64/1
f 46/69/1 38/68/1 33/14/1
f 46/69/1 39/70/1 38/68/1
f 45/71/1 39/70/1 46/69/1
f 44/72/1 39/70/1 45/71/1
f 44/72/1 40/73/1 39/70/1
f 43/74/1 40/73/1 44/72/1
f 42/75/1 40/73/1 43/74/1
f 42/75/1 41/76/1 40/73/1
f 94/77/1 96/78/1 95/79/1
f 83/80/1 85/81/1 84/82/1
f 94/77/1 97/83/1 96/78/1
f 82/84/1 85/81/1 83/80/1
f 94/77/1 98/18/1 97/83/1
f 81/85/1 85/81/1 82/84/1
f 94/77/1 79/14/1 98/18/1
f 94/77/1 80/86/1 79/14/1
f 94/77/1 81/85/1 80/86/1
f 94/77/1 93/87/1 81/85/1
f 93/87/1 92/88/1 81/85/1
f 92/88/1 91/89/1 81/85/1
f 91/89/1 90/90/1 81/85/1
f 90/90/1 89/91/1 81/85/1
f 89/91/1 88/92/1 81/85/1
f 88/92/1 87/93/1 81/85/1
f 87/93/1 86/94/1 81/85/1
f 86/94/1 85/81/1 81/85/1
f 146/95/1 148/96/1 147/97/1
f 135/98/1 137/99/1 136/100/1
f 146/95/1 149/101/1 148/96/1
f 134/102/1 137/99/1 135/98/1
f 146/95/1 150/18/1 149/101/1
f 133/46/1 137/99/1 134/102/1
f 146/95/1 131/103/1 150/18/1
f 146/95/1 132/104/1 131/103/1
f 146/95/1 133/46/1 132/104/1
f 146/95/1 145/105/1 133/46/1
f 145/105/1 144/106/1 133/46/1
f 144/106/1 143/107/1 133/46/1
f 143/107/1 142/108/1 133/46/1
f 142/108/1 141/109/1 133/46/1
f 141/109/1 140/110/1 133/46/1
f 140/110/1 139/111/1 133/46/1
f 139/111/1 138/112/1 133/46/1
f 138/112/1 137/99/1 133/46/1
f 126/113/1 128/114/1 127/115/1
f 103/116/1 105/117/1 104/118/1
f 126/113/1 129/119/1 128/114/1
f 102/120/1 105/117/1 103/116/1
f 126/113/1 130/121/1 129/119/1
f 101/122/1 105/117/1 102/120/1
f 126/113/1 99/14/1 130/121/1
f 126/113/1 100/123/1 99/14/1
f 126/113/1 101/122/1 100/123/1
f 126/113/1 125/124/1 101/122/1
f 125/124/1 124/125/1 101/122/1
f 124/125/1 123/126/1 101/122/1
f 123/126/1 109/127/1 101/122/1
f 109/127/1 108/128/1 101/122/1
f 108/128/1 107/129/1 101/122/1
f 107/129/1 106/130/1 101/122/1
f 106/130/1 105/117/1 101/122/1
f 122/131/1 109/127/1 123/126/1
f 121/132/1 109/127/1 122/131/1
f 121/132/1 110/133/1 109/127/1
f 120/134/1 110/133/1 121/132/1
f 120/134/1 111/135/1 110/133/1
f 119/136/1 111/135/1 120/134/1
f 119/136/1 112/137/1 111/135/1
f 118/138/1 112/137/1 119/136/1
f 118/138/1 113/139/1 112/137/1
f 117/140/1 113/139/1 118/138/1
f 117/140/1 114/141/1 113/139/1
f 116/66/1 114/141/1 117/140/1
f 115/142/1 114/141/1 116/66/1
f 185/143/1 187/144/1 186/145/1
f 176/146/1 178/147/1 177/46/1
f 184/148/1 187/144/1 185/143/1
f 176/146/1 179/149/1 178/147/1
f 176/146/1 180/150/1 179/149/1
f 183/151/1 187/144/1 184/148/1
f 176/146/1 181/152/1 180/150/1
f 176/146/1 182/153/1 181/152/1
f 176/146/1 183/151/1 182/153/1
f 176/146/1 187/144/1 183/151/1
f 176/146/1 175/154/1 187/144/1
f 175/154/1 188/155/1 187/144/1
f 175/154/1 174/156/1 188/155/1
f 174/156/1 189/157/1 188/155/1
f 174/156/1 173/158/1 189/157/1
f 173/158/1 190/18/1 189/157/1
f 173/158/1 172/159/1 190/18/1
f 172/159/1 171/160/1 190/18/1
f 171/160/1 170/161/1 190/18/1
f 170/161/1 151/14/1 190/18/1
f 169/162/1 151/14/1 170/161/1
f 169/162/1 152/163/1 151/14/1
f 168/164/1 152/163/1 169/162/1
f 167/165/1 152/163/1 168/164/1
f 167/165/1 153/166/1 152/163/1
f 166/167/1 153/166/1 167/165/1
f 166/167/1 160/168/1 153/166/1
f 160/168/1 154/169/1 153/166/1
f 166/167/1 161/170/1 160/168/1
f 159/171/1 154/169/1 160/168/1
f 159/171/1 155/172/1 154/169/1
f 165/173/1 161/170/1 166/167/1
f 158/174/1 155/172/1 159/171/1
f 165/173/1 162/175/1 161/170/1
f 158/174/1 156/176/1 155/172/1
f 164/66/1 162/175/1 165/173/1
f 157/177/1 156/176/1 158/174/1
f 164/66/1 163/178/1 162/175/1
f 210/161/1 212/159/1 211/160/1
f 210/161/1 227/144/1 212/159/1
f 227/144/1 226/145/1 212/159/1
f 226/145/1 213/158/1 212/159/1
f 209/162/1 200/168/1 210/161/1
f 200/168/1 199/171/1 210/161/1
f 199/171/1 227/144/1 210/161/1
f 199/171/1 228/155/1 227/144/1
f 198/174/1 228/155/1 199/171/1
f 225/143/1 213/158/1 226/145/1
f 209/162/1 201/170/1 200/168/1
f 197/177/1 228/155/1 198/174/1
f 197/177/1 229/157/1 228/155/1
f 225/143/1 214/156/1 213/158/1
f 208/164/1 201/170/1 209/162/1
f 224/148/1 214/156/1 225/143/1
f 196/176/1 229/157/1 197/177/1
f 208/164/1 202/175/1 201/170/1
f 196/176/1 230/18/1 229/157/1
f 195/172/1 230/18/1 196/176/1
f 195/172/1 203/178/1 230/18/1
f 223/151/1 214/156/1 224/148/1
f 223/151/1 215/154/1 214/156/1
f 208/164/1 191/14/1 202/175/1
f 207/165/1 191/14/1 208/164/1
f 194/169/1 203/178/1 195/172/1
f 207/165/1 192/163/1 191/14/1
f 222/153/1 215/154/1 223/151/1
f 194/169/1 204/66/1 203/178/1
f 206/167/1 192/163/1 207/165/1
f 222/153/1 216/146/1 215/154/1
f 193/166/1 204/66/1 194/169/1
f 206/167/1 193/166/1 192/163/1
f 206/167/1 204/66/1 193/166/1
f 221/152/1 216/146/1 222/153/1
f 206/167/1 205/173/1 204/66/1
f 220/150/1 216/146/1 221/152/1
f 219/149/1 216/146/1 220/150/1
f 218/147/1 216/146/1 219/149/1
f 217/46/1 216/146/1 218/147/1
f 270/39/1 272/179/1 271/154/1
f 270/39/1 247/180/1 272/179/1
f 270/39/1 248/181/1 247/180/1
f 237/182/1 231/14/1 238/183/1
f 237/182/1 232/184/1 231/14/1
f 270/39/1 249/185/1 248/181/1
f 236/169/1 232/184/1 237/182/1
f 236/169/1 233/186/1 232/184/1
f 269/187/1 249/185/1 270/39/1
f 250/188/1 252/189/1 251/178/1
f 235/190/1 233/186/1 236/169/1
f 269/187/1 262/191/1 249/185/1
f 262/191/1 250/188/1 249/185/1
f 262/191/1 252/189/1 250/188/1
f 262/191/1 261/162/1 252/189/1
f 261/162/1 253/192/1 252/189/1
f 235/190/1 234/193/1 233/186/1
f 269/187/1 263/194/1 262/191/1
f 260/195/1 253/192/1 261/162/1
f 294/196/1 296/18/1 295/197/1
f 294/196/1 273/198/1 296/18/1
f 260/195/1 254/199/1 253/192/1
f 268/200/1 263/194/1 269/187/1
f 259/201/1 254/199/1 260/195/1
f 268/200/1 264/202/1 263/194/1
f 293/203/1 273/198/1 294/196/1
f 293/203/1 274/204/1 273/198/1
f 293/203/1 275/205/1 274/204/1
f 258/206/1 254/199/1 259/201/1
f 258/206/1 257/58/1 254/199/1
f 257/58/1 256/167/1 254/199/1
f 256/167/1 255/207/1 254/199/1
f 268/200/1 267/208/1 264/202/1
f 267/208/1 266/159/1 264/202/1
f 266/159/1 265/209/1 264/202/1
f 293/203/1 276/147/1 275/205/1
f 293/203/1 277/210/1 276/147/1
f 245/211/1 239/212/1 246/168/1
f 245/211/1 240/213/1 239/212/1
f 292/214/1 285/215/1 293/203/1
f 285/215/1 277/210/1 293/203/1
f 244/75/1 240/213/1 245/211/1
f 292/214/1 286/148/1 285/215/1
f 284/216/1 277/210/1 285/215/1
f 284/216/1 278/217/1 277/210/1
f 244/75/1 241/177/1 240/213/1
f 243/218/1 241/177/1 244/75/1
f 292/214/1 287/219/1 286/148/1
f 291/144/1 287/219/1 292/214/1
f 283/37/1 278/217/1 284/216/1
f 243/218/1 242/220/1 241/177/1
f 283/37/1 279/221/1 278/217/1
f 291/144/1 290/222/1 287/219/1
f 290/222/1 289/223/1 287/219/1
f 289/223/1 288/224/1 287/219/1
f 282/225/1 281/152/1 283/37/1
f 281/152/1 280/226/1 283/37/1
f 280/226/1 279/221/1 283/37/1
f 300/1/2 301/3/2 302/2/2
f 299/4/2 300/1/2 302/2/2
f 299/4/2 302/2/2 303/5/2
f 298/6/2 299/4/2 317/7/2
f 317/7/2 299/4/2 316/8/2
f 316/8/2 299/4/2 303/5/2
f 315/9/2 316/8/2 303/5/2
f 298/6/2 317/7/2 318/10/2
f 315/9/2 303/5/2 304/11/2
f 314/12/2 315/9/2 304/11/2
f 298/6/2 318/10/2 319/13/2
f 297/14/2 298/6/2 319/13/2
f 313/15/2 314/12/2 304/11/2
f 313/15/2 304/11/2 305/16/2
f 297/14/2 319/13/2 320/17/2
f 328/18/2 297/14/2 320/17/2
f 312/19/2 313/15/2 305/16/2
f 312/19/2 305/16/2 306/20/2
f 328/18/2 320/17/2 321/21/2
f 327/22/2 328/18/2 321/21/2
f 326/23/2 327/22/2 321/21/2
f 325/24/2 326/23/2 321/21/2
f 311/25/2 312/19/2 306/20/2
f 311/25/2 306/20/2 307/26/2
f 325/24/2 321/21/2 322/27/2
f 324/28/2 325/24/2 323/29/2
f 323/29/2 325/24/2 322/27/2
f 310/30/2 311/25/2 307/26/2
f 310/30/2 307/26/2 308/31/2
f 309/32/2 310/30/2 308/31/2
f 362/33/2 363/35/2 364/34/2
f 361/36/2 362/33/2 364/34/2
f 361/36/2 364/34/2 365/37/2
f 354/38/2 355/40/2 356/39/2
f 353/41/2 354/38/2 356/39/2
f 360/42/2 361/36/2 365/37/2
f 353/41/2 356/39/2 357/43/2
f 360/42/2 365/37/2 366/44/2
f 352/45/2 353/41/2 357/43/2
f 359/46/2 360/42/2 366/44/2
f 352/45/2 357/43/2 358/47/2
f 351/48/2 352/45/2 358/47/2
f 370/49/2 371/51/2 372/50/2
f 370/49/2 372/50/2 373/52/2
f 369/53/2 370/49/2 373/52/2
f 369/53/2 373/52/2 374/18/2
f 368/54/2 369/53/2 374/18/2
f 368/54/2 374/18/2 367/55/2
f 346/56/2 347/58/2 348/57/2
f 330/59/2 331/61/2 332/60/2
f 346/56/2 348/57/2 349/62/2
f 345/63/2 346/56/2 349/62/2
f 330/59/2 332/60/2 333/64/2
f 345/63/2 349/62/2 350/65/2
f 344/66/2 345/63/2 350/65/2
f 344/66/2 350/65/2 343/67/2
f 329/14/2 330/59/2 333/64/2
f 329/14/2 333/64/2 334/68/2
f 342/69/2 329/14/2 334/68/2
f 342/69/2 334/68/2 335/70/2
f 341/71/2 342/69/2 335/70/2
f 340/72/2 341/71/2 335/70/2
f 340/72/2 335/70/2 336/73/2
f 339/74/2 340/72/2 336/73/2
f 338/75/2 339/74/2 336/73/2
f 338/75/2 336/73/2 337/76/2
f 390/77/2 391/79/2 392/78/2
f 379/80/2 380/82/2 381/81/2
f 390/77/2 392/78/2 393/83/2
f 378/84/2 379/80/2 381/81/2
f 390/77/2 393/83/2 394/18/2
f 377/85/2 378/84/2 381/81/2
f 390/77/2 394/18/2 375/14/2
f 390/77/2 375/14/2 376/86/2
f 390/77/2 376/86/2 377/85/2
f 390/77/2 377/85/2 389/87/2
f 389/87/2 377/85/2 388/88/2
f 388/88/2 377/85/2 387/89/2
f 387/89/2 377/85/2 386/90/2
f 386/90/2 377/85/2 385/91/2
f 385/91/2 377/85/2 384/92/2
f 384/92/2 377/85/2 383/93/2
f 383/93/2 377/85/2 382/94/2
f 382/94/2 377/85/2 381/81/2
f 442/95/2 443/97/2 444/96/2
f 431/98/2 432/100/2 433/99/2
f 442/95/2 444/96/2 445/101/2
f 430/102/2 431/98/2 433/99/2
f 442/95/2 445/101/2 446/18/2
f 429/46/2 430/102/2 433/99/2
f 442/95/2 446/18/2 427/103/2
f 442/95/2 427/103/2 428/104/2
f 442/95/2 428/104/2 429/46/2
f 442/95/2 429/46/2 441/105/2
f 441/105/2 429/46/2 440/106/2
f 440/106/2 429/46/2 439/107/2
f 439/107/2 429/46/2 438/108/2
f 438/108/2 429/46/2 437/109/2
f 437/109/2 429/46/2 436/110/2
f 436/110/2 429/46/2 435/111/2
f 435/111/2 429/46/2 434/112/2
f 434/112/2 429/46/2 433/99/2
f 422/113/2 423/115/2 424/114/2
f 399/116/2 400/118/2 401/117/2
f 422/113/2 424/114/2 425/119/2
f 398/120/2 399/116/2 401/117/2
f 422/113/2 425/119/2 426/121/2
f 397/122/2 398/120/2 401/117/2
f 422/113/2 426/121/2 395/14/2
f 422/113/2 395/14/2 396/123/2
f 422/113/2 396/123/2 397/122/2
f 422/113/2 397/122/2 421/124/2
f 421/124/2 397/122/2 420/125/2
f 420/125/2 397/122/2 419/126/2
f 419/126/2 397/122/2 405/127/2
f 405/127/2 397/122/2 404/128/2
f 404/128/2 397/122/2 403/129/2
f 403/129/2 397/122/2 402/130/2
f 402/130/2 397/122/2 401/117/2
f 418/131/1 419/126/1 405/127/1
f 417/132/2 418/131/2 405/127/2
f 417/132/2 405/127/2 406/133/2
f 416/134/2 417/132/2 406/133/2
f 416/134/2 406/133/2 407/135/2
f 415/136/2 416/134/2 407/135/2
f 415/136/2 407/135/2 408/137/2
f 414/138/2 415/136/2 408/137/2
f 414/138/2 408/137/2 409/139/2
f 413/140/2 414/138/2 409/139/2
f 413/140/2 409/139/2 410/141/2
f 412/66/2 413/140/2 410/141/2
f 411/142/2 412/66/2 410/141/2
f 481/143/2 482/145/2 483/144/2
f 472/146/2 473/46/2 474/147/2
f 480/148/2 481/143/2 483/144/2
f 472/146/2 474/147/2 475/149/2
f 472/146/2 475/149/2 476/150/2
f 479/151/2 480/148/2 483/144/2
f 472/146/2 476/150/2 477/152/2
f 472/146/2 477/152/2 478/153/2
f 472/146/2 478/153/2 479/151/2
f 472/146/2 479/151/2 483/144/2
f 472/146/2 483/144/2 471/154/2
f 471/154/2 483/144/2 484/155/2
f 471/154/2 484/155/2 470/156/2
f 470/156/2 484/155/2 485/157/2
f 470/156/2 485/157/2 469/158/2
f 469/158/2 485/157/2 486/18/2
f 469/158/2 486/18/2 468/159/2
f 468/159/2 486/18/2 467/160/2
f 467/160/2 486/18/2 466/161/2
f 466/161/2 486/18/2 447/14/2
f 465/162/2 466/161/2 447/14/2
f 465/162/2 447/14/2 448/163/2
f 464/164/2 465/162/2 448/163/2
f 463/165/2 464/164/2 448/163/2
f 463/165/2 448/163/2 449/166/2
f 462/167/2 463/165/2 449/166/2
f 462/167/2 449/166/2 456/168/2
f 456/168/2 449/166/2 450/169/2
f 462/167/2 456/168/2 457/170/2
f 455/171/2 456/168/2 450/169/2
f 455/171/2 450/169/2 451/172/2
f 461/173/2 462/167/2 457/170/2
f 454/174/2 455/171/2 451/172/2
f 461/173/2 457/170/2 458/175/2
f 454/174/2 451/172/2 452/176/2
f 460/66/2 461/173/2 458/175/2
f 453/177/2 454/174/2 452/176/2
f 460/66/2 458/175/2 459/178/2
f 506/161/2 507/160/2 508/159/2
f 506/161/2 508/159/2 523/144/2
f 523/144/2 508/159/2 522/145/2
f 522/145/2 508/159/2 509/158/2
f 505/162/2 506/161/2 496/168/2
f 496/168/2 506/161/2 495/171/2
f 495/171/2 506/161/2 523/144/2
f 495/171/2 523/144/2 524/155/2
f 494/174/2 495/171/2 524/155/2
f 521/143/2 522/145/2 509/158/2
f 505/162/2 496/168/2 497/170/2
f 493/177/2 494/174/2 524/155/2
f 493/177/2 524/155/2 525/157/2
f 521/143/2 509/158/2 510/156/2
f 504/164/2 505/162/2 497/170/2
f 520/148/2 521/143/2 510/156/2
f 492/176/2 493/177/2 525/157/2
f 504/164/2 497/170/2 498/175/2
f 492/176/2 525/157/2 526/18/2
f 491/172/2 492/176/2 526/18/2
f 491/172/2 526/18/2 499/178/2
f 519/151/2 520/148/2 510/156/2
f 519/151/2 510/156/2 511/154/2
f 504/164/2 498/175/2 487/14/2
f 503/165/2 504/164/2 487/14/2
f 490/169/2 491/172/2 499/178/2
f 503/165/2 487/14/2 488/163/2
f 518/153/2 519/151/2 511/154/2
f 490/169/2 499/178/2 500/66/2
f 502/167/2 503/165/2 488/163/2
f 518/153/2 511/154/2 512/146/2
f 489/166/2 490/169/2 500/66/2
f 502/167/2 488/163/2 489/166/2
f 502/167/2 489/166/2 500/66/2
f 517/152/2 518/153/2 512/146/2
f 502/167/2 500/66/2 501/173/2
f 516/150/2 517/152/2 512/146/2
f 515/149/2 516/150/2 512/146/2
f 514/147/2 515/149/2 512/146/2
f 513/46/2 514/147/2 512/146/2
f 566/39/2 567/154/2 568/179/2
f 566/39/2 568/179/2 543/180/2
f 566/39/2 543/180/2 544/181/2
f 533/182/2 534/183/2 527/14/2
f 533/182/2 527/14/2 528/184/2
f 566/39/2 544/181/2 545/185/2
f 532/169/2 533/182/2 528/184/2
f 532/169/2 528/184/2 529/186/2
f 565/187/2 566/39/2 545/185/2
f 546/188/2 547/178/2 548/189/2
f 531/190/2 532/169/2 529/186/2
f 565/187/2 545/185/2 558/191/2
f 558/191/2 545/185/2 546/188/2
f 558/191/2 546/188/2 548/189/2
f 558/191/2 548/189/2 557/162/2
f 557/162/2 548/189/2 549/192/2
f 531/190/2 529/186/2 530/193/2
f 565/187/2 558/191/2 559/194/2
f 556/195/2 557/162/2 549/192/2
f 590/196/2 591/197/2 592/18/2
f 590/196/2 592/18/2 569/198/2
f 556/195/2 549/192/2 550/199/2
f 564/200/2 565/187/2 559/194/2
f 555/201/2 556/195/2 550/199/2
f 564/200/2 559/194/2 560/202/2
f 589/203/2 590/196/2 569/198/2
f 589/203/2 569/198/2 570/204/2
f 589/203/2 570/204/2 571/205/2
f 554/206/2 555/201/2 550/199/2
f 554/206/2 550/199/2 553/58/2
f 553/58/2 550/199/2 552/167/2
f 552/167/2 550/199/2 551/207/2
f 564/200/2 560/202/2 563/208/2
f 563/208/2 560/202/2 562/159/2
f 562/159/2 560/202/2 561/209/2
f 589/203/2 571/205/2 572/147/2
f 589/203/2 572/147/2 573/210/2
f 541/211/2 542/168/2 535/212/2
f 541/211/2 535/212/2 536/213/2
f 588/214/2 589/203/2 581/215/2
f 581/215/2 589/203/2 573/210/2
f 540/75/2 541/211/2 536/213/2
f 588/214/2 581/215/2 582/148/2
f 580/216/2 581/215/2 573/210/2
f 580/216/2 573/210/2 574/217/2
f 540/75/2 536/213/2 537/177/2
f 539/218/2 540/75/2 537/177/2
f 588/214/2 582/148/2 583/219/2
f 587/144/2 588/214/2 583/219/2
f 579/37/2 580/216/2 574/217/2
f 539/218/2 537/177/2 538/220/2
f 579/37/2 574/217/2 575/221/2
f 587/144/2 583/219/2 586/222/2
f 586/222/2 583/219/2 585/223/2
f 585/223/2 583/219/2 584/224/2
f 578/225/2 579/37/2 577/152/2
f 577/152/2 579/37/2 576/226/2
f 576/226/2 579/37/2 575/221/2
s 1
f 596/227/3 593/14/4 594/228/4
f 598/229/5 595/230/3 596/227/3
f 600/231/6 597/232/5 598/229/5
f 602/233/7 599/234/6 600/231/6
f 604/235/8 601/236/7 602/233/7
f 606/237/9 603/238/8 604/235/8
f 608/239/10 605/240/9 606/237/9
f 594/241/4 607/242/11 608/239/10
f 612/227/12 609/14/13 610/228/13
f 614/229/14 611/230/12 612/227/12
f 616/231/15 613/232/14 614/229/14
f 618/233/16 615/234/17 616/231/15
f 620/235/18 617/236/19 618/233/16
f 622/237/20 619/238/18 620/235/18
f 624/239/21 621/240/20 622/237/20
f 610/241/13 623/242/22 624/239/21
f 628/243/23 625/14/24 626/228/24
f 630/244/25 627/245/23 628/243/23
f 632/246/26 629/169/27 630/244/25
f 634/247/28 631/248/26 632/246/26
f 636/249/29 633/177/28 634/247/28
f 638/250/30 635/251/29 636/249/29
f 640/252/31 637/168/30 638/250/30
f 642/253/32 639/254/31 640/252/31
f 644/255/33 641/178/32 642/253/32
f 646/256/34 643/257/33 644/255/33
f 648/258/35 645/167/34 646/256/34
f 650/259/36 647/260/35 648/258/35
f 652/233/37 649/162/36 650/259/36
f 654/261/38 651/236/37 652/233/37
f 656/262/39 653/159/38 654/261/38
f 658/263/40 655/264/39 656/262/39
f 660/265/41 657/154/40 658/263/40
f 662/266/42 659/267/41 660/265/41
f 664/268/43 661/147/42 662/266/42
f 666/269/44 663/270/43 664/268/43
f 668/271/45 665/152/44 666/269/44
f 670/272/46 667/273/45 668/271/45
f 672/274/47 669/148/46 670/272/46
f 674/275/48 671/276/47 672/274/47
f 676/277/49 673/144/50 674/275/48
f 626/241/24 675/278/51 676/277/49
f 680/279/52 677/14/53 678/228/53
f 682/280/54 679/281/52 680/279/52
f 684/227/55 681/282/54 682/280/54
f 686/283/56 683/230/55 684/227/55
f 688/284/57 685/285/56 686/283/56
f 690/229/58 687/286/57 688/284/57
f 692/287/59 689/232/58 690/229/58
f 694/288/60 691/289/59 692/287/59
f 696/231/61 693/66/60 694/288/60
f 698/290/62 695/234/61 696/231/61
f 700/291/63 697/292/62 698/290/62
f 702/233/64 699/293/63 700/291/63
f 704/294/65 701/236/64 702/233/64
f 706/295/66 703/296/65 704/294/65
f 708/235/67 705/297/66 706/295/66
f 710/298/68 707/238/67 708/235/67
f 712/299/69 709/46/68 710/298/68
f 714/237/70 711/300/71 712/299/69
f 716/301/72 713/240/73 714/237/70
f 718/302/74 715/303/72 716/301/72
f 720/239/75 717/304/74 718/302/74
f 722/305/76 719/242/75 720/239/75
f 724/306/77 721/307/76 722/305/76
f 678/241/53 723/308/77 724/306/77
f 728/280/78 725/14/79 726/228/79
f 730/283/80 727/282/78 728/280/78
f 732/229/81 729/285/80 730/283/80
f 734/288/82 731/232/81 732/229/81
f 736/290/83 733/66/82 734/288/82
f 738/233/84 735/292/83 736/290/83
f 740/295/85 737/236/84 738/233/84
f 742/298/86 739/297/85 740/295/85
f 744/237/87 741/46/86 742/298/86
f 746/302/88 743/240/87 744/237/87
f 748/305/89 745/304/90 746/302/88
f 726/241/79 747/307/89 748/305/89
f 752/309/91 749/14/92 750/228/92
f 754/310/93 751/311/91 752/309/91
f 756/312/94 753/313/93 754/310/93
f 758/314/95 755/315/96 756/312/94
f 760/316/97 757/317/95 758/314/95
f 762/318/98 759/319/97 760/316/97
f 764/229/99 761/320/98 762/318/98
f 766/321/100 763/232/99 764/229/99
f 768/322/101 765/323/100 766/321/100
f 770/324/102 767/325/101 768/322/101
f 772/326/103 769/327/102 770/324/102
f 774/328/104 771/329/103 772/326/103
f 776/330/105 773/331/104 774/328/104
f 778/233/106 775/332/105 776/330/105
f 780/333/107 777/236/106 778/233/106
f 782/334/108 779/335/107 780/333/107
f 784/336/109 781/337/108 782/334/108
f 786/338/110 783/339/109 784/336/109
f 788/340/111 785/341/110 786/338/110
f 790/342/112 787/343/111 788/340/111
f 792/237/113 789/344/112 790/342/112
f 794/345/114 791/240/113 792/237/113
f 796/346/115 793/347/114 794/345/114
f 798/348/116 795/349/115 796/346/115
f 800/350/117 797/351/116 798/348/116
f 802/352/118 799/353/117 800/350/117
f 804/354/119 801/355/118 802/352/118
f 750/241/92 803/356/119 804/354/119
f 808/357/120 805/14/121 806/228/121
f 810/358/122 807/359/120 808/357/120
f 812/360/123 809/361/122 810/358/122
f 814/362/124 811/363/123 812/360/123
f 816/227/125 813/364/124 814/362/124
f 818/365/126 815/230/125 816/227/125
f 820/366/127 817/367/126 818/365/126
f 822/368/128 819/369/127 820/366/127
f 824/370/129 821/75/128 822/368/128
f 826/229/130 823/371/131 824/370/129
f 828/372/132 825/232/130 826/229/130
f 830/373/133 827/374/132 828/372/132
f 832/375/134 829/376/133 830/373/133
f 834/377/135 831/378/136 832/375/134
f 836/231/137 833/379/135 834/377/135
f 838/380/138 835/234/137 836/231/137
f 840/381/139 837/58/138 838/380/138
f 842/382/140 839/383/139 840/381/139
f 844/384/141 841/385/140 842/382/140
f 846/233/142 843/386/143 844/384/141
f 848/387/142 845/236/142 846/233/142
f 850/388/144 847/389/142 848/387/142
f 852/390/145 849/391/144 850/388/144
f 854/392/146 851/393/145 852/390/145
f 856/235/147 853/39/146 854/392/146
f 858/394/148 855/238/147 856/235/147
f 860/395/149 857/396/148 858/394/148
f 862/397/150 859/398/149 860/395/149
f 864/399/151 861/400/150 862/397/150
f 866/237/152 863/401/151 864/399/151
f 868/402/152 865/240/152 866/237/152
f 870/403/153 867/404/152 868/402/152
f 872/405/154 869/37/153 870/403/153
f 874/406/155 871/407/154 872/405/154
f 876/239/156 873/408/155 874/406/155
f 878/409/157 875/242/156 876/239/156
f 880/410/158 877/411/157 878/409/157
f 882/412/159 879/413/158 880/410/158
f 884/414/160 881/415/159 882/412/159
f 806/241/121 883/416/161 884/414/160
f 888/358/152 885/14/152 886/228/152
f 890/362/162 887/361/152 888/358/152
f 892/365/163 889/364/162 890/362/162
f 894/368/164 891/367/163 892/365/163
f 896/229/165 893/75/164 894/368/164
f 898/373/166 895/232/165 896/229/165
f 900/377/167 897/376/166 898/373/166
f 902/380/168 899/379/167 900/377/167
f 904/382/169 901/58/168 902/380/168
f 906/233/142 903/385/169 904/382/169
f 908/388/142 905/236/142 906/233/142
f 910/392/170 907/391/142 908/388/142
f 912/394/171 909/39/170 910/392/170
f 914/397/172 911/396/171 912/394/171
f 916/237/173 913/400/172 914/397/172
f 918/403/174 915/240/173 916/237/173
f 920/406/175 917/37/174 918/403/174
f 922/409/176 919/408/175 920/406/175
f 924/412/177 921/411/176 922/409/176
f 886/241/152 923/415/177 924/412/177
f 928/417/152 925/14/152 926/228/152
f 930/418/178 927/419/152 928/417/152
f 932/420/179 929/421/178 930/418/178
f 934/227/180 931/422/179 932/420/179
f 936/423/181 933/230/180 934/227/180
f 938/424/182 935/425/181 936/423/181
f 940/426/183 937/427/182 938/424/182
f 942/229/184 939/428/183 940/426/183
f 944/429/185 941/232/184 942/229/184
f 946/430/186 943/431/185 944/429/185
f 948/432/187 945/433/186 946/430/186
f 950/231/188 947/434/187 948/432/187
f 952/435/189 949/234/188 950/231/188
f 954/436/190 951/437/189 952/435/189
f 956/438/191 953/439/190 954/436/190
f 958/233/192 955/440/191 956/438/191
f 960/441/193 957/236/192 958/233/192
f 962/442/194 959/443/193 960/441/193
f 964/444/195 961/445/194 962/442/194
f 966/235/196 963/446/195 964/444/195
f 968/447/197 965/238/196 966/235/196
f 970/448/198 967/449/199 968/447/197
f 972/450/200 969/451/198 970/448/198
f 974/237/201 971/452/200 972/450/200
f 976/453/202 973/240/201 974/237/201
f 978/454/203 975/455/202 976/453/202
f 980/456/204 977/457/203 978/454/203
f 982/239/205 979/458/204 980/456/204
f 984/459/206 981/242/205 982/239/205
f 986/460/207 983/461/206 984/459/206
f 988/462/208 985/463/209 986/460/207
f 926/241/152 987/464/208 988/462/208
f 992/358/152 989/14/152 990/228/152
f 994/362/210 991/361/152 992/358/152
f 996/365/211 993/364/210 994/362/210
f 998/368/212 995/367/211 996/365/211
f 1000/229/213 997/75/212 998/368/212
f 1002/373/214 999/232/213 1000/229/213
f 1004/377/215 1001/376/214 1002/373/214
f 1006/380/216 1003/379/215 1004/377/215
f 1008/382/217 1005/58/216 1006/380/216
f 1010/233/142 1007/385/217 1008/382/217
f 1012/388/142 1009/236/142 1010/233/142
f 1014/392/218 1011/391/142 1012/388/142
f 1016/394/219 1013/39/218 1014/392/218
f 1018/397/220 1015/396/219 1016/394/219
f 1020/237/221 1017/400/220 1018/397/220
f 1022/403/222 1019/240/221 1020/237/221
f 1024/406/223 1021/37/222 1022/403/222
f 1026/409/224 1023/408/223 1024/406/223
f 1028/412/225 1025/411/224 1026/409/224
f 990/241/152 1027/415/225 1028/412/225
f 1032/227/226 1029/14/227 1030/228/227
f 1034/229/228 1031/230/229 1032/227/226
f 1036/231/230 1033/232/228 1034/229/228
f 1038/233/231 1035/234/230 1036/231/230
f 1040/235/232 1037/236/231 1038/233/231
f 1042/237/233 1039/238/232 1040/235/232
f 1044/239/234 1041/240/233 1042/237/233
f 1030/241/227 1043/242/234 1044/239/234
f 1048/227/235 1045/14/236 1046/228/236
f 1050/229/237 1047/230/235 1048/227/235
f 1052/231/238 1049/232/237 1050/229/237
f 1054/233/239 1051/234/238 1052/231/238
f 1056/235/240 1053/236/239 1054/233/239
f 1058/237/241 1055/238/240 1056/235/240
f 1060/239/242 1057/240/241 1058/237/241
f 1046/241/236 1059/242/242 1060/239/242
f 1064/227/243 1061/14/244 1062/228/244
f 1066/229/245 1063/230/243 1064/227/243
f 1068/231/246 1065/232/245 1066/229/245
f 1070/233/247 1067/234/246 1068/231/246
f 1072/235/248 1069/236/247 1070/233/247
f 1074/237/249 1071/238/248 1072/235/248
f 1076/239/250 1073/240/249 1074/237/249
f 1062/241/244 1075/242/251 1076/239/250
f 1080/310/252 1077/14/253 1078/228/253
f 1082/314/254 1079/313/252 1080/310/252
f 1084/318/255 1081/317/254 1082/314/254
f 1086/321/256 1083/320/255 1084/318/255
f 1088/324/257 1085/323/256 1086/321/256
f 1090/328/258 1087/327/257 1088/324/257
f 1092/233/259 1089/331/258 1090/328/258
f 1094/334/260 1091/236/259 1092/233/259
f 1096/338/261 1093/337/260 1094/334/260
f 1098/342/262 1095/341/263 1096/338/261
f 1100/345/264 1097/344/262 1098/342/262
f 1102/348/265 1099/347/264 1100/345/264
f 1104/352/266 1101/351/265 1102/348/265
f 1078/241/253 1103/355/266 1104/352/266
f 1108/227/267 1105/14/268 1106/228/269
f 1110/229/270 1107/230/267 1108/227/267
f 1112/231/271 1109/232/270 1110/229/270
f 1114/233/272 1111/234/271 1112/231/271
f 1116/235/273 1113/236/272 1114/233/272
f 1118/237/274 1115/238/273 1116/235/273
f 1120/239/275 1117/240/274 1118/237/274
f 1106/241/269 1119/242/275 1120/239/275
f 1124/417/276 1121/14/277 1122/228/277
f 1126/418/278 1123/419/276 1124/417/276
f 1128/420/279 1125/421/278 1126/418/278
f 1130/227/280 1127/422/279 1128/420/279
f 1132/423/281 1129/230/280 1130/227/280
f 1134/424/282 1131/425/281 1132/423/281
f 1136/426/283 1133/427/282 1134/424/282
f 1138/229/284 1135/428/283 1136/426/283
f 1140/429/285 1137/232/284 1138/229/284
f 1142/430/286 1139/431/285 1140/429/285
f 1144/432/287 1141/433/286 1142/430/286
f 1146/231/288 1143/434/289 1144/432/287
f 1148/435/290 1145/234/291 1146/231/288
f 1150/436/292 1147/437/290 1148/435/290
f 1152/438/293 1149/439/292 1150/436/292
f 1154/233/294 1151/440/293 1152/438/293
f 1156/441/295 1153/236/294 1154/233/294
f 1158/442/296 1155/443/295 1156/441/295
f 1160/444/297 1157/445/296 1158/442/296
f 1162/235/298 1159/446/297 1160/444/297
f 1164/447/299 1161/238/298 1162/235/298
f 1166/448/300 1163/449/299 1164/447/299
f 1168/450/301 1165/451/300 1166/448/300
f 1170/237/302 1167/452/301 1168/450/301
f 1172/453/303 1169/240/302 1170/237/302
f 1174/454/304 1171/455/305 1172/453/303
f 1176/456/306 1173/457/304 1174/454/304
f 1178/239/307 1175/458/306 1176/456/306
f 1180/459/308 1177/242/307 1178/239/307
f 1182/460/309 1179/461/308 1180/459/308
f 1184/462/310 1181/463/309 1182/460/309
f 1122/241/277 1183/464/310 1184/462/310
f 596/227/3 595/230/3 593/14/4
f 598/229/5 597/232/5 595/230/3
f 600/231/6 599/234/6 597/232/5
f 602/233/7 601/236/7 599/234/6
f 604/235/8 603/238/8 601/236/7
f 606/237/9 605/240/9 603/238/8
f 608/239/10 607/242/11 605/240/9
f 594/241/4 593/18/4 607/242/11
f 612/227/12 611/230/12 609/14/13
f 614/229/14 613/232/14 611/230/12
f 616/231/15 615/234/17 613/232/14
f 618/233/16 617/236/19 615/234/17
f 620/235/18 619/238/18 617/236/19
f 622/237/20 621/240/20 619/238/18
f 624/239/21 623/242/22 621/240/20
f 610/241/13 609/18/13 623/242/22
f 628/243/23 627/245/23 625/14/24
f 630/244/25 629/169/27 627/245/23
f 632/246/26 631/248/26 629/169/27
f 634/247/28 633/177/28 631/248/26
f 636/249/29 635/251/29 633/177/28
f 638/250/30 637/168/30 635/251/29
f 640/252/31 639/254/31 637/168/30
f 642/253/32 641/178/32 639/254/31
f 644/255/33 643/257/33 641/178/32
f 646/256/34 645/167/34 643/257/33
f 648/258/35 647/260/35 645/167/34
f 650/259/36 649/162/36 647/260/35
f 652/233/37 651/236/37 649/162/36
f 654/261/38 653/159/38 651/236/37
f 656/262/39 655/264/39 653/159/38
f 658/263/40 657/154/40 655/264/39
f 660/265/41 659/267/41 657/154/40
f 662/266/42 661/147/42 659/267/41
f 664/268/43 663/270/43 661/147/42
f 666/269/44 665/152/44 663/270/43
f 668/271/45 667/273/45 665/152/44
f 670/272/46 669/148/46 667/273/45
f 672/274/47 671/276/47 669/148/46
f 674/275/48 673/144/50 671/276/47
f 676/277/49 675/278/51 673/144/50
f 626/241/24 625/18/24 675/278/51
f 680/279/52 679/281/52 677/14/53
f 682/280/54 681/282/54 679/281/52
f 684/227/55 683/230/55 681/282/54
f 686/283/56 685/285/56 683/230/55
f 688/284/57 687/286/57 685/285/56
f 690/229/58 689/232/58 687/286/57
f 692/287/59 691/289/59 689/232/58
f 694/288/60 693/66/60 691/289/59
f 696/231/61 695/234/61 693/66/60
f 698/290/62 697/292/62 695/234/61
f 700/291/63 699/293/63 697/292/62
f 702/233/64 701/236/64 699/293/63
f 704/294/65 703/296/65 701/236/64
f 706/295/66 705/297/66 703/296/65
f 708/235/67 707/238/67 705/297/66
f 710/298/68 709/46/68 707/238/67
f 712/299/69 711/300/71 709/46/68
f 714/237/70 713/240/73 711/300/71
f 716/301/72 715/303/72 713/240/73
f 718/302/74 717/304/74 715/303/72
f 720/239/75 719/242/75 717/304/74
f 722/305/76 721/307/76 719/242/75
f 724/306/77 723/308/77 721/307/76
f 678/241/53 677/18/53 723/308/77
f 728/280/78 727/282/78 725/14/79
f 730/283/80 729/285/80 727/282/78
f 732/229/81 731/232/81 729/285/80
f 734/288/82 733/66/82 731/232/81
f 736/290/83 735/292/83 733/66/82
f 738/233/84 737/236/84 735/292/83
f 740/295/85 739/297/85 737/236/84
f 742/298/86 741/46/86 739/297/85
f 744/237/87 743/240/87 741/46/86
f 746/302/88 745/304/90 743/240/87
f 748/305/89 747/307/89 745/304/90
f 726/241/79 725/18/79 747/307/89
f 752/309/91 751/311/91 749/14/92
f 754/310/93 753/313/93 751/311/91
f 756/312/94 755/315/96 753/313/93
f 758/314/95 757/317/95 755/315/96
f 760/316/97 759/319/97 757/317/95
f 762/318/98 761/320/98 759/319/97
f 764/229/99 763/232/99 761/320/98
f 766/321/100 765/323/100 763/232/99
f 768/322/101 767/325/101 765/323/100
f 770/324/102 769/327/102 767/325/101
f 772/326/103 771/329/103 769/327/102
f 774/328/104 773/331/104 771/329/103
f 776/330/105 775/332/105 773/331/104
f 778/233/106 777/236/106 775/332/105
f 780/333/107 779/335/107 777/236/106
f 782/334/108 781/337/108 779/335/107
f 784/336/109 783/339/109 781/337/108
f 786/338/110 785/341/110 783/339/109
f 788/340/111 787/343/111 785/341/110
f 790/342/112 789/344/112 787/343/111
f 792/237/113 791/240/113 789/344/112
f 794/345/114 793/347/114 791/240/113
f 796/346/115 795/349/115 793/347/114
f 798/348/116 797/351/116 795/349/115
f 800/350/117 799/353/117 797/351/116
f 802/352/118 801/355/118 799/353/117
f 804/354/119 803/356/119 801/355/118
f 750/241/92 749/18/92 803/356/119
f 808/357/120 807/359/120 805/14/121
f 810/358/122 809/361/122 807/359/120
f 812/360/123 811/363/123 809/361/122
f 814/362/124 813/364/124 811/363/123
f 816/227/125 815/230/125 813/364/124
f 818/365/126 817/367/126 815/230/125
f 820/366/127 819/369/127 817/367/126
f 822/368/128 821/75/128 819/369/127
f 824/370/129 823/371/131 821/75/128
f 826/229/130 825/232/130 823/371/131
f 828/372/132 827/374/132 825/232/130
f 830/373/133 829/376/133 827/374/132
f 832/375/134 831/378/136 829/376/133
f 834/377/135 833/379/135 831/378/136
f 836/231/137 835/234/137 833/379/135
f 838/380/138 837/58/138 835/234/137
f 840/381/139 839/383/139 837/58/138
f 842/382/140 841/385/140 839/383/139
f 844/384/141 843/386/143 841/385/140
f 846/233/142 845/236/142 843/386/143
f 848/387/142 847/389/142 845/236/142
f 850/388/144 849/391/144 847/389/142
f 852/390/145 851/393/145 849/391/144
f 854/392/146 853/39/146 851/393/145
f 856/235/147 855/238/147 853/39/146
f 858/394/148 857/396/148 855/238/147
f 860/395/149 859/398/149 857/396/148
f 862/397/150 861/400/150 859/398/149
f 864/399/151 863/401/151 861/400/150
f 866/237/152 865/240/152 863/401/151
f 868/402/152 867/404/152 865/240/152
f 870/403/153 869/37/153 867/404/152
f 872/405/154 871/407/154 869/37/153
f 874/406/155 873/408/155 871/407/154
f 876/239/156 875/242/156 873/408/155
f 878/409/157 877/411/157 875/242/156
f 880/410/158 879/413/158 877/411/157
f 882/412/159 881/415/159 879/413/158
f 884/414/160 883/416/161 881/415/159
f 806/241/121 805/18/121 883/416/161
f 888/358/152 887/361/152 885/14/152
f 890/362/162 889/364/162 887/361/152
f 892/365/163 891/367/163 889/364/162
f 894/368/164 893/75/164 891/367/163
f 896/229/165 895/232/165 893/75/164
f 898/373/166 897/376/166 895/232/165
f 900/377/167 899/379/167 897/376/166
f 902/380/168 901/58/168 899/379/167
f 904/382/169 903/385/169 901/58/168
f 906/233/142 905/236/142 903/385/169
f 908/388/142 907/391/142 905/236/142
f 910/392/170 909/39/170 907/391/142
f 912/394/171 911/396/171 909/39/170
f 914/397/172 913/400/172 911/396/171
f 916/237/173 915/240/173 913/400/172
f 918/403/174 917/37/174 915/240/173
f 920/406/175 919/408/175 917/37/174
f 922/409/176 921/411/176 919/408/175
f 924/412/177 923/415/177 921/411/176
f 886/241/152 885/18/152 923/415/177
f 928/417/152 927/419/152 925/14/152
f 930/418/178 929/421/178 927/419/152
f 932/420/179 931/422/179 929/421/178
f 934/227/180 933/230/180 931/422/179
f 936/423/181 935/425/181 933/230/180
f 938/424/182 937/427/182 935/425/181
f 940/426/183 939/428/183 937/427/182
f 942/229/184 941/232/184 939/428/183
f 944/429/185 943/431/185 941/232/184
f 946/430/186 945/433/186 943/431/185
f 948/432/187 947/434/187 945/433/186
f 950/231/188 949/234/188 947/434/187
f 952/435/189 951/437/189 949/234/188
f 954/436/190 953/439/190 951/437/189
f 956/438/191 955/440/191 953/439/190
f 958/233/192 957/236/192 955/440/191
f 960/441/193 959/443/193 957/236/192
f 962/442/194 961/445/194 959/443/193
f 964/444/195 963/446/195 961/445/194
f 966/235/196 965/238/196 963/446/195
f 968/447/197 967/449/199 965/238/196
f 970/448/198 969/451/198 967/449/199
f 972/450/200 971/452/200 969/451/198
f 974/237/201 973/240/201 971/452/200
f 976/453/202 975/455/202 973/240/201
f 978/454/203 977/457/203 975/455/202
f 980/456/204 979/458/204 977/457/203
f 982/239/205 981/242/205 979/458/204
f 984/459/206 983/461/206 981/242/205
f 986/460/207 985/463/209 983/461/206
f 988/462/208 987/464/208 985/463/209
f 926/241/152 925/18/152 987/464/208
f 992/358/152 991/361/152 989/14/152
f 994/362/210 993/364/210 991/361/152
f 996/365/211 995/367/211 993/364/210
f 998/368/212 997/75/212 995/367/211
f 1000/229/213 999/232/213 997/75/212
f 1002/373/214 1001/376/214 999/232/213
f 1004/377/215 1003/379/215 1001/376/214
f 1006/380/216 1005/58/216 1003/379/215
f 1008/382/217 1007/385/217 1005/58/216
f 1010/233/142 1009/236/142 1007/385/217
f 1012/388/142 1011/391/142 1009/236/142
f 1014/392/218 1013/39/218 1011/391/142
f 1016/394/219 1015/396/219 1013/39/218
f 1018/397/220 1017/400/220 1015/396/219
f 1020/237/221 1019/240/221 1017/400/220
f 1022/403/222 1021/37/222 1019/240/221
f 1024/406/223 1023/408/223 1021/37/222
f 1026/409/224 1025/411/224 1023/408/223
f 1028/412/225 1027/415/225 1025/411/224
f 990/241/152 989/18/152 1027/415/225
f 1032/227/226 1031/230/229 1029/14/227
f 1034/229/228 1033/232/228 1031/230/229
f 1036/231/230 1035/234/230 1033/232/228
f 1038/233/231 1037/236/231 1035/234/230
f 1040/235/232 1039/238/232 1037/236/231
f 1042/237/233 1041/240/233 1039/238/232
f 1044/239/234 1043/242/234 1041/240/233
f 1030/241/227 1029/18/227 1043/242/234
f 1048/227/235 1047/230/235 1045/14/236
f 1050/229/237 1049/232/237 1047/230/235
f 1052/231/238 1051/234/238 1049/232/237
f 1054/233/239 1053/236/239 1051/234/238
f 1056/235/240 1055/238/240 1053/236/239
f 1058/237/241 1057/240/241 1055/238/240
f 1060/239/242 1059/242/242 1057/240/241
f 1046/241/236 1045/18/236 1059/242/242
f 1064/227/243 1063/230/243 1061/14/244
f 1066/229/245 1065/232/245 1063/230/243
f 1068/231/246 1067/234/246 1065/232/245
f 1070/233/247 1069/236/247 1067/234/246
f 1072/235/248 1071/238/248 1069/236/247
f 1074/237/249 1073/240/249 1071/238/248
f 1076/239/250 1075/242/251 1073/240/249
f 1062/241/244 1061/18/244 1075/242/251
f 1080/310/252 1079/313/252 1077/14/253
f 1082/314/254 1081/317/254 1079/313/252
f 1084/318/255 1083/320/255 1081/317/254
f 1086/321/256 1085/323/256 1083/320/255
f 1088/324/257 1087/327/257 1085/323/256
f 1090/328/258 1089/331/258 1087/327/257
f 1092/233/259 1091/236/259 1089/331/258
f 1094/334/260 1093/337/260 1091/236/259
f 1096/338/261 1095/341/263 1093/337/260
f 1098/342/262 1097/344/262 1095/341/263
f 1100/345/264 1099/347/264 1097/344/262
f 1102/348/265 1101/351/265 1099/347/264
f 1104/352/266 1103/355/266 1101/351/265
f 1078/241/253 1077/18/253 1103/355/266
f 1108/227/267 1107/230/267 1105/14/268
f 1110/229/270 1109/232/270 1107/230/267
f 1112/231/271 1111/234/271 1109/232/270
f 1114/233/272 1113/236/272 1111/234/271
f 1116/235/273 1115/238/273 1113/236/272
f 1118/237/274 1117/240/274 1115/238/273
f 1120/239/275 1119/242/275 1117/240/274
f 1106/241/269 1105/18/268 1119/242/275
f 1124/417/276 1123/419/276 1121/14/277
f 1126/418/278 1125/421/278 1123/419/276
f 1128/420/279 1127/422/279 1125/421/278
f 1130/227/280 1129/230/280 1127/422/279
f 1132/423/281 1131/425/281 1129/230/280
f 1134/424/282 1133/427/282 1131/425/281
f 1136/426/283 1135/428/283 1133/427/282
f 1138/229/284 1137/232/284 1135/428/283
f 1140/429/285 1139/431/285 1137/232/284
f 1142/430/286 1141/433/286 1139/431/285
f 1144/432/287 1143/434/289 1141/433/286
f 1146/231/288 1145/234/291 1143/434/289
f 1148/435/290 1147/437/290 1145/234/291
f 1150/436/292 1149/439/292 1147/437/290
f 1152/438/293 1151/440/293 1149/439/292
f 1154/233/294 1153/236/294 1151/440/293
f 1156/441/295 1155/443/295 1153/236/294
f 1158/442/296 1157/445/296 1155/443/295
f 1160/444/297 1159/446/297 1157/445/296
f 1162/235/298 1161/238/298 1159/446/297
f 1164/447/299 1163/449/299 1161/238/298
f 1166/448/300 1165/451/300 1163/449/299
f 1168/450/301 1167/452/301 1165/451/300
f 1170/237/302 1169/240/302 1167/452/301
f 1172/453/303 1171/455/305 1169/240/302
f 1174/454/304 1173/457/304 1171/455/305
f 1176/456/306 1175/458/306 1173/457/304
f 1178/239/307 1177/242/307 1175/458/306
f 1180/459/308 1179/461/308 1177/242/307
f 1182/460/309 1181/463/309 1179/461/308
f 1184/462/310 1183/464/310 1181/463/309
f 1122/241/277 1121/18/277 1183/464/310
