# Blender 4.1.1
# www.blender.org
mtllib Nine.mtl
o テキスト
v -0.027904 0.186875 -0.020000
v -0.095904 0.319000 -0.020000
v -0.045154 0.297750 -0.020000
v 0.010096 0.290000 -0.020000
v 0.147096 0.347875 -0.020000
v 0.203096 0.489000 -0.020000
v 0.146346 0.627875 -0.020000
v -0.004904 0.691000 -0.020000
v -0.160654 0.620125 -0.020000
v -0.221904 0.442000 -0.020000
v -0.144904 0.191375 -0.020000
v 0.052096 -0.009000 -0.020000
v 0.112096 0.063000 -0.020000
v -0.060404 0.391750 -0.020000
v -0.115904 0.420000 -0.020000
v -0.120279 0.450125 -0.020000
v -0.120904 0.475000 -0.020000
v -0.087529 0.561250 -0.020000
v -0.006904 0.598000 -0.020000
v 0.073471 0.567625 -0.020000
v 0.105096 0.490000 -0.020000
v 0.071096 0.414375 -0.020000
v -0.010904 0.383000 -0.020000
v -0.027904 0.186875 0.020000
v -0.095904 0.319000 0.020000
v -0.045154 0.297750 0.020000
v 0.010096 0.290000 0.020000
v 0.147096 0.347875 0.020000
v 0.203096 0.489000 0.020000
v 0.146346 0.627875 0.020000
v -0.004904 0.691000 0.020000
v -0.160654 0.620125 0.020000
v -0.221904 0.442000 0.020000
v -0.144904 0.191375 0.020000
v 0.052096 -0.009000 0.020000
v 0.112096 0.063000 0.020000
v -0.060404 0.391750 0.020000
v -0.115904 0.420000 0.020000
v -0.120279 0.450125 0.020000
v -0.120904 0.475000 0.020000
v -0.087529 0.561250 0.020000
v -0.006904 0.598000 0.020000
v 0.073471 0.567625 0.020000
v 0.105096 0.490000 0.020000
v 0.071096 0.414375 0.020000
v -0.010904 0.383000 0.020000
v -0.027904 0.186875 0.020000
v -0.027904 0.186875 -0.020000
v -0.095904 0.319000 0.020000
v -0.095904 0.319000 -0.020000
v -0.045154 0.297750 0.020000
v -0.045154 0.297750 -0.020000
v 0.010096 0.290000 0.020000
v 0.010096 0.290000 -0.020000
v 0.147096 0.347875 0.020000
v 0.147096 0.347875 -0.020000
v 0.203096 0.489000 0.020000
v 0.203096 0.489000 -0.020000
v 0.146346 0.627875 0.020000
v 0.146346 0.627875 -0.020000
v -0.004904 0.691000 0.020000
v -0.004904 0.691000 -0.020000
v -0.160654 0.620125 0.020000
v -0.160654 0.620125 -0.020000
v -0.221904 0.442000 0.020000
v -0.221904 0.442000 -0.020000
v -0.144904 0.191375 0.020000
v -0.144904 0.191375 -0.020000
v 0.052096 -0.009000 0.020000
v 0.052096 -0.009000 -0.020000
v 0.112096 0.063000 0.020000
v 0.112096 0.063000 -0.020000
v -0.060404 0.391750 0.020000
v -0.060404 0.391750 -0.020000
v -0.115904 0.420000 0.020000
v -0.115904 0.420000 -0.020000
v -0.120279 0.450125 0.020000
v -0.120279 0.450125 -0.020000
v -0.120904 0.475000 0.020000
v -0.120904 0.475000 -0.020000
v -0.087529 0.561250 0.020000
v -0.087529 0.561250 -0.020000
v -0.006904 0.598000 0.020000
v -0.006904 0.598000 -0.020000
v 0.073471 0.567625 0.020000
v 0.073471 0.567625 -0.020000
v 0.105096 0.490000 0.020000
v 0.105096 0.490000 -0.020000
v 0.071096 0.414375 0.020000
v 0.071096 0.414375 -0.020000
v -0.010904 0.383000 0.020000
v -0.010904 0.383000 -0.020000
vn -0.0000 -0.0000 -1.0000
vn -0.0000 -0.0000 1.0000
vn 0.7344 -0.6788 -0.0000
vn 0.7895 0.6138 -0.0000
vn -0.2648 -0.9643 -0.0000
vn 0.7344 -0.6787 -0.0000
vn 0.1298 -0.9915 -0.0000
vn 0.7148 -0.6993 -0.0000
vn 1.0000 0.0051 -0.0000
vn 0.7097 0.7045 -0.0000
vn -0.0158 0.9999 -0.0000
vn -0.7402 0.6724 -0.0000
vn -0.9999 0.0166 -0.0000
vn -0.8590 -0.5120 -0.0000
vn 0.0411 -0.9992 -0.0000
vn 0.9971 0.0758 -0.0000
vn 0.0410 -0.9992 -0.0000
vn 0.8127 0.5827 -0.0000
vn 0.3173 0.9483 -0.0000
vn 0.9964 0.0846 -0.0000
vn 0.9852 -0.1712 -0.0000
vn 0.7275 -0.6861 -0.0000
vn 0.0332 -0.9995 -0.0000
vn -0.6980 -0.7161 -0.0000
vn 0.0332 -0.9994 -0.0000
vn -0.9998 0.0178 -0.0000
vn -0.6866 0.7270 -0.0000
vn -0.0951 0.9955 -0.0000
vt 0.272727 0.000000
vt 0.363636 0.000000
vt 0.318182 0.000000
vt 0.227273 0.000000
vt 0.863636 0.000000
vt 0.818182 0.000000
vt 0.772727 0.000000
vt 0.409091 0.000000
vt 0.909091 0.000000
vt 0.727273 0.000000
vt 0.954545 0.000000
vt 0.181818 0.000000
vt 0.681818 0.000000
vt 0.636364 0.000000
vt 0.454545 0.000000
vt 0.590909 0.000000
vt 0.045455 0.000000
vt 1.000000 0.000000
vt 0.136364 0.000000
vt 0.090909 0.000000
vt 0.000000 0.000000
vt 0.500000 0.000000
vt 0.545455 0.000000
vt 0.076923 1.000000
vt 0.000000 1.000000
vt 0.153846 1.000000
vt 0.076923 0.000000
vt 0.230769 1.000000
vt 0.153846 0.000000
vt 0.307692 1.000000
vt 0.230769 0.000000
vt 0.384615 1.000000
vt 0.307692 0.000000
vt 0.461538 1.000000
vt 0.384615 0.000000
vt 0.538462 1.000000
vt 0.461538 0.000000
vt 0.615385 1.000000
vt 0.538462 0.000000
vt 0.692308 1.000000
vt 0.615385 0.000000
vt 0.769231 1.000000
vt 0.692308 0.000000
vt 0.846154 1.000000
vt 0.769231 0.000000
vt 0.923077 1.000000
vt 0.846154 0.000000
vt 1.000000 1.000000
vt 0.923077 0.000000
vt 0.100000 1.000000
vt 0.200000 1.000000
vt 0.100000 0.000000
vt 0.300000 1.000000
vt 0.200000 0.000000
vt 0.400000 1.000000
vt 0.300000 0.000000
vt 0.500000 1.000000
vt 0.400000 0.000000
vt 0.600000 1.000000
vt 0.700000 1.000000
vt 0.600000 0.000000
vt 0.800000 1.000000
vt 0.700000 0.000000
vt 0.900000 1.000000
vt 0.800000 0.000000
vt 0.900000 0.000000
s 0
usemtl マテリアル
f 7/1/1 9/2/1 8/3/1
f 6/4/1 20/5/1 7/1/1
f 20/5/1 19/6/1 7/1/1
f 19/6/1 9/2/1 7/1/1
f 19/6/1 18/7/1 9/2/1
f 18/7/1 10/8/1 9/2/1
f 6/4/1 21/9/1 20/5/1
f 17/10/1 10/8/1 18/7/1
f 6/4/1 22/11/1 21/9/1
f 5/12/1 22/11/1 6/4/1
f 16/13/1 10/8/1 17/10/1
f 15/14/1 10/8/1 16/13/1
f 15/14/1 11/15/1 10/8/1
f 14/16/1 2/17/1 15/14/1
f 2/17/1 11/15/1 15/14/1
f 5/12/1 23/18/1 22/11/1
f 23/18/1 2/17/1 14/16/1
f 5/12/1 2/17/1 23/18/1
f 4/19/1 2/17/1 5/12/1
f 4/19/1 3/20/1 2/17/1
f 1/21/1 11/15/1 2/17/1
f 1/21/1 12/22/1 11/15/1
f 13/23/1 12/22/1 1/21/1
f 30/1/2 31/3/2 32/2/2
f 29/4/2 30/1/2 43/5/2
f 43/5/2 30/1/2 42/6/2
f 42/6/2 30/1/2 32/2/2
f 42/6/2 32/2/2 41/7/2
f 41/7/2 32/2/2 33/8/2
f 29/4/2 43/5/2 44/9/2
f 40/10/2 41/7/2 33/8/2
f 29/4/2 44/9/2 45/11/2
f 28/12/2 29/4/2 45/11/2
f 39/13/2 40/10/2 33/8/2
f 38/14/2 39/13/2 33/8/2
f 38/14/2 33/8/2 34/15/2
f 37/16/2 38/14/2 25/17/2
f 25/17/2 38/14/2 34/15/2
f 28/12/2 45/11/2 46/18/2
f 46/18/2 37/16/2 25/17/2
f 28/12/2 46/18/2 25/17/2
f 27/19/2 28/12/2 25/17/2
f 27/19/2 25/17/2 26/20/2
f 24/21/2 25/17/2 34/15/2
f 24/21/2 34/15/2 35/22/2
f 36/23/2 24/21/2 35/22/2
s 1
f 50/24/3 47/21/4 48/25/4
f 52/26/5 49/27/6 50/24/3
f 54/28/7 51/29/5 52/26/5
f 56/30/8 53/31/7 54/28/7
f 58/32/9 55/33/8 56/30/8
f 60/34/10 57/35/9 58/32/9
f 62/36/11 59/37/10 60/34/10
f 64/38/12 61/39/11 62/36/11
f 66/40/13 63/41/12 64/38/12
f 68/42/14 65/43/13 66/40/13
f 70/44/15 67/45/14 68/42/14
f 72/46/16 69/47/17 70/44/15
f 48/48/4 71/49/16 72/46/16
f 76/50/18 73/21/19 74/25/19
f 78/51/20 75/52/18 76/50/18
f 80/53/21 77/54/20 78/51/20
f 82/55/22 79/56/21 80/53/21
f 84/57/23 81/58/22 82/55/22
f 86/59/24 83/22/25 84/57/23
f 88/60/26 85/61/24 86/59/24
f 90/62/27 87/63/26 88/60/26
f 92/64/28 89/65/27 90/62/27
f 74/48/19 91/66/28 92/64/28
f 50/24/3 49/27/6 47/21/4
f 52/26/5 51/29/5 49/27/6
f 54/28/7 53/31/7 51/29/5
f 56/30/8 55/33/8 53/31/7
f 58/32/9 57/35/9 55/33/8
f 60/34/10 59/37/10 57/35/9
f 62/36/11 61/39/11 59/37/10
f 64/38/12 63/41/12 61/39/11
f 66/40/13 65/43/13 63/41/12
f 68/42/14 67/45/14 65/43/13
f 70/44/15 69/47/17 67/45/14
f 72/46/16 71/49/16 69/47/17
f 48/48/4 47/18/4 71/49/16
f 76/50/18 75/52/18 73/21/19
f 78/51/20 77/54/20 75/52/18
f 80/53/21 79/56/21 77/54/20
f 82/55/22 81/58/22 79/56/21
f 84/57/23 83/22/25 81/58/22
f 86/59/24 85/61/24 83/22/25
f 88/60/26 87/63/26 85/61/24
f 90/62/27 89/65/27 87/63/26
f 92/64/28 91/66/28 89/65/27
f 74/48/19 73/18/19 91/66/28
