# Blender 4.1.1
# www.blender.org
mtllib Succeeded.mtl
o テキスト
v -1.288430 0.020778 -0.050000
v -1.266874 -0.000778 -0.050000
v -1.236652 -0.009000 -0.050000
v -1.206430 -0.000778 -0.050000
v -1.184874 0.020778 -0.050000
v -1.176652 0.051000 -0.050000
v -1.184874 0.081222 -0.050000
v -1.206430 0.102778 -0.050000
v -1.236652 0.111000 -0.050000
v -1.266874 0.102778 -0.050000
v -1.288430 0.081222 -0.050000
v -1.296652 0.051000 -0.050000
v -1.267060 0.674630 -0.050000
v -1.285578 0.625370 -0.050000
v -1.291652 0.543000 -0.050000
v -1.290985 0.501704 -0.050000
v -1.288985 0.465963 -0.050000
v -1.285652 0.436000 -0.050000
v -1.260652 0.264000 -0.050000
v -1.254393 0.228111 -0.050000
v -1.246578 0.207556 -0.050000
v -1.235652 0.201000 -0.050000
v -1.224726 0.207556 -0.050000
v -1.216911 0.228111 -0.050000
v -1.210652 0.264000 -0.050000
v -1.185652 0.436000 -0.050000
v -1.182319 0.465963 -0.050000
v -1.180319 0.501704 -0.050000
v -1.179652 0.543000 -0.050000
v -1.185726 0.625370 -0.050000
v -1.204245 0.674630 -0.050000
v -1.235652 0.691000 -0.050000
v -1.017430 0.020778 -0.050000
v -0.995874 -0.000778 -0.050000
v -0.965652 -0.009000 -0.050000
v -0.935430 -0.000778 -0.050000
v -0.913874 0.020778 -0.050000
v -0.905652 0.051000 -0.050000
v -0.913875 0.081222 -0.050000
v -0.935430 0.102778 -0.050000
v -0.965652 0.111000 -0.050000
v -0.995874 0.102778 -0.050000
v -1.017430 0.081222 -0.050000
v -1.025652 0.051000 -0.050000
v -0.996060 0.674630 -0.050000
v -1.014578 0.625370 -0.050000
v -1.020652 0.543000 -0.050000
v -1.019986 0.501704 -0.050000
v -1.017985 0.465963 -0.050000
v -1.014652 0.436000 -0.050000
v -0.989652 0.264000 -0.050000
v -0.983393 0.228111 -0.050000
v -0.975578 0.207556 -0.050000
v -0.964652 0.201000 -0.050000
v -0.953726 0.207556 -0.050000
v -0.945911 0.228111 -0.050000
v -0.939652 0.264000 -0.050000
v -0.914652 0.436000 -0.050000
v -0.911319 0.465963 -0.050000
v -0.909319 0.501704 -0.050000
v -0.908652 0.543000 -0.050000
v -0.914726 0.625370 -0.050000
v -0.933245 0.674630 -0.050000
v -0.964652 0.691000 -0.050000
v -0.028652 0.650000 -0.050000
v 0.119348 0.650000 -0.050000
v 0.119348 0.722000 -0.050000
v -0.248652 0.722000 -0.050000
v -0.248652 0.650000 -0.050000
v -0.102652 0.650000 -0.050000
v -0.102652 0.242000 -0.050000
v -0.263652 0.285000 -0.050000
v -0.272652 0.214000 -0.050000
v -0.135652 0.174852 -0.050000
v -0.003319 0.137481 -0.050000
v 0.114348 0.105000 -0.050000
v 0.132348 0.182000 -0.050000
v 0.084607 0.193259 -0.050000
v 0.030422 0.206741 -0.050000
v -0.028652 0.222000 -0.050000
v -0.501319 0.751667 -0.050000
v -0.500319 0.680667 -0.050000
v -0.498652 0.611000 -0.050000
v -0.769652 0.611000 -0.050000
v -0.769652 0.603630 -0.050000
v -0.769652 0.588037 -0.050000
v -0.769652 0.574000 -0.050000
v -0.753356 0.243630 -0.050000
v -0.732615 0.055037 -0.050000
v -0.701652 -0.030000 -0.050000
v -0.679208 -0.051889 -0.050000
v -0.654097 -0.063778 -0.050000
v -0.623652 -0.069000 -0.050000
v -0.583986 -0.070741 -0.050000
v -0.532986 -0.070259 -0.050000
v -0.476652 -0.068000 -0.050000
v -0.472652 -0.043481 -0.050000
v -0.464652 -0.017185 -0.050000
v -0.452652 0.006000 -0.050000
v -0.511615 0.002222 -0.050000
v -0.560356 0.000444 -0.050000
v -0.592652 -0.000000 -0.050000
v -0.610430 0.001259 -0.050000
v -0.623541 0.006074 -0.050000
v -0.634652 0.016000 -0.050000
v -0.659986 0.086259 -0.050000
v -0.679319 0.252074 -0.050000
v -0.694652 0.539000 -0.050000
v -0.494652 0.539000 -0.050000
v -0.459615 0.288481 -0.050000
v -0.367689 0.077519 -0.050000
v -0.190652 -0.081000 -0.050000
v -0.176430 -0.060370 -0.050000
v -0.156874 -0.039296 -0.050000
v -0.136652 -0.022000 -0.050000
v -0.302060 0.120333 -0.050000
v -0.387911 0.310667 -0.050000
v -0.420652 0.539000 -0.050000
v -0.255652 0.539000 -0.050000
v -0.255652 0.611000 -0.050000
v -0.423652 0.611000 -0.050000
v -0.425319 0.680667 -0.050000
v -0.426319 0.751667 -0.050000
v -0.426652 0.824000 -0.050000
v -0.501652 0.824000 -0.050000
v 0.547977 0.781630 -0.050000
v 0.546718 0.725370 -0.050000
v 0.544348 0.670000 -0.050000
v 0.219348 0.670000 -0.050000
v 0.219348 0.597000 -0.050000
v 0.540348 0.597000 -0.050000
v 0.526718 0.468259 -0.050000
v 0.507977 0.351074 -0.050000
v 0.484348 0.247000 -0.050000
v 0.434014 0.330630 -0.050000
v 0.391014 0.421370 -0.050000
v 0.355348 0.519000 -0.050000
v 0.280348 0.500000 -0.050000
v 0.328644 0.374704 -0.050000
v 0.387385 0.260963 -0.050000
v 0.456348 0.159000 -0.050000
v 0.416755 0.075259 -0.050000
v 0.372274 0.022407 -0.050000
v 0.323348 0.004000 -0.050000
v 0.299607 0.022407 -0.050000
v 0.284755 0.081926 -0.050000
v 0.276348 0.189000 -0.050000
v 0.256385 0.172370 -0.050000
v 0.233311 0.157963 -0.050000
v 0.211348 0.148000 -0.050000
v 0.230607 0.014704 -0.050000
v 0.267422 -0.053704 -0.050000
v 0.329348 -0.073000 -0.050000
v 0.400792 -0.053111 -0.050000
v 0.461570 0.003444 -0.050000
v 0.512348 0.092000 -0.050000
v 0.576014 0.029593 -0.050000
v 0.645014 -0.025926 -0.050000
v 0.719348 -0.075000 -0.050000
v 0.735385 -0.055148 -0.050000
v 0.755644 -0.032185 -0.050000
v 0.774348 -0.013000 -0.050000
v 0.689311 0.038963 -0.050000
v 0.612051 0.100704 -0.050000
v 0.542348 0.172000 -0.050000
v 0.575755 0.297296 -0.050000
v 0.600274 0.440370 -0.050000
v 0.616348 0.597000 -0.050000
v 0.964348 0.597000 -0.050000
v 0.964348 0.465000 -0.050000
v 0.707348 0.465000 -0.050000
v 0.707607 0.458926 -0.050000
v 0.708089 0.445741 -0.050000
v 0.708348 0.433000 -0.050000
v 0.713940 0.251630 -0.050000
v 0.723089 0.145370 -0.050000
v 0.739348 0.096000 -0.050000
v 0.756014 0.080704 -0.050000
v 0.775348 0.071630 -0.050000
v 0.799348 0.067000 -0.050000
v 0.831385 0.065704 -0.050000
v 0.872977 0.065963 -0.050000
v 0.920348 0.068000 -0.050000
v 0.923570 0.091259 -0.050000
v 0.930792 0.116074 -0.050000
v 0.941348 0.138000 -0.050000
v 0.897200 0.134481 -0.050000
v 0.860163 0.133185 -0.050000
v 0.835348 0.133000 -0.050000
v 0.822163 0.133852 -0.050000
v 0.811866 0.137148 -0.050000
v 0.803348 0.144000 -0.050000
v 0.792755 0.177519 -0.050000
v 0.785940 0.256815 -0.050000
v 0.781348 0.395000 -0.050000
v 0.964348 0.395000 -0.050000
v 0.964348 0.388000 -0.050000
v 0.971644 0.231519 -0.050000
v 1.002718 0.063481 -0.050000
v 1.071348 -0.087000 -0.050000
v 1.089459 -0.069370 -0.050000
v 1.112903 -0.050630 -0.050000
v 1.134348 -0.037000 -0.050000
v 1.073607 0.099222 -0.050000
v 1.047755 0.248111 -0.050000
v 1.042348 0.389000 -0.050000
v 1.042348 0.670000 -0.050000
v 0.621348 0.670000 -0.050000
v 0.623977 0.725593 -0.050000
v 0.625718 0.782074 -0.050000
v 0.626348 0.839000 -0.050000
v 0.548348 0.839000 -0.050000
v 0.388089 0.800222 -0.050000
v 0.323607 0.759778 -0.050000
v 0.273348 0.722000 -0.050000
v 0.320348 0.670000 -0.050000
v 0.369422 0.709778 -0.050000
v 0.432940 0.752222 -0.050000
v 0.499348 0.790000 -0.050000
v 0.454348 0.836000 -0.050000
v -1.288430 0.020778 0.050000
v -1.266874 -0.000778 0.050000
v -1.236652 -0.009000 0.050000
v -1.206430 -0.000778 0.050000
v -1.184874 0.020778 0.050000
v -1.176652 0.051000 0.050000
v -1.184874 0.081222 0.050000
v -1.206430 0.102778 0.050000
v -1.236652 0.111000 0.050000
v -1.266874 0.102778 0.050000
v -1.288430 0.081222 0.050000
v -1.296652 0.051000 0.050000
v -1.267060 0.674630 0.050000
v -1.285578 0.625370 0.050000
v -1.291652 0.543000 0.050000
v -1.290985 0.501704 0.050000
v -1.288985 0.465963 0.050000
v -1.285652 0.436000 0.050000
v -1.260652 0.264000 0.050000
v -1.254393 0.228111 0.050000
v -1.246578 0.207556 0.050000
v -1.235652 0.201000 0.050000
v -1.224726 0.207556 0.050000
v -1.216911 0.228111 0.050000
v -1.210652 0.264000 0.050000
v -1.185652 0.436000 0.050000
v -1.182319 0.465963 0.050000
v -1.180319 0.501704 0.050000
v -1.179652 0.543000 0.050000
v -1.185726 0.625370 0.050000
v -1.204245 0.674630 0.050000
v -1.235652 0.691000 0.050000
v -1.017430 0.020778 0.050000
v -0.995874 -0.000778 0.050000
v -0.965652 -0.009000 0.050000
v -0.935430 -0.000778 0.050000
v -0.913874 0.020778 0.050000
v -0.905652 0.051000 0.050000
v -0.913875 0.081222 0.050000
v -0.935430 0.102778 0.050000
v -0.965652 0.111000 0.050000
v -0.995874 0.102778 0.050000
v -1.017430 0.081222 0.050000
v -1.025652 0.051000 0.050000
v -0.996060 0.674630 0.050000
v -1.014578 0.625370 0.050000
v -1.020652 0.543000 0.050000
v -1.019986 0.501704 0.050000
v -1.017985 0.465963 0.050000
v -1.014652 0.436000 0.050000
v -0.989652 0.264000 0.050000
v -0.983393 0.228111 0.050000
v -0.975578 0.207556 0.050000
v -0.964652 0.201000 0.050000
v -0.953726 0.207556 0.050000
v -0.945911 0.228111 0.050000
v -0.939652 0.264000 0.050000
v -0.914652 0.436000 0.050000
v -0.911319 0.465963 0.050000
v -0.909319 0.501704 0.050000
v -0.908652 0.543000 0.050000
v -0.914726 0.625370 0.050000
v -0.933245 0.674630 0.050000
v -0.964652 0.691000 0.050000
v -0.028652 0.650000 0.050000
v 0.119348 0.650000 0.050000
v 0.119348 0.722000 0.050000
v -0.248652 0.722000 0.050000
v -0.248652 0.650000 0.050000
v -0.102652 0.650000 0.050000
v -0.102652 0.242000 0.050000
v -0.263652 0.285000 0.050000
v -0.272652 0.214000 0.050000
v -0.135652 0.174852 0.050000
v -0.003319 0.137481 0.050000
v 0.114348 0.105000 0.050000
v 0.132348 0.182000 0.050000
v 0.084607 0.193259 0.050000
v 0.030422 0.206741 0.050000
v -0.028652 0.222000 0.050000
v -0.501319 0.751667 0.050000
v -0.500319 0.680667 0.050000
v -0.498652 0.611000 0.050000
v -0.769652 0.611000 0.050000
v -0.769652 0.603630 0.050000
v -0.769652 0.588037 0.050000
v -0.769652 0.574000 0.050000
v -0.753356 0.243630 0.050000
v -0.732615 0.055037 0.050000
v -0.701652 -0.030000 0.050000
v -0.679208 -0.051889 0.050000
v -0.654097 -0.063778 0.050000
v -0.623652 -0.069000 0.050000
v -0.583986 -0.070741 0.050000
v -0.532986 -0.070259 0.050000
v -0.476652 -0.068000 0.050000
v -0.472652 -0.043481 0.050000
v -0.464652 -0.017185 0.050000
v -0.452652 0.006000 0.050000
v -0.511615 0.002222 0.050000
v -0.560356 0.000444 0.050000
v -0.592652 0.000000 0.050000
v -0.610430 0.001259 0.050000
v -0.623541 0.006074 0.050000
v -0.634652 0.016000 0.050000
v -0.659986 0.086259 0.050000
v -0.679319 0.252074 0.050000
v -0.694652 0.539000 0.050000
v -0.494652 0.539000 0.050000
v -0.459615 0.288481 0.050000
v -0.367689 0.077519 0.050000
v -0.190652 -0.081000 0.050000
v -0.176430 -0.060370 0.050000
v -0.156874 -0.039296 0.050000
v -0.136652 -0.022000 0.050000
v -0.302060 0.120333 0.050000
v -0.387911 0.310667 0.050000
v -0.420652 0.539000 0.050000
v -0.255652 0.539000 0.050000
v -0.255652 0.611000 0.050000
v -0.423652 0.611000 0.050000
v -0.425319 0.680667 0.050000
v -0.426319 0.751667 0.050000
v -0.426652 0.824000 0.050000
v -0.501652 0.824000 0.050000
v 0.547977 0.781630 0.050000
v 0.546718 0.725370 0.050000
v 0.544348 0.670000 0.050000
v 0.219348 0.670000 0.050000
v 0.219348 0.597000 0.050000
v 0.540348 0.597000 0.050000
v 0.526718 0.468259 0.050000
v 0.507977 0.351074 0.050000
v 0.484348 0.247000 0.050000
v 0.434014 0.330630 0.050000
v 0.391014 0.421370 0.050000
v 0.355348 0.519000 0.050000
v 0.280348 0.500000 0.050000
v 0.328644 0.374704 0.050000
v 0.387385 0.260963 0.050000
v 0.456348 0.159000 0.050000
v 0.416755 0.075259 0.050000
v 0.372274 0.022407 0.050000
v 0.323348 0.004000 0.050000
v 0.299607 0.022407 0.050000
v 0.284755 0.081926 0.050000
v 0.276348 0.189000 0.050000
v 0.256385 0.172370 0.050000
v 0.233311 0.157963 0.050000
v 0.211348 0.148000 0.050000
v 0.230607 0.014704 0.050000
v 0.267422 -0.053704 0.050000
v 0.329348 -0.073000 0.050000
v 0.400792 -0.053111 0.050000
v 0.461570 0.003444 0.050000
v 0.512348 0.092000 0.050000
v 0.576014 0.029593 0.050000
v 0.645014 -0.025926 0.050000
v 0.719348 -0.075000 0.050000
v 0.735385 -0.055148 0.050000
v 0.755644 -0.032185 0.050000
v 0.774348 -0.013000 0.050000
v 0.689311 0.038963 0.050000
v 0.612051 0.100704 0.050000
v 0.542348 0.172000 0.050000
v 0.575755 0.297296 0.050000
v 0.600274 0.440370 0.050000
v 0.616348 0.597000 0.050000
v 0.964348 0.597000 0.050000
v 0.964348 0.465000 0.050000
v 0.707348 0.465000 0.050000
v 0.707607 0.458926 0.050000
v 0.708089 0.445741 0.050000
v 0.708348 0.433000 0.050000
v 0.713940 0.251630 0.050000
v 0.723089 0.145370 0.050000
v 0.739348 0.096000 0.050000
v 0.756014 0.080704 0.050000
v 0.775348 0.071630 0.050000
v 0.799348 0.067000 0.050000
v 0.831385 0.065704 0.050000
v 0.872977 0.065963 0.050000
v 0.920348 0.068000 0.050000
v 0.923570 0.091259 0.050000
v 0.930792 0.116074 0.050000
v 0.941348 0.138000 0.050000
v 0.897200 0.134481 0.050000
v 0.860163 0.133185 0.050000
v 0.835348 0.133000 0.050000
v 0.822163 0.133852 0.050000
v 0.811866 0.137148 0.050000
v 0.803348 0.144000 0.050000
v 0.792755 0.177519 0.050000
v 0.785940 0.256815 0.050000
v 0.781348 0.395000 0.050000
v 0.964348 0.395000 0.050000
v 0.964348 0.388000 0.050000
v 0.971644 0.231519 0.050000
v 1.002718 0.063481 0.050000
v 1.071348 -0.087000 0.050000
v 1.089459 -0.069370 0.050000
v 1.112903 -0.050630 0.050000
v 1.134348 -0.037000 0.050000
v 1.073607 0.099222 0.050000
v 1.047755 0.248111 0.050000
v 1.042348 0.389000 0.050000
v 1.042348 0.670000 0.050000
v 0.621348 0.670000 0.050000
v 0.623977 0.725593 0.050000
v 0.625718 0.782074 0.050000
v 0.626348 0.839000 0.050000
v 0.548348 0.839000 0.050000
v 0.388089 0.800222 0.050000
v 0.323607 0.759778 0.050000
v 0.273348 0.722000 0.050000
v 0.320348 0.670000 0.050000
v 0.369422 0.709778 0.050000
v 0.432940 0.752222 0.050000
v 0.499348 0.790000 0.050000
v 0.454348 0.836000 0.050000
v 0.547977 0.781630 0.050000
v 0.547977 0.781630 -0.050000
v 0.546718 0.725370 0.050000
v 0.546718 0.725370 -0.050000
v 0.544348 0.670000 0.050000
v 0.544348 0.670000 -0.050000
v 0.219348 0.670000 0.050000
v 0.219348 0.670000 -0.050000
v 0.219348 0.597000 0.050000
v 0.219348 0.597000 -0.050000
v 0.540348 0.597000 0.050000
v 0.540348 0.597000 -0.050000
v 0.526718 0.468259 0.050000
v 0.526718 0.468259 -0.050000
v 0.507977 0.351074 0.050000
v 0.507977 0.351074 -0.050000
v 0.484348 0.247000 0.050000
v 0.484348 0.247000 -0.050000
v 0.434014 0.330630 0.050000
v 0.434014 0.330630 -0.050000
v 0.391014 0.421370 0.050000
v 0.391014 0.421370 -0.050000
v 0.355348 0.519000 0.050000
v 0.355348 0.519000 -0.050000
v 0.280348 0.500000 0.050000
v 0.280348 0.500000 -0.050000
v 0.328644 0.374704 0.050000
v 0.328644 0.374704 -0.050000
v 0.387385 0.260963 0.050000
v 0.387385 0.260963 -0.050000
v 0.456348 0.159000 0.050000
v 0.456348 0.159000 -0.050000
v 0.416755 0.075259 0.050000
v 0.416755 0.075259 -0.050000
v 0.372274 0.022407 0.050000
v 0.372274 0.022407 -0.050000
v 0.323348 0.004000 0.050000
v 0.323348 0.004000 -0.050000
v 0.299607 0.022407 0.050000
v 0.299607 0.022407 -0.050000
v 0.284755 0.081926 0.050000
v 0.284755 0.081926 -0.050000
v 0.276348 0.189000 0.050000
v 0.276348 0.189000 -0.050000
v 0.256385 0.172370 0.050000
v 0.256385 0.172370 -0.050000
v 0.233311 0.157963 0.050000
v 0.233311 0.157963 -0.050000
v 0.211348 0.148000 0.050000
v 0.211348 0.148000 -0.050000
v 0.230607 0.014704 0.050000
v 0.230607 0.014704 -0.050000
v 0.267422 -0.053704 0.050000
v 0.267422 -0.053704 -0.050000
v 0.329348 -0.073000 0.050000
v 0.329348 -0.073000 -0.050000
v 0.400792 -0.053111 0.050000
v 0.400792 -0.053111 -0.050000
v 0.461570 0.003444 0.050000
v 0.461570 0.003444 -0.050000
v 0.512348 0.092000 0.050000
v 0.512348 0.092000 -0.050000
v 0.576014 0.029593 0.050000
v 0.576014 0.029593 -0.050000
v 0.645014 -0.025926 0.050000
v 0.645014 -0.025926 -0.050000
v 0.719348 -0.075000 0.050000
v 0.719348 -0.075000 -0.050000
v 0.735385 -0.055148 0.050000
v 0.735385 -0.055148 -0.050000
v 0.755644 -0.032185 0.050000
v 0.755644 -0.032185 -0.050000
v 0.774348 -0.013000 0.050000
v 0.774348 -0.013000 -0.050000
v 0.689311 0.038963 0.050000
v 0.689311 0.038963 -0.050000
v 0.612051 0.100704 0.050000
v 0.612051 0.100704 -0.050000
v 0.542348 0.172000 0.050000
v 0.542348 0.172000 -0.050000
v 0.575755 0.297296 0.050000
v 0.575755 0.297296 -0.050000
v 0.600274 0.440370 0.050000
v 0.600274 0.440370 -0.050000
v 0.616348 0.597000 0.050000
v 0.616348 0.597000 -0.050000
v 0.964348 0.597000 0.050000
v 0.964348 0.597000 -0.050000
v 0.964348 0.465000 0.050000
v 0.964348 0.465000 -0.050000
v 0.707348 0.465000 0.050000
v 0.707348 0.465000 -0.050000
v 0.707607 0.458926 0.050000
v 0.707607 0.458926 -0.050000
v 0.708089 0.445741 0.050000
v 0.708089 0.445741 -0.050000
v 0.708348 0.433000 0.050000
v 0.708348 0.433000 -0.050000
v 0.713940 0.251630 0.050000
v 0.713940 0.251630 -0.050000
v 0.723089 0.145370 0.050000
v 0.723089 0.145370 -0.050000
v 0.739348 0.096000 0.050000
v 0.739348 0.096000 -0.050000
v 0.756014 0.080704 0.050000
v 0.756014 0.080704 -0.050000
v 0.775348 0.071630 0.050000
v 0.775348 0.071630 -0.050000
v 0.799348 0.067000 0.050000
v 0.799348 0.067000 -0.050000
v 0.831385 0.065704 0.050000
v 0.831385 0.065704 -0.050000
v 0.872977 0.065963 0.050000
v 0.872977 0.065963 -0.050000
v 0.920348 0.068000 0.050000
v 0.920348 0.068000 -0.050000
v 0.923570 0.091259 0.050000
v 0.923570 0.091259 -0.050000
v 0.930792 0.116074 0.050000
v 0.930792 0.116074 -0.050000
v 0.941348 0.138000 0.050000
v 0.941348 0.138000 -0.050000
v 0.897200 0.134481 0.050000
v 0.897200 0.134481 -0.050000
v 0.860163 0.133185 0.050000
v 0.860163 0.133185 -0.050000
v 0.835348 0.133000 0.050000
v 0.835348 0.133000 -0.050000
v 0.822163 0.133852 0.050000
v 0.822163 0.133852 -0.050000
v 0.811866 0.137148 0.050000
v 0.811866 0.137148 -0.050000
v 0.803348 0.144000 0.050000
v 0.803348 0.144000 -0.050000
v 0.792755 0.177519 0.050000
v 0.792755 0.177519 -0.050000
v 0.785940 0.256815 0.050000
v 0.785940 0.256815 -0.050000
v 0.781348 0.395000 0.050000
v 0.781348 0.395000 -0.050000
v 0.964348 0.395000 0.050000
v 0.964348 0.395000 -0.050000
v 0.964348 0.388000 0.050000
v 0.964348 0.388000 -0.050000
v 0.971644 0.231519 0.050000
v 0.971644 0.231519 -0.050000
v 1.002718 0.063481 0.050000
v 1.002718 0.063481 -0.050000
v 1.071348 -0.087000 0.050000
v 1.071348 -0.087000 -0.050000
v 1.089459 -0.069370 0.050000
v 1.089459 -0.069370 -0.050000
v 1.112903 -0.050630 0.050000
v 1.112903 -0.050630 -0.050000
v 1.134348 -0.037000 0.050000
v 1.134348 -0.037000 -0.050000
v 1.073607 0.099222 0.050000
v 1.073607 0.099222 -0.050000
v 1.047755 0.248111 0.050000
v 1.047755 0.248111 -0.050000
v 1.042348 0.389000 0.050000
v 1.042348 0.389000 -0.050000
v 1.042348 0.670000 0.050000
v 1.042348 0.670000 -0.050000
v 0.621348 0.670000 0.050000
v 0.621348 0.670000 -0.050000
v 0.623977 0.725593 0.050000
v 0.623977 0.725593 -0.050000
v 0.625718 0.782074 0.050000
v 0.625718 0.782074 -0.050000
v 0.626348 0.839000 0.050000
v 0.626348 0.839000 -0.050000
v 0.548348 0.839000 0.050000
v 0.548348 0.839000 -0.050000
v 0.388089 0.800222 0.050000
v 0.388089 0.800222 -0.050000
v 0.323607 0.759778 0.050000
v 0.323607 0.759778 -0.050000
v 0.273348 0.722000 0.050000
v 0.273348 0.722000 -0.050000
v 0.320348 0.670000 0.050000
v 0.320348 0.670000 -0.050000
v 0.369422 0.709778 0.050000
v 0.369422 0.709778 -0.050000
v 0.432940 0.752222 0.050000
v 0.432940 0.752222 -0.050000
v 0.499348 0.790000 0.050000
v 0.499348 0.790000 -0.050000
v 0.454348 0.836000 0.050000
v 0.454348 0.836000 -0.050000
v -0.028652 0.650000 0.050000
v -0.028652 0.650000 -0.050000
v 0.119348 0.650000 0.050000
v 0.119348 0.650000 -0.050000
v 0.119348 0.722000 0.050000
v 0.119348 0.722000 -0.050000
v -0.248652 0.722000 0.050000
v -0.248652 0.722000 -0.050000
v -0.248652 0.650000 0.050000
v -0.248652 0.650000 -0.050000
v -0.102652 0.650000 0.050000
v -0.102652 0.650000 -0.050000
v -0.102652 0.242000 0.050000
v -0.102652 0.242000 -0.050000
v -0.263652 0.285000 0.050000
v -0.263652 0.285000 -0.050000
v -0.272652 0.214000 0.050000
v -0.272652 0.214000 -0.050000
v -0.135652 0.174852 0.050000
v -0.135652 0.174852 -0.050000
v -0.003319 0.137481 0.050000
v -0.003319 0.137481 -0.050000
v 0.114348 0.105000 0.050000
v 0.114348 0.105000 -0.050000
v 0.132348 0.182000 0.050000
v 0.132348 0.182000 -0.050000
v 0.084607 0.193259 0.050000
v 0.084607 0.193259 -0.050000
v 0.030422 0.206741 0.050000
v 0.030422 0.206741 -0.050000
v -0.028652 0.222000 0.050000
v -0.028652 0.222000 -0.050000
v -0.501319 0.751667 0.050000
v -0.501319 0.751667 -0.050000
v -0.500319 0.680667 0.050000
v -0.500319 0.680667 -0.050000
v -0.498652 0.611000 0.050000
v -0.498652 0.611000 -0.050000
v -0.769652 0.611000 0.050000
v -0.769652 0.611000 -0.050000
v -0.769652 0.603630 0.050000
v -0.769652 0.603630 -0.050000
v -0.769652 0.588037 0.050000
v -0.769652 0.588037 -0.050000
v -0.769652 0.574000 0.050000
v -0.769652 0.574000 -0.050000
v -0.753356 0.243630 0.050000
v -0.753356 0.243630 -0.050000
v -0.732615 0.055037 0.050000
v -0.732615 0.055037 -0.050000
v -0.701652 -0.030000 0.050000
v -0.701652 -0.030000 -0.050000
v -0.679208 -0.051889 0.050000
v -0.679208 -0.051889 -0.050000
v -0.654097 -0.063778 0.050000
v -0.654097 -0.063778 -0.050000
v -0.623652 -0.069000 0.050000
v -0.623652 -0.069000 -0.050000
v -0.583986 -0.070741 0.050000
v -0.583986 -0.070741 -0.050000
v -0.532986 -0.070259 0.050000
v -0.532986 -0.070259 -0.050000
v -0.476652 -0.068000 0.050000
v -0.476652 -0.068000 -0.050000
v -0.472652 -0.043481 0.050000
v -0.472652 -0.043481 -0.050000
v -0.464652 -0.017185 0.050000
v -0.464652 -0.017185 -0.050000
v -0.452652 0.006000 0.050000
v -0.452652 0.006000 -0.050000
v -0.511615 0.002222 0.050000
v -0.511615 0.002222 -0.050000
v -0.560356 0.000444 0.050000
v -0.560356 0.000444 -0.050000
v -0.592652 0.000000 0.050000
v -0.592652 -0.000000 -0.050000
v -0.610430 0.001259 0.050000
v -0.610430 0.001259 -0.050000
v -0.623541 0.006074 0.050000
v -0.623541 0.006074 -0.050000
v -0.634652 0.016000 0.050000
v -0.634652 0.016000 -0.050000
v -0.659986 0.086259 0.050000
v -0.659986 0.086259 -0.050000
v -0.679319 0.252074 0.050000
v -0.679319 0.252074 -0.050000
v -0.694652 0.539000 0.050000
v -0.694652 0.539000 -0.050000
v -0.494652 0.539000 0.050000
v -0.494652 0.539000 -0.050000
v -0.459615 0.288481 0.050000
v -0.459615 0.288481 -0.050000
v -0.367689 0.077519 0.050000
v -0.367689 0.077519 -0.050000
v -0.190652 -0.081000 0.050000
v -0.190652 -0.081000 -0.050000
v -0.176430 -0.060370 0.050000
v -0.176430 -0.060370 -0.050000
v -0.156874 -0.039296 0.050000
v -0.156874 -0.039296 -0.050000
v -0.136652 -0.022000 0.050000
v -0.136652 -0.022000 -0.050000
v -0.302060 0.120333 0.050000
v -0.302060 0.120333 -0.050000
v -0.387911 0.310667 0.050000
v -0.387911 0.310667 -0.050000
v -0.420652 0.539000 0.050000
v -0.420652 0.539000 -0.050000
v -0.255652 0.539000 0.050000
v -0.255652 0.539000 -0.050000
v -0.255652 0.611000 0.050000
v -0.255652 0.611000 -0.050000
v -0.423652 0.611000 0.050000
v -0.423652 0.611000 -0.050000
v -0.425319 0.680667 0.050000
v -0.425319 0.680667 -0.050000
v -0.426319 0.751667 0.050000
v -0.426319 0.751667 -0.050000
v -0.426652 0.824000 0.050000
v -0.426652 0.824000 -0.050000
v -0.501652 0.824000 0.050000
v -0.501652 0.824000 -0.050000
v -0.996060 0.674630 0.050000
v -0.996060 0.674630 -0.050000
v -1.014578 0.625370 0.050000
v -1.014578 0.625370 -0.050000
v -1.020652 0.543000 0.050000
v -1.020652 0.543000 -0.050000
v -1.019986 0.501704 0.050000
v -1.019986 0.501704 -0.050000
v -1.017985 0.465963 0.050000
v -1.017985 0.465963 -0.050000
v -1.014652 0.436000 0.050000
v -1.014652 0.436000 -0.050000
v -0.989652 0.264000 0.050000
v -0.989652 0.264000 -0.050000
v -0.983393 0.228111 0.050000
v -0.983393 0.228111 -0.050000
v -0.975578 0.207556 0.050000
v -0.975578 0.207556 -0.050000
v -0.964652 0.201000 0.050000
v -0.964652 0.201000 -0.050000
v -0.953726 0.207556 0.050000
v -0.953726 0.207556 -0.050000
v -0.945911 0.228111 0.050000
v -0.945911 0.228111 -0.050000
v -0.939652 0.264000 0.050000
v -0.939652 0.264000 -0.050000
v -0.914652 0.436000 0.050000
v -0.914652 0.436000 -0.050000
v -0.911319 0.465963 0.050000
v -0.911319 0.465963 -0.050000
v -0.909319 0.501704 0.050000
v -0.909319 0.501704 -0.050000
v -0.908652 0.543000 0.050000
v -0.908652 0.543000 -0.050000
v -0.914726 0.625370 0.050000
v -0.914726 0.625370 -0.050000
v -0.933245 0.674630 0.050000
v -0.933245 0.674630 -0.050000
v -0.964652 0.691000 0.050000
v -0.964652 0.691000 -0.050000
v -1.017430 0.020778 0.050000
v -1.017430 0.020778 -0.050000
v -0.995874 -0.000778 0.050000
v -0.995874 -0.000778 -0.050000
v -0.965652 -0.009000 0.050000
v -0.965652 -0.009000 -0.050000
v -0.935430 -0.000778 0.050000
v -0.935430 -0.000778 -0.050000
v -0.913874 0.020778 0.050000
v -0.913874 0.020778 -0.050000
v -0.905652 0.051000 0.050000
v -0.905652 0.051000 -0.050000
v -0.913875 0.081222 0.050000
v -0.913875 0.081222 -0.050000
v -0.935430 0.102778 0.050000
v -0.935430 0.102778 -0.050000
v -0.965652 0.111000 0.050000
v -0.965652 0.111000 -0.050000
v -0.995874 0.102778 0.050000
v -0.995874 0.102778 -0.050000
v -1.017430 0.081222 0.050000
v -1.017430 0.081222 -0.050000
v -1.025652 0.051000 0.050000
v -1.025652 0.051000 -0.050000
v -1.267060 0.674630 0.050000
v -1.267060 0.674630 -0.050000
v -1.285578 0.625370 0.050000
v -1.285578 0.625370 -0.050000
v -1.291652 0.543000 0.050000
v -1.291652 0.543000 -0.050000
v -1.290985 0.501704 0.050000
v -1.290985 0.501704 -0.050000
v -1.288985 0.465963 0.050000
v -1.288985 0.465963 -0.050000
v -1.285652 0.436000 0.050000
v -1.285652 0.436000 -0.050000
v -1.260652 0.264000 0.050000
v -1.260652 0.264000 -0.050000
v -1.254393 0.228111 0.050000
v -1.254393 0.228111 -0.050000
v -1.246578 0.207556 0.050000
v -1.246578 0.207556 -0.050000
v -1.235652 0.201000 0.050000
v -1.235652 0.201000 -0.050000
v -1.224726 0.207556 0.050000
v -1.224726 0.207556 -0.050000
v -1.216911 0.228111 0.050000
v -1.216911 0.228111 -0.050000
v -1.210652 0.264000 0.050000
v -1.210652 0.264000 -0.050000
v -1.185652 0.436000 0.050000
v -1.185652 0.436000 -0.050000
v -1.182319 0.465963 0.050000
v -1.182319 0.465963 -0.050000
v -1.180319 0.501704 0.050000
v -1.180319 0.501704 -0.050000
v -1.179652 0.543000 0.050000
v -1.179652 0.543000 -0.050000
v -1.185726 0.625370 0.050000
v -1.185726 0.625370 -0.050000
v -1.204245 0.674630 0.050000
v -1.204245 0.674630 -0.050000
v -1.235652 0.691000 0.050000
v -1.235652 0.691000 -0.050000
v -1.288430 0.020778 0.050000
v -1.288430 0.020778 -0.050000
v -1.266874 -0.000778 0.050000
v -1.266874 -0.000778 -0.050000
v -1.236652 -0.009000 0.050000
v -1.236652 -0.009000 -0.050000
v -1.206430 -0.000778 0.050000
v -1.206430 -0.000778 -0.050000
v -1.184874 0.020778 0.050000
v -1.184874 0.020778 -0.050000
v -1.176652 0.051000 0.050000
v -1.176652 0.051000 -0.050000
v -1.184874 0.081222 0.050000
v -1.184874 0.081222 -0.050000
v -1.206430 0.102778 0.050000
v -1.206430 0.102778 -0.050000
v -1.236652 0.111000 0.050000
v -1.236652 0.111000 -0.050000
v -1.266874 0.102778 0.050000
v -1.266874 0.102778 -0.050000
v -1.288430 0.081222 0.050000
v -1.288430 0.081222 -0.050000
v -1.296652 0.051000 0.050000
v -1.296652 0.051000 -0.050000
vn -0.0000 -0.0000 -1.0000
vn -0.0000 -0.0000 1.0000
vn -0.9995 0.0326 -0.0000
vn -0.9999 0.0144 -0.0000
vn -0.6918 0.7221 -0.0000
vn -0.7071 0.7071 -0.0000
vn -0.7071 -0.7071 -0.0000
vn -0.7434 -0.6688 -0.0000
vn -0.9913 0.1316 -0.0000
vn -0.9818 0.1898 -0.0000
vn -0.1587 0.9873 -0.0000
vn 0.8813 0.4725 -0.0000
vn -0.1585 0.9874 -0.0000
vn 0.9225 0.3861 -0.0000
vn 0.4673 0.8841 -0.0000
vn -0.8882 0.4595 -0.0000
vn -0.9121 -0.4099 -0.0000
vn -0.8882 0.4594 -0.0000
vn -0.8599 -0.5104 -0.0000
vn -0.9971 -0.0765 -0.0000
vn -0.8416 0.5402 -0.0000
vn -0.9971 -0.0764 -0.0000
vn -0.5774 0.8165 -0.0000
vn 0.1493 0.9888 -0.0000
vn 0.8376 0.5463 -0.0000
vn 0.9870 0.1607 -0.0000
vn 0.3885 0.9215 -0.0000
vn -0.5862 0.8102 -0.0000
vn -0.4724 0.8814 -0.0000
vn -0.8772 0.4800 -0.0000
vn -0.9497 -0.3132 -0.0000
vn -0.6362 -0.7715 -0.0000
vn -0.0153 -0.9999 -0.0000
vn 0.4886 -0.8725 -0.0000
vn 0.7832 -0.6218 -0.0000
vn 0.1370 -0.9906 -0.0000
vn -0.6642 -0.7475 -0.0000
vn 0.1369 -0.9906 -0.0000
vn -0.5896 -0.8077 -0.0000
vn 0.1533 -0.9882 -0.0000
vn 0.7641 -0.6451 -0.0000
vn 0.7332 -0.6800 -0.0000
vn 0.9922 0.1245 -0.0000
vn 0.5740 0.8189 -0.0000
vn 0.6709 0.7415 -0.0000
vn 0.9672 0.2540 -0.0000
vn 0.9769 -0.2135 -0.0000
vn 0.9672 0.2539 -0.0000
vn 0.9908 -0.1356 -0.0000
vn 0.6700 -0.7423 -0.0000
vn 0.6701 -0.7423 -0.0000
vn -0.7220 0.6918 -0.0000
vn -0.9992 -0.0396 -0.0000
vn -0.7220 0.6919 -0.0000
vn -0.9996 -0.0284 -0.0000
vn -0.9997 -0.0256 -0.0000
vn -0.9983 -0.0583 -0.0000
vn -0.9797 -0.2006 -0.0000
vn -0.8402 -0.5423 -0.0000
vn -0.5569 -0.8306 -0.0000
vn -0.3095 -0.9509 -0.0000
vn -0.1152 -0.9933 -0.0000
vn -0.0171 -0.9999 -0.0000
vn 0.0246 -0.9997 -0.0000
vn 0.6729 -0.7398 -0.0000
vn 0.9779 -0.2089 -0.0000
vn 0.6728 -0.7398 -0.0000
vn 0.9338 -0.3578 -0.0000
vn 0.8249 0.5654 -0.0000
vn -0.0572 0.9984 -0.0000
vn 0.8249 0.5653 -0.0000
vn -0.0212 0.9998 -0.0000
vn 0.0285 0.9996 -0.0000
vn 0.1861 0.9825 -0.0000
vn 0.4738 0.8806 -0.0000
vn 0.8255 0.5644 -0.0000
vn 0.9809 0.1947 -0.0000
vn 0.9982 0.0594 -0.0000
vn 0.7188 -0.6953 -0.0000
vn -0.9997 -0.0233 -0.0000
vn -0.9934 -0.1145 -0.0000
vn -0.9537 -0.3006 -0.0000
vn -0.1844 -0.9828 -0.0000
vn 0.6617 -0.7497 -0.0000
vn -0.1845 -0.9828 -0.0000
vn 0.5812 -0.8137 -0.0000
vn 0.9575 -0.2884 -0.0000
vn 0.9566 0.2914 -0.0000
vn 0.9945 0.1049 -0.0000
vn 0.9998 0.0192 -0.0000
vn 0.7071 0.7071 -0.0000
vn 0.7236 0.6902 -0.0000
vn 0.9992 -0.0390 -0.0000
vn 0.9998 -0.0209 -0.0000
vn 0.7110 0.7032 -0.0000
vn -0.7048 0.7094 -0.0000
vn -0.5666 0.8240 -0.0000
vn -0.5035 0.8640 -0.0000
vn -0.9954 0.0955 -0.0000
vn -0.0773 -0.9970 -0.0000
vn 0.5933 -0.8050 -0.0000
vn 0.5254 -0.8509 -0.0000
vn 0.9903 -0.1392 -0.0000
vn 0.1501 0.9887 -0.0000
vn 0.9903 -0.1391 -0.0000
vn 0.7071 -0.7071 -0.0000
vn -0.6091 0.7931 -0.0000
vn -0.5579 0.8299 -0.0000
vn -0.8347 -0.5507 -0.0000
vn -0.2733 -0.9619 -0.0000
vn -0.2689 -0.9632 -0.0000
vn 0.5106 -0.8598 -0.0000
vn 0.8500 0.5267 -0.0000
vn 0.2355 0.9719 -0.0000
vn 0.2458 0.9693 -0.0000
vn 0.7906 0.6123 -0.0000
vn -0.9998 -0.0190 -0.0000
vn -1.0000 -0.0093 -0.0000
vn -0.7155 0.6986 -0.0000
vn -1.0000 -0.0000 -0.0000
vn -0.9997 -0.0246 -0.0000
vn -0.9968 -0.0793 -0.0000
vn -0.9738 -0.2274 -0.0000
vn -0.8400 -0.5426 -0.0000
vn -0.5708 -0.8211 -0.0000
vn -0.3013 -0.9535 -0.0000
vn -0.1067 -0.9943 -0.0000
vn -0.0172 -0.9999 -0.0000
vn 0.0248 -0.9997 -0.0000
vn 0.6628 -0.7488 -0.0000
vn 0.9740 -0.2265 -0.0000
vn 0.9262 -0.3769 -0.0000
vn 0.8372 0.5469 -0.0000
vn -0.0502 0.9987 -0.0000
vn 0.8372 0.5468 -0.0000
vn -0.0251 0.9997 -0.0000
vn 0.2098 0.9778 -0.0000
vn 0.5146 0.8574 -0.0000
vn 0.8288 0.5596 -0.0000
vn 0.9734 0.2290 -0.0000
vn 0.9964 0.0846 -0.0000
vn 0.7257 -0.6880 -0.0000
vn -0.6563 -0.7545 -0.0000
vn -0.9624 -0.2715 -0.0000
vn -0.8105 -0.5857 -0.0000
vn 0.1182 -0.9930 -0.0000
vn 0.7802 -0.6255 -0.0000
vn 0.6927 -0.7213 -0.0000
vn 1.0000 -0.0015 -0.0000
vn 0.8009 0.5988 -0.0000
vn 0.9602 0.2793 -0.0000
vn 0.7556 -0.6550 -0.0000
vn 0.6986 0.7155 -0.0000
vn 0.9998 0.0190 -0.0000
vn 1.0000 0.0093 -0.0000
vn 0.7055 0.7087 -0.0000
vn -0.7087 0.7055 -0.0000
vn -0.9766 0.2149 -0.0000
vn -0.7485 0.6631 -0.0000
vn -0.9996 0.0287 -0.0000
vn -0.9994 -0.0360 -0.0000
vn -0.9965 -0.0833 -0.0000
vn -0.9919 -0.1272 -0.0000
vn -0.9875 -0.1578 -0.0000
vn -0.9643 -0.2648 -0.0000
vn -0.7669 -0.6418 -0.0000
vn -0.0000 -1.0000 -0.0000
vn 0.7669 -0.6418 -0.0000
vn 0.9643 -0.2648 -0.0000
vn 0.9875 -0.1578 -0.0000
vn 0.9919 -0.1272 -0.0000
vn 0.9965 -0.0833 -0.0000
vn 0.9994 -0.0360 -0.0000
vn 0.9996 0.0287 -0.0000
vn 0.9766 0.2149 -0.0000
vn 0.7485 0.6631 -0.0000
vn -0.0000 1.0000 -0.0000
vn -0.5017 -0.8651 -0.0000
vn -0.8651 -0.5017 -0.0000
vn 0.5017 -0.8651 -0.0000
vn 0.8651 -0.5016 -0.0000
vn 1.0000 -0.0000 -0.0000
vn 0.8651 -0.5017 -0.0000
vn 0.8651 0.5017 -0.0000
vn 0.5017 0.8651 -0.0000
vn -0.5017 0.8651 -0.0000
vn -0.8651 0.5017 -0.0000
vt 0.967742 0.000000
vt 0.387097 0.000000
vt 1.000000 0.000000
vt 0.935484 0.000000
vt 0.419355 0.000000
vt 0.903226 0.000000
vt 0.451613 0.000000
vt 0.870968 0.000000
vt 0.483871 0.000000
vt 0.838710 0.000000
vt 0.516129 0.000000
vt 0.806452 0.000000
vt 0.548387 0.000000
vt 0.774194 0.000000
vt 0.580645 0.000000
vt 0.741935 0.000000
vt 0.612903 0.000000
vt 0.709677 0.000000
vt 0.645161 0.000000
vt 0.677419 0.000000
vt 0.225806 0.000000
vt 0.290323 0.000000
vt 0.258065 0.000000
vt 0.193548 0.000000
vt 0.322581 0.000000
vt 0.161290 0.000000
vt 0.354839 0.000000
vt 0.129032 0.000000
vt 0.000000 0.000000
vt 0.096774 0.000000
vt 0.032258 0.000000
vt 0.064516 0.000000
vt 0.966667 0.000000
vt 0.983333 0.000000
vt 0.266667 0.000000
vt 0.950000 0.000000
vt 0.283333 0.000000
vt 0.016667 0.000000
vt 0.050000 0.000000
vt 0.033333 0.000000
vt 0.066667 0.000000
vt 0.933333 0.000000
vt 0.300000 0.000000
vt 0.250000 0.000000
vt 0.083333 0.000000
vt 0.100000 0.000000
vt 0.900000 0.000000
vt 0.916667 0.000000
vt 0.316667 0.000000
vt 0.333333 0.000000
vt 0.350000 0.000000
vt 0.366667 0.000000
vt 0.883333 0.000000
vt 0.733333 0.000000
vt 0.716667 0.000000
vt 0.383333 0.000000
vt 0.866667 0.000000
vt 0.750000 0.000000
vt 0.700000 0.000000
vt 0.850000 0.000000
vt 0.766667 0.000000
vt 0.133333 0.000000
vt 0.116667 0.000000
vt 0.683333 0.000000
vt 0.400000 0.000000
vt 0.233333 0.000000
vt 0.150000 0.000000
vt 0.216667 0.000000
vt 0.200000 0.000000
vt 0.183333 0.000000
vt 0.166667 0.000000
vt 0.833333 0.000000
vt 0.666667 0.000000
vt 0.816667 0.000000
vt 0.800000 0.000000
vt 0.783333 0.000000
vt 0.416667 0.000000
vt 0.650000 0.000000
vt 0.633333 0.000000
vt 0.550000 0.000000
vt 0.583333 0.000000
vt 0.566667 0.000000
vt 0.600000 0.000000
vt 0.616667 0.000000
vt 0.533333 0.000000
vt 0.433333 0.000000
vt 0.516667 0.000000
vt 0.450000 0.000000
vt 0.466667 0.000000
vt 0.500000 0.000000
vt 0.483333 0.000000
vt 0.893617 0.000000
vt 0.914894 0.000000
vt 0.904255 0.000000
vt 0.989362 0.000000
vt 0.925532 0.000000
vt 0.936170 0.000000
vt 0.978723 0.000000
vt 0.882979 0.000000
vt 0.010638 0.000000
vt 0.946809 0.000000
vt 0.968085 0.000000
vt 0.872340 0.000000
vt 0.021277 0.000000
vt 0.957447 0.000000
vt 0.851064 0.000000
vt 0.457447 0.000000
vt 0.861702 0.000000
vt 0.031915 0.000000
vt 0.042553 0.000000
vt 0.468085 0.000000
vt 0.446809 0.000000
vt 0.436170 0.000000
vt 0.053191 0.000000
vt 0.063830 0.000000
vt 0.106383 0.000000
vt 0.127660 0.000000
vt 0.117021 0.000000
vt 0.138298 0.000000
vt 0.074468 0.000000
vt 0.478723 0.000000
vt 0.489362 0.000000
vt 0.510638 0.000000
vt 0.425532 0.000000
vt 0.744681 0.000000
vt 0.734043 0.000000
vt 0.521277 0.000000
vt 0.095745 0.000000
vt 0.755319 0.000000
vt 0.723404 0.000000
vt 0.840426 0.000000
vt 0.765957 0.000000
vt 0.148936 0.000000
vt 0.085106 0.000000
vt 0.414894 0.000000
vt 0.159574 0.000000
vt 0.712766 0.000000
vt 0.531915 0.000000
vt 0.829787 0.000000
vt 0.776596 0.000000
vt 0.212766 0.000000
vt 0.234043 0.000000
vt 0.223404 0.000000
vt 0.702128 0.000000
vt 0.244681 0.000000
vt 0.404255 0.000000
vt 0.319149 0.000000
vt 0.170213 0.000000
vt 0.255319 0.000000
vt 0.265957 0.000000
vt 0.542553 0.000000
vt 0.691489 0.000000
vt 0.627660 0.000000
vt 0.648936 0.000000
vt 0.638298 0.000000
vt 0.680851 0.000000
vt 0.659574 0.000000
vt 0.670213 0.000000
vt 0.617021 0.000000
vt 0.393617 0.000000
vt 0.819149 0.000000
vt 0.553191 0.000000
vt 0.329787 0.000000
vt 0.308511 0.000000
vt 0.606383 0.000000
vt 0.202128 0.000000
vt 0.563830 0.000000
vt 0.180851 0.000000
vt 0.574468 0.000000
vt 0.595745 0.000000
vt 0.585106 0.000000
vt 0.808511 0.000000
vt 0.797872 0.000000
vt 0.787234 0.000000
vt 0.382979 0.000000
vt 0.340426 0.000000
vt 0.191489 0.000000
vt 0.276596 0.000000
vt 0.297872 0.000000
vt 0.372340 0.000000
vt 0.361702 0.000000
vt 0.351064 0.000000
vt 0.287234 0.000000
vt 0.011494 1.000000
vt 0.000000 1.000000
vt 0.022989 1.000000
vt 0.011494 0.000000
vt 0.034483 1.000000
vt 0.022989 0.000000
vt 0.045977 1.000000
vt 0.034483 0.000000
vt 0.057471 1.000000
vt 0.045977 0.000000
vt 0.068966 1.000000
vt 0.057471 0.000000
vt 0.080460 1.000000
vt 0.068966 0.000000
vt 0.091954 1.000000
vt 0.080460 0.000000
vt 0.103448 1.000000
vt 0.091954 0.000000
vt 0.114943 1.000000
vt 0.103448 0.000000
vt 0.126437 1.000000
vt 0.114943 0.000000
vt 0.137931 1.000000
vt 0.126437 0.000000
vt 0.149425 1.000000
vt 0.137931 0.000000
vt 0.160920 1.000000
vt 0.149425 0.000000
vt 0.172414 1.000000
vt 0.160920 0.000000
vt 0.183908 1.000000
vt 0.172414 0.000000
vt 0.195402 1.000000
vt 0.183908 0.000000
vt 0.206897 1.000000
vt 0.195402 0.000000
vt 0.218391 1.000000
vt 0.206897 0.000000
vt 0.229885 1.000000
vt 0.218391 0.000000
vt 0.241379 1.000000
vt 0.229885 0.000000
vt 0.252874 1.000000
vt 0.241379 0.000000
vt 0.264368 1.000000
vt 0.252874 0.000000
vt 0.275862 1.000000
vt 0.264368 0.000000
vt 0.287356 1.000000
vt 0.275862 0.000000
vt 0.298851 1.000000
vt 0.287356 0.000000
vt 0.310345 1.000000
vt 0.298851 0.000000
vt 0.321839 1.000000
vt 0.310345 0.000000
vt 0.333333 1.000000
vt 0.321839 0.000000
vt 0.344828 1.000000
vt 0.356322 1.000000
vt 0.344828 0.000000
vt 0.367816 1.000000
vt 0.356322 0.000000
vt 0.379310 1.000000
vt 0.367816 0.000000
vt 0.390805 1.000000
vt 0.379310 0.000000
vt 0.402299 1.000000
vt 0.390805 0.000000
vt 0.413793 1.000000
vt 0.402299 0.000000
vt 0.425287 1.000000
vt 0.413793 0.000000
vt 0.436782 1.000000
vt 0.425287 0.000000
vt 0.448276 1.000000
vt 0.436782 0.000000
vt 0.459770 1.000000
vt 0.448276 0.000000
vt 0.471264 1.000000
vt 0.459770 0.000000
vt 0.482759 1.000000
vt 0.471264 0.000000
vt 0.494253 1.000000
vt 0.482759 0.000000
vt 0.505747 1.000000
vt 0.494253 0.000000
vt 0.517241 1.000000
vt 0.505747 0.000000
vt 0.528736 1.000000
vt 0.517241 0.000000
vt 0.540230 1.000000
vt 0.528736 0.000000
vt 0.551724 1.000000
vt 0.540230 0.000000
vt 0.563218 1.000000
vt 0.551724 0.000000
vt 0.574713 1.000000
vt 0.563218 0.000000
vt 0.586207 1.000000
vt 0.574713 0.000000
vt 0.597701 1.000000
vt 0.586207 0.000000
vt 0.609195 1.000000
vt 0.597701 0.000000
vt 0.620690 1.000000
vt 0.609195 0.000000
vt 0.632184 1.000000
vt 0.620690 0.000000
vt 0.643678 1.000000
vt 0.632184 0.000000
vt 0.655172 1.000000
vt 0.643678 0.000000
vt 0.666667 1.000000
vt 0.655172 0.000000
vt 0.678161 1.000000
vt 0.689655 1.000000
vt 0.678161 0.000000
vt 0.701149 1.000000
vt 0.689655 0.000000
vt 0.712644 1.000000
vt 0.701149 0.000000
vt 0.724138 1.000000
vt 0.712644 0.000000
vt 0.735632 1.000000
vt 0.724138 0.000000
vt 0.747126 1.000000
vt 0.735632 0.000000
vt 0.758621 1.000000
vt 0.747126 0.000000
vt 0.770115 1.000000
vt 0.758621 0.000000
vt 0.781609 1.000000
vt 0.770115 0.000000
vt 0.793103 1.000000
vt 0.781609 0.000000
vt 0.804598 1.000000
vt 0.793103 0.000000
vt 0.816092 1.000000
vt 0.804598 0.000000
vt 0.827586 1.000000
vt 0.816092 0.000000
vt 0.839080 1.000000
vt 0.827586 0.000000
vt 0.850575 1.000000
vt 0.839080 0.000000
vt 0.862069 1.000000
vt 0.850575 0.000000
vt 0.873563 1.000000
vt 0.862069 0.000000
vt 0.885057 1.000000
vt 0.873563 0.000000
vt 0.896552 1.000000
vt 0.885057 0.000000
vt 0.908046 1.000000
vt 0.896552 0.000000
vt 0.919540 1.000000
vt 0.908046 0.000000
vt 0.931035 1.000000
vt 0.919540 0.000000
vt 0.942529 1.000000
vt 0.931035 0.000000
vt 0.954023 1.000000
vt 0.942529 0.000000
vt 0.965517 1.000000
vt 0.954023 0.000000
vt 0.977012 1.000000
vt 0.965517 0.000000
vt 0.988506 1.000000
vt 0.977012 0.000000
vt 1.000000 1.000000
vt 0.988506 0.000000
vt 0.125000 1.000000
vt 0.250000 1.000000
vt 0.125000 0.000000
vt 0.375000 1.000000
vt 0.500000 1.000000
vt 0.375000 0.000000
vt 0.625000 1.000000
vt 0.750000 1.000000
vt 0.625000 0.000000
vt 0.875000 1.000000
vt 0.875000 0.000000
vt 0.062500 1.000000
vt 0.062500 0.000000
vt 0.187500 1.000000
vt 0.187500 0.000000
vt 0.312500 1.000000
vt 0.312500 0.000000
vt 0.437500 1.000000
vt 0.437500 0.000000
vt 0.562500 1.000000
vt 0.562500 0.000000
vt 0.687500 1.000000
vt 0.687500 0.000000
vt 0.812500 1.000000
vt 0.812500 0.000000
vt 0.937500 1.000000
vt 0.937500 0.000000
vt 0.022222 1.000000
vt 0.044444 1.000000
vt 0.022222 0.000000
vt 0.066667 1.000000
vt 0.044444 0.000000
vt 0.088889 1.000000
vt 0.111111 1.000000
vt 0.088889 0.000000
vt 0.133333 1.000000
vt 0.111111 0.000000
vt 0.155556 1.000000
vt 0.177778 1.000000
vt 0.155556 0.000000
vt 0.200000 1.000000
vt 0.177778 0.000000
vt 0.222222 1.000000
vt 0.244444 1.000000
vt 0.222222 0.000000
vt 0.266667 1.000000
vt 0.244444 0.000000
vt 0.288889 1.000000
vt 0.311111 1.000000
vt 0.288889 0.000000
vt 0.311111 0.000000
vt 0.355556 1.000000
vt 0.377778 1.000000
vt 0.355556 0.000000
vt 0.400000 1.000000
vt 0.377778 0.000000
vt 0.422222 1.000000
vt 0.444444 1.000000
vt 0.422222 0.000000
vt 0.466667 1.000000
vt 0.444444 0.000000
vt 0.488889 1.000000
vt 0.511111 1.000000
vt 0.488889 0.000000
vt 0.533333 1.000000
vt 0.511111 0.000000
vt 0.555556 1.000000
vt 0.577778 1.000000
vt 0.555556 0.000000
vt 0.600000 1.000000
vt 0.577778 0.000000
vt 0.622222 1.000000
vt 0.644444 1.000000
vt 0.622222 0.000000
vt 0.644444 0.000000
vt 0.688889 1.000000
vt 0.711111 1.000000
vt 0.688889 0.000000
vt 0.733333 1.000000
vt 0.711111 0.000000
vt 0.755556 1.000000
vt 0.777778 1.000000
vt 0.755556 0.000000
vt 0.800000 1.000000
vt 0.777778 0.000000
vt 0.822222 1.000000
vt 0.844444 1.000000
vt 0.822222 0.000000
vt 0.866667 1.000000
vt 0.844444 0.000000
vt 0.888889 1.000000
vt 0.911111 1.000000
vt 0.888889 0.000000
vt 0.933333 1.000000
vt 0.911111 0.000000
vt 0.955556 1.000000
vt 0.977778 1.000000
vt 0.955556 0.000000
vt 0.977778 0.000000
vt 0.050000 1.000000
vt 0.100000 1.000000
vt 0.150000 1.000000
vt 0.300000 1.000000
vt 0.350000 1.000000
vt 0.450000 1.000000
vt 0.550000 1.000000
vt 0.650000 1.000000
vt 0.700000 1.000000
vt 0.850000 1.000000
vt 0.900000 1.000000
vt 0.950000 1.000000
vt 0.083333 1.000000
vt 0.166667 1.000000
vt 0.416667 1.000000
vt 0.583333 1.000000
vt 0.833333 1.000000
vt 0.916667 1.000000
s 0
usemtl マテリアル.001
f 31/1/1 13/2/1 32/3/1
f 30/4/1 13/2/1 31/1/1
f 30/4/1 14/5/1 13/2/1
f 29/6/1 14/5/1 30/4/1
f 29/6/1 15/7/1 14/5/1
f 28/8/1 15/7/1 29/6/1
f 28/8/1 16/9/1 15/7/1
f 27/10/1 16/9/1 28/8/1
f 27/10/1 17/11/1 16/9/1
f 26/12/1 17/11/1 27/10/1
f 26/12/1 18/13/1 17/11/1
f 25/14/1 18/13/1 26/12/1
f 25/14/1 19/15/1 18/13/1
f 24/16/1 19/15/1 25/14/1
f 24/16/1 20/17/1 19/15/1
f 23/18/1 20/17/1 24/16/1
f 23/18/1 21/19/1 20/17/1
f 22/20/1 21/19/1 23/18/1
f 8/21/1 10/22/1 9/23/1
f 7/24/1 10/22/1 8/21/1
f 7/24/1 11/25/1 10/22/1
f 6/26/1 11/25/1 7/24/1
f 6/26/1 12/27/1 11/25/1
f 5/28/1 12/27/1 6/26/1
f 5/28/1 1/29/1 12/27/1
f 4/30/1 1/29/1 5/28/1
f 4/30/1 2/31/1 1/29/1
f 3/32/1 2/31/1 4/30/1
f 63/1/1 45/2/1 64/3/1
f 62/4/1 45/2/1 63/1/1
f 62/4/1 46/5/1 45/2/1
f 61/6/1 46/5/1 62/4/1
f 61/6/1 47/7/1 46/5/1
f 60/8/1 47/7/1 61/6/1
f 60/8/1 48/9/1 47/7/1
f 59/10/1 48/9/1 60/8/1
f 59/10/1 49/11/1 48/9/1
f 58/12/1 49/11/1 59/10/1
f 58/12/1 50/13/1 49/11/1
f 57/14/1 50/13/1 58/12/1
f 57/14/1 51/15/1 50/13/1
f 56/16/1 51/15/1 57/14/1
f 56/16/1 52/17/1 51/15/1
f 55/18/1 52/17/1 56/16/1
f 55/18/1 53/19/1 52/17/1
f 54/20/1 53/19/1 55/18/1
f 40/21/1 42/22/1 41/23/1
f 39/24/1 42/22/1 40/21/1
f 39/24/1 43/25/1 42/22/1
f 38/26/1 43/25/1 39/24/1
f 38/26/1 44/27/1 43/25/1
f 37/28/1 44/27/1 38/26/1
f 37/28/1 33/29/1 44/27/1
f 36/30/1 33/29/1 37/28/1
f 36/30/1 34/31/1 33/29/1
f 35/32/1 34/31/1 36/30/1
f 123/33/1 125/3/1 124/34/1
f 123/33/1 81/35/1 125/3/1
f 122/36/1 81/35/1 123/33/1
f 122/36/1 82/37/1 81/35/1
f 66/38/1 68/39/1 67/40/1
f 66/38/1 69/41/1 68/39/1
f 121/42/1 82/37/1 122/36/1
f 121/42/1 83/43/1 82/37/1
f 65/29/1 69/41/1 66/38/1
f 80/44/1 70/45/1 65/29/1
f 70/45/2 69/41/2 65/29/2
f 80/44/1 71/46/1 70/45/1
f 119/47/1 121/42/1 120/48/1
f 119/47/1 83/43/1 121/42/1
f 119/47/1 84/49/1 83/43/1
f 119/47/1 85/50/1 84/49/1
f 119/47/1 86/51/1 85/50/1
f 119/47/1 87/52/1 86/51/1
f 119/47/1 118/53/1 87/52/1
f 118/53/1 109/54/1 87/52/1
f 109/54/1 108/55/1 87/52/1
f 108/55/1 88/56/1 87/52/1
f 117/57/1 109/54/1 118/53/1
f 117/57/1 110/58/1 109/54/1
f 107/59/1 88/56/1 108/55/1
f 116/60/1 110/58/1 117/57/1
f 116/60/1 111/61/1 110/58/1
f 71/46/1 73/62/1 72/63/1
f 106/64/1 88/56/1 107/59/1
f 106/64/1 89/65/1 88/56/1
f 80/44/1 73/62/1 71/46/1
f 79/66/1 73/62/1 80/44/1
f 79/66/1 74/67/1 73/62/1
f 78/68/1 74/67/1 79/66/1
f 77/69/1 74/67/1 78/68/1
f 76/70/1 74/67/1 77/69/1
f 76/70/1 75/71/1 74/67/1
f 115/72/1 111/61/1 116/60/1
f 105/73/1 89/65/1 106/64/1
f 115/72/1 114/74/1 111/61/1
f 114/74/1 113/75/1 111/61/1
f 113/75/1 112/76/1 111/61/1
f 105/73/1 90/77/1 89/65/1
f 104/78/1 90/77/1 105/73/1
f 103/79/1 90/77/1 104/78/1
f 98/80/1 100/81/1 99/82/1
f 98/80/1 101/83/1 100/81/1
f 102/84/1 90/77/1 103/79/1
f 98/80/1 102/84/1 101/83/1
f 98/80/1 90/77/1 102/84/1
f 97/85/1 90/77/1 98/80/1
f 97/85/1 91/86/1 90/77/1
f 96/87/1 91/86/1 97/85/1
f 96/87/1 92/88/1 91/86/1
f 96/87/1 93/89/1 92/88/1
f 95/90/1 93/89/1 96/87/1
f 95/90/1 94/91/1 93/89/1
f 210/92/1 212/93/1 211/94/1
f 210/92/1 126/29/1 212/93/1
f 219/95/1 213/96/1 220/3/1
f 219/95/1 214/97/1 213/96/1
f 218/98/1 214/97/1 219/95/1
f 209/99/1 126/29/1 210/92/1
f 209/99/1 127/100/1 126/29/1
f 218/98/1 215/101/1 214/97/1
f 217/102/1 215/101/1 218/98/1
f 208/103/1 127/100/1 209/99/1
f 208/103/1 128/104/1 127/100/1
f 217/102/1 216/105/1 215/101/1
f 206/106/1 169/107/1 207/108/1
f 169/107/1 208/103/1 207/108/1
f 169/107/1 128/104/1 208/103/1
f 169/107/1 129/109/1 128/104/1
f 169/107/1 130/110/1 129/109/1
f 206/106/1 170/111/1 169/107/1
f 168/112/1 130/110/1 169/107/1
f 167/113/1 131/114/1 168/112/1
f 131/114/2 130/110/2 168/112/2
f 167/113/1 132/115/1 131/114/1
f 136/116/1 138/117/1 137/118/1
f 136/116/1 139/119/1 138/117/1
f 167/113/1 133/120/1 132/115/1
f 206/106/1 171/121/1 170/111/1
f 206/106/1 172/122/1 171/121/1
f 206/106/1 173/90/1 172/122/1
f 206/106/1 174/123/1 173/90/1
f 166/124/1 133/120/1 167/113/1
f 206/106/1 196/125/1 174/123/1
f 196/125/1 195/126/1 174/123/1
f 195/126/1 175/127/1 174/123/1
f 135/128/1 139/119/1 136/116/1
f 206/106/1 197/129/1 196/125/1
f 194/130/1 175/127/1 195/126/1
f 205/131/1 197/129/1 206/106/1
f 205/131/1 198/132/1 197/129/1
f 135/128/1 140/133/1 139/119/1
f 166/124/1 134/134/1 133/120/1
f 134/134/1 140/133/1 135/128/1
f 165/135/1 134/134/1 166/124/1
f 134/134/1 141/136/1 140/133/1
f 193/137/1 175/127/1 194/130/1
f 193/137/1 176/138/1 175/127/1
f 204/139/1 198/132/1 205/131/1
f 165/135/1 141/136/1 134/134/1
f 204/139/1 199/140/1 198/132/1
f 146/141/1 148/142/1 147/143/1
f 192/144/1 176/138/1 193/137/1
f 146/141/1 149/145/1 148/142/1
f 164/146/1 141/136/1 165/135/1
f 164/146/1 156/147/1 141/136/1
f 156/147/1 142/148/1 141/136/1
f 146/141/1 150/149/1 149/145/1
f 146/141/1 151/150/1 150/149/1
f 192/144/1 177/151/1 176/138/1
f 191/152/1 177/151/1 192/144/1
f 185/153/1 187/154/1 186/155/1
f 190/156/1 177/151/1 191/152/1
f 185/153/1 188/157/1 187/154/1
f 189/158/1 177/151/1 190/156/1
f 185/153/1 189/158/1 188/157/1
f 185/153/1 177/151/1 189/158/1
f 184/159/1 177/151/1 185/153/1
f 163/160/1 156/147/1 164/146/1
f 203/161/1 199/140/1 204/139/1
f 184/159/1 178/162/1 177/151/1
f 163/160/1 157/163/1 156/147/1
f 155/164/1 142/148/1 156/147/1
f 183/165/1 178/162/1 184/159/1
f 145/166/1 151/150/1 146/141/1
f 183/165/1 179/167/1 178/162/1
f 155/164/1 143/168/1 142/148/1
f 183/165/1 180/169/1 179/167/1
f 182/170/1 180/169/1 183/165/1
f 182/170/1 181/171/1 180/169/1
f 203/161/1 202/172/1 199/140/1
f 202/172/1 201/173/1 199/140/1
f 201/173/1 200/174/1 199/140/1
f 162/175/1 157/163/1 163/160/1
f 162/175/1 158/176/1 157/163/1
f 155/164/1 144/177/1 143/168/1
f 144/177/1 151/150/1 145/166/1
f 144/177/1 152/178/1 151/150/1
f 155/164/1 152/178/1 144/177/1
f 154/179/1 152/178/1 155/164/1
f 161/180/1 158/176/1 162/175/1
f 161/180/1 160/181/1 158/176/1
f 160/181/1 159/182/1 158/176/1
f 153/183/1 152/178/1 154/179/1
f 251/1/2 252/3/2 233/2/2
f 250/4/2 251/1/2 233/2/2
f 250/4/2 233/2/2 234/5/2
f 249/6/2 250/4/2 234/5/2
f 249/6/2 234/5/2 235/7/2
f 248/8/2 249/6/2 235/7/2
f 248/8/2 235/7/2 236/9/2
f 247/10/2 248/8/2 236/9/2
f 247/10/2 236/9/2 237/11/2
f 246/12/2 247/10/2 237/11/2
f 246/12/2 237/11/2 238/13/2
f 245/14/2 246/12/2 238/13/2
f 245/14/2 238/13/2 239/15/2
f 244/16/2 245/14/2 239/15/2
f 244/16/2 239/15/2 240/17/2
f 243/18/2 244/16/2 240/17/2
f 243/18/2 240/17/2 241/19/2
f 242/20/2 243/18/2 241/19/2
f 228/21/2 229/23/2 230/22/2
f 227/24/2 228/21/2 230/22/2
f 227/24/2 230/22/2 231/25/2
f 226/26/2 227/24/2 231/25/2
f 226/26/2 231/25/2 232/27/2
f 225/28/2 226/26/2 232/27/2
f 225/28/2 232/27/2 221/29/2
f 224/30/2 225/28/2 221/29/2
f 224/30/2 221/29/2 222/31/2
f 223/32/2 224/30/2 222/31/2
f 283/1/2 284/3/2 265/2/2
f 282/4/2 283/1/2 265/2/2
f 282/4/2 265/2/2 266/5/2
f 281/6/2 282/4/2 266/5/2
f 281/6/2 266/5/2 267/7/2
f 280/8/2 281/6/2 267/7/2
f 280/8/2 267/7/2 268/9/2
f 279/10/2 280/8/2 268/9/2
f 279/10/2 268/9/2 269/11/2
f 278/12/2 279/10/2 269/11/2
f 278/12/2 269/11/2 270/13/2
f 277/14/2 278/12/2 270/13/2
f 277/14/2 270/13/2 271/15/2
f 276/16/2 277/14/2 271/15/2
f 276/16/2 271/15/2 272/17/2
f 275/18/2 276/16/2 272/17/2
f 275/18/2 272/17/2 273/19/2
f 274/20/2 275/18/2 273/19/2
f 260/21/2 261/23/2 262/22/2
f 259/24/2 260/21/2 262/22/2
f 259/24/2 262/22/2 263/25/2
f 258/26/2 259/24/2 263/25/2
f 258/26/2 263/25/2 264/27/2
f 257/28/2 258/26/2 264/27/2
f 257/28/2 264/27/2 253/29/2
f 256/30/2 257/28/2 253/29/2
f 256/30/2 253/29/2 254/31/2
f 255/32/2 256/30/2 254/31/2
f 343/33/2 344/34/2 345/3/2
f 343/33/2 345/3/2 301/35/2
f 342/36/2 343/33/2 301/35/2
f 342/36/2 301/35/2 302/37/2
f 286/38/2 287/40/2 288/39/2
f 286/38/2 288/39/2 289/41/2
f 341/42/2 342/36/2 302/37/2
f 341/42/2 302/37/2 303/43/2
f 285/29/1 286/38/1 289/41/1
f 300/44/2 285/29/2 290/45/2
f 290/45/1 285/29/1 289/41/1
f 300/44/2 290/45/2 291/46/2
f 339/47/2 340/48/2 341/42/2
f 339/47/2 341/42/2 303/43/2
f 339/47/2 303/43/2 304/49/2
f 339/47/2 304/49/2 305/50/2
f 339/47/2 305/50/2 306/51/2
f 339/47/2 306/51/2 307/52/2
f 339/47/2 307/52/2 338/53/2
f 338/53/2 307/52/2 329/54/2
f 329/54/2 307/52/2 328/55/2
f 328/55/2 307/52/2 308/56/2
f 337/57/2 338/53/2 329/54/2
f 337/57/2 329/54/2 330/58/2
f 327/59/2 328/55/2 308/56/2
f 336/60/2 337/57/2 330/58/2
f 336/60/2 330/58/2 331/61/2
f 291/46/2 292/63/2 293/62/2
f 326/64/2 327/59/2 308/56/2
f 326/64/2 308/56/2 309/65/2
f 300/44/2 291/46/2 293/62/2
f 299/66/2 300/44/2 293/62/2
f 299/66/2 293/62/2 294/67/2
f 298/68/2 299/66/2 294/67/2
f 297/69/2 298/68/2 294/67/2
f 296/70/2 297/69/2 294/67/2
f 296/70/2 294/67/2 295/71/2
f 335/72/2 336/60/2 331/61/2
f 325/73/2 326/64/2 309/65/2
f 335/72/2 331/61/2 334/74/2
f 334/74/2 331/61/2 333/75/2
f 333/75/2 331/61/2 332/76/2
f 325/73/2 309/65/2 310/77/2
f 324/78/2 325/73/2 310/77/2
f 323/79/2 324/78/2 310/77/2
f 318/80/2 319/82/2 320/81/2
f 318/80/2 320/81/2 321/83/2
f 322/84/2 323/79/2 310/77/2
f 318/80/2 321/83/2 322/84/2
f 318/80/2 322/84/2 310/77/2
f 317/85/2 318/80/2 310/77/2
f 317/85/2 310/77/2 311/86/2
f 316/87/2 317/85/2 311/86/2
f 316/87/2 311/86/2 312/88/2
f 316/87/2 312/88/2 313/89/2
f 315/90/2 316/87/2 313/89/2
f 315/90/2 313/89/2 314/91/2
f 430/92/2 431/94/2 432/93/2
f 430/92/2 432/93/2 346/29/2
f 439/95/2 440/3/2 433/96/2
f 439/95/2 433/96/2 434/97/2
f 438/98/2 439/95/2 434/97/2
f 429/99/2 430/92/2 346/29/2
f 429/99/2 346/29/2 347/100/2
f 438/98/2 434/97/2 435/101/2
f 437/102/2 438/98/2 435/101/2
f 428/103/2 429/99/2 347/100/2
f 428/103/2 347/100/2 348/104/2
f 437/102/2 435/101/2 436/105/2
f 426/106/2 427/108/2 389/107/2
f 389/107/2 427/108/2 428/103/2
f 389/107/2 428/103/2 348/104/2
f 389/107/2 348/104/2 349/109/2
f 389/107/2 349/109/2 350/110/2
f 426/106/2 389/107/2 390/111/2
f 388/112/1 389/107/1 350/110/1
f 387/113/2 388/112/2 351/114/2
f 351/114/1 388/112/1 350/110/1
f 387/113/2 351/114/2 352/115/2
f 356/116/2 357/118/2 358/117/2
f 356/116/2 358/117/2 359/119/2
f 387/113/2 352/115/2 353/120/2
f 426/106/2 390/111/2 391/121/2
f 426/106/2 391/121/2 392/122/2
f 426/106/2 392/122/2 393/90/2
f 426/106/2 393/90/2 394/123/2
f 386/124/2 387/113/2 353/120/2
f 426/106/2 394/123/2 416/125/2
f 416/125/2 394/123/2 415/126/2
f 415/126/2 394/123/2 395/127/2
f 355/128/2 356/116/2 359/119/2
f 426/106/2 416/125/2 417/129/2
f 414/130/2 415/126/2 395/127/2
f 425/131/2 426/106/2 417/129/2
f 425/131/2 417/129/2 418/132/2
f 355/128/2 359/119/2 360/133/2
f 386/124/2 353/120/2 354/134/2
f 354/134/2 355/128/2 360/133/2
f 385/135/2 386/124/2 354/134/2
f 354/134/2 360/133/2 361/136/2
f 413/137/2 414/130/2 395/127/2
f 413/137/2 395/127/2 396/138/2
f 424/139/2 425/131/2 418/132/2
f 385/135/2 354/134/2 361/136/2
f 424/139/2 418/132/2 419/140/2
f 366/141/2 367/143/2 368/142/2
f 412/144/2 413/137/2 396/138/2
f 366/141/2 368/142/2 369/145/2
f 384/146/2 385/135/2 361/136/2
f 384/146/2 361/136/2 376/147/2
f 376/147/2 361/136/2 362/148/2
f 366/141/2 369/145/2 370/149/2
f 366/141/2 370/149/2 371/150/2
f 412/144/2 396/138/2 397/151/2
f 411/152/2 412/144/2 397/151/2
f 405/153/2 406/155/2 407/154/2
f 410/156/2 411/152/2 397/151/2
f 405/153/2 407/154/2 408/157/2
f 409/158/2 410/156/2 397/151/2
f 405/153/2 408/157/2 409/158/2
f 405/153/2 409/158/2 397/151/2
f 404/159/2 405/153/2 397/151/2
f 383/160/2 384/146/2 376/147/2
f 423/161/2 424/139/2 419/140/2
f 404/159/2 397/151/2 398/162/2
f 383/160/2 376/147/2 377/163/2
f 375/164/2 376/147/2 362/148/2
f 403/165/2 404/159/2 398/162/2
f 365/166/2 366/141/2 371/150/2
f 403/165/2 398/162/2 399/167/2
f 375/164/2 362/148/2 363/168/2
f 403/165/2 399/167/2 400/169/2
f 402/170/2 403/165/2 400/169/2
f 402/170/2 400/169/2 401/171/2
f 423/161/2 419/140/2 422/172/2
f 422/172/2 419/140/2 421/173/2
f 421/173/2 419/140/2 420/174/2
f 382/175/2 383/160/2 377/163/2
f 382/175/2 377/163/2 378/176/2
f 375/164/2 363/168/2 364/177/2
f 364/177/2 365/166/2 371/150/2
f 364/177/2 371/150/2 372/178/2
f 375/164/2 364/177/2 372/178/2
f 374/179/2 375/164/2 372/178/2
f 381/180/2 382/175/2 378/176/2
f 381/180/2 378/176/2 380/181/2
f 380/181/2 378/176/2 379/182/2
f 373/183/2 374/179/2 372/178/2
s 1
f 444/184/3 441/29/4 442/185/4
f 446/186/5 443/187/3 444/184/3
f 448/188/6 445/189/5 446/186/5
f 450/190/7 447/191/6 448/188/6
f 452/192/8 449/193/7 450/190/7
f 454/194/9 451/195/8 452/192/8
f 456/196/10 453/197/9 454/194/9
f 458/198/11 455/199/10 456/196/10
f 460/200/12 457/201/13 458/198/11
f 462/202/14 459/203/12 460/200/12
f 464/204/15 461/205/14 462/202/14
f 466/206/16 463/207/15 464/204/15
f 468/208/17 465/209/18 466/206/16
f 470/210/19 467/211/17 468/208/17
f 472/212/20 469/213/19 470/210/19
f 474/214/21 471/215/22 472/212/20
f 476/216/23 473/217/21 474/214/21
f 478/218/24 475/219/23 476/216/23
f 480/220/25 477/221/24 478/218/24
f 482/222/26 479/223/25 480/220/25
f 484/224/27 481/225/26 482/222/26
f 486/226/28 483/227/27 484/224/27
f 488/228/29 485/229/28 486/226/28
f 490/230/30 487/231/29 488/228/29
f 492/232/31 489/233/30 490/230/30
f 494/234/32 491/235/31 492/232/31
f 496/236/33 493/237/32 494/234/32
f 498/238/34 495/239/33 496/236/33
f 500/240/35 497/241/34 498/238/34
f 502/242/36 499/50/35 500/240/35
f 504/243/37 501/244/38 502/242/36
f 506/245/39 503/246/37 504/243/37
f 508/247/40 505/248/39 506/245/39
f 510/249/41 507/250/40 508/247/40
f 512/251/42 509/252/41 510/249/41
f 514/253/43 511/254/42 512/251/42
f 516/255/44 513/256/43 514/253/43
f 518/257/45 515/258/44 516/255/44
f 520/259/46 517/260/45 518/257/45
f 522/261/47 519/262/48 520/259/46
f 524/263/49 521/264/47 522/261/47
f 526/265/50 523/266/49 524/263/49
f 528/267/7 525/268/51 526/265/50
f 530/269/6 527/270/7 528/267/7
f 532/271/52 529/272/6 530/269/6
f 534/273/53 531/274/54 532/271/52
f 536/275/55 533/276/53 534/273/53
f 538/277/56 535/278/55 536/275/55
f 540/279/57 537/280/56 538/277/56
f 542/281/58 539/282/57 540/279/57
f 544/283/59 541/284/58 542/281/58
f 546/285/60 543/286/59 544/283/59
f 548/287/61 545/288/60 546/285/60
f 550/289/62 547/290/61 548/287/61
f 552/291/63 549/292/62 550/289/62
f 554/293/64 551/294/63 552/291/63
f 556/295/65 553/296/64 554/293/64
f 558/297/66 555/298/67 556/295/65
f 560/299/68 557/73/66 558/297/66
f 562/300/69 559/301/68 560/299/68
f 564/302/70 561/303/71 562/300/69
f 566/304/72 563/305/70 564/302/70
f 568/306/73 565/307/72 566/304/72
f 570/308/74 567/309/73 568/306/73
f 572/310/75 569/311/74 570/308/74
f 574/312/76 571/313/75 572/310/75
f 576/314/77 573/315/76 574/312/76
f 578/316/78 575/317/77 576/314/77
f 580/318/79 577/319/78 578/316/78
f 582/320/7 579/321/79 580/318/79
f 584/322/80 581/323/7 582/320/7
f 586/324/81 583/325/80 584/322/80
f 588/326/82 585/327/81 586/324/81
f 590/328/83 587/329/82 588/326/82
f 592/330/84 589/331/85 590/328/83
f 594/332/86 591/333/84 592/330/84
f 596/334/87 593/335/86 594/332/86
f 598/336/88 595/337/87 596/334/87
f 600/338/89 597/339/88 598/336/88
f 602/340/90 599/341/89 600/338/89
f 604/342/91 601/343/90 602/340/90
f 606/344/92 603/345/91 604/342/91
f 608/346/93 605/347/92 606/344/92
f 610/348/94 607/349/93 608/346/93
f 612/350/95 609/351/94 610/348/94
f 614/352/96 611/353/95 612/350/95
f 442/354/4 613/355/96 614/352/96
f 618/356/97 615/29/98 616/185/98
f 620/357/99 617/358/97 618/356/97
f 622/359/100 619/44/99 620/357/99
f 624/360/101 621/361/100 622/359/100
f 626/362/102 623/90/101 624/360/101
f 628/363/103 625/364/102 626/362/102
f 630/365/104 627/58/105 628/363/103
f 616/354/98 629/366/104 630/365/104
f 634/367/106 631/29/106 632/185/106
f 636/356/91 633/368/106 634/367/106
f 638/369/6 635/358/91 636/356/91
f 640/357/7 637/370/6 638/369/6
f 642/371/7 639/44/7 640/357/7
f 644/359/107 641/372/7 642/371/7
f 646/373/108 643/361/107 644/359/107
f 648/360/109 645/374/108 646/373/108
f 650/375/110 647/90/109 648/360/109
f 652/362/111 649/376/110 650/375/110
f 654/377/112 651/364/111 652/362/111
f 656/363/113 653/378/112 654/377/112
f 658/379/114 655/58/113 656/363/113
f 660/365/115 657/380/114 658/379/114
f 662/381/116 659/366/115 660/365/115
f 632/354/106 661/382/116 662/381/116
f 666/383/117 663/29/118 664/185/118
f 668/384/119 665/385/117 666/383/117
f 670/386/6 667/387/119 668/384/119
f 672/388/120 669/41/6 670/386/6
f 674/389/120 671/390/120 672/388/120
f 676/391/121 673/392/120 674/389/120
f 678/393/122 675/62/121 676/391/121
f 680/394/123 677/395/122 678/393/122
f 682/396/124 679/397/123 680/394/123
f 684/398/125 681/69/124 682/396/124
f 686/399/126 683/400/125 684/398/125
f 688/401/127 685/402/126 686/399/126
f 690/403/128 687/35/127 688/401/127
f 692/404/129 689/405/128 690/403/128
f 694/240/130 691/406/129 692/404/129
f 696/407/131 693/50/130 694/240/130
f 698/408/132 695/409/131 696/407/131
f 700/410/133 697/411/132 698/408/132
f 702/412/134 699/65/135 700/410/133
f 704/413/136 701/414/134 702/412/134
f 706/415/73 703/416/136 704/413/136
f 708/417/137 705/89/73 706/415/73
f 710/418/138 707/419/137 708/417/137
f 712/420/139 709/421/138 710/418/138
f 714/422/140 711/85/139 712/420/139
f 716/423/141 713/424/140 714/422/140
f 718/425/142 715/426/141 716/423/141
f 720/427/143 717/83/142 718/425/142
f 722/428/144 719/429/143 720/427/143
f 724/297/145 721/430/144 722/428/144
f 726/431/146 723/73/145 724/297/145
f 728/432/147 725/433/146 726/431/146
f 730/434/148 727/435/147 728/432/147
f 732/436/149 729/54/148 730/434/148
f 734/437/150 731/438/149 732/436/149
f 736/439/151 733/440/150 734/437/150
f 738/441/152 735/75/151 736/439/151
f 740/442/106 737/443/152 738/441/152
f 742/444/91 739/445/106 740/442/106
f 744/446/153 741/57/91 742/444/91
f 746/447/154 743/448/153 744/446/153
f 748/449/155 745/450/154 746/447/154
f 750/451/156 747/42/155 748/449/155
f 752/452/157 749/453/156 750/451/156
f 664/354/118 751/454/157 752/452/157
f 756/455/158 753/29/159 754/185/159
f 758/456/160 755/39/158 756/455/158
f 760/457/161 757/46/160 758/456/160
f 762/396/162 759/67/161 760/457/161
f 764/357/163 761/69/162 762/396/162
f 766/458/164 763/44/163 764/357/163
f 768/459/165 765/43/164 766/458/164
f 770/410/166 767/51/165 768/459/165
f 772/460/167 769/65/166 770/410/166
f 774/360/168 771/88/167 772/460/167
f 776/461/169 773/90/168 774/360/168
f 778/425/170 775/80/169 776/461/169
f 780/462/171 777/83/170 778/425/170
f 782/463/172 779/78/171 780/462/171
f 784/363/173 781/59/172 782/463/172
f 786/439/174 783/58/173 784/363/173
f 788/464/175 785/75/174 786/439/174
f 790/465/176 787/60/175 788/464/175
f 792/466/177 789/47/176 790/465/176
f 754/354/159 791/36/177 792/466/177
f 796/467/178 793/29/179 794/185/179
f 798/468/167 795/45/178 796/467/178
f 800/357/180 797/71/167 798/468/167
f 802/240/181 799/44/180 800/357/180
f 804/469/182 801/50/183 802/240/181
f 806/360/184 803/77/182 804/469/182
f 808/470/185 805/90/184 806/360/184
f 810/297/177 807/81/185 808/470/185
f 812/363/186 809/73/177 810/297/177
f 814/471/187 811/58/186 812/363/186
f 816/472/120 813/72/187 814/471/187
f 794/354/179 815/48/120 816/472/120
f 820/455/158 817/29/159 818/185/159
f 822/456/160 819/39/158 820/455/158
f 824/457/161 821/46/160 822/456/160
f 826/396/162 823/67/161 824/457/161
f 828/357/163 825/69/162 826/396/162
f 830/458/164 827/44/163 828/357/163
f 832/459/165 829/43/164 830/458/164
f 834/410/166 831/51/165 832/459/165
f 836/460/167 833/65/166 834/410/166
f 838/360/168 835/88/167 836/460/167
f 840/461/169 837/90/168 838/360/168
f 842/425/170 839/80/169 840/461/169
f 844/462/171 841/83/170 842/425/170
f 846/463/172 843/78/171 844/462/171
f 848/363/173 845/59/172 846/463/172
f 850/439/174 847/58/173 848/363/173
f 852/464/175 849/75/174 850/439/174
f 854/465/176 851/60/175 852/464/175
f 856/466/177 853/47/176 854/465/176
f 818/354/159 855/36/177 856/466/177
f 860/467/178 857/29/179 858/185/179
f 862/468/167 859/45/178 860/467/178
f 864/357/180 861/71/167 862/468/167
f 866/240/181 863/44/180 864/357/180
f 868/469/182 865/50/183 866/240/181
f 870/360/184 867/77/182 868/469/182
f 872/470/185 869/90/184 870/360/184
f 874/297/177 871/81/185 872/470/185
f 876/363/186 873/73/177 874/297/177
f 878/471/187 875/58/186 876/363/186
f 880/472/120 877/72/187 878/471/187
f 858/354/179 879/48/120 880/472/120
f 444/184/3 443/187/3 441/29/4
f 446/186/5 445/189/5 443/187/3
f 448/188/6 447/191/6 445/189/5
f 450/190/7 449/193/7 447/191/6
f 452/192/8 451/195/8 449/193/7
f 454/194/9 453/197/9 451/195/8
f 456/196/10 455/199/10 453/197/9
f 458/198/11 457/201/13 455/199/10
f 460/200/12 459/203/12 457/201/13
f 462/202/14 461/205/14 459/203/12
f 464/204/15 463/207/15 461/205/14
f 466/206/16 465/209/18 463/207/15
f 468/208/17 467/211/17 465/209/18
f 470/210/19 469/213/19 467/211/17
f 472/212/20 471/215/22 469/213/19
f 474/214/21 473/217/21 471/215/22
f 476/216/23 475/219/23 473/217/21
f 478/218/24 477/221/24 475/219/23
f 480/220/25 479/223/25 477/221/24
f 482/222/26 481/225/26 479/223/25
f 484/224/27 483/227/27 481/225/26
f 486/226/28 485/229/28 483/227/27
f 488/228/29 487/231/29 485/229/28
f 490/230/30 489/233/30 487/231/29
f 492/232/31 491/235/31 489/233/30
f 494/234/32 493/237/32 491/235/31
f 496/236/33 495/239/33 493/237/32
f 498/238/34 497/241/34 495/239/33
f 500/240/35 499/50/35 497/241/34
f 502/242/36 501/244/38 499/50/35
f 504/243/37 503/246/37 501/244/38
f 506/245/39 505/248/39 503/246/37
f 508/247/40 507/250/40 505/248/39
f 510/249/41 509/252/41 507/250/40
f 512/251/42 511/254/42 509/252/41
f 514/253/43 513/256/43 511/254/42
f 516/255/44 515/258/44 513/256/43
f 518/257/45 517/260/45 515/258/44
f 520/259/46 519/262/48 517/260/45
f 522/261/47 521/264/47 519/262/48
f 524/263/49 523/266/49 521/264/47
f 526/265/50 525/268/51 523/266/49
f 528/267/7 527/270/7 525/268/51
f 530/269/6 529/272/6 527/270/7
f 532/271/52 531/274/54 529/272/6
f 534/273/53 533/276/53 531/274/54
f 536/275/55 535/278/55 533/276/53
f 538/277/56 537/280/56 535/278/55
f 540/279/57 539/282/57 537/280/56
f 542/281/58 541/284/58 539/282/57
f 544/283/59 543/286/59 541/284/58
f 546/285/60 545/288/60 543/286/59
f 548/287/61 547/290/61 545/288/60
f 550/289/62 549/292/62 547/290/61
f 552/291/63 551/294/63 549/292/62
f 554/293/64 553/296/64 551/294/63
f 556/295/65 555/298/67 553/296/64
f 558/297/66 557/73/66 555/298/67
f 560/299/68 559/301/68 557/73/66
f 562/300/69 561/303/71 559/301/68
f 564/302/70 563/305/70 561/303/71
f 566/304/72 565/307/72 563/305/70
f 568/306/73 567/309/73 565/307/72
f 570/308/74 569/311/74 567/309/73
f 572/310/75 571/313/75 569/311/74
f 574/312/76 573/315/76 571/313/75
f 576/314/77 575/317/77 573/315/76
f 578/316/78 577/319/78 575/317/77
f 580/318/79 579/321/79 577/319/78
f 582/320/7 581/323/7 579/321/79
f 584/322/80 583/325/80 581/323/7
f 586/324/81 585/327/81 583/325/80
f 588/326/82 587/329/82 585/327/81
f 590/328/83 589/331/85 587/329/82
f 592/330/84 591/333/84 589/331/85
f 594/332/86 593/335/86 591/333/84
f 596/334/87 595/337/87 593/335/86
f 598/336/88 597/339/88 595/337/87
f 600/338/89 599/341/89 597/339/88
f 602/340/90 601/343/90 599/341/89
f 604/342/91 603/345/91 601/343/90
f 606/344/92 605/347/92 603/345/91
f 608/346/93 607/349/93 605/347/92
f 610/348/94 609/351/94 607/349/93
f 612/350/95 611/353/95 609/351/94
f 614/352/96 613/355/96 611/353/95
f 442/354/4 441/3/4 613/355/96
f 618/356/97 617/358/97 615/29/98
f 620/357/99 619/44/99 617/358/97
f 622/359/100 621/361/100 619/44/99
f 624/360/101 623/90/101 621/361/100
f 626/362/102 625/364/102 623/90/101
f 628/363/103 627/58/105 625/364/102
f 630/365/104 629/366/104 627/58/105
f 616/354/98 615/3/98 629/366/104
f 634/367/106 633/368/106 631/29/106
f 636/356/91 635/358/91 633/368/106
f 638/369/6 637/370/6 635/358/91
f 640/357/7 639/44/7 637/370/6
f 642/371/7 641/372/7 639/44/7
f 644/359/107 643/361/107 641/372/7
f 646/373/108 645/374/108 643/361/107
f 648/360/109 647/90/109 645/374/108
f 650/375/110 649/376/110 647/90/109
f 652/362/111 651/364/111 649/376/110
f 654/377/112 653/378/112 651/364/111
f 656/363/113 655/58/113 653/378/112
f 658/379/114 657/380/114 655/58/113
f 660/365/115 659/366/115 657/380/114
f 662/381/116 661/382/116 659/366/115
f 632/354/106 631/3/106 661/382/116
f 666/383/117 665/385/117 663/29/118
f 668/384/119 667/387/119 665/385/117
f 670/386/6 669/41/6 667/387/119
f 672/388/120 671/390/120 669/41/6
f 674/389/120 673/392/120 671/390/120
f 676/391/121 675/62/121 673/392/120
f 678/393/122 677/395/122 675/62/121
f 680/394/123 679/397/123 677/395/122
f 682/396/124 681/69/124 679/397/123
f 684/398/125 683/400/125 681/69/124
f 686/399/126 685/402/126 683/400/125
f 688/401/127 687/35/127 685/402/126
f 690/403/128 689/405/128 687/35/127
f 692/404/129 691/406/129 689/405/128
f 694/240/130 693/50/130 691/406/129
f 696/407/131 695/409/131 693/50/130
f 698/408/132 697/411/132 695/409/131
f 700/410/133 699/65/135 697/411/132
f 702/412/134 701/414/134 699/65/135
f 704/413/136 703/416/136 701/414/134
f 706/415/73 705/89/73 703/416/136
f 708/417/137 707/419/137 705/89/73
f 710/418/138 709/421/138 707/419/137
f 712/420/139 711/85/139 709/421/138
f 714/422/140 713/424/140 711/85/139
f 716/423/141 715/426/141 713/424/140
f 718/425/142 717/83/142 715/426/141
f 720/427/143 719/429/143 717/83/142
f 722/428/144 721/430/144 719/429/143
f 724/297/145 723/73/145 721/430/144
f 726/431/146 725/433/146 723/73/145
f 728/432/147 727/435/147 725/433/146
f 730/434/148 729/54/148 727/435/147
f 732/436/149 731/438/149 729/54/148
f 734/437/150 733/440/150 731/438/149
f 736/439/151 735/75/151 733/440/150
f 738/441/152 737/443/152 735/75/151
f 740/442/106 739/445/106 737/443/152
f 742/444/91 741/57/91 739/445/106
f 744/446/153 743/448/153 741/57/91
f 746/447/154 745/450/154 743/448/153
f 748/449/155 747/42/155 745/450/154
f 750/451/156 749/453/156 747/42/155
f 752/452/157 751/454/157 749/453/156
f 664/354/118 663/3/118 751/454/157
f 756/455/158 755/39/158 753/29/159
f 758/456/160 757/46/160 755/39/158
f 760/457/161 759/67/161 757/46/160
f 762/396/162 761/69/162 759/67/161
f 764/357/163 763/44/163 761/69/162
f 766/458/164 765/43/164 763/44/163
f 768/459/165 767/51/165 765/43/164
f 770/410/166 769/65/166 767/51/165
f 772/460/167 771/88/167 769/65/166
f 774/360/168 773/90/168 771/88/167
f 776/461/169 775/80/169 773/90/168
f 778/425/170 777/83/170 775/80/169
f 780/462/171 779/78/171 777/83/170
f 782/463/172 781/59/172 779/78/171
f 784/363/173 783/58/173 781/59/172
f 786/439/174 785/75/174 783/58/173
f 788/464/175 787/60/175 785/75/174
f 790/465/176 789/47/176 787/60/175
f 792/466/177 791/36/177 789/47/176
f 754/354/159 753/3/159 791/36/177
f 796/467/178 795/45/178 793/29/179
f 798/468/167 797/71/167 795/45/178
f 800/357/180 799/44/180 797/71/167
f 802/240/181 801/50/183 799/44/180
f 804/469/182 803/77/182 801/50/183
f 806/360/184 805/90/184 803/77/182
f 808/470/185 807/81/185 805/90/184
f 810/297/177 809/73/177 807/81/185
f 812/363/186 811/58/186 809/73/177
f 814/471/187 813/72/187 811/58/186
f 816/472/120 815/48/120 813/72/187
f 794/354/179 793/3/179 815/48/120
f 820/455/158 819/39/158 817/29/159
f 822/456/160 821/46/160 819/39/158
f 824/457/161 823/67/161 821/46/160
f 826/396/162 825/69/162 823/67/161
f 828/357/163 827/44/163 825/69/162
f 830/458/164 829/43/164 827/44/163
f 832/459/165 831/51/165 829/43/164
f 834/410/166 833/65/166 831/51/165
f 836/460/167 835/88/167 833/65/166
f 838/360/168 837/90/168 835/88/167
f 840/461/169 839/80/169 837/90/168
f 842/425/170 841/83/170 839/80/169
f 844/462/171 843/78/171 841/83/170
f 846/463/172 845/59/172 843/78/171
f 848/363/173 847/58/173 845/59/172
f 850/439/174 849/75/174 847/58/173
f 852/464/175 851/60/175 849/75/174
f 854/465/176 853/47/176 851/60/175
f 856/466/177 855/36/177 853/47/176
f 818/354/159 817/3/159 855/36/177
f 860/467/178 859/45/178 857/29/179
f 862/468/167 861/71/167 859/45/178
f 864/357/180 863/44/180 861/71/167
f 866/240/181 865/50/183 863/44/180
f 868/469/182 867/77/182 865/50/183
f 870/360/184 869/90/184 867/77/182
f 872/470/185 871/81/185 869/90/184
f 874/297/177 873/73/177 871/81/185
f 876/363/186 875/58/186 873/73/177
f 878/471/187 877/72/187 875/58/186
f 880/472/120 879/48/120 877/72/187
f 858/354/179 857/3/179 879/48/120
