# Blender 4.1.1
# www.blender.org
mtllib Mei.mtl
o テキスト
v 0.276430 0.739250 -0.020000
v 0.209680 0.655000 -0.020000
v 0.269680 0.611000 -0.020000
v 0.333555 0.697375 -0.020000
v 0.414680 0.789000 -0.020000
v 0.359680 0.828000 -0.020000
v 0.026055 0.687250 -0.020000
v -0.013320 0.592000 -0.020000
v 0.054680 0.565000 -0.020000
v 0.092305 0.661875 -0.020000
v 0.145680 0.767000 -0.020000
v 0.082680 0.790000 -0.020000
v -0.360945 0.659750 -0.020000
v -0.302320 0.563000 -0.020000
v -0.243320 0.588000 -0.020000
v -0.299445 0.689875 -0.020000
v -0.347320 0.797000 -0.020000
v -0.420320 0.770000 -0.020000
v -0.167320 0.517000 -0.020000
v -0.446320 0.517000 -0.020000
v -0.446320 0.448000 -0.020000
v -0.209320 0.448000 -0.020000
v -0.347195 0.307375 -0.020000
v -0.460320 0.184000 -0.020000
v -0.405320 0.134000 -0.020000
v -0.299445 0.257000 -0.020000
v -0.167320 0.398000 -0.020000
v -0.167320 0.056000 -0.020000
v -0.094320 0.056000 -0.020000
v -0.094320 0.398000 -0.020000
v 0.017305 0.237625 -0.020000
v 0.141680 0.114000 -0.020000
v 0.166305 0.144125 -0.020000
v 0.194680 0.172000 -0.020000
v 0.063055 0.291625 -0.020000
v -0.051320 0.448000 -0.020000
v 0.178680 0.448000 -0.020000
v 0.178680 0.517000 -0.020000
v -0.094320 0.517000 -0.020000
v -0.094320 0.830000 -0.020000
v -0.167320 0.830000 -0.020000
v 0.208180 0.086750 -0.020000
v 0.163680 0.056000 -0.020000
v 0.047305 0.014875 -0.020000
v -0.107320 0.006000 -0.020000
v -0.304945 0.011875 -0.020000
v -0.485320 0.026000 -0.020000
v -0.470320 -0.015250 -0.020000
v -0.461320 -0.058000 -0.020000
v -0.294070 -0.065375 -0.020000
v -0.104320 -0.069000 -0.020000
v 0.060930 -0.057750 -0.020000
v 0.182680 -0.012000 -0.020000
v 0.239180 0.030500 -0.020000
v 0.280680 0.052000 -0.020000
v 0.338305 0.011250 -0.020000
v 0.408680 -0.082000 -0.020000
v 0.464680 -0.009000 -0.020000
v 0.384555 0.070875 -0.020000
v 0.312680 0.117000 -0.020000
v 0.312680 0.431000 -0.020000
v 0.443680 0.431000 -0.020000
v 0.443680 0.501000 -0.020000
v 0.240680 0.501000 -0.020000
v 0.240680 0.110000 -0.020000
v 0.276430 0.739250 0.020000
v 0.209680 0.655000 0.020000
v 0.269680 0.611000 0.020000
v 0.333555 0.697375 0.020000
v 0.414680 0.789000 0.020000
v 0.359680 0.828000 0.020000
v 0.026055 0.687250 0.020000
v -0.013320 0.592000 0.020000
v 0.054680 0.565000 0.020000
v 0.092305 0.661875 0.020000
v 0.145680 0.767000 0.020000
v 0.082680 0.790000 0.020000
v -0.360945 0.659750 0.020000
v -0.302320 0.563000 0.020000
v -0.243320 0.588000 0.020000
v -0.299445 0.689875 0.020000
v -0.347320 0.797000 0.020000
v -0.420320 0.770000 0.020000
v -0.167320 0.517000 0.020000
v -0.446320 0.517000 0.020000
v -0.446320 0.448000 0.020000
v -0.209320 0.448000 0.020000
v -0.347195 0.307375 0.020000
v -0.460320 0.184000 0.020000
v -0.405320 0.134000 0.020000
v -0.299445 0.257000 0.020000
v -0.167320 0.398000 0.020000
v -0.167320 0.056000 0.020000
v -0.094320 0.056000 0.020000
v -0.094320 0.398000 0.020000
v 0.017305 0.237625 0.020000
v 0.141680 0.114000 0.020000
v 0.166305 0.144125 0.020000
v 0.194680 0.172000 0.020000
v 0.063055 0.291625 0.020000
v -0.051320 0.448000 0.020000
v 0.178680 0.448000 0.020000
v 0.178680 0.517000 0.020000
v -0.094320 0.517000 0.020000
v -0.094320 0.830000 0.020000
v -0.167320 0.830000 0.020000
v 0.208180 0.086750 0.020000
v 0.163680 0.056000 0.020000
v 0.047305 0.014875 0.020000
v -0.107320 0.006000 0.020000
v -0.304945 0.011875 0.020000
v -0.485320 0.026000 0.020000
v -0.470320 -0.015250 0.020000
v -0.461320 -0.058000 0.020000
v -0.294070 -0.065375 0.020000
v -0.104320 -0.069000 0.020000
v 0.060930 -0.057750 0.020000
v 0.182680 -0.012000 0.020000
v 0.239180 0.030500 0.020000
v 0.280680 0.052000 0.020000
v 0.338305 0.011250 0.020000
v 0.408680 -0.082000 0.020000
v 0.464680 -0.009000 0.020000
v 0.384555 0.070875 0.020000
v 0.312680 0.117000 0.020000
v 0.312680 0.431000 0.020000
v 0.443680 0.431000 0.020000
v 0.443680 0.501000 0.020000
v 0.240680 0.501000 0.020000
v 0.240680 0.110000 0.020000
v 0.026055 0.687250 0.020000
v 0.026055 0.687250 -0.020000
v -0.013320 0.592000 0.020000
v -0.013320 0.592000 -0.020000
v 0.054680 0.565000 0.020000
v 0.054680 0.565000 -0.020000
v 0.092305 0.661875 0.020000
v 0.092305 0.661875 -0.020000
v 0.145680 0.767000 0.020000
v 0.145680 0.767000 -0.020000
v 0.082680 0.790000 0.020000
v 0.082680 0.790000 -0.020000
v -0.360945 0.659750 0.020000
v -0.360945 0.659750 -0.020000
v -0.302320 0.563000 0.020000
v -0.302320 0.563000 -0.020000
v -0.243320 0.588000 0.020000
v -0.243320 0.588000 -0.020000
v -0.299445 0.689875 0.020000
v -0.299445 0.689875 -0.020000
v -0.347320 0.797000 0.020000
v -0.347320 0.797000 -0.020000
v -0.420320 0.770000 0.020000
v -0.420320 0.770000 -0.020000
v 0.276430 0.739250 0.020000
v 0.276430 0.739250 -0.020000
v 0.209680 0.655000 0.020000
v 0.209680 0.655000 -0.020000
v 0.269680 0.611000 0.020000
v 0.269680 0.611000 -0.020000
v 0.333555 0.697375 0.020000
v 0.333555 0.697375 -0.020000
v 0.414680 0.789000 0.020000
v 0.414680 0.789000 -0.020000
v 0.359680 0.828000 0.020000
v 0.359680 0.828000 -0.020000
v -0.167320 0.517000 0.020000
v -0.167320 0.517000 -0.020000
v -0.446320 0.517000 0.020000
v -0.446320 0.517000 -0.020000
v -0.446320 0.448000 0.020000
v -0.446320 0.448000 -0.020000
v -0.209320 0.448000 0.020000
v -0.209320 0.448000 -0.020000
v -0.347195 0.307375 0.020000
v -0.347195 0.307375 -0.020000
v -0.460320 0.184000 0.020000
v -0.460320 0.184000 -0.020000
v -0.405320 0.134000 0.020000
v -0.405320 0.134000 -0.020000
v -0.299445 0.257000 0.020000
v -0.299445 0.257000 -0.020000
v -0.167320 0.398000 0.020000
v -0.167320 0.398000 -0.020000
v -0.167320 0.056000 0.020000
v -0.167320 0.056000 -0.020000
v -0.094320 0.056000 0.020000
v -0.094320 0.056000 -0.020000
v -0.094320 0.398000 0.020000
v -0.094320 0.398000 -0.020000
v 0.017305 0.237625 0.020000
v 0.017305 0.237625 -0.020000
v 0.141680 0.114000 0.020000
v 0.141680 0.114000 -0.020000
v 0.166305 0.144125 0.020000
v 0.166305 0.144125 -0.020000
v 0.194680 0.172000 0.020000
v 0.194680 0.172000 -0.020000
v 0.063055 0.291625 0.020000
v 0.063055 0.291625 -0.020000
v -0.051320 0.448000 0.020000
v -0.051320 0.448000 -0.020000
v 0.178680 0.448000 0.020000
v 0.178680 0.448000 -0.020000
v 0.178680 0.517000 0.020000
v 0.178680 0.517000 -0.020000
v -0.094320 0.517000 0.020000
v -0.094320 0.517000 -0.020000
v -0.094320 0.830000 0.020000
v -0.094320 0.830000 -0.020000
v -0.167320 0.830000 0.020000
v -0.167320 0.830000 -0.020000
v 0.208180 0.086750 0.020000
v 0.208180 0.086750 -0.020000
v 0.163680 0.056000 0.020000
v 0.163680 0.056000 -0.020000
v 0.047305 0.014875 0.020000
v 0.047305 0.014875 -0.020000
v -0.107320 0.006000 0.020000
v -0.107320 0.006000 -0.020000
v -0.304945 0.011875 0.020000
v -0.304945 0.011875 -0.020000
v -0.485320 0.026000 0.020000
v -0.485320 0.026000 -0.020000
v -0.470320 -0.015250 0.020000
v -0.470320 -0.015250 -0.020000
v -0.461320 -0.058000 0.020000
v -0.461320 -0.058000 -0.020000
v -0.294070 -0.065375 0.020000
v -0.294070 -0.065375 -0.020000
v -0.104320 -0.069000 0.020000
v -0.104320 -0.069000 -0.020000
v 0.060930 -0.057750 0.020000
v 0.060930 -0.057750 -0.020000
v 0.182680 -0.012000 0.020000
v 0.182680 -0.012000 -0.020000
v 0.239180 0.030500 0.020000
v 0.239180 0.030500 -0.020000
v 0.280680 0.052000 0.020000
v 0.280680 0.052000 -0.020000
v 0.338305 0.011250 0.020000
v 0.338305 0.011250 -0.020000
v 0.408680 -0.082000 0.020000
v 0.408680 -0.082000 -0.020000
v 0.464680 -0.009000 0.020000
v 0.464680 -0.009000 -0.020000
v 0.384555 0.070875 0.020000
v 0.384555 0.070875 -0.020000
v 0.312680 0.117000 0.020000
v 0.312680 0.117000 -0.020000
v 0.312680 0.431000 0.020000
v 0.312680 0.431000 -0.020000
v 0.443680 0.431000 0.020000
v 0.443680 0.431000 -0.020000
v 0.443680 0.501000 0.020000
v 0.443680 0.501000 -0.020000
v 0.240680 0.501000 0.020000
v 0.240680 0.501000 -0.020000
v 0.240680 0.110000 0.020000
v 0.240680 0.110000 -0.020000
vn -0.0000 -0.0000 -1.0000
vn -0.0000 -0.0000 1.0000
vn -0.9209 -0.3898 -0.0000
vn -0.9014 0.4330 -0.0000
vn 0.3997 -0.9166 -0.0000
vn 0.9130 -0.4079 -0.0000
vn 0.3997 -0.9167 -0.0000
vn 0.9303 0.3667 -0.0000
vn -0.3509 0.9364 -0.0000
vn -0.3075 -0.9515 -0.0000
vn -0.8681 -0.4964 -0.0000
vn 0.9450 -0.3271 -0.0000
vn 0.8952 0.4457 -0.0000
vn 0.3877 0.9218 -0.0000
vn -0.9355 0.3534 -0.0000
vn -0.9354 0.3535 -0.0000
vn -0.9910 -0.1336 -0.0000
vn -0.7572 0.6531 -0.0000
vn 0.1501 -0.9887 -0.0000
vn 0.7771 -0.6294 -0.0000
vn 0.9934 0.1144 -0.0000
vn -0.1001 0.9950 -0.0000
vn -0.7071 0.7071 -0.0000
vn -0.7071 -0.7071 -0.0000
vn -0.9220 -0.3872 -0.0000
vn -0.7257 0.6881 -0.0000
vn -0.9220 -0.3873 -0.0000
vn -0.9990 -0.0454 -0.0000
vn 0.0611 -0.9981 -0.0000
vn 0.7440 -0.6682 -0.0000
vn -0.3677 -0.9300 -0.0000
vn -0.3676 -0.9300 -0.0000
vn 0.7071 -0.7071 -0.0000
vn 0.2994 -0.9541 -0.0000
vn -0.7660 -0.6429 -0.0000
vn 0.0516 -0.9987 -0.0000
vn 0.7386 -0.6741 -0.0000
vn 0.9998 0.0194 -0.0000
vn 0.7436 0.6686 -0.0000
vn 0.8917 -0.4526 -0.0000
vn 0.7071 0.7071 -0.0000
vn -0.4548 0.8906 -0.0000
vn -0.5752 0.8180 -0.0000
vn -0.1972 0.9804 -0.0000
vn -0.0138 0.9999 -0.0000
vn 0.0539 0.9985 -0.0000
vn -0.7960 0.6052 -0.0000
vn -0.9616 -0.2746 -0.0000
vn -0.7961 0.6052 -0.0000
vn -0.6470 -0.7624 -0.0000
vn -0.0316 -0.9995 -0.0000
vn -0.6470 -0.7625 -0.0000
vn 0.0244 -0.9997 -0.0000
vn 0.2121 -0.9773 -0.0000
vn 0.4813 -0.8765 -0.0000
vn 0.5324 -0.8465 -0.0000
vn -0.0687 -0.9976 -0.0000
vn -0.6961 -0.7180 -0.0000
vn -0.0039 -1.0000 -0.0000
vn 0.9978 0.0663 -0.0000
vn -0.0040 -1.0000 -0.0000
vn 0.6266 0.7793 -0.0000
vn 0.9978 0.0662 -0.0000
vn 0.8775 0.4795 -0.0000
vn -0.8893 0.4573 -0.0000
vt 0.593750 0.000000
vt 0.625000 0.000000
vt 0.609375 0.000000
vt 0.281250 0.000000
vt 0.234375 0.000000
vt 0.265625 0.000000
vt 0.250000 0.000000
vt 0.156250 0.000000
vt 0.093750 0.000000
vt 0.171875 0.000000
vt 0.187500 0.000000
vt 0.140625 0.000000
vt 0.218750 0.000000
vt 0.109375 0.000000
vt 0.125000 0.000000
vt 0.203125 0.000000
vt 0.562500 0.000000
vt 0.578125 0.000000
vt 0.296875 0.000000
vt 0.312500 0.000000
vt 0.953125 0.000000
vt 0.984375 0.000000
vt 0.968750 0.000000
vt 0.937500 0.000000
vt 1.000000 0.000000
vt 0.546875 0.000000
vt 0.531250 0.000000
vt 0.453125 0.000000
vt 0.328125 0.000000
vt 0.406250 0.000000
vt 0.343750 0.000000
vt 0.921875 0.000000
vt 0.468750 0.000000
vt 0.437500 0.000000
vt 0.421875 0.000000
vt 0.390625 0.000000
vt 0.359375 0.000000
vt 0.515625 0.000000
vt 0.375000 0.000000
vt 0.500000 0.000000
vt 0.484375 0.000000
vt 0.906250 0.000000
vt 0.640625 0.000000
vt 0.656250 0.000000
vt 0.890625 0.000000
vt 0.843750 0.000000
vt 0.671875 0.000000
vt 0.859375 0.000000
vt 0.828125 0.000000
vt 0.812500 0.000000
vt 0.703125 0.000000
vt 0.734375 0.000000
vt 0.718750 0.000000
vt 0.687500 0.000000
vt 0.875000 0.000000
vt 0.796875 0.000000
vt 0.750000 0.000000
vt 0.781250 0.000000
vt 0.765625 0.000000
vt 0.062500 0.000000
vt 0.000000 0.000000
vt 0.078125 0.000000
vt 0.046875 0.000000
vt 0.015625 0.000000
vt 0.031250 0.000000
vt 0.166667 1.000000
vt 0.000000 1.000000
vt 0.333333 1.000000
vt 0.166667 0.000000
vt 0.500000 1.000000
vt 0.333333 0.000000
vt 0.666667 1.000000
vt 0.833333 1.000000
vt 0.666667 0.000000
vt 1.000000 1.000000
vt 0.833333 0.000000
vt 0.043478 1.000000
vt 0.086957 1.000000
vt 0.043478 0.000000
vt 0.130435 1.000000
vt 0.086957 0.000000
vt 0.173913 1.000000
vt 0.130435 0.000000
vt 0.217391 1.000000
vt 0.173913 0.000000
vt 0.260870 1.000000
vt 0.217391 0.000000
vt 0.304348 1.000000
vt 0.260870 0.000000
vt 0.347826 1.000000
vt 0.304348 0.000000
vt 0.391304 1.000000
vt 0.347826 0.000000
vt 0.434783 1.000000
vt 0.391304 0.000000
vt 0.478261 1.000000
vt 0.434783 0.000000
vt 0.521739 1.000000
vt 0.478261 0.000000
vt 0.565217 1.000000
vt 0.521739 0.000000
vt 0.608696 1.000000
vt 0.565217 0.000000
vt 0.652174 1.000000
vt 0.608696 0.000000
vt 0.695652 1.000000
vt 0.652174 0.000000
vt 0.739130 1.000000
vt 0.695652 0.000000
vt 0.782609 1.000000
vt 0.739130 0.000000
vt 0.826087 1.000000
vt 0.782609 0.000000
vt 0.869565 1.000000
vt 0.826087 0.000000
vt 0.913043 1.000000
vt 0.869565 0.000000
vt 0.956522 1.000000
vt 0.913043 0.000000
vt 0.956522 0.000000
vt 0.041667 1.000000
vt 0.083333 1.000000
vt 0.041667 0.000000
vt 0.125000 1.000000
vt 0.083333 0.000000
vt 0.208333 1.000000
vt 0.250000 1.000000
vt 0.208333 0.000000
vt 0.291667 1.000000
vt 0.291667 0.000000
vt 0.375000 1.000000
vt 0.416667 1.000000
vt 0.458333 1.000000
vt 0.416667 0.000000
vt 0.458333 0.000000
vt 0.541667 1.000000
vt 0.583333 1.000000
vt 0.541667 0.000000
vt 0.625000 1.000000
vt 0.583333 0.000000
vt 0.708333 1.000000
vt 0.750000 1.000000
vt 0.708333 0.000000
vt 0.791667 1.000000
vt 0.791667 0.000000
vt 0.875000 1.000000
vt 0.916667 1.000000
vt 0.958333 1.000000
vt 0.916667 0.000000
vt 0.958333 0.000000
s 0
usemtl マテリアル
f 39/1/1 41/2/1 40/3/1
f 39/1/1 19/4/1 41/2/1
f 16/5/1 18/6/1 17/7/1
f 11/8/1 7/9/1 12/10/1
f 16/5/1 13/11/1 18/6/1
f 10/12/1 7/9/1 11/8/1
f 15/13/1 13/11/1 16/5/1
f 10/12/1 8/14/1 7/9/1
f 9/15/1 8/14/1 10/12/1
f 15/13/1 14/16/1 13/11/1
f 37/17/1 39/1/1 38/18/1
f 37/17/1 19/4/1 39/1/1
f 37/17/1 20/19/1 19/4/1
f 37/17/1 21/20/1 20/19/1
f 62/21/1 64/22/1 63/23/1
f 62/21/1 61/24/1 64/22/1
f 61/24/1 65/25/1 64/22/1
f 36/26/1 21/20/1 37/17/1
f 35/27/1 30/28/1 36/26/1
f 30/28/1 22/29/1 36/26/1
f 22/29/1 21/20/1 36/26/1
f 30/28/1 27/30/1 22/29/1
f 27/30/1 23/31/1 22/29/1
f 60/32/1 65/25/1 61/24/1
f 35/27/1 31/33/1 30/28/1
f 29/34/1 27/30/1 30/28/1
f 29/34/1 28/35/1 27/30/1
f 26/36/1 23/31/1 27/30/1
f 26/36/1 24/37/1 23/31/1
f 34/38/1 31/33/1 35/27/1
f 25/39/1 24/37/1 26/36/1
f 34/38/1 33/40/1 31/33/1
f 33/40/1 32/41/1 31/33/1
f 59/42/1 65/25/1 60/32/1
f 59/42/1 42/43/1 65/25/1
f 59/42/1 43/44/1 42/43/1
f 58/45/1 55/46/1 59/42/1
f 55/46/1 43/44/1 59/42/1
f 55/46/1 44/47/1 43/44/1
f 58/45/1 56/48/1 55/46/1
f 54/49/1 44/47/1 55/46/1
f 53/50/1 44/47/1 54/49/1
f 46/51/1 48/52/1 47/53/1
f 53/50/1 45/54/1 44/47/1
f 45/54/1 48/52/1 46/51/1
f 58/45/1 57/55/1 56/48/1
f 53/50/1 48/52/1 45/54/1
f 52/56/1 48/52/1 53/50/1
f 52/56/1 49/57/1 48/52/1
f 51/58/1 49/57/1 52/56/1
f 51/58/1 50/59/1 49/57/1
f 5/60/1 1/61/1 6/62/1
f 4/63/1 1/61/1 5/60/1
f 4/63/1 2/64/1 1/61/1
f 3/65/1 2/64/1 4/63/1
f 104/1/2 105/3/2 106/2/2
f 104/1/2 106/2/2 84/4/2
f 81/5/2 82/7/2 83/6/2
f 76/8/2 77/10/2 72/9/2
f 81/5/2 83/6/2 78/11/2
f 75/12/2 76/8/2 72/9/2
f 80/13/2 81/5/2 78/11/2
f 75/12/2 72/9/2 73/14/2
f 74/15/2 75/12/2 73/14/2
f 80/13/2 78/11/2 79/16/2
f 102/17/2 103/18/2 104/1/2
f 102/17/2 104/1/2 84/4/2
f 102/17/2 84/4/2 85/19/2
f 102/17/2 85/19/2 86/20/2
f 127/21/2 128/23/2 129/22/2
f 127/21/2 129/22/2 126/24/2
f 126/24/2 129/22/2 130/25/2
f 101/26/1 102/17/1 86/20/1
f 100/27/2 101/26/2 95/28/2
f 95/28/2 101/26/2 87/29/2
f 87/29/1 101/26/1 86/20/1
f 95/28/2 87/29/2 92/30/2
f 92/30/2 87/29/2 88/31/2
f 125/32/2 126/24/2 130/25/2
f 100/27/2 95/28/2 96/33/2
f 94/34/2 95/28/2 92/30/2
f 94/34/2 92/30/2 93/35/2
f 91/36/2 92/30/2 88/31/2
f 91/36/2 88/31/2 89/37/2
f 99/38/2 100/27/2 96/33/2
f 90/39/2 91/36/2 89/37/2
f 99/38/2 96/33/2 98/40/2
f 98/40/2 96/33/2 97/41/2
f 124/42/2 125/32/2 130/25/2
f 124/42/2 130/25/2 107/43/2
f 124/42/2 107/43/2 108/44/2
f 123/45/2 124/42/2 120/46/2
f 120/46/2 124/42/2 108/44/2
f 120/46/2 108/44/2 109/47/2
f 123/45/2 120/46/2 121/48/2
f 119/49/2 120/46/2 109/47/2
f 118/50/2 119/49/2 109/47/2
f 111/51/2 112/53/2 113/52/2
f 118/50/2 109/47/2 110/54/2
f 110/54/2 111/51/2 113/52/2
f 123/45/2 121/48/2 122/55/2
f 118/50/2 110/54/2 113/52/2
f 117/56/2 118/50/2 113/52/2
f 117/56/2 113/52/2 114/57/2
f 116/58/2 117/56/2 114/57/2
f 116/58/2 114/57/2 115/59/2
f 70/60/2 71/62/2 66/61/2
f 69/63/2 70/60/2 66/61/2
f 69/63/2 66/61/2 67/64/2
f 68/65/2 69/63/2 67/64/2
s 1
f 134/66/3 131/61/4 132/67/4
f 136/68/5 133/69/3 134/66/3
f 138/70/6 135/71/7 136/68/5
f 140/72/8 137/40/6 138/70/6
f 142/73/9 139/74/8 140/72/8
f 132/75/4 141/76/9 142/73/9
f 146/66/10 143/61/11 144/67/11
f 148/68/12 145/69/10 146/66/10
f 150/70/13 147/71/12 148/68/12
f 152/72/14 149/40/13 150/70/13
f 154/73/15 151/74/14 152/72/14
f 144/75/11 153/76/16 154/73/15
f 158/66/17 155/61/18 156/67/18
f 160/68/19 157/69/17 158/66/17
f 162/70/20 159/71/19 160/68/19
f 164/72/21 161/40/20 162/70/20
f 166/73/22 163/74/21 164/72/21
f 156/75/18 165/76/22 166/73/22
f 170/77/23 167/61/23 168/67/23
f 172/78/24 169/79/23 170/77/23
f 174/80/25 171/81/24 172/78/24
f 176/82/26 173/83/27 174/80/25
f 178/84/28 175/85/26 176/82/26
f 180/86/29 177/87/28 178/84/28
f 182/88/30 179/89/29 180/86/29
f 184/90/31 181/91/30 182/88/30
f 186/92/24 183/93/32 184/90/31
f 188/94/33 185/95/24 186/92/24
f 190/96/34 187/97/33 188/94/33
f 192/98/35 189/99/34 190/96/34
f 194/100/36 191/101/35 192/98/35
f 196/102/37 193/103/36 194/100/36
f 198/104/38 195/105/37 196/102/37
f 200/106/39 197/107/38 198/104/38
f 202/108/40 199/109/39 200/106/39
f 204/110/33 201/111/40 202/108/40
f 206/112/41 203/113/33 204/110/33
f 208/114/41 205/115/41 206/112/41
f 210/116/41 207/117/41 208/114/41
f 212/118/23 209/119/41 210/116/41
f 168/75/23 211/120/23 212/118/23
f 216/121/42 213/61/43 214/67/43
f 218/122/44 215/123/42 216/121/42
f 220/124/45 217/125/44 218/122/44
f 222/66/46 219/15/45 220/124/45
f 224/126/47 221/69/46 222/66/46
f 226/127/48 223/128/49 224/126/47
f 228/129/50 225/7/48 226/127/48
f 230/68/51 227/130/52 228/129/50
f 232/131/53 229/71/51 230/68/51
f 234/132/54 231/39/53 232/131/53
f 236/133/55 233/134/54 234/132/54
f 238/70/56 235/135/55 236/133/55
f 240/136/57 237/40/56 238/70/56
f 242/137/58 239/138/57 240/136/57
f 244/139/59 241/140/58 242/137/58
f 246/72/60 243/2/61 244/139/59
f 248/141/62 245/74/63 246/72/60
f 250/142/64 247/143/62 248/141/62
f 252/144/33 249/57/64 250/142/64
f 254/73/33 251/145/33 252/144/33
f 256/146/41 253/76/33 254/73/33
f 258/147/23 255/55/41 256/146/41
f 260/148/65 257/149/23 258/147/23
f 214/75/43 259/150/65 260/148/65
f 134/66/3 133/69/3 131/61/4
f 136/68/5 135/71/7 133/69/3
f 138/70/6 137/40/6 135/71/7
f 140/72/8 139/74/8 137/40/6
f 142/73/9 141/76/9 139/74/8
f 132/75/4 131/25/4 141/76/9
f 146/66/10 145/69/10 143/61/11
f 148/68/12 147/71/12 145/69/10
f 150/70/13 149/40/13 147/71/12
f 152/72/14 151/74/14 149/40/13
f 154/73/15 153/76/16 151/74/14
f 144/75/11 143/25/11 153/76/16
f 158/66/17 157/69/17 155/61/18
f 160/68/19 159/71/19 157/69/17
f 162/70/20 161/40/20 159/71/19
f 164/72/21 163/74/21 161/40/20
f 166/73/22 165/76/22 163/74/21
f 156/75/18 155/25/18 165/76/22
f 170/77/23 169/79/23 167/61/23
f 172/78/24 171/81/24 169/79/23
f 174/80/25 173/83/27 171/81/24
f 176/82/26 175/85/26 173/83/27
f 178/84/28 177/87/28 175/85/26
f 180/86/29 179/89/29 177/87/28
f 182/88/30 181/91/30 179/89/29
f 184/90/31 183/93/32 181/91/30
f 186/92/24 185/95/24 183/93/32
f 188/94/33 187/97/33 185/95/24
f 190/96/34 189/99/34 187/97/33
f 192/98/35 191/101/35 189/99/34
f 194/100/36 193/103/36 191/101/35
f 196/102/37 195/105/37 193/103/36
f 198/104/38 197/107/38 195/105/37
f 200/106/39 199/109/39 197/107/38
f 202/108/40 201/111/40 199/109/39
f 204/110/33 203/113/33 201/111/40
f 206/112/41 205/115/41 203/113/33
f 208/114/41 207/117/41 205/115/41
f 210/116/41 209/119/41 207/117/41
f 212/118/23 211/120/23 209/119/41
f 168/75/23 167/25/23 211/120/23
f 216/121/42 215/123/42 213/61/43
f 218/122/44 217/125/44 215/123/42
f 220/124/45 219/15/45 217/125/44
f 222/66/46 221/69/46 219/15/45
f 224/126/47 223/128/49 221/69/46
f 226/127/48 225/7/48 223/128/49
f 228/129/50 227/130/52 225/7/48
f 230/68/51 229/71/51 227/130/52
f 232/131/53 231/39/53 229/71/51
f 234/132/54 233/134/54 231/39/53
f 236/133/55 235/135/55 233/134/54
f 238/70/56 237/40/56 235/135/55
f 240/136/57 239/138/57 237/40/56
f 242/137/58 241/140/58 239/138/57
f 244/139/59 243/2/61 241/140/58
f 246/72/60 245/74/63 243/2/61
f 248/141/62 247/143/62 245/74/63
f 250/142/64 249/57/64 247/143/62
f 252/144/33 251/145/33 249/57/64
f 254/73/33 253/76/33 251/145/33
f 256/146/41 255/55/41 253/76/33
f 258/147/23 257/149/23 255/55/41
f 260/148/65 259/150/65 257/149/23
f 214/75/43 213/25/43 259/150/65
