# Blender 4.1.1
# www.blender.org
mtllib Three.mtl
o テキスト
v 0.096346 0.684000 -0.020000
v 0.027096 0.691000 -0.020000
v -0.119154 0.642500 -0.020000
v -0.173904 0.513000 -0.020000
v -0.153654 0.420750 -0.020000
v -0.086904 0.360000 -0.020000
v -0.161404 0.297375 -0.020000
v -0.184904 0.198000 -0.020000
v -0.124654 0.048750 -0.020000
v 0.030096 -0.009000 -0.020000
v 0.101846 0.001125 -0.020000
v 0.175096 0.030000 -0.020000
v 0.175096 0.136000 -0.020000
v 0.098346 0.096875 -0.020000
v 0.023096 0.084000 -0.020000
v -0.057029 0.113750 -0.020000
v -0.086904 0.193000 -0.020000
v -0.050279 0.277000 -0.020000
v 0.059096 0.307000 -0.020000
v 0.059096 0.397000 -0.020000
v -0.042154 0.423250 -0.020000
v -0.075904 0.496000 -0.020000
v -0.043904 0.570625 -0.020000
v 0.042096 0.598000 -0.020000
v 0.096346 0.591375 -0.020000
v 0.158096 0.569000 -0.020000
v 0.158096 0.662000 -0.020000
v 0.096346 0.684000 0.020000
v 0.027096 0.691000 0.020000
v -0.119154 0.642500 0.020000
v -0.173904 0.513000 0.020000
v -0.153654 0.420750 0.020000
v -0.086904 0.360000 0.020000
v -0.161404 0.297375 0.020000
v -0.184904 0.198000 0.020000
v -0.124654 0.048750 0.020000
v 0.030096 -0.009000 0.020000
v 0.101846 0.001125 0.020000
v 0.175096 0.030000 0.020000
v 0.175096 0.136000 0.020000
v 0.098346 0.096875 0.020000
v 0.023096 0.084000 0.020000
v -0.057029 0.113750 0.020000
v -0.086904 0.193000 0.020000
v -0.050279 0.277000 0.020000
v 0.059096 0.307000 0.020000
v 0.059096 0.397000 0.020000
v -0.042154 0.423250 0.020000
v -0.075904 0.496000 0.020000
v -0.043904 0.570625 0.020000
v 0.042096 0.598000 0.020000
v 0.096346 0.591375 0.020000
v 0.158096 0.569000 0.020000
v 0.158096 0.662000 0.020000
v 0.096346 0.684000 0.020000
v 0.096346 0.684000 -0.020000
v 0.027096 0.691000 0.020000
v 0.027096 0.691000 -0.020000
v -0.119154 0.642500 0.020000
v -0.119154 0.642500 -0.020000
v -0.173904 0.513000 0.020000
v -0.173904 0.513000 -0.020000
v -0.153654 0.420750 0.020000
v -0.153654 0.420750 -0.020000
v -0.086904 0.360000 0.020000
v -0.086904 0.360000 -0.020000
v -0.161404 0.297375 0.020000
v -0.161404 0.297375 -0.020000
v -0.184904 0.198000 0.020000
v -0.184904 0.198000 -0.020000
v -0.124654 0.048750 0.020000
v -0.124654 0.048750 -0.020000
v 0.030096 -0.009000 0.020000
v 0.030096 -0.009000 -0.020000
v 0.101846 0.001125 0.020000
v 0.101846 0.001125 -0.020000
v 0.175096 0.030000 0.020000
v 0.175096 0.030000 -0.020000
v 0.175096 0.136000 0.020000
v 0.175096 0.136000 -0.020000
v 0.098346 0.096875 0.020000
v 0.098346 0.096875 -0.020000
v 0.023096 0.084000 0.020000
v 0.023096 0.084000 -0.020000
v -0.057029 0.113750 0.020000
v -0.057029 0.113750 -0.020000
v -0.086904 0.193000 0.020000
v -0.086904 0.193000 -0.020000
v -0.050279 0.277000 0.020000
v -0.050279 0.277000 -0.020000
v 0.059096 0.307000 0.020000
v 0.059096 0.307000 -0.020000
v 0.059096 0.397000 0.020000
v 0.059096 0.397000 -0.020000
v -0.042154 0.423250 0.020000
v -0.042154 0.423250 -0.020000
v -0.075904 0.496000 0.020000
v -0.075904 0.496000 -0.020000
v -0.043904 0.570625 0.020000
v -0.043904 0.570625 -0.020000
v 0.042096 0.598000 0.020000
v 0.042096 0.598000 -0.020000
v 0.096346 0.591375 0.020000
v 0.096346 0.591375 -0.020000
v 0.158096 0.569000 0.020000
v 0.158096 0.569000 -0.020000
v 0.158096 0.662000 0.020000
v 0.158096 0.662000 -0.020000
vn -0.0000 -0.0000 -1.0000
vn -0.0000 -0.0000 1.0000
vn -0.1095 0.9940 -0.0000
vn 0.2197 0.9756 -0.0000
vn -0.6784 0.7347 -0.0000
vn -0.9958 0.0918 -0.0000
vn -0.6783 0.7347 -0.0000
vn -0.8657 -0.5006 -0.0000
vn -0.9998 0.0197 -0.0000
vn -0.8515 0.5244 -0.0000
vn -0.9971 -0.0757 -0.0000
vn -0.6977 -0.7164 -0.0000
vn -0.1083 -0.9941 -0.0000
vn 0.2550 -0.9669 -0.0000
vn 0.8267 -0.5627 -0.0000
vn 0.5224 0.8527 -0.0000
vn 0.8266 -0.5627 -0.0000
vn -0.3150 0.9491 -0.0000
vn 0.0929 0.9957 -0.0000
vn 0.7054 0.7089 -0.0000
vn 0.9997 -0.0253 -0.0000
vn 0.7053 0.7089 -0.0000
vn 0.6546 -0.7560 -0.0000
vn 0.7952 -0.6064 -0.0000
vn 0.7909 0.6120 -0.0000
vn 0.7951 -0.6064 -0.0000
vn 0.6404 0.7680 -0.0000
vn 0.9999 0.0146 -0.0000
vn 0.6720 -0.7405 -0.0000
vn 0.0932 -0.9956 -0.0000
vn -0.2324 -0.9726 -0.0000
vn 0.5742 -0.8187 -0.0000
vn 0.8172 0.5764 -0.0000
vn 0.5741 -0.8188 -0.0000
vt 0.000000 0.000000
vt 0.076923 0.000000
vt 0.038462 0.000000
vt 1.000000 0.000000
vt 0.961538 0.000000
vt 0.923077 0.000000
vt 0.884615 0.000000
vt 0.846154 0.000000
vt 0.115385 0.000000
vt 0.807692 0.000000
vt 0.153846 0.000000
vt 0.769231 0.000000
vt 0.730769 0.000000
vt 0.192308 0.000000
vt 0.692308 0.000000
vt 0.230769 0.000000
vt 0.653846 0.000000
vt 0.269231 0.000000
vt 0.615385 0.000000
vt 0.307692 0.000000
vt 0.576923 0.000000
vt 0.423077 0.000000
vt 0.500000 0.000000
vt 0.461538 0.000000
vt 0.538462 0.000000
vt 0.346154 0.000000
vt 0.384615 0.000000
vt 0.037037 1.000000
vt 0.000000 1.000000
vt 0.074074 1.000000
vt 0.037037 0.000000
vt 0.111111 1.000000
vt 0.074074 0.000000
vt 0.148148 1.000000
vt 0.111111 0.000000
vt 0.185185 1.000000
vt 0.148148 0.000000
vt 0.222222 1.000000
vt 0.185185 0.000000
vt 0.259259 1.000000
vt 0.222222 0.000000
vt 0.296296 1.000000
vt 0.259259 0.000000
vt 0.333333 1.000000
vt 0.296296 0.000000
vt 0.370370 1.000000
vt 0.333333 0.000000
vt 0.407407 1.000000
vt 0.370370 0.000000
vt 0.444444 1.000000
vt 0.407407 0.000000
vt 0.481481 1.000000
vt 0.444444 0.000000
vt 0.518519 1.000000
vt 0.481481 0.000000
vt 0.555556 1.000000
vt 0.518519 0.000000
vt 0.592593 1.000000
vt 0.555556 0.000000
vt 0.629630 1.000000
vt 0.592593 0.000000
vt 0.666667 1.000000
vt 0.629630 0.000000
vt 0.703704 1.000000
vt 0.666667 0.000000
vt 0.740741 1.000000
vt 0.703704 0.000000
vt 0.777778 1.000000
vt 0.740741 0.000000
vt 0.814815 1.000000
vt 0.777778 0.000000
vt 0.851852 1.000000
vt 0.814815 0.000000
vt 0.888889 1.000000
vt 0.851852 0.000000
vt 0.925926 1.000000
vt 0.888889 0.000000
vt 0.962963 1.000000
vt 0.925926 0.000000
vt 1.000000 1.000000
vt 0.962963 0.000000
s 0
usemtl マテリアル
f 1/1/1 3/2/1 2/3/1
f 27/4/1 3/2/1 1/1/1
f 26/5/1 25/6/1 27/4/1
f 25/6/1 3/2/1 27/4/1
f 25/6/1 24/7/1 3/2/1
f 24/7/1 23/8/1 3/2/1
f 23/8/1 4/9/1 3/2/1
f 22/10/1 4/9/1 23/8/1
f 22/10/1 5/11/1 4/9/1
f 21/12/1 5/11/1 22/10/1
f 20/13/1 5/11/1 21/12/1
f 20/13/1 6/14/1 5/11/1
f 19/15/1 6/14/1 20/13/1
f 19/15/1 7/16/1 6/14/1
f 18/17/1 7/16/1 19/15/1
f 18/17/1 8/18/1 7/16/1
f 17/19/1 8/18/1 18/17/1
f 17/19/1 9/20/1 8/18/1
f 16/21/1 9/20/1 17/19/1
f 12/22/1 14/23/1 13/24/1
f 15/25/1 9/20/1 16/21/1
f 12/22/1 15/25/1 14/23/1
f 12/22/1 9/20/1 15/25/1
f 12/22/1 10/26/1 9/20/1
f 11/27/1 10/26/1 12/22/1
f 28/1/2 29/3/2 30/2/2
f 54/4/2 28/1/2 30/2/2
f 53/5/2 54/4/2 52/6/2
f 52/6/2 54/4/2 30/2/2
f 52/6/2 30/2/2 51/7/2
f 51/7/2 30/2/2 50/8/2
f 50/8/2 30/2/2 31/9/2
f 49/10/2 50/8/2 31/9/2
f 49/10/2 31/9/2 32/11/2
f 48/12/2 49/10/2 32/11/2
f 47/13/2 48/12/2 32/11/2
f 47/13/2 32/11/2 33/14/2
f 46/15/2 47/13/2 33/14/2
f 46/15/2 33/14/2 34/16/2
f 45/17/2 46/15/2 34/16/2
f 45/17/2 34/16/2 35/18/2
f 44/19/2 45/17/2 35/18/2
f 44/19/2 35/18/2 36/20/2
f 43/21/2 44/19/2 36/20/2
f 39/22/2 40/24/2 41/23/2
f 42/25/2 43/21/2 36/20/2
f 39/22/2 41/23/2 42/25/2
f 39/22/2 42/25/2 36/20/2
f 39/22/2 36/20/2 37/26/2
f 38/27/2 39/22/2 37/26/2
s 1
f 58/28/3 55/1/4 56/29/4
f 60/30/5 57/31/3 58/28/3
f 62/32/6 59/33/7 60/30/5
f 64/34/8 61/35/6 62/32/6
f 66/36/9 63/37/8 64/34/8
f 68/38/10 65/39/9 66/36/9
f 70/40/11 67/41/10 68/38/10
f 72/42/12 69/43/11 70/40/11
f 74/44/13 71/45/12 72/42/12
f 76/46/14 73/47/13 74/44/13
f 78/48/15 75/49/14 76/46/14
f 80/50/16 77/51/17 78/48/15
f 82/52/18 79/53/16 80/50/16
f 84/54/19 81/55/18 82/52/18
f 86/56/20 83/57/19 84/54/19
f 88/58/21 85/59/22 86/56/20
f 90/60/23 87/61/21 88/58/21
f 92/62/24 89/63/23 90/60/23
f 94/64/25 91/65/26 92/62/24
f 96/66/27 93/67/25 94/64/25
f 98/68/28 95/69/27 96/66/27
f 100/70/29 97/71/28 98/68/28
f 102/72/30 99/73/29 100/70/29
f 104/74/31 101/75/30 102/72/30
f 106/76/32 103/77/31 104/74/31
f 108/78/33 105/79/34 106/76/32
f 56/80/4 107/81/33 108/78/33
f 58/28/3 57/31/3 55/1/4
f 60/30/5 59/33/7 57/31/3
f 62/32/6 61/35/6 59/33/7
f 64/34/8 63/37/8 61/35/6
f 66/36/9 65/39/9 63/37/8
f 68/38/10 67/41/10 65/39/9
f 70/40/11 69/43/11 67/41/10
f 72/42/12 71/45/12 69/43/11
f 74/44/13 73/47/13 71/45/12
f 76/46/14 75/49/14 73/47/13
f 78/48/15 77/51/17 75/49/14
f 80/50/16 79/53/16 77/51/17
f 82/52/18 81/55/18 79/53/16
f 84/54/19 83/57/19 81/55/18
f 86/56/20 85/59/22 83/57/19
f 88/58/21 87/61/21 85/59/22
f 90/60/23 89/63/23 87/61/21
f 92/62/24 91/65/26 89/63/23
f 94/64/25 93/67/25 91/65/26
f 96/66/27 95/69/27 93/67/25
f 98/68/28 97/71/28 95/69/27
f 100/70/29 99/73/29 97/71/28
f 102/72/30 101/75/30 99/73/29
f 104/74/31 103/77/31 101/75/30
f 106/76/32 105/79/34 103/77/31
f 108/78/33 107/81/33 105/79/34
f 56/80/4 55/4/4 107/81/33
