# Blender 4.1.1
# www.blender.org
mtllib Syo.mtl
o テキスト
v -0.434695 0.788250 -0.020000
v -0.433320 0.770000 -0.020000
v -0.417820 0.609875 -0.020000
v -0.393320 0.542000 -0.020000
v -0.367570 0.524750 -0.020000
v -0.334320 0.518000 -0.020000
v -0.285945 0.517000 -0.020000
v -0.220320 0.519000 -0.020000
v -0.214570 0.550750 -0.020000
v -0.201320 0.581000 -0.020000
v -0.262320 0.577500 -0.020000
v -0.302320 0.577000 -0.020000
v -0.319945 0.578375 -0.020000
v -0.332320 0.585000 -0.020000
v -0.348070 0.627750 -0.020000
v -0.359320 0.732000 -0.020000
v -0.180320 0.732000 -0.020000
v -0.113570 0.579750 -0.020000
v 0.050680 0.483000 -0.020000
v 0.069055 0.512875 -0.020000
v 0.092680 0.539000 -0.020000
v -0.048820 0.614125 -0.020000
v -0.106320 0.732000 -0.020000
v 0.060680 0.732000 -0.020000
v 0.060680 0.799000 -0.020000
v -0.435320 0.799000 -0.020000
v -0.332320 0.255000 -0.020000
v -0.332320 0.407000 -0.020000
v -0.039320 0.407000 -0.020000
v -0.039320 0.255000 -0.020000
v -0.406320 0.192000 -0.020000
v 0.030680 0.192000 -0.020000
v 0.030680 0.470000 -0.020000
v -0.406320 0.470000 -0.020000
v 0.062680 0.028250 -0.020000
v 0.054680 -0.065000 -0.020000
v 0.127680 -0.076000 -0.020000
v 0.134055 0.018875 -0.020000
v 0.148680 0.125000 -0.020000
v 0.079680 0.132000 -0.020000
v -0.174195 0.037750 -0.020000
v -0.200320 -0.058000 -0.020000
v -0.126320 -0.074000 -0.020000
v -0.101820 0.021750 -0.020000
v -0.065320 0.128000 -0.020000
v -0.135320 0.141000 -0.020000
v -0.410945 0.052500 -0.020000
v -0.467320 -0.050000 -0.020000
v -0.396320 -0.082000 -0.020000
v -0.341820 0.022125 -0.020000
v -0.269320 0.133000 -0.020000
v -0.337320 0.161000 -0.020000
v 0.304055 0.017625 -0.020000
v 0.373680 -0.085000 -0.020000
v 0.445680 -0.053000 -0.020000
v 0.375680 0.041500 -0.020000
v 0.314680 0.154000 -0.020000
v 0.242680 0.133000 -0.020000
v 0.174680 0.554000 -0.020000
v 0.174680 0.730000 -0.020000
v 0.324680 0.730000 -0.020000
v 0.324680 0.554000 -0.020000
v 0.174680 0.488000 -0.020000
v 0.324680 0.488000 -0.020000
v 0.324680 0.292000 -0.020000
v 0.174680 0.292000 -0.020000
v 0.104680 0.224000 -0.020000
v 0.324680 0.224000 -0.020000
v 0.324680 0.173000 -0.020000
v 0.395680 0.173000 -0.020000
v 0.395680 0.797000 -0.020000
v 0.104680 0.797000 -0.020000
v -0.434695 0.788250 0.020000
v -0.433320 0.770000 0.020000
v -0.417820 0.609875 0.020000
v -0.393320 0.542000 0.020000
v -0.367570 0.524750 0.020000
v -0.334320 0.518000 0.020000
v -0.285945 0.517000 0.020000
v -0.220320 0.519000 0.020000
v -0.214570 0.550750 0.020000
v -0.201320 0.581000 0.020000
v -0.262320 0.577500 0.020000
v -0.302320 0.577000 0.020000
v -0.319945 0.578375 0.020000
v -0.332320 0.585000 0.020000
v -0.348070 0.627750 0.020000
v -0.359320 0.732000 0.020000
v -0.180320 0.732000 0.020000
v -0.113570 0.579750 0.020000
v 0.050680 0.483000 0.020000
v 0.069055 0.512875 0.020000
v 0.092680 0.539000 0.020000
v -0.048820 0.614125 0.020000
v -0.106320 0.732000 0.020000
v 0.060680 0.732000 0.020000
v 0.060680 0.799000 0.020000
v -0.435320 0.799000 0.020000
v -0.332320 0.255000 0.020000
v -0.332320 0.407000 0.020000
v -0.039320 0.407000 0.020000
v -0.039320 0.255000 0.020000
v -0.406320 0.192000 0.020000
v 0.030680 0.192000 0.020000
v 0.030680 0.470000 0.020000
v -0.406320 0.470000 0.020000
v 0.062680 0.028250 0.020000
v 0.054680 -0.065000 0.020000
v 0.127680 -0.076000 0.020000
v 0.134055 0.018875 0.020000
v 0.148680 0.125000 0.020000
v 0.079680 0.132000 0.020000
v -0.174195 0.037750 0.020000
v -0.200320 -0.058000 0.020000
v -0.126320 -0.074000 0.020000
v -0.101820 0.021750 0.020000
v -0.065320 0.128000 0.020000
v -0.135320 0.141000 0.020000
v -0.410945 0.052500 0.020000
v -0.467320 -0.050000 0.020000
v -0.396320 -0.082000 0.020000
v -0.341820 0.022125 0.020000
v -0.269320 0.133000 0.020000
v -0.337320 0.161000 0.020000
v 0.304055 0.017625 0.020000
v 0.373680 -0.085000 0.020000
v 0.445680 -0.053000 0.020000
v 0.375680 0.041500 0.020000
v 0.314680 0.154000 0.020000
v 0.242680 0.133000 0.020000
v 0.174680 0.554000 0.020000
v 0.174680 0.730000 0.020000
v 0.324680 0.730000 0.020000
v 0.324680 0.554000 0.020000
v 0.174680 0.488000 0.020000
v 0.324680 0.488000 0.020000
v 0.324680 0.292000 0.020000
v 0.174680 0.292000 0.020000
v 0.104680 0.224000 0.020000
v 0.324680 0.224000 0.020000
v 0.324680 0.173000 0.020000
v 0.395680 0.173000 0.020000
v 0.395680 0.797000 0.020000
v 0.104680 0.797000 0.020000
v -0.332320 0.255000 0.020000
v -0.332320 0.255000 -0.020000
v -0.332320 0.407000 0.020000
v -0.332320 0.407000 -0.020000
v -0.039320 0.407000 0.020000
v -0.039320 0.407000 -0.020000
v -0.039320 0.255000 0.020000
v -0.039320 0.255000 -0.020000
v -0.406320 0.192000 0.020000
v -0.406320 0.192000 -0.020000
v 0.030680 0.192000 0.020000
v 0.030680 0.192000 -0.020000
v 0.030680 0.470000 0.020000
v 0.030680 0.470000 -0.020000
v -0.406320 0.470000 0.020000
v -0.406320 0.470000 -0.020000
v 0.062680 0.028250 0.020000
v 0.062680 0.028250 -0.020000
v 0.054680 -0.065000 0.020000
v 0.054680 -0.065000 -0.020000
v 0.127680 -0.076000 0.020000
v 0.127680 -0.076000 -0.020000
v 0.134055 0.018875 0.020000
v 0.134055 0.018875 -0.020000
v 0.148680 0.125000 0.020000
v 0.148680 0.125000 -0.020000
v 0.079680 0.132000 0.020000
v 0.079680 0.132000 -0.020000
v -0.174195 0.037750 0.020000
v -0.174195 0.037750 -0.020000
v -0.200320 -0.058000 0.020000
v -0.200320 -0.058000 -0.020000
v -0.126320 -0.074000 0.020000
v -0.126320 -0.074000 -0.020000
v -0.101820 0.021750 0.020000
v -0.101820 0.021750 -0.020000
v -0.065320 0.128000 0.020000
v -0.065320 0.128000 -0.020000
v -0.135320 0.141000 0.020000
v -0.135320 0.141000 -0.020000
v -0.410945 0.052500 0.020000
v -0.410945 0.052500 -0.020000
v -0.467320 -0.050000 0.020000
v -0.467320 -0.050000 -0.020000
v -0.396320 -0.082000 0.020000
v -0.396320 -0.082000 -0.020000
v -0.341820 0.022125 0.020000
v -0.341820 0.022125 -0.020000
v -0.269320 0.133000 0.020000
v -0.269320 0.133000 -0.020000
v -0.337320 0.161000 0.020000
v -0.337320 0.161000 -0.020000
v 0.304055 0.017625 0.020000
v 0.304055 0.017625 -0.020000
v 0.373680 -0.085000 0.020000
v 0.373680 -0.085000 -0.020000
v 0.445680 -0.053000 0.020000
v 0.445680 -0.053000 -0.020000
v 0.375680 0.041500 0.020000
v 0.375680 0.041500 -0.020000
v 0.314680 0.154000 0.020000
v 0.314680 0.154000 -0.020000
v 0.242680 0.133000 0.020000
v 0.242680 0.133000 -0.020000
v 0.174680 0.554000 0.020000
v 0.174680 0.554000 -0.020000
v 0.174680 0.730000 0.020000
v 0.174680 0.730000 -0.020000
v 0.324680 0.730000 0.020000
v 0.324680 0.730000 -0.020000
v 0.324680 0.554000 0.020000
v 0.324680 0.554000 -0.020000
v 0.174680 0.488000 0.020000
v 0.174680 0.488000 -0.020000
v 0.324680 0.488000 0.020000
v 0.324680 0.488000 -0.020000
v 0.324680 0.292000 0.020000
v 0.324680 0.292000 -0.020000
v 0.174680 0.292000 0.020000
v 0.174680 0.292000 -0.020000
v 0.104680 0.224000 0.020000
v 0.104680 0.224000 -0.020000
v 0.324680 0.224000 0.020000
v 0.324680 0.224000 -0.020000
v 0.324680 0.173000 0.020000
v 0.324680 0.173000 -0.020000
v 0.395680 0.173000 0.020000
v 0.395680 0.173000 -0.020000
v 0.395680 0.797000 0.020000
v 0.395680 0.797000 -0.020000
v 0.104680 0.797000 0.020000
v 0.104680 0.797000 -0.020000
v -0.434695 0.788250 0.020000
v -0.434695 0.788250 -0.020000
v -0.433320 0.770000 0.020000
v -0.433320 0.770000 -0.020000
v -0.417820 0.609875 0.020000
v -0.417820 0.609875 -0.020000
v -0.393320 0.542000 0.020000
v -0.393320 0.542000 -0.020000
v -0.367570 0.524750 0.020000
v -0.367570 0.524750 -0.020000
v -0.334320 0.518000 0.020000
v -0.334320 0.518000 -0.020000
v -0.285945 0.517000 0.020000
v -0.285945 0.517000 -0.020000
v -0.220320 0.519000 0.020000
v -0.220320 0.519000 -0.020000
v -0.214570 0.550750 0.020000
v -0.214570 0.550750 -0.020000
v -0.201320 0.581000 0.020000
v -0.201320 0.581000 -0.020000
v -0.262320 0.577500 0.020000
v -0.262320 0.577500 -0.020000
v -0.302320 0.577000 0.020000
v -0.302320 0.577000 -0.020000
v -0.319945 0.578375 0.020000
v -0.319945 0.578375 -0.020000
v -0.332320 0.585000 0.020000
v -0.332320 0.585000 -0.020000
v -0.348070 0.627750 0.020000
v -0.348070 0.627750 -0.020000
v -0.359320 0.732000 0.020000
v -0.359320 0.732000 -0.020000
v -0.180320 0.732000 0.020000
v -0.180320 0.732000 -0.020000
v -0.113570 0.579750 0.020000
v -0.113570 0.579750 -0.020000
v 0.050680 0.483000 0.020000
v 0.050680 0.483000 -0.020000
v 0.069055 0.512875 0.020000
v 0.069055 0.512875 -0.020000
v 0.092680 0.539000 0.020000
v 0.092680 0.539000 -0.020000
v -0.048820 0.614125 0.020000
v -0.048820 0.614125 -0.020000
v -0.106320 0.732000 0.020000
v -0.106320 0.732000 -0.020000
v 0.060680 0.732000 0.020000
v 0.060680 0.732000 -0.020000
v 0.060680 0.799000 0.020000
v 0.060680 0.799000 -0.020000
v -0.435320 0.799000 0.020000
v -0.435320 0.799000 -0.020000
vn -0.0000 -0.0000 -1.0000
vn -0.0000 -0.0000 1.0000
vn 0.7071 -0.7071 -0.0000
vn 0.7071 0.7071 -0.0000
vn -0.7071 -0.7071 -0.0000
vn -0.7071 0.7071 -0.0000
vn -0.7852 -0.6193 -0.0000
vn -0.9923 0.1237 -0.0000
vn 0.6265 -0.7794 -0.0000
vn 0.9948 -0.1018 -0.0000
vn 0.7861 0.6182 -0.0000
vn -0.6081 0.7939 -0.0000
vn 0.7861 0.6181 -0.0000
vn -0.8547 -0.5191 -0.0000
vn -0.9513 0.3081 -0.0000
vn 0.5258 -0.8506 -0.0000
vn -0.8547 -0.5190 -0.0000
vn 0.9580 -0.2866 -0.0000
vn 0.8637 0.5040 -0.0000
vn -0.4913 0.8710 -0.0000
vn 0.8638 0.5039 -0.0000
vn -0.4912 0.8710 -0.0000
vn -0.9485 -0.3167 -0.0000
vn -0.8528 0.5223 -0.0000
vn 0.3265 -0.9452 -0.0000
vn 0.8625 -0.5061 -0.0000
vn 0.9552 0.2961 -0.0000
vn -0.2879 0.9577 -0.0000
vn 0.9552 0.2960 -0.0000
vn -0.2878 0.9577 -0.0000
vn -0.2746 -0.9615 -0.0000
vn -0.8564 -0.5163 -0.0000
vn 0.9670 -0.2547 -0.0000
vn -0.2747 -0.9615 -0.0000
vn 0.8434 0.5373 -0.0000
vn 0.3849 0.9230 -0.0000
vn -0.9214 0.3885 -0.0000
vn -0.9214 0.3886 -0.0000
vn -0.9963 -0.0857 -0.0000
vn -0.9978 -0.0666 -0.0000
vn -0.9756 -0.2196 -0.0000
vn -0.7879 -0.6159 -0.0000
vn -0.3851 -0.9229 -0.0000
vn -0.1103 -0.9939 -0.0000
vn -0.3850 -0.9229 -0.0000
vn 0.0049 -1.0000 -0.0000
vn 0.6526 -0.7577 -0.0000
vn 0.9565 -0.2917 -0.0000
vn 0.8210 0.5709 -0.0000
vn -0.0349 0.9994 -0.0000
vn 0.0327 0.9995 -0.0000
vn 0.2809 0.9597 -0.0000
vn 0.7544 0.6565 -0.0000
vn 0.9736 0.2282 -0.0000
vn 0.7441 -0.6681 -0.0000
vn -0.5470 -0.8371 -0.0000
vn -0.7479 -0.6638 -0.0000
vn 0.2411 -0.9705 -0.0000
vn -0.7480 -0.6638 -0.0000
vn 0.8001 -0.5998 -0.0000
vn 0.2412 -0.9705 -0.0000
vn 0.9849 0.1729 -0.0000
vn 0.7191 0.6949 -0.0000
vn 0.8480 -0.5299 -0.0000
vn 0.8481 -0.5299 -0.0000
vn -0.7273 0.6863 -0.0000
vt 0.436620 0.000000
vt 0.394366 0.000000
vt 0.450704 0.000000
vt 0.464789 0.000000
vt 0.380282 0.000000
vt 0.422535 0.000000
vt 0.408451 0.000000
vt 0.366197 0.000000
vt 0.535211 0.000000
vt 0.478873 0.000000
vt 0.549296 0.000000
vt 0.521127 0.000000
vt 0.492958 0.000000
vt 0.507042 0.000000
vt 0.619718 0.000000
vt 0.563380 0.000000
vt 0.633803 0.000000
vt 0.605634 0.000000
vt 0.577465 0.000000
vt 0.591549 0.000000
vt 0.704225 0.000000
vt 0.647887 0.000000
vt 0.718310 0.000000
vt 0.690141 0.000000
vt 0.661972 0.000000
vt 0.676056 0.000000
vt 0.774648 0.000000
vt 0.802817 0.000000
vt 0.788732 0.000000
vt 0.732394 0.000000
vt 0.760563 0.000000
vt 0.746479 0.000000
vt 0.971831 0.000000
vt 0.845070 0.000000
vt 0.985915 0.000000
vt 1.000000 0.000000
vt 0.830986 0.000000
vt 0.929577 0.000000
vt 0.859155 0.000000
vt 0.816901 0.000000
vt 0.887324 0.000000
vt 0.873239 0.000000
vt 0.901408 0.000000
vt 0.915493 0.000000
vt 0.943662 0.000000
vt 0.957747 0.000000
vt 0.323944 0.000000
vt 0.352113 0.000000
vt 0.338028 0.000000
vt 0.000000 0.000000
vt 0.014085 0.000000
vt 0.309859 0.000000
vt 0.225352 0.000000
vt 0.211268 0.000000
vt 0.028169 0.000000
vt 0.295775 0.000000
vt 0.239437 0.000000
vt 0.197183 0.000000
vt 0.183099 0.000000
vt 0.281690 0.000000
vt 0.042254 0.000000
vt 0.169014 0.000000
vt 0.112676 0.000000
vt 0.140845 0.000000
vt 0.126761 0.000000
vt 0.267606 0.000000
vt 0.253521 0.000000
vt 0.154930 0.000000
vt 0.098592 0.000000
vt 0.056338 0.000000
vt 0.070423 0.000000
vt 0.084507 0.000000
vt 0.250000 1.000000
vt 0.000000 1.000000
vt 0.500000 1.000000
vt 0.250000 0.000000
vt 0.750000 1.000000
vt 0.500000 0.000000
vt 1.000000 1.000000
vt 0.750000 0.000000
vt 0.166667 1.000000
vt 0.333333 1.000000
vt 0.166667 0.000000
vt 0.333333 0.000000
vt 0.666667 1.000000
vt 0.833333 1.000000
vt 0.666667 0.000000
vt 0.833333 0.000000
vt 0.038462 1.000000
vt 0.076923 1.000000
vt 0.038462 0.000000
vt 0.115385 1.000000
vt 0.076923 0.000000
vt 0.153846 1.000000
vt 0.115385 0.000000
vt 0.192308 1.000000
vt 0.153846 0.000000
vt 0.230769 1.000000
vt 0.192308 0.000000
vt 0.269231 1.000000
vt 0.230769 0.000000
vt 0.307692 1.000000
vt 0.269231 0.000000
vt 0.346154 1.000000
vt 0.307692 0.000000
vt 0.384615 1.000000
vt 0.346154 0.000000
vt 0.423077 1.000000
vt 0.384615 0.000000
vt 0.461538 1.000000
vt 0.423077 0.000000
vt 0.461538 0.000000
vt 0.538462 1.000000
vt 0.576923 1.000000
vt 0.538462 0.000000
vt 0.615385 1.000000
vt 0.576923 0.000000
vt 0.653846 1.000000
vt 0.615385 0.000000
vt 0.692308 1.000000
vt 0.653846 0.000000
vt 0.730769 1.000000
vt 0.692308 0.000000
vt 0.769231 1.000000
vt 0.730769 0.000000
vt 0.807692 1.000000
vt 0.769231 0.000000
vt 0.846154 1.000000
vt 0.807692 0.000000
vt 0.884615 1.000000
vt 0.846154 0.000000
vt 0.923077 1.000000
vt 0.884615 0.000000
vt 0.961538 1.000000
vt 0.923077 0.000000
vt 0.961538 0.000000
s 0
usemtl マテリアル
f 32/1/1 29/2/1 33/3/1
f 29/2/1 34/4/1 33/3/1
f 29/2/1 28/5/1 34/4/1
f 28/5/1 31/6/1 34/4/1
f 32/1/1 30/7/1 29/2/1
f 27/8/1 31/6/1 28/5/1
f 32/1/1 27/8/1 30/7/1
f 32/1/1 31/6/1 27/8/1
f 39/9/1 35/10/1 40/11/1
f 38/12/1 35/10/1 39/9/1
f 38/12/1 36/13/1 35/10/1
f 37/14/1 36/13/1 38/12/1
f 45/15/1 41/16/1 46/17/1
f 44/18/1 41/16/1 45/15/1
f 44/18/1 42/19/1 41/16/1
f 43/20/1 42/19/1 44/18/1
f 51/21/1 47/22/1 52/23/1
f 50/24/1 47/22/1 51/21/1
f 50/24/1 48/25/1 47/22/1
f 49/26/1 48/25/1 50/24/1
f 56/27/1 58/28/1 57/29/1
f 56/27/1 53/30/1 58/28/1
f 55/31/1 53/30/1 56/27/1
f 55/31/1 54/32/1 53/30/1
f 70/33/1 61/34/1 71/35/1
f 61/34/1 72/36/1 71/35/1
f 61/34/1 60/37/1 72/36/1
f 60/37/1 67/38/1 72/36/1
f 70/33/1 62/39/1 61/34/1
f 59/40/1 67/38/1 60/37/1
f 70/33/1 64/41/1 62/39/1
f 64/41/1 59/40/1 62/39/1
f 64/41/1 63/42/1 59/40/1
f 63/42/1 67/38/1 59/40/1
f 70/33/1 65/43/1 64/41/1
f 66/44/1 67/38/1 63/42/1
f 70/33/1 68/45/1 65/43/1
f 68/45/1 66/44/1 65/43/1
f 68/45/1 67/38/1 66/44/1
f 70/33/1 69/46/1 68/45/1
f 24/47/1 26/48/1 25/49/1
f 24/47/1 1/50/1 26/48/1
f 24/47/1 2/51/1 1/50/1
f 24/47/1 23/52/1 2/51/1
f 23/52/1 17/53/1 2/51/1
f 17/53/1 16/54/1 2/51/1
f 16/54/1 3/55/1 2/51/1
f 22/56/1 17/53/1 23/52/1
f 22/56/1 18/57/1 17/53/1
f 15/58/1 3/55/1 16/54/1
f 14/59/1 3/55/1 15/58/1
f 21/60/1 18/57/1 22/56/1
f 14/59/1 4/61/1 3/55/1
f 13/62/1 4/61/1 14/59/1
f 9/63/1 11/64/1 10/65/1
f 21/60/1 20/66/1 18/57/1
f 20/66/1 19/67/1 18/57/1
f 12/68/1 4/61/1 13/62/1
f 9/63/1 12/68/1 11/64/1
f 9/63/1 4/61/1 12/68/1
f 8/69/1 4/61/1 9/63/1
f 8/69/1 5/70/1 4/61/1
f 8/69/1 6/71/1 5/70/1
f 7/72/1 6/71/1 8/69/1
f 104/1/2 105/3/2 101/2/2
f 101/2/2 105/3/2 106/4/2
f 101/2/2 106/4/2 100/5/2
f 100/5/2 106/4/2 103/6/2
f 104/1/2 101/2/2 102/7/2
f 99/8/2 100/5/2 103/6/2
f 104/1/2 102/7/2 99/8/2
f 104/1/2 99/8/2 103/6/2
f 111/9/2 112/11/2 107/10/2
f 110/12/2 111/9/2 107/10/2
f 110/12/2 107/10/2 108/13/2
f 109/14/2 110/12/2 108/13/2
f 117/15/2 118/17/2 113/16/2
f 116/18/2 117/15/2 113/16/2
f 116/18/2 113/16/2 114/19/2
f 115/20/2 116/18/2 114/19/2
f 123/21/2 124/23/2 119/22/2
f 122/24/2 123/21/2 119/22/2
f 122/24/2 119/22/2 120/25/2
f 121/26/2 122/24/2 120/25/2
f 128/27/2 129/29/2 130/28/2
f 128/27/2 130/28/2 125/30/2
f 127/31/2 128/27/2 125/30/2
f 127/31/2 125/30/2 126/32/2
f 142/33/2 143/35/2 133/34/2
f 133/34/2 143/35/2 144/36/2
f 133/34/2 144/36/2 132/37/2
f 132/37/2 144/36/2 139/38/2
f 142/33/2 133/34/2 134/39/2
f 131/40/2 132/37/2 139/38/2
f 142/33/2 134/39/2 136/41/2
f 136/41/2 134/39/2 131/40/2
f 136/41/2 131/40/2 135/42/2
f 135/42/2 131/40/2 139/38/2
f 142/33/2 136/41/2 137/43/2
f 138/44/2 135/42/2 139/38/2
f 142/33/2 137/43/2 140/45/2
f 140/45/2 137/43/2 138/44/2
f 140/45/2 138/44/2 139/38/2
f 142/33/2 140/45/2 141/46/2
f 96/47/2 97/49/2 98/48/2
f 96/47/2 98/48/2 73/50/2
f 96/47/2 73/50/2 74/51/2
f 96/47/2 74/51/2 95/52/2
f 95/52/2 74/51/2 89/53/2
f 89/53/2 74/51/2 88/54/2
f 88/54/2 74/51/2 75/55/2
f 94/56/2 95/52/2 89/53/2
f 94/56/2 89/53/2 90/57/2
f 87/58/2 88/54/2 75/55/2
f 86/59/2 87/58/2 75/55/2
f 93/60/2 94/56/2 90/57/2
f 86/59/2 75/55/2 76/61/2
f 85/62/2 86/59/2 76/61/2
f 81/63/2 82/65/2 83/64/2
f 93/60/2 90/57/2 92/66/2
f 92/66/2 90/57/2 91/67/2
f 84/68/2 85/62/2 76/61/2
f 81/63/2 83/64/2 84/68/2
f 81/63/2 84/68/2 76/61/2
f 80/69/2 81/63/2 76/61/2
f 80/69/2 76/61/2 77/70/2
f 80/69/2 77/70/2 78/71/2
f 79/72/2 80/69/2 78/71/2
s 1
f 148/73/3 145/50/4 146/74/4
f 150/75/5 147/76/3 148/73/3
f 152/77/6 149/78/5 150/75/5
f 146/79/4 151/80/6 152/77/6
f 156/73/3 153/50/5 154/74/5
f 158/75/4 155/76/3 156/73/3
f 160/77/6 157/78/4 158/75/4
f 154/79/5 159/80/6 160/77/6
f 164/81/7 161/50/8 162/74/8
f 166/82/9 163/83/7 164/81/7
f 168/75/10 165/84/9 166/82/9
f 170/85/11 167/78/10 168/75/10
f 172/86/12 169/87/13 170/85/11
f 162/79/8 171/88/12 172/86/12
f 176/81/14 173/50/15 174/74/15
f 178/82/16 175/83/17 176/81/14
f 180/75/18 177/84/16 178/82/16
f 182/85/19 179/78/18 180/75/18
f 184/86/20 181/87/21 182/85/19
f 174/79/15 183/88/22 184/86/20
f 188/81/23 185/50/24 186/74/24
f 190/82/25 187/83/23 188/81/23
f 192/75/26 189/84/25 190/82/25
f 194/85/27 191/78/26 192/75/26
f 196/86/28 193/87/29 194/85/27
f 186/79/24 195/88/30 196/86/28
f 200/81/31 197/50/32 198/74/32
f 202/82/33 199/83/34 200/81/31
f 204/75/35 201/84/33 202/82/33
f 206/85/36 203/78/35 204/75/35
f 208/86/37 205/87/36 206/85/36
f 198/79/32 207/88/38 208/86/37
f 212/73/3 209/50/4 210/74/4
f 214/75/5 211/76/3 212/73/3
f 216/77/6 213/78/5 214/75/5
f 210/79/4 215/80/6 216/77/6
f 220/73/5 217/50/3 218/74/3
f 222/75/6 219/76/5 220/73/5
f 224/77/4 221/78/6 222/75/6
f 218/79/3 223/80/4 224/77/4
f 228/81/5 225/50/5 226/74/5
f 230/82/5 227/83/5 228/81/5
f 232/75/3 229/84/5 230/82/5
f 234/85/4 231/78/3 232/75/3
f 236/86/6 233/87/4 234/85/4
f 226/79/5 235/88/6 236/86/6
f 240/89/39 237/50/40 238/74/40
f 242/90/41 239/91/39 240/89/39
f 244/92/42 241/93/41 242/90/41
f 246/94/43 243/95/42 244/92/42
f 248/96/44 245/97/45 246/94/43
f 250/98/46 247/99/44 248/96/44
f 252/100/47 249/101/46 250/98/46
f 254/102/48 251/103/47 252/100/47
f 256/104/49 253/105/48 254/102/48
f 258/106/50 255/107/49 256/104/49
f 260/108/51 257/109/50 258/106/50
f 262/110/52 259/111/51 260/108/51
f 264/75/53 261/112/52 262/110/52
f 266/113/54 263/78/53 264/75/53
f 268/114/55 265/115/54 266/113/54
f 270/116/56 267/117/55 268/114/55
f 272/118/57 269/119/56 270/116/56
f 274/120/58 271/121/59 272/118/57
f 276/122/60 273/123/61 274/120/58
f 278/124/62 275/125/60 276/122/60
f 280/126/63 277/127/62 278/124/62
f 282/128/64 279/129/63 280/126/63
f 284/130/3 281/131/65 282/128/64
f 286/132/4 283/133/3 284/130/3
f 288/134/66 285/135/4 286/132/4
f 238/79/40 287/136/66 288/134/66
f 148/73/3 147/76/3 145/50/4
f 150/75/5 149/78/5 147/76/3
f 152/77/6 151/80/6 149/78/5
f 146/79/4 145/36/4 151/80/6
f 156/73/3 155/76/3 153/50/5
f 158/75/4 157/78/4 155/76/3
f 160/77/6 159/80/6 157/78/4
f 154/79/5 153/36/5 159/80/6
f 164/81/7 163/83/7 161/50/8
f 166/82/9 165/84/9 163/83/7
f 168/75/10 167/78/10 165/84/9
f 170/85/11 169/87/13 167/78/10
f 172/86/12 171/88/12 169/87/13
f 162/79/8 161/36/8 171/88/12
f 176/81/14 175/83/17 173/50/15
f 178/82/16 177/84/16 175/83/17
f 180/75/18 179/78/18 177/84/16
f 182/85/19 181/87/21 179/78/18
f 184/86/20 183/88/22 181/87/21
f 174/79/15 173/36/15 183/88/22
f 188/81/23 187/83/23 185/50/24
f 190/82/25 189/84/25 187/83/23
f 192/75/26 191/78/26 189/84/25
f 194/85/27 193/87/29 191/78/26
f 196/86/28 195/88/30 193/87/29
f 186/79/24 185/36/24 195/88/30
f 200/81/31 199/83/34 197/50/32
f 202/82/33 201/84/33 199/83/34
f 204/75/35 203/78/35 201/84/33
f 206/85/36 205/87/36 203/78/35
f 208/86/37 207/88/38 205/87/36
f 198/79/32 197/36/32 207/88/38
f 212/73/3 211/76/3 209/50/4
f 214/75/5 213/78/5 211/76/3
f 216/77/6 215/80/6 213/78/5
f 210/79/4 209/36/4 215/80/6
f 220/73/5 219/76/5 217/50/3
f 222/75/6 221/78/6 219/76/5
f 224/77/4 223/80/4 221/78/6
f 218/79/3 217/36/3 223/80/4
f 228/81/5 227/83/5 225/50/5
f 230/82/5 229/84/5 227/83/5
f 232/75/3 231/78/3 229/84/5
f 234/85/4 233/87/4 231/78/3
f 236/86/6 235/88/6 233/87/4
f 226/79/5 225/36/5 235/88/6
f 240/89/39 239/91/39 237/50/40
f 242/90/41 241/93/41 239/91/39
f 244/92/42 243/95/42 241/93/41
f 246/94/43 245/97/45 243/95/42
f 248/96/44 247/99/44 245/97/45
f 250/98/46 249/101/46 247/99/44
f 252/100/47 251/103/47 249/101/46
f 254/102/48 253/105/48 251/103/47
f 256/104/49 255/107/49 253/105/48
f 258/106/50 257/109/50 255/107/49
f 260/108/51 259/111/51 257/109/50
f 262/110/52 261/112/52 259/111/51
f 264/75/53 263/78/53 261/112/52
f 266/113/54 265/115/54 263/78/53
f 268/114/55 267/117/55 265/115/54
f 270/116/56 269/119/56 267/117/55
f 272/118/57 271/121/59 269/119/56
f 274/120/58 273/123/61 271/121/59
f 276/122/60 275/125/60 273/123/61
f 278/124/62 277/127/62 275/125/60
f 280/126/63 279/129/63 277/127/62
f 282/128/64 281/131/65 279/129/63
f 284/130/3 283/133/3 281/131/65
f 286/132/4 285/135/4 283/133/3
f 288/134/66 287/136/66 285/135/4
f 238/79/40 237/36/40 287/136/66
