# Blender 4.1.1
# www.blender.org
mtllib Five.mtl
o テキスト
v 0.049096 0.594000 -0.020000
v 0.049096 0.423000 -0.020000
v -0.132654 0.366625 -0.020000
v -0.198904 0.209000 -0.020000
v -0.135779 0.052750 -0.020000
v 0.024096 -0.009000 -0.020000
v 0.106596 0.000750 -0.020000
v 0.189096 0.033000 -0.020000
v 0.189096 0.134000 -0.020000
v 0.114971 0.096625 -0.020000
v 0.040096 0.084000 -0.020000
v -0.059279 0.120375 -0.020000
v -0.100904 0.207000 -0.020000
v -0.037654 0.313125 -0.020000
v 0.138096 0.327000 -0.020000
v 0.138096 0.682000 -0.020000
v -0.164904 0.682000 -0.020000
v -0.164904 0.594000 -0.020000
v 0.049096 0.594000 0.020000
v 0.049096 0.423000 0.020000
v -0.132654 0.366625 0.020000
v -0.198904 0.209000 0.020000
v -0.135779 0.052750 0.020000
v 0.024096 -0.009000 0.020000
v 0.106596 0.000750 0.020000
v 0.189096 0.033000 0.020000
v 0.189096 0.134000 0.020000
v 0.114971 0.096625 0.020000
v 0.040096 0.084000 0.020000
v -0.059279 0.120375 0.020000
v -0.100904 0.207000 0.020000
v -0.037654 0.313125 0.020000
v 0.138096 0.327000 0.020000
v 0.138096 0.682000 0.020000
v -0.164904 0.682000 0.020000
v -0.164904 0.594000 0.020000
v 0.049096 0.594000 0.020000
v 0.049096 0.594000 -0.020000
v 0.049096 0.423000 0.020000
v 0.049096 0.423000 -0.020000
v -0.132654 0.366625 0.020000
v -0.132654 0.366625 -0.020000
v -0.198904 0.209000 0.020000
v -0.198904 0.209000 -0.020000
v -0.135779 0.052750 0.020000
v -0.135779 0.052750 -0.020000
v 0.024096 -0.009000 0.020000
v 0.024096 -0.009000 -0.020000
v 0.106596 0.000750 0.020000
v 0.106596 0.000750 -0.020000
v 0.189096 0.033000 0.020000
v 0.189096 0.033000 -0.020000
v 0.189096 0.134000 0.020000
v 0.189096 0.134000 -0.020000
v 0.114971 0.096625 0.020000
v 0.114971 0.096625 -0.020000
v 0.040096 0.084000 0.020000
v 0.040096 0.084000 -0.020000
v -0.059279 0.120375 0.020000
v -0.059279 0.120375 -0.020000
v -0.100904 0.207000 0.020000
v -0.100904 0.207000 -0.020000
v -0.037654 0.313125 0.020000
v -0.037654 0.313125 -0.020000
v 0.138096 0.327000 0.020000
v 0.138096 0.327000 -0.020000
v 0.138096 0.682000 0.020000
v 0.138096 0.682000 -0.020000
v -0.164904 0.682000 0.020000
v -0.164904 0.682000 -0.020000
v -0.164904 0.594000 0.020000
v -0.164904 0.594000 -0.020000
vn -0.0000 -0.0000 -1.0000
vn -0.0000 -0.0000 1.0000
vn -0.8051 0.5932 -0.0000
vn -0.7071 -0.7071 -0.0000
vn -0.6720 0.7406 -0.0000
vn -1.0000 0.0070 -0.0000
vn -0.6719 0.7406 -0.0000
vn -0.7016 -0.7125 -0.0000
vn -0.1251 -0.9921 -0.0000
vn -0.7017 -0.7125 -0.0000
vn 0.2427 -0.9701 -0.0000
vn -0.1252 -0.9921 -0.0000
vn 0.8259 -0.5639 -0.0000
vn 0.5243 0.8516 -0.0000
vn 0.8258 -0.5639 -0.0000
vn -0.3117 0.9502 -0.0000
vn 0.5243 0.8515 -0.0000
vn 0.0918 0.9958 -0.0000
vn 0.6720 0.7406 -0.0000
vn 0.9990 -0.0448 -0.0000
vn 0.5278 -0.8494 -0.0000
vn 0.9990 -0.0447 -0.0000
vn 0.7344 -0.6787 -0.0000
vn 0.5278 -0.8493 -0.0000
vn 0.7071 0.7071 -0.0000
vn -0.7071 0.7071 -0.0000
vt 0.823529 0.000000
vt 0.000000 0.000000
vt 0.882353 0.000000
vt 0.941176 0.000000
vt 1.000000 0.000000
vt 0.058824 0.000000
vt 0.117647 0.000000
vt 0.764706 0.000000
vt 0.176471 0.000000
vt 0.705882 0.000000
vt 0.235294 0.000000
vt 0.647059 0.000000
vt 0.411765 0.000000
vt 0.529412 0.000000
vt 0.470588 0.000000
vt 0.588235 0.000000
vt 0.294118 0.000000
vt 0.352941 0.000000
vt 0.055556 1.000000
vt 0.000000 1.000000
vt 0.111111 1.000000
vt 0.055556 0.000000
vt 0.166667 1.000000
vt 0.111111 0.000000
vt 0.222222 1.000000
vt 0.166667 0.000000
vt 0.277778 1.000000
vt 0.222222 0.000000
vt 0.333333 1.000000
vt 0.277778 0.000000
vt 0.388889 1.000000
vt 0.333333 0.000000
vt 0.444444 1.000000
vt 0.388889 0.000000
vt 0.500000 1.000000
vt 0.444444 0.000000
vt 0.555556 1.000000
vt 0.500000 0.000000
vt 0.611111 1.000000
vt 0.555556 0.000000
vt 0.666667 1.000000
vt 0.611111 0.000000
vt 0.722222 1.000000
vt 0.666667 0.000000
vt 0.777778 1.000000
vt 0.722222 0.000000
vt 0.833333 1.000000
vt 0.777778 0.000000
vt 0.888889 1.000000
vt 0.833333 0.000000
vt 0.944444 1.000000
vt 0.888889 0.000000
vt 1.000000 1.000000
vt 0.944444 0.000000
s 0
usemtl マテリアル
f 15/1/1 1/2/1 16/3/1
f 1/2/1 17/4/1 16/3/1
f 1/2/1 18/5/1 17/4/1
f 15/1/1 2/6/1 1/2/1
f 15/1/1 3/7/1 2/6/1
f 15/1/1 14/8/1 3/7/1
f 14/8/1 4/9/1 3/7/1
f 13/10/1 4/9/1 14/8/1
f 13/10/1 5/11/1 4/9/1
f 12/12/1 5/11/1 13/10/1
f 8/13/1 10/14/1 9/15/1
f 11/16/1 5/11/1 12/12/1
f 8/13/1 11/16/1 10/14/1
f 8/13/1 5/11/1 11/16/1
f 8/13/1 6/17/1 5/11/1
f 7/18/1 6/17/1 8/13/1
f 33/1/2 34/3/2 19/2/2
f 19/2/2 34/3/2 35/4/2
f 19/2/2 35/4/2 36/5/2
f 33/1/2 19/2/2 20/6/2
f 33/1/2 20/6/2 21/7/2
f 33/1/2 21/7/2 32/8/2
f 32/8/2 21/7/2 22/9/2
f 31/10/2 32/8/2 22/9/2
f 31/10/2 22/9/2 23/11/2
f 30/12/2 31/10/2 23/11/2
f 26/13/2 27/15/2 28/14/2
f 29/16/2 30/12/2 23/11/2
f 26/13/2 28/14/2 29/16/2
f 26/13/2 29/16/2 23/11/2
f 26/13/2 23/11/2 24/17/2
f 25/18/2 26/13/2 24/17/2
s 1
f 40/19/3 37/2/4 38/20/4
f 42/21/5 39/22/3 40/19/3
f 44/23/6 41/24/7 42/21/5
f 46/25/8 43/26/6 44/23/6
f 48/27/9 45/28/10 46/25/8
f 50/29/11 47/30/12 48/27/9
f 52/31/13 49/32/11 50/29/11
f 54/33/14 51/34/15 52/31/13
f 56/35/16 53/36/17 54/33/14
f 58/37/18 55/38/16 56/35/16
f 60/39/19 57/40/18 58/37/18
f 62/41/20 59/42/19 60/39/19
f 64/43/21 61/44/22 62/41/20
f 66/45/23 63/46/24 64/43/21
f 68/47/25 65/48/23 66/45/23
f 70/49/26 67/50/25 68/47/25
f 72/51/4 69/52/26 70/49/26
f 38/53/4 71/54/4 72/51/4
f 40/19/3 39/22/3 37/2/4
f 42/21/5 41/24/7 39/22/3
f 44/23/6 43/26/6 41/24/7
f 46/25/8 45/28/10 43/26/6
f 48/27/9 47/30/12 45/28/10
f 50/29/11 49/32/11 47/30/12
f 52/31/13 51/34/15 49/32/11
f 54/33/14 53/36/17 51/34/15
f 56/35/16 55/38/16 53/36/17
f 58/37/18 57/40/18 55/38/16
f 60/39/19 59/42/19 57/40/18
f 62/41/20 61/44/22 59/42/19
f 64/43/21 63/46/24 61/44/22
f 66/45/23 65/48/23 63/46/24
f 68/47/25 67/50/25 65/48/23
f 70/49/26 69/52/26 67/50/25
f 72/51/4 71/54/4 69/52/26
f 38/53/4 37/5/4 71/54/4
