# Blender 4.1.1
# www.blender.org
mtllib One.mtl
o テキスト
v 0.037096 -0.000000 -0.020000
v 0.037096 0.682000 -0.020000
v -0.060904 0.682000 -0.020000
v -0.060904 -0.000000 -0.020000
v 0.037096 0.000000 0.020000
v 0.037096 0.682000 0.020000
v -0.060904 0.682000 0.020000
v -0.060904 0.000000 0.020000
v 0.037096 0.000000 0.020000
v 0.037096 -0.000000 -0.020000
v 0.037096 0.682000 0.020000
v 0.037096 0.682000 -0.020000
v -0.060904 0.682000 0.020000
v -0.060904 0.682000 -0.020000
v -0.060904 0.000000 0.020000
v -0.060904 -0.000000 -0.020000
vn -0.0000 -0.0000 -1.0000
vn -0.0000 -0.0000 1.0000
vn 0.7071 0.7071 -0.0000
vn 0.7071 -0.7071 -0.0000
vn -0.7071 0.7071 -0.0000
vn -0.7071 -0.7071 -0.0000
vt 0.000000 0.000000
vt 0.666667 0.000000
vt 0.333333 0.000000
vt 1.000000 0.000000
vt 0.250000 1.000000
vt 0.000000 1.000000
vt 0.500000 1.000000
vt 0.250000 0.000000
vt 0.750000 1.000000
vt 0.500000 0.000000
vt 1.000000 1.000000
vt 0.750000 0.000000
s 0
usemtl マテリアル
f 1/1/1 3/2/1 2/3/1
f 1/1/1 4/4/1 3/2/1
f 5/1/2 6/3/2 7/2/2
f 5/1/2 7/2/2 8/4/2
s 1
f 12/5/3 9/1/4 10/6/4
f 14/7/5 11/8/3 12/5/3
f 16/9/6 13/10/5 14/7/5
f 10/11/4 15/12/6 16/9/6
f 12/5/3 11/8/3 9/1/4
f 14/7/5 13/10/5 11/8/3
f 16/9/6 15/12/6 13/10/5
f 10/11/4 9/4/4 15/12/6
