# Blender 4.1.1
# www.blender.org
mtllib Two.mtl
o テキスト
v 0.205096 -0.000000 -0.020000
v 0.205096 0.007000 -0.020000
v 0.080221 0.161000 -0.020000
v -0.031904 0.321000 -0.020000
v -0.067904 0.393250 -0.020000
v -0.079904 0.467000 -0.020000
v -0.046529 0.559125 -0.020000
v 0.037096 0.595000 -0.020000
v 0.111846 0.575250 -0.020000
v 0.191096 0.503000 -0.020000
v 0.191096 0.626000 -0.020000
v 0.110596 0.675000 -0.020000
v 0.030096 0.691000 -0.020000
v -0.120029 0.631750 -0.020000
v -0.177904 0.478000 -0.020000
v -0.128904 0.311750 -0.020000
v 0.034096 0.093000 -0.020000
v -0.226904 0.093000 -0.020000
v -0.226904 -0.000000 -0.020000
v 0.205096 0.000000 0.020000
v 0.205096 0.007000 0.020000
v 0.080221 0.161000 0.020000
v -0.031904 0.321000 0.020000
v -0.067904 0.393250 0.020000
v -0.079904 0.467000 0.020000
v -0.046529 0.559125 0.020000
v 0.037096 0.595000 0.020000
v 0.111846 0.575250 0.020000
v 0.191096 0.503000 0.020000
v 0.191096 0.626000 0.020000
v 0.110596 0.675000 0.020000
v 0.030096 0.691000 0.020000
v -0.120029 0.631750 0.020000
v -0.177904 0.478000 0.020000
v -0.128904 0.311750 0.020000
v 0.034096 0.093000 0.020000
v -0.226904 0.093000 0.020000
v -0.226904 0.000000 0.020000
v 0.205096 0.000000 0.020000
v 0.205096 -0.000000 -0.020000
v 0.205096 0.007000 0.020000
v 0.205096 0.007000 -0.020000
v 0.080221 0.161000 0.020000
v 0.080221 0.161000 -0.020000
v -0.031904 0.321000 0.020000
v -0.031904 0.321000 -0.020000
v -0.067904 0.393250 0.020000
v -0.067904 0.393250 -0.020000
v -0.079904 0.467000 0.020000
v -0.079904 0.467000 -0.020000
v -0.046529 0.559125 0.020000
v -0.046529 0.559125 -0.020000
v 0.037096 0.595000 0.020000
v 0.037096 0.595000 -0.020000
v 0.111846 0.575250 0.020000
v 0.111846 0.575250 -0.020000
v 0.191096 0.503000 0.020000
v 0.191096 0.503000 -0.020000
v 0.191096 0.626000 0.020000
v 0.191096 0.626000 -0.020000
v 0.110596 0.675000 0.020000
v 0.110596 0.675000 -0.020000
v 0.030096 0.691000 0.020000
v 0.030096 0.691000 -0.020000
v -0.120029 0.631750 0.020000
v -0.120029 0.631750 -0.020000
v -0.177904 0.478000 0.020000
v -0.177904 0.478000 -0.020000
v -0.128904 0.311750 0.020000
v -0.128904 0.311750 -0.020000
v 0.034096 0.093000 0.020000
v 0.034096 0.093000 -0.020000
v -0.226904 0.093000 0.020000
v -0.226904 0.093000 -0.020000
v -0.226904 0.000000 0.020000
v -0.226904 -0.000000 -0.020000
vn -0.0000 -0.0000 -1.0000
vn -0.0000 -0.0000 1.0000
vn 0.9425 0.3341 -0.0000
vn 0.7071 -0.7071 -0.0000
vn 0.7983 0.6022 -0.0000
vn 0.8594 0.5114 -0.0000
vn 0.9518 0.3068 -0.0000
vn 0.9957 -0.0930 -0.0000
vn 0.7272 -0.6864 -0.0000
vn 0.0734 -0.9973 -0.0000
vn -0.4783 -0.8782 -0.0000
vn 0.4040 -0.9148 -0.0000
vn 0.8718 0.4899 -0.0000
vn 0.4039 -0.9148 -0.0000
vn 0.3630 0.9318 -0.0000
vn -0.0897 0.9960 -0.0000
vn -0.7127 0.7015 -0.0000
vn -0.9993 0.0367 -0.0000
vn -0.8945 -0.4471 -0.0000
vn -0.8937 0.4486 -0.0000
vn -0.7071 0.7071 -0.0000
vn -0.7071 -0.7071 -0.0000
vt 0.611111 0.000000
vt 0.722222 0.000000
vt 0.666667 0.000000
vt 0.555556 0.000000
vt 0.388889 0.000000
vt 0.333333 0.000000
vt 0.777778 0.000000
vt 0.500000 0.000000
vt 0.444444 0.000000
vt 0.277778 0.000000
vt 0.833333 0.000000
vt 0.222222 0.000000
vt 0.166667 0.000000
vt 0.111111 0.000000
vt 0.888889 0.000000
vt 0.055556 0.000000
vt 0.944444 0.000000
vt 1.000000 0.000000
vt 0.000000 0.000000
vt 0.052632 1.000000
vt 0.000000 1.000000
vt 0.105263 1.000000
vt 0.052632 0.000000
vt 0.157895 1.000000
vt 0.105263 0.000000
vt 0.210526 1.000000
vt 0.157895 0.000000
vt 0.263158 1.000000
vt 0.210526 0.000000
vt 0.315789 1.000000
vt 0.263158 0.000000
vt 0.368421 1.000000
vt 0.315789 0.000000
vt 0.421053 1.000000
vt 0.368421 0.000000
vt 0.473684 1.000000
vt 0.421053 0.000000
vt 0.526316 1.000000
vt 0.473684 0.000000
vt 0.578947 1.000000
vt 0.526316 0.000000
vt 0.631579 1.000000
vt 0.578947 0.000000
vt 0.684211 1.000000
vt 0.631579 0.000000
vt 0.736842 1.000000
vt 0.684211 0.000000
vt 0.789474 1.000000
vt 0.736842 0.000000
vt 0.842105 1.000000
vt 0.789474 0.000000
vt 0.894737 1.000000
vt 0.842105 0.000000
vt 0.947368 1.000000
vt 0.894737 0.000000
vt 1.000000 1.000000
vt 0.947368 0.000000
s 0
usemtl マテリアル
f 12/1/1 14/2/1 13/3/1
f 11/4/1 14/2/1 12/1/1
f 11/4/1 8/5/1 14/2/1
f 8/5/1 7/6/1 14/2/1
f 7/6/1 15/7/1 14/2/1
f 10/8/1 9/9/1 11/4/1
f 9/9/1 8/5/1 11/4/1
f 6/10/1 15/7/1 7/6/1
f 6/10/1 16/11/1 15/7/1
f 5/12/1 16/11/1 6/10/1
f 4/13/1 16/11/1 5/12/1
f 3/14/1 16/11/1 4/13/1
f 3/14/1 17/15/1 16/11/1
f 2/16/1 17/15/1 3/14/1
f 2/16/1 18/17/1 17/15/1
f 2/16/1 19/18/1 18/17/1
f 1/19/1 19/18/1 2/16/1
f 31/1/2 32/3/2 33/2/2
f 30/4/2 31/1/2 33/2/2
f 30/4/2 33/2/2 27/5/2
f 27/5/2 33/2/2 26/6/2
f 26/6/2 33/2/2 34/7/2
f 29/8/2 30/4/2 28/9/2
f 28/9/2 30/4/2 27/5/2
f 25/10/2 26/6/2 34/7/2
f 25/10/2 34/7/2 35/11/2
f 24/12/2 25/10/2 35/11/2
f 23/13/2 24/12/2 35/11/2
f 22/14/2 23/13/2 35/11/2
f 22/14/2 35/11/2 36/15/2
f 21/16/2 22/14/2 36/15/2
f 21/16/2 36/15/2 37/17/2
f 21/16/2 37/17/2 38/18/2
f 20/19/2 21/16/2 38/18/2
s 1
f 42/20/3 39/19/4 40/21/4
f 44/22/5 41/23/3 42/20/3
f 46/24/6 43/25/5 44/22/5
f 48/26/7 45/27/6 46/24/6
f 50/28/8 47/29/7 48/26/7
f 52/30/9 49/31/8 50/28/8
f 54/32/10 51/33/9 52/30/9
f 56/34/11 53/35/10 54/32/10
f 58/36/12 55/37/11 56/34/11
f 60/38/13 57/39/14 58/36/12
f 62/40/15 59/41/13 60/38/13
f 64/42/16 61/43/15 62/40/15
f 66/44/17 63/45/16 64/42/16
f 68/46/18 65/47/17 66/44/17
f 70/48/19 67/49/18 68/46/18
f 72/50/20 69/51/19 70/48/19
f 74/52/21 71/53/20 72/50/20
f 76/54/22 73/55/21 74/52/21
f 40/56/4 75/57/22 76/54/22
f 42/20/3 41/23/3 39/19/4
f 44/22/5 43/25/5 41/23/3
f 46/24/6 45/27/6 43/25/5
f 48/26/7 47/29/7 45/27/6
f 50/28/8 49/31/8 47/29/7
f 52/30/9 51/33/9 49/31/8
f 54/32/10 53/35/10 51/33/9
f 56/34/11 55/37/11 53/35/10
f 58/36/12 57/39/14 55/37/11
f 60/38/13 59/41/13 57/39/14
f 62/40/15 61/43/15 59/41/13
f 64/42/16 63/45/16 61/43/15
f 66/44/17 65/47/17 63/45/16
f 68/46/18 67/49/18 65/47/17
f 70/48/19 69/51/19 67/49/18
f 72/50/20 71/53/20 69/51/19
f 74/52/21 73/55/21 71/53/20
f 76/54/22 75/57/22 73/55/21
f 40/56/4 39/18/4 75/57/22
