# Blender 4.1.1
# www.blender.org
mtllib Return.mtl
o 立方体
v -0.188212 0.570049 -0.212011
v -0.188212 3.017932 -0.212011
v -0.188212 0.570049 0.212011
v -0.188212 3.017932 0.212011
v -0.670209 0.570049 -0.212011
v -0.670209 3.017932 -0.212011
v -0.670209 0.570049 0.212011
v -0.670209 3.017932 0.212011
v -0.188212 1.793990 -0.212011
v -0.188212 1.793990 0.212011
v -0.670209 1.793990 0.212011
v -0.670209 1.793990 -0.212011
v -0.188212 1.182019 0.212011
v -0.670209 1.182019 0.212011
v -0.670209 1.182019 -0.212011
v -0.188212 1.182019 -0.212011
v 1.182996 0.865432 0.212011
v 1.182996 0.865432 -0.212011
v 1.182996 0.874825 0.212011
v 1.182996 0.874825 -0.212011
v 0.831742 0.570049 0.212011
v 0.832480 1.676848 0.212011
v 0.832480 1.676848 -0.212011
v 0.831742 0.570049 -0.212011
v 0.840194 0.101488 0.212011
v 0.840194 1.676848 -0.212011
v 0.840194 1.676848 0.212011
v 0.840194 0.101488 -0.212011
v 0.818340 1.182019 0.212011
v 0.832538 0.570049 -0.212011
v 0.832538 0.570049 0.212011
v 0.818340 1.182019 -0.212011
vn 1.0000 -0.0000 -0.0000
vn -0.0000 -0.0000 1.0000
vn -1.0000 -0.0000 -0.0000
vn -0.0000 -0.0000 -1.0000
vn -0.0000 -1.0000 -0.0000
vn -0.0000 1.0000 -0.0000
vn 0.9195 0.3930 -0.0000
vn 0.9124 -0.4094 -0.0000
vn -0.9996 0.0286 -0.0000
vn -0.9998 -0.0180 -0.0000
vt 0.625000 0.000000
vt 0.500000 0.250000
vt 0.500000 0.000000
vt 0.625000 0.250000
vt 0.500000 0.500000
vt 0.625000 0.500000
vt 0.500000 0.750000
vt 0.625000 0.750000
vt 0.500000 1.000000
vt 0.375000 0.500000
vt 0.125000 0.750000
vt 0.125000 0.500000
vt 0.875000 0.500000
vt 0.437500 1.000000
vt 0.437500 0.750000
vt 0.437500 0.500000
vt 0.437500 0.250000
vt 0.437500 0.000000
vt 0.375000 0.250000
vt 0.375000 0.750000
vt 0.375000 1.000000
vt 0.375000 0.000000
vt 0.625000 1.000000
vt 0.875000 0.750000
s 0
usemtl マテリアル
f 2/1/1 10/2/1 9/3/1
f 4/4/2 11/5/2 10/2/2
f 8/6/3 12/7/3 11/5/3
f 6/8/4 9/9/4 12/7/4
f 7/10/5 1/11/5 3/12/5
f 4/13/6 6/8/6 8/6/6
f 12/7/4 16/14/4 15/15/4
f 11/5/3 15/15/3 14/16/3
f 10/2/2 14/16/2 13/17/2
f 9/3/1 13/17/1 16/18/1
f 25/19/2 19/17/2 27/17/2
f 13/17/2 7/10/2 3/19/2
f 14/16/3 5/20/3 7/10/3
f 15/15/4 1/21/4 5/20/4
f 20/18/1 17/19/1 18/22/1
f 28/21/4 20/14/4 18/21/4
f 27/17/7 20/18/7 26/18/7
f 28/11/8 17/12/8 25/12/8
f 30/11/6 21/12/6 31/12/6
f 29/17/9 23/18/9 32/18/9
f 30/21/2 23/14/2 24/21/2
f 29/17/2 21/19/2 22/17/2
f 24/11/10 25/12/10 21/12/10
f 22/17/6 26/18/6 23/18/6
f 24/21/4 26/14/4 28/21/4
f 21/19/2 27/17/2 22/17/2
f 3/19/2 29/17/2 13/17/2
f 1/21/4 32/14/4 30/21/4
f 13/17/6 32/18/6 16/18/6
f 1/11/5 31/12/5 3/12/5
f 2/1/1 4/4/1 10/2/1
f 4/4/2 8/6/2 11/5/2
f 8/6/3 6/8/3 12/7/3
f 6/8/4 2/23/4 9/9/4
f 7/10/5 5/20/5 1/11/5
f 4/13/6 2/24/6 6/8/6
f 12/7/4 9/9/4 16/14/4
f 11/5/3 12/7/3 15/15/3
f 10/2/2 11/5/2 14/16/2
f 9/3/1 10/2/1 13/17/1
f 25/19/2 17/19/2 19/17/2
f 13/17/2 14/16/2 7/10/2
f 14/16/3 15/15/3 5/20/3
f 15/15/4 16/14/4 1/21/4
f 20/18/1 19/17/1 17/19/1
f 28/21/4 26/14/4 20/14/4
f 27/17/7 19/17/7 20/18/7
f 28/11/8 18/11/8 17/12/8
f 30/11/6 24/11/6 21/12/6
f 29/17/9 22/17/9 23/18/9
f 30/21/4 32/14/4 23/14/4
f 29/17/4 31/19/4 21/19/4
f 24/11/10 28/11/10 25/12/10
f 22/17/6 27/17/6 26/18/6
f 24/21/4 23/14/4 26/14/4
f 21/19/2 25/19/2 27/17/2
f 3/19/2 31/19/2 29/17/2
f 1/21/4 16/14/4 32/14/4
f 13/17/6 29/17/6 32/18/6
f 1/11/5 30/11/5 31/12/5
