# Blender 4.1.1
# www.blender.org
mtllib Start.mtl
o テキスト
v -0.467403 0.500000 -0.050905
v -0.501653 0.544000 -0.050905
v -0.572528 0.658375 -0.050905
v -0.660653 0.841000 -0.050905
v -0.738653 0.819000 -0.050905
v -0.650153 0.648250 -0.050905
v -0.552653 0.497000 -0.050905
v -0.871653 0.517000 -0.050905
v -0.824153 0.594500 -0.050905
v -0.773653 0.666000 -0.050905
v -0.833653 0.695000 -0.050905
v -0.932028 0.550750 -0.050905
v -1.002653 0.414000 -0.050905
v -0.938653 0.381000 -0.050905
v -0.924528 0.414625 -0.050905
v -0.906653 0.452000 -0.050905
v -0.556028 0.423125 -0.050905
v -0.462653 0.407000 -0.050905
v -0.452028 0.442000 -0.050905
v -0.437653 0.480000 -0.050905
v -0.229153 0.281125 -0.050905
v -0.280653 0.241000 -0.050905
v -0.323403 0.388000 -0.050905
v -0.349653 0.565000 -0.050905
v -0.235653 0.565000 -0.050905
v -0.207028 0.435625 -0.050905
v -0.177653 0.319000 -0.050905
v -0.076653 0.565000 -0.050905
v -0.076653 0.635000 -0.050905
v -0.181653 0.635000 -0.050905
v -0.198903 0.738500 -0.050905
v -0.211653 0.836000 -0.050905
v -0.281653 0.831000 -0.050905
v -0.267528 0.735625 -0.050905
v -0.249653 0.635000 -0.050905
v -0.366653 0.635000 -0.050905
v -0.378653 0.637000 -0.050905
v -0.422653 0.630000 -0.050905
v -0.392403 0.385250 -0.050905
v -0.336653 0.193000 -0.050905
v -0.397278 0.135250 -0.050905
v -0.443653 0.082000 -0.050905
v -0.397653 0.021000 -0.050905
v -0.357153 0.070250 -0.050905
v -0.304653 0.124000 -0.050905
v -0.222653 0.006875 -0.050905
v -0.119653 -0.078000 -0.050905
v -0.098903 -0.047000 -0.050905
v -0.073653 -0.019000 -0.050905
v -0.171903 0.058375 -0.050905
v -0.250653 0.174000 -0.050905
v -0.175028 0.236000 -0.050905
v -0.098653 0.292000 -0.050905
v -0.133903 0.416500 -0.050905
v -0.167653 0.565000 -0.050905
v -0.938653 -0.078000 -0.050905
v -0.866653 -0.078000 -0.050905
v -0.866653 -0.036000 -0.050905
v -0.564653 -0.036000 -0.050905
v -0.564653 -0.080000 -0.050905
v -0.495653 -0.080000 -0.050905
v -0.495653 0.327000 -0.050905
v -0.938653 0.327000 -0.050905
v -0.866653 0.259000 -0.050905
v -0.564653 0.259000 -0.050905
v -0.564653 0.031000 -0.050905
v -0.866653 0.031000 -0.050905
v 0.540347 0.226000 -0.050905
v 0.400347 0.226000 -0.050905
v 0.400347 0.335000 -0.050905
v 0.540347 0.335000 -0.050905
v 0.606347 0.335000 -0.050905
v 0.715347 0.335000 -0.050905
v 0.715347 0.397000 -0.050905
v 0.218347 0.397000 -0.050905
v 0.218347 0.335000 -0.050905
v 0.333347 0.335000 -0.050905
v 0.333347 0.226000 -0.050905
v 0.197347 0.226000 -0.050905
v 0.197347 0.162000 -0.050905
v 0.333347 0.162000 -0.050905
v 0.333347 -0.061000 -0.050905
v 0.400347 -0.061000 -0.050905
v 0.400347 0.162000 -0.050905
v 0.542347 0.162000 -0.050905
v 0.576472 0.042250 -0.050905
v 0.677347 -0.076000 -0.050905
v 0.700472 -0.051875 -0.050905
v 0.727347 -0.030000 -0.050905
v 0.638972 0.063375 -0.050905
v 0.608347 0.162000 -0.050905
v 0.733347 0.162000 -0.050905
v 0.733347 0.226000 -0.050905
v 0.606347 0.226000 -0.050905
v 0.803347 0.518000 -0.050905
v 0.583347 0.518000 -0.050905
v 0.583347 0.605000 -0.050905
v 0.803347 0.605000 -0.050905
v 0.803347 0.740000 -0.050905
v 0.803347 0.658000 -0.050905
v 0.583347 0.658000 -0.050905
v 0.583347 0.740000 -0.050905
v 0.352347 0.517000 -0.050905
v 0.124347 0.517000 -0.050905
v 0.124347 0.605000 -0.050905
v 0.352347 0.605000 -0.050905
v 0.352347 0.740000 -0.050905
v 0.352347 0.658000 -0.050905
v 0.124347 0.658000 -0.050905
v 0.124347 0.740000 -0.050905
v 0.050347 0.017000 -0.050905
v 0.058972 -0.036000 -0.050905
v 0.089347 -0.065000 -0.050905
v 0.150222 -0.076375 -0.050905
v 0.246347 -0.078000 -0.050905
v 0.254472 -0.040500 -0.050905
v 0.269347 -0.003000 -0.050905
v 0.192722 -0.003875 -0.050905
v 0.145347 -0.004000 -0.050905
v 0.128847 0.001375 -0.050905
v 0.124347 0.018000 -0.050905
v 0.124347 0.459000 -0.050905
v 0.423347 0.459000 -0.050905
v 0.423347 0.797000 -0.050905
v 0.088347 0.797000 -0.050905
v 0.050347 0.797000 -0.050905
v 0.512347 0.460000 -0.050905
v 0.803347 0.460000 -0.050905
v 0.803347 -0.081000 -0.050905
v 0.877347 -0.081000 -0.050905
v 0.877347 0.797000 -0.050905
v 0.512347 0.797000 -0.050905
v -0.467403 0.500000 0.050905
v -0.501653 0.544000 0.050905
v -0.572528 0.658375 0.050905
v -0.660653 0.841000 0.050905
v -0.738653 0.819000 0.050905
v -0.650153 0.648250 0.050905
v -0.552653 0.497000 0.050905
v -0.871653 0.517000 0.050905
v -0.824153 0.594500 0.050905
v -0.773653 0.666000 0.050905
v -0.833653 0.695000 0.050905
v -0.932028 0.550750 0.050905
v -1.002653 0.414000 0.050905
v -0.938653 0.381000 0.050905
v -0.924528 0.414625 0.050905
v -0.906653 0.452000 0.050905
v -0.556028 0.423125 0.050905
v -0.462653 0.407000 0.050905
v -0.452028 0.442000 0.050905
v -0.437653 0.480000 0.050905
v -0.229153 0.281125 0.050905
v -0.280653 0.241000 0.050905
v -0.323403 0.388000 0.050905
v -0.349653 0.565000 0.050905
v -0.235653 0.565000 0.050905
v -0.207028 0.435625 0.050905
v -0.177653 0.319000 0.050905
v -0.076653 0.565000 0.050905
v -0.076653 0.635000 0.050905
v -0.181653 0.635000 0.050905
v -0.198903 0.738500 0.050905
v -0.211653 0.836000 0.050905
v -0.281653 0.831000 0.050905
v -0.267528 0.735625 0.050905
v -0.249653 0.635000 0.050905
v -0.366653 0.635000 0.050905
v -0.378653 0.637000 0.050905
v -0.422653 0.630000 0.050905
v -0.392403 0.385250 0.050905
v -0.336653 0.193000 0.050905
v -0.397278 0.135250 0.050905
v -0.443653 0.082000 0.050905
v -0.397653 0.021000 0.050905
v -0.357153 0.070250 0.050905
v -0.304653 0.124000 0.050905
v -0.222653 0.006875 0.050905
v -0.119653 -0.078000 0.050905
v -0.098903 -0.047000 0.050905
v -0.073653 -0.019000 0.050905
v -0.171903 0.058375 0.050905
v -0.250653 0.174000 0.050905
v -0.175028 0.236000 0.050905
v -0.098653 0.292000 0.050905
v -0.133903 0.416500 0.050905
v -0.167653 0.565000 0.050905
v -0.938653 -0.078000 0.050905
v -0.866653 -0.078000 0.050905
v -0.866653 -0.036000 0.050905
v -0.564653 -0.036000 0.050905
v -0.564653 -0.080000 0.050905
v -0.495653 -0.080000 0.050905
v -0.495653 0.327000 0.050905
v -0.938653 0.327000 0.050905
v -0.866653 0.259000 0.050905
v -0.564653 0.259000 0.050905
v -0.564653 0.031000 0.050905
v -0.866653 0.031000 0.050905
v 0.540347 0.226000 0.050905
v 0.400347 0.226000 0.050905
v 0.400347 0.335000 0.050905
v 0.540347 0.335000 0.050905
v 0.606347 0.335000 0.050905
v 0.715347 0.335000 0.050905
v 0.715347 0.397000 0.050905
v 0.218347 0.397000 0.050905
v 0.218347 0.335000 0.050905
v 0.333347 0.335000 0.050905
v 0.333347 0.226000 0.050905
v 0.197347 0.226000 0.050905
v 0.197347 0.162000 0.050905
v 0.333347 0.162000 0.050905
v 0.333347 -0.061000 0.050905
v 0.400347 -0.061000 0.050905
v 0.400347 0.162000 0.050905
v 0.542347 0.162000 0.050905
v 0.576472 0.042250 0.050905
v 0.677347 -0.076000 0.050905
v 0.700472 -0.051875 0.050905
v 0.727347 -0.030000 0.050905
v 0.638972 0.063375 0.050905
v 0.608347 0.162000 0.050905
v 0.733347 0.162000 0.050905
v 0.733347 0.226000 0.050905
v 0.606347 0.226000 0.050905
v 0.803347 0.518000 0.050905
v 0.583347 0.518000 0.050905
v 0.583347 0.605000 0.050905
v 0.803347 0.605000 0.050905
v 0.803347 0.740000 0.050905
v 0.803347 0.658000 0.050905
v 0.583347 0.658000 0.050905
v 0.583347 0.740000 0.050905
v 0.352347 0.517000 0.050905
v 0.124347 0.517000 0.050905
v 0.124347 0.605000 0.050905
v 0.352347 0.605000 0.050905
v 0.352347 0.740000 0.050905
v 0.352347 0.658000 0.050905
v 0.124347 0.658000 0.050905
v 0.124347 0.740000 0.050905
v 0.050347 0.017000 0.050905
v 0.058972 -0.036000 0.050905
v 0.089347 -0.065000 0.050905
v 0.150222 -0.076375 0.050905
v 0.246347 -0.078000 0.050905
v 0.254472 -0.040500 0.050905
v 0.269347 -0.003000 0.050905
v 0.192722 -0.003875 0.050905
v 0.145347 -0.004000 0.050905
v 0.128847 0.001375 0.050905
v 0.124347 0.018000 0.050905
v 0.124347 0.459000 0.050905
v 0.423347 0.459000 0.050905
v 0.423347 0.797000 0.050905
v 0.088347 0.797000 0.050905
v 0.050347 0.797000 0.050905
v 0.512347 0.460000 0.050905
v 0.803347 0.460000 0.050905
v 0.803347 -0.081000 0.050905
v 0.877347 -0.081000 0.050905
v 0.877347 0.797000 0.050905
v 0.512347 0.797000 0.050905
v 0.540347 0.226000 0.050905
v 0.540347 0.226000 -0.050905
v 0.400347 0.226000 0.050905
v 0.400347 0.226000 -0.050905
v 0.400347 0.335000 0.050905
v 0.400347 0.335000 -0.050905
v 0.540347 0.335000 0.050905
v 0.540347 0.335000 -0.050905
v 0.606347 0.335000 0.050905
v 0.606347 0.335000 -0.050905
v 0.715347 0.335000 0.050905
v 0.715347 0.335000 -0.050905
v 0.715347 0.397000 0.050905
v 0.715347 0.397000 -0.050905
v 0.218347 0.397000 0.050905
v 0.218347 0.397000 -0.050905
v 0.218347 0.335000 0.050905
v 0.218347 0.335000 -0.050905
v 0.333347 0.335000 0.050905
v 0.333347 0.335000 -0.050905
v 0.333347 0.226000 0.050905
v 0.333347 0.226000 -0.050905
v 0.197347 0.226000 0.050905
v 0.197347 0.226000 -0.050905
v 0.197347 0.162000 0.050905
v 0.197347 0.162000 -0.050905
v 0.333347 0.162000 0.050905
v 0.333347 0.162000 -0.050905
v 0.333347 -0.061000 0.050905
v 0.333347 -0.061000 -0.050905
v 0.400347 -0.061000 0.050905
v 0.400347 -0.061000 -0.050905
v 0.400347 0.162000 0.050905
v 0.400347 0.162000 -0.050905
v 0.542347 0.162000 0.050905
v 0.542347 0.162000 -0.050905
v 0.576472 0.042250 0.050905
v 0.576472 0.042250 -0.050905
v 0.677347 -0.076000 0.050905
v 0.677347 -0.076000 -0.050905
v 0.700472 -0.051875 0.050905
v 0.700472 -0.051875 -0.050905
v 0.727347 -0.030000 0.050905
v 0.727347 -0.030000 -0.050905
v 0.638972 0.063375 0.050905
v 0.638972 0.063375 -0.050905
v 0.608347 0.162000 0.050905
v 0.608347 0.162000 -0.050905
v 0.733347 0.162000 0.050905
v 0.733347 0.162000 -0.050905
v 0.733347 0.226000 0.050905
v 0.733347 0.226000 -0.050905
v 0.606347 0.226000 0.050905
v 0.606347 0.226000 -0.050905
v 0.803347 0.518000 0.050905
v 0.803347 0.518000 -0.050905
v 0.583347 0.518000 0.050905
v 0.583347 0.518000 -0.050905
v 0.583347 0.605000 0.050905
v 0.583347 0.605000 -0.050905
v 0.803347 0.605000 0.050905
v 0.803347 0.605000 -0.050905
v 0.803347 0.740000 0.050905
v 0.803347 0.740000 -0.050905
v 0.803347 0.658000 0.050905
v 0.803347 0.658000 -0.050905
v 0.583347 0.658000 0.050905
v 0.583347 0.658000 -0.050905
v 0.583347 0.740000 0.050905
v 0.583347 0.740000 -0.050905
v 0.352347 0.517000 0.050905
v 0.352347 0.517000 -0.050905
v 0.124347 0.517000 0.050905
v 0.124347 0.517000 -0.050905
v 0.124347 0.605000 0.050905
v 0.124347 0.605000 -0.050905
v 0.352347 0.605000 0.050905
v 0.352347 0.605000 -0.050905
v 0.352347 0.740000 0.050905
v 0.352347 0.740000 -0.050905
v 0.352347 0.658000 0.050905
v 0.352347 0.658000 -0.050905
v 0.124347 0.658000 0.050905
v 0.124347 0.658000 -0.050905
v 0.124347 0.740000 0.050905
v 0.124347 0.740000 -0.050905
v 0.050347 0.017000 0.050905
v 0.050347 0.017000 -0.050905
v 0.058972 -0.036000 0.050905
v 0.058972 -0.036000 -0.050905
v 0.089347 -0.065000 0.050905
v 0.089347 -0.065000 -0.050905
v 0.150222 -0.076375 0.050905
v 0.150222 -0.076375 -0.050905
v 0.246347 -0.078000 0.050905
v 0.246347 -0.078000 -0.050905
v 0.254472 -0.040500 0.050905
v 0.254472 -0.040500 -0.050905
v 0.269347 -0.003000 0.050905
v 0.269347 -0.003000 -0.050905
v 0.192722 -0.003875 0.050905
v 0.192722 -0.003875 -0.050905
v 0.145347 -0.004000 0.050905
v 0.145347 -0.004000 -0.050905
v 0.128847 0.001375 0.050905
v 0.128847 0.001375 -0.050905
v 0.124347 0.018000 0.050905
v 0.124347 0.018000 -0.050905
v 0.124347 0.459000 0.050905
v 0.124347 0.459000 -0.050905
v 0.423347 0.459000 0.050905
v 0.423347 0.459000 -0.050905
v 0.423347 0.797000 0.050905
v 0.423347 0.797000 -0.050905
v 0.088347 0.797000 0.050905
v 0.088347 0.797000 -0.050905
v 0.050347 0.797000 0.050905
v 0.050347 0.797000 -0.050905
v 0.512347 0.460000 0.050905
v 0.512347 0.460000 -0.050905
v 0.803347 0.460000 0.050905
v 0.803347 0.460000 -0.050905
v 0.803347 -0.081000 0.050905
v 0.803347 -0.081000 -0.050905
v 0.877347 -0.081000 0.050905
v 0.877347 -0.081000 -0.050905
v 0.877347 0.797000 0.050905
v 0.877347 0.797000 -0.050905
v 0.512347 0.797000 0.050905
v 0.512347 0.797000 -0.050905
v -0.938653 -0.078000 0.050905
v -0.938653 -0.078000 -0.050905
v -0.866653 -0.078000 0.050905
v -0.866653 -0.078000 -0.050905
v -0.866653 -0.036000 0.050905
v -0.866653 -0.036000 -0.050905
v -0.564653 -0.036000 0.050905
v -0.564653 -0.036000 -0.050905
v -0.564653 -0.080000 0.050905
v -0.564653 -0.080000 -0.050905
v -0.495653 -0.080000 0.050905
v -0.495653 -0.080000 -0.050905
v -0.495653 0.327000 0.050905
v -0.495653 0.327000 -0.050905
v -0.938653 0.327000 0.050905
v -0.938653 0.327000 -0.050905
v -0.866653 0.259000 0.050905
v -0.866653 0.259000 -0.050905
v -0.564653 0.259000 0.050905
v -0.564653 0.259000 -0.050905
v -0.564653 0.031000 0.050905
v -0.564653 0.031000 -0.050905
v -0.866653 0.031000 0.050905
v -0.866653 0.031000 -0.050905
v -0.467403 0.500000 0.050905
v -0.467403 0.500000 -0.050905
v -0.501653 0.544000 0.050905
v -0.501653 0.544000 -0.050905
v -0.572528 0.658375 0.050905
v -0.572528 0.658375 -0.050905
v -0.660653 0.841000 0.050905
v -0.660653 0.841000 -0.050905
v -0.738653 0.819000 0.050905
v -0.738653 0.819000 -0.050905
v -0.650153 0.648250 0.050905
v -0.650153 0.648250 -0.050905
v -0.552653 0.497000 0.050905
v -0.552653 0.497000 -0.050905
v -0.871653 0.517000 0.050905
v -0.871653 0.517000 -0.050905
v -0.824153 0.594500 0.050905
v -0.824153 0.594500 -0.050905
v -0.773653 0.666000 0.050905
v -0.773653 0.666000 -0.050905
v -0.833653 0.695000 0.050905
v -0.833653 0.695000 -0.050905
v -0.932028 0.550750 0.050905
v -0.932028 0.550750 -0.050905
v -1.002653 0.414000 0.050905
v -1.002653 0.414000 -0.050905
v -0.938653 0.381000 0.050905
v -0.938653 0.381000 -0.050905
v -0.924528 0.414625 0.050905
v -0.924528 0.414625 -0.050905
v -0.906653 0.452000 0.050905
v -0.906653 0.452000 -0.050905
v -0.556028 0.423125 0.050905
v -0.556028 0.423125 -0.050905
v -0.462653 0.407000 0.050905
v -0.462653 0.407000 -0.050905
v -0.452028 0.442000 0.050905
v -0.452028 0.442000 -0.050905
v -0.437653 0.480000 0.050905
v -0.437653 0.480000 -0.050905
v -0.229153 0.281125 0.050905
v -0.229153 0.281125 -0.050905
v -0.280653 0.241000 0.050905
v -0.280653 0.241000 -0.050905
v -0.323403 0.388000 0.050905
v -0.323403 0.388000 -0.050905
v -0.349653 0.565000 0.050905
v -0.349653 0.565000 -0.050905
v -0.235653 0.565000 0.050905
v -0.235653 0.565000 -0.050905
v -0.207028 0.435625 0.050905
v -0.207028 0.435625 -0.050905
v -0.177653 0.319000 0.050905
v -0.177653 0.319000 -0.050905
v -0.076653 0.565000 0.050905
v -0.076653 0.565000 -0.050905
v -0.076653 0.635000 0.050905
v -0.076653 0.635000 -0.050905
v -0.181653 0.635000 0.050905
v -0.181653 0.635000 -0.050905
v -0.198903 0.738500 0.050905
v -0.198903 0.738500 -0.050905
v -0.211653 0.836000 0.050905
v -0.211653 0.836000 -0.050905
v -0.281653 0.831000 0.050905
v -0.281653 0.831000 -0.050905
v -0.267528 0.735625 0.050905
v -0.267528 0.735625 -0.050905
v -0.249653 0.635000 0.050905
v -0.249653 0.635000 -0.050905
v -0.366653 0.635000 0.050905
v -0.366653 0.635000 -0.050905
v -0.378653 0.637000 0.050905
v -0.378653 0.637000 -0.050905
v -0.422653 0.630000 0.050905
v -0.422653 0.630000 -0.050905
v -0.392403 0.385250 0.050905
v -0.392403 0.385250 -0.050905
v -0.336653 0.193000 0.050905
v -0.336653 0.193000 -0.050905
v -0.397278 0.135250 0.050905
v -0.397278 0.135250 -0.050905
v -0.443653 0.082000 0.050905
v -0.443653 0.082000 -0.050905
v -0.397653 0.021000 0.050905
v -0.397653 0.021000 -0.050905
v -0.357153 0.070250 0.050905
v -0.357153 0.070250 -0.050905
v -0.304653 0.124000 0.050905
v -0.304653 0.124000 -0.050905
v -0.222653 0.006875 0.050905
v -0.222653 0.006875 -0.050905
v -0.119653 -0.078000 0.050905
v -0.119653 -0.078000 -0.050905
v -0.098903 -0.047000 0.050905
v -0.098903 -0.047000 -0.050905
v -0.073653 -0.019000 0.050905
v -0.073653 -0.019000 -0.050905
v -0.171903 0.058375 0.050905
v -0.171903 0.058375 -0.050905
v -0.250653 0.174000 0.050905
v -0.250653 0.174000 -0.050905
v -0.175028 0.236000 0.050905
v -0.175028 0.236000 -0.050905
v -0.098653 0.292000 0.050905
v -0.098653 0.292000 -0.050905
v -0.133903 0.416500 0.050905
v -0.133903 0.416500 -0.050905
v -0.167653 0.565000 0.050905
v -0.167653 0.565000 -0.050905
vn -0.0000 -0.0000 -1.0000
vn -0.0000 -0.0000 1.0000
vn 0.7071 0.7071 -0.0000
vn -0.7071 0.7071 -0.0000
vn 0.7071 -0.7071 -0.0000
vn -0.7071 -0.7071 -0.0000
vn -0.6025 -0.7981 -0.0000
vn -0.8814 -0.4723 -0.0000
vn -0.6025 -0.7982 -0.0000
vn -0.0290 -0.9996 -0.0000
vn 0.6779 -0.7352 -0.0000
vn 0.9979 -0.0648 -0.0000
vn 0.8631 0.5051 -0.0000
vn 0.8051 -0.5931 -0.0000
vn 0.8052 -0.5930 -0.0000
vn -0.8847 -0.4661 -0.0000
vn -0.9967 -0.0806 -0.0000
vn -0.4560 -0.8900 -0.0000
vn -0.8847 -0.4662 -0.0000
vn -0.1006 -0.9949 -0.0000
vn 0.6212 -0.7836 -0.0000
vn 0.9567 -0.2912 -0.0000
vn 0.8241 0.5665 -0.0000
vn -0.0070 1.0000 -0.0000
vn 0.8240 0.5665 -0.0000
vn 0.1555 0.9878 -0.0000
vn 0.7248 0.6890 -0.0000
vn 0.9913 0.1318 -0.0000
vn 0.7247 0.6890 -0.0000
vn -0.0000 1.0000 -0.0000
vn 0.8207 0.5713 -0.0000
vn 0.6821 0.7313 -0.0000
vn 0.8765 0.4813 -0.0000
vn 0.4106 0.9118 -0.0000
vn -0.9176 0.3975 -0.0000
vn -0.8651 -0.5015 -0.0000
vn -0.9176 0.3976 -0.0000
vn -0.8626 0.5059 -0.0000
vn 0.8874 0.4610 -0.0000
vn 0.8351 -0.5500 -0.0000
vn 0.8874 0.4611 -0.0000
vn 0.9682 0.2502 -0.0000
vn -0.2581 0.9661 -0.0000
vn 0.9682 0.2501 -0.0000
vn -0.8589 0.5121 -0.0000
vn -0.9526 -0.3041 -0.0000
vn 0.3415 -0.9399 -0.0000
vn 0.9123 -0.4095 -0.0000
vn 0.4980 -0.8672 -0.0000
vn -0.1262 -0.9920 -0.0000
vn 0.5249 -0.8512 -0.0000
vn 0.9466 -0.3223 -0.0000
vn 0.9528 0.3037 -0.0000
vn 0.9527 0.3038 -0.0000
vn 0.3079 0.9514 -0.0000
vn -0.6036 0.7973 -0.0000
vn 0.9770 0.2135 -0.0000
vn 0.3078 0.9514 -0.0000
vn 0.7572 -0.6532 -0.0000
vn -0.6261 -0.7797 -0.0000
vn -0.9732 -0.2302 -0.0000
vn -0.6261 -0.7798 -0.0000
vn -0.9411 0.3382 -0.0000
vn 0.6464 0.7630 -0.0000
vn 0.9891 0.1471 -0.0000
vn 0.6324 0.7746 -0.0000
vn -0.7799 0.6259 -0.0000
vn 0.6325 0.7746 -0.0000
vn -0.9870 -0.1607 -0.0000
vn -0.7664 0.6423 -0.0000
vn 0.0825 0.9966 -0.0000
vn -0.7665 0.6423 -0.0000
vn 0.0037 1.0000 -0.0000
vn -0.7991 0.6012 -0.0000
vn -0.9795 -0.2012 -0.0000
vn -0.9654 0.2607 -0.0000
vn -0.7227 0.6912 -0.0000
vn -0.9994 0.0352 -0.0000
vn -0.0210 -0.9998 -0.0000
vn 0.7446 -0.6676 -0.0000
vn -0.0813 -0.9967 -0.0000
vn -0.7343 -0.6788 -0.0000
vn 0.1454 -0.9894 -0.0000
vn 0.7889 -0.6146 -0.0000
vn 0.9964 0.0848 -0.0000
vn 0.7311 0.6822 -0.0000
vn 0.9898 -0.1426 -0.0000
vn 0.6129 -0.7902 -0.0000
vn 0.9457 -0.3251 -0.0000
vn 0.9690 0.2471 -0.0000
vn 0.7815 -0.6239 -0.0000
vn 0.7816 -0.6238 -0.0000
vt 0.909091 0.000000
vt 0.969697 0.000000
vt 0.924242 0.000000
vt 0.939394 0.000000
vt 0.954545 0.000000
vt 0.833333 0.000000
vt 0.984848 0.000000
vt 1.000000 0.000000
vt 0.878788 0.000000
vt 0.863636 0.000000
vt 0.893939 0.000000
vt 0.848485 0.000000
vt 0.030303 0.000000
vt 0.060606 0.000000
vt 0.045455 0.000000
vt 0.454545 0.000000
vt 0.484848 0.000000
vt 0.469697 0.000000
vt 0.500000 0.000000
vt 0.075758 0.000000
vt 0.439394 0.000000
vt 0.515152 0.000000
vt 0.136364 0.000000
vt 0.166667 0.000000
vt 0.151515 0.000000
vt 0.121212 0.000000
vt 0.015152 0.000000
vt 0.090909 0.000000
vt 0.530303 0.000000
vt 0.560606 0.000000
vt 0.545455 0.000000
vt 0.409091 0.000000
vt 0.424242 0.000000
vt 0.818182 0.000000
vt 0.363636 0.000000
vt 0.348485 0.000000
vt 0.575758 0.000000
vt 0.106061 0.000000
vt 0.803030 0.000000
vt 0.378788 0.000000
vt 0.333333 0.000000
vt 0.181818 0.000000
vt 0.000000 0.000000
vt 0.227273 0.000000
vt 0.287879 0.000000
vt 0.272727 0.000000
vt 0.242424 0.000000
vt 0.212121 0.000000
vt 0.257576 0.000000
vt 0.393939 0.000000
vt 0.787879 0.000000
vt 0.196970 0.000000
vt 0.318182 0.000000
vt 0.590909 0.000000
vt 0.303030 0.000000
vt 0.772727 0.000000
vt 0.757576 0.000000
vt 0.606061 0.000000
vt 0.742424 0.000000
vt 0.666667 0.000000
vt 0.621212 0.000000
vt 0.681818 0.000000
vt 0.651515 0.000000
vt 0.636364 0.000000
vt 0.727273 0.000000
vt 0.712121 0.000000
vt 0.696970 0.000000
vt 0.968750 0.000000
vt 0.484375 0.000000
vt 0.984375 0.000000
vt 0.531250 0.000000
vt 0.921875 0.000000
vt 0.859375 0.000000
vt 0.609375 0.000000
vt 0.875000 0.000000
vt 0.890625 0.000000
vt 0.906250 0.000000
vt 0.656250 0.000000
vt 0.671875 0.000000
vt 0.515625 0.000000
vt 0.625000 0.000000
vt 0.640625 0.000000
vt 0.468750 0.000000
vt 0.453125 0.000000
vt 0.593750 0.000000
vt 0.578125 0.000000
vt 0.421875 0.000000
vt 0.437500 0.000000
vt 0.546875 0.000000
vt 0.562500 0.000000
vt 0.937500 0.000000
vt 0.843750 0.000000
vt 0.953125 0.000000
vt 0.828125 0.000000
vt 0.078125 0.000000
vt 0.109375 0.000000
vt 0.093750 0.000000
vt 0.125000 0.000000
vt 0.062500 0.000000
vt 0.406250 0.000000
vt 0.046875 0.000000
vt 0.031250 0.000000
vt 0.015625 0.000000
vt 0.140625 0.000000
vt 0.156250 0.000000
vt 0.375000 0.000000
vt 0.390625 0.000000
vt 0.171875 0.000000
vt 0.187500 0.000000
vt 0.359375 0.000000
vt 0.343750 0.000000
vt 0.265625 0.000000
vt 0.281250 0.000000
vt 0.250000 0.000000
vt 0.234375 0.000000
vt 0.203125 0.000000
vt 0.218750 0.000000
vt 0.328125 0.000000
vt 0.312500 0.000000
vt 0.296875 0.000000
vt 0.812500 0.000000
vt 0.687500 0.000000
vt 0.796875 0.000000
vt 0.750000 0.000000
vt 0.781250 0.000000
vt 0.765625 0.000000
vt 0.703125 0.000000
vt 0.734375 0.000000
vt 0.718750 0.000000
vt 0.250000 1.000000
vt 0.000000 1.000000
vt 0.500000 1.000000
vt 0.750000 1.000000
vt 1.000000 1.000000
vt 0.043478 1.000000
vt 0.086957 1.000000
vt 0.043478 0.000000
vt 0.130435 1.000000
vt 0.086957 0.000000
vt 0.173913 1.000000
vt 0.130435 0.000000
vt 0.217391 1.000000
vt 0.173913 0.000000
vt 0.260870 1.000000
vt 0.217391 0.000000
vt 0.304348 1.000000
vt 0.260870 0.000000
vt 0.347826 1.000000
vt 0.304348 0.000000
vt 0.391304 1.000000
vt 0.347826 0.000000
vt 0.434783 1.000000
vt 0.391304 0.000000
vt 0.478261 1.000000
vt 0.434783 0.000000
vt 0.521739 1.000000
vt 0.478261 0.000000
vt 0.565217 1.000000
vt 0.521739 0.000000
vt 0.608696 1.000000
vt 0.565217 0.000000
vt 0.652174 1.000000
vt 0.608696 0.000000
vt 0.695652 1.000000
vt 0.652174 0.000000
vt 0.739130 1.000000
vt 0.695652 0.000000
vt 0.782609 1.000000
vt 0.739130 0.000000
vt 0.826087 1.000000
vt 0.782609 0.000000
vt 0.869565 1.000000
vt 0.826087 0.000000
vt 0.913043 1.000000
vt 0.869565 0.000000
vt 0.956522 1.000000
vt 0.913043 0.000000
vt 0.956522 0.000000
vt 0.062500 1.000000
vt 0.125000 1.000000
vt 0.187500 1.000000
vt 0.312500 1.000000
vt 0.375000 1.000000
vt 0.437500 1.000000
vt 0.562500 1.000000
vt 0.625000 1.000000
vt 0.687500 1.000000
vt 0.812500 1.000000
vt 0.875000 1.000000
vt 0.937500 1.000000
vt 0.166667 1.000000
vt 0.333333 1.000000
vt 0.666667 1.000000
vt 0.833333 1.000000
vt 0.050000 1.000000
vt 0.100000 1.000000
vt 0.050000 0.000000
vt 0.150000 1.000000
vt 0.100000 0.000000
vt 0.200000 1.000000
vt 0.150000 0.000000
vt 0.200000 0.000000
vt 0.300000 1.000000
vt 0.350000 1.000000
vt 0.300000 0.000000
vt 0.400000 1.000000
vt 0.350000 0.000000
vt 0.450000 1.000000
vt 0.400000 0.000000
vt 0.450000 0.000000
vt 0.550000 1.000000
vt 0.600000 1.000000
vt 0.550000 0.000000
vt 0.650000 1.000000
vt 0.600000 0.000000
vt 0.700000 1.000000
vt 0.650000 0.000000
vt 0.700000 0.000000
vt 0.800000 1.000000
vt 0.850000 1.000000
vt 0.800000 0.000000
vt 0.900000 1.000000
vt 0.850000 0.000000
vt 0.950000 1.000000
vt 0.900000 0.000000
vt 0.950000 0.000000
vt 0.142857 1.000000
vt 0.285714 1.000000
vt 0.142857 0.000000
vt 0.428571 1.000000
vt 0.285714 0.000000
vt 0.571429 1.000000
vt 0.428571 0.000000
vt 0.714286 1.000000
vt 0.571429 0.000000
vt 0.857143 1.000000
vt 0.714286 0.000000
vt 0.857143 0.000000
vt 0.035714 1.000000
vt 0.071429 1.000000
vt 0.035714 0.000000
vt 0.107143 1.000000
vt 0.071429 0.000000
vt 0.107143 0.000000
vt 0.178571 1.000000
vt 0.214286 1.000000
vt 0.178571 0.000000
vt 0.214286 0.000000
vt 0.321429 1.000000
vt 0.357143 1.000000
vt 0.321429 0.000000
vt 0.392857 1.000000
vt 0.357143 0.000000
vt 0.392857 0.000000
vt 0.464286 1.000000
vt 0.464286 0.000000
vt 0.535714 1.000000
vt 0.535714 0.000000
vt 0.607143 1.000000
vt 0.642857 1.000000
vt 0.607143 0.000000
vt 0.678571 1.000000
vt 0.642857 0.000000
vt 0.678571 0.000000
vt 0.785714 1.000000
vt 0.821429 1.000000
vt 0.785714 0.000000
vt 0.821429 0.000000
vt 0.892857 1.000000
vt 0.928571 1.000000
vt 0.892857 0.000000
vt 0.964286 1.000000
vt 0.928571 0.000000
vt 0.964286 0.000000
s 0
usemtl マテリアル
f 61/1/1 65/2/1 62/3/1
f 65/2/1 63/4/1 62/3/1
f 65/2/1 64/5/1 63/4/1
f 64/5/1 56/6/1 63/4/1
f 61/1/1 66/7/1 65/2/1
f 67/8/1 56/6/1 64/5/1
f 61/1/1 59/9/1 66/7/1
f 59/9/1 67/8/1 66/7/1
f 59/9/1 58/10/1 67/8/1
f 58/10/1 56/6/1 67/8/1
f 61/1/1 60/11/1 59/9/1
f 57/12/1 56/6/1 58/10/1
f 3/13/1 5/14/1 4/15/1
f 31/16/1 33/17/1 32/18/1
f 31/16/1 34/19/1 33/17/1
f 3/13/1 6/20/1 5/14/1
f 30/21/1 34/19/1 31/16/1
f 30/21/1 35/22/1 34/19/1
f 10/23/1 12/24/1 11/25/1
f 9/26/1 12/24/1 10/23/1
f 2/27/1 6/20/1 3/13/1
f 2/27/1 7/28/1 6/20/1
f 36/29/1 38/30/1 37/31/1
f 28/32/1 30/21/1 29/33/1
f 28/32/1 35/22/1 30/21/1
f 28/32/1 36/29/1 35/22/1
f 28/32/1 38/30/1 36/29/1
f 28/32/1 55/34/1 38/30/1
f 55/34/1 25/35/1 38/30/1
f 25/35/1 24/36/1 38/30/1
f 24/36/1 39/37/1 38/30/1
f 8/38/1 12/24/1 9/26/1
f 54/39/1 25/35/1 55/34/1
f 54/39/1 26/40/1 25/35/1
f 23/41/1 39/37/1 24/36/1
f 8/38/1 13/42/1 12/24/1
f 1/43/1 7/28/1 2/27/1
f 7/28/1 16/44/1 8/38/1
f 16/44/1 13/42/1 8/38/1
f 20/45/1 7/28/1 1/43/1
f 20/45/1 16/44/1 7/28/1
f 19/46/1 16/44/1 20/45/1
f 19/46/1 17/47/1 16/44/1
f 15/48/1 13/42/1 16/44/1
f 18/49/1 17/47/1 19/46/1
f 54/39/1 27/50/1 26/40/1
f 53/51/1 27/50/1 54/39/1
f 14/52/1 13/42/1 15/48/1
f 22/53/1 39/37/1 23/41/1
f 22/53/1 40/54/1 39/37/1
f 53/51/1 21/55/1 27/50/1
f 52/56/1 21/55/1 53/51/1
f 52/56/1 22/53/1 21/55/1
f 52/56/1 40/54/1 22/53/1
f 51/57/1 40/54/1 52/56/1
f 51/57/1 41/58/1 40/54/1
f 50/59/1 45/60/1 51/57/1
f 45/60/1 41/58/1 51/57/1
f 45/60/1 42/61/1 41/58/1
f 50/59/1 46/62/1 45/60/1
f 44/63/1 42/61/1 45/60/1
f 44/63/1 43/64/1 42/61/1
f 49/65/1 46/62/1 50/59/1
f 49/65/1 48/66/1 46/62/1
f 48/66/1 47/67/1 46/62/1
f 130/68/1 99/69/1 131/70/1
f 99/69/1 132/8/1 131/70/1
f 99/69/1 102/71/1 132/8/1
f 102/71/1 127/72/1 132/8/1
f 123/73/1 107/74/1 124/75/1
f 107/74/1 125/76/1 124/75/1
f 107/74/1 126/77/1 125/76/1
f 107/74/1 110/78/1 126/77/1
f 110/78/1 111/79/1 126/77/1
f 130/68/1 100/19/1 99/69/1
f 101/80/1 127/72/1 102/71/1
f 123/73/1 108/81/1 107/74/1
f 109/82/1 111/79/1 110/78/1
f 130/68/1 98/83/1 100/19/1
f 98/83/1 101/80/1 100/19/1
f 98/83/1 97/84/1 101/80/1
f 97/84/1 127/72/1 101/80/1
f 123/73/1 106/85/1 108/81/1
f 106/85/1 109/82/1 108/81/1
f 106/85/1 105/86/1 109/82/1
f 105/86/1 111/79/1 109/82/1
f 130/68/1 95/87/1 98/83/1
f 96/88/1 127/72/1 97/84/1
f 123/73/1 103/89/1 106/85/1
f 104/90/1 111/79/1 105/86/1
f 130/68/1 128/91/1 95/87/1
f 128/91/1 96/88/1 95/87/1
f 128/91/1 127/72/1 96/88/1
f 123/73/1 104/90/1 103/89/1
f 123/73/1 122/92/1 104/90/1
f 122/92/1 111/79/1 104/90/1
f 130/68/1 129/93/1 128/91/1
f 121/94/1 111/79/1 122/92/1
f 73/95/1 75/96/1 74/97/1
f 73/95/1 76/98/1 75/96/1
f 72/99/1 76/98/1 73/95/1
f 94/100/1 71/101/1 72/99/1
f 71/101/1 76/98/1 72/99/1
f 94/100/1 68/43/1 71/101/1
f 70/102/1 76/98/1 71/101/1
f 69/103/1 77/104/1 70/102/1
f 77/104/1 76/98/1 70/102/1
f 69/103/1 78/105/1 77/104/1
f 92/106/1 94/100/1 93/107/1
f 92/106/1 68/43/1 94/100/1
f 92/106/1 69/103/1 68/43/1
f 92/106/1 78/105/1 69/103/1
f 92/106/1 79/108/1 78/105/1
f 92/106/1 80/109/1 79/108/1
f 91/110/2 80/109/2 92/106/2
f 90/111/1 85/112/1 91/110/1
f 85/112/1 80/109/1 91/110/1
f 90/111/1 86/113/1 85/112/1
f 84/114/1 80/109/1 85/112/1
f 83/115/1 81/116/1 84/114/1
f 81/116/1 80/109/1 84/114/1
f 83/115/1 82/117/1 81/116/1
f 89/118/1 86/113/1 90/111/1
f 89/118/1 88/119/1 86/113/1
f 88/119/1 87/120/1 86/113/1
f 120/121/1 111/79/1 121/94/1
f 120/121/1 112/122/1 111/79/1
f 119/123/1 112/122/1 120/121/1
f 116/124/1 118/125/1 117/126/1
f 116/124/1 119/123/1 118/125/1
f 116/124/1 112/122/1 119/123/1
f 116/124/1 113/127/1 112/122/1
f 115/128/1 113/127/1 116/124/1
f 115/128/1 114/129/1 113/127/1
f 193/1/2 194/3/2 197/2/2
f 197/2/2 194/3/2 195/4/2
f 197/2/2 195/4/2 196/5/2
f 196/5/2 195/4/2 188/6/2
f 193/1/2 197/2/2 198/7/2
f 199/8/2 196/5/2 188/6/2
f 193/1/2 198/7/2 191/9/2
f 191/9/2 198/7/2 199/8/2
f 191/9/2 199/8/2 190/10/2
f 190/10/2 199/8/2 188/6/2
f 193/1/2 191/9/2 192/11/2
f 189/12/2 190/10/2 188/6/2
f 135/13/2 136/15/2 137/14/2
f 163/16/2 164/18/2 165/17/2
f 163/16/2 165/17/2 166/19/2
f 135/13/2 137/14/2 138/20/2
f 162/21/2 163/16/2 166/19/2
f 162/21/2 166/19/2 167/22/2
f 142/23/2 143/25/2 144/24/2
f 141/26/2 142/23/2 144/24/2
f 134/27/2 135/13/2 138/20/2
f 134/27/2 138/20/2 139/28/2
f 168/29/2 169/31/2 170/30/2
f 160/32/2 161/33/2 162/21/2
f 160/32/2 162/21/2 167/22/2
f 160/32/2 167/22/2 168/29/2
f 160/32/2 168/29/2 170/30/2
f 160/32/2 170/30/2 187/34/2
f 187/34/2 170/30/2 157/35/2
f 157/35/2 170/30/2 156/36/2
f 156/36/2 170/30/2 171/37/2
f 140/38/2 141/26/2 144/24/2
f 186/39/2 187/34/2 157/35/2
f 186/39/2 157/35/2 158/40/2
f 155/41/2 156/36/2 171/37/2
f 140/38/2 144/24/2 145/42/2
f 133/43/2 134/27/2 139/28/2
f 139/28/2 140/38/2 148/44/2
f 148/44/2 140/38/2 145/42/2
f 152/45/2 133/43/2 139/28/2
f 152/45/2 139/28/2 148/44/2
f 151/46/2 152/45/2 148/44/2
f 151/46/2 148/44/2 149/47/2
f 147/48/2 148/44/2 145/42/2
f 150/49/2 151/46/2 149/47/2
f 186/39/2 158/40/2 159/50/2
f 185/51/2 186/39/2 159/50/2
f 146/52/2 147/48/2 145/42/2
f 154/53/2 155/41/2 171/37/2
f 154/53/2 171/37/2 172/54/2
f 185/51/2 159/50/2 153/55/2
f 184/56/2 185/51/2 153/55/2
f 184/56/2 153/55/2 154/53/2
f 184/56/2 154/53/2 172/54/2
f 183/57/2 184/56/2 172/54/2
f 183/57/2 172/54/2 173/58/2
f 182/59/2 183/57/2 177/60/2
f 177/60/2 183/57/2 173/58/2
f 177/60/2 173/58/2 174/61/2
f 182/59/2 177/60/2 178/62/2
f 176/63/2 177/60/2 174/61/2
f 176/63/2 174/61/2 175/64/2
f 181/65/2 182/59/2 178/62/2
f 181/65/2 178/62/2 180/66/2
f 180/66/2 178/62/2 179/67/2
f 262/68/2 263/70/2 231/69/2
f 231/69/2 263/70/2 264/8/2
f 231/69/2 264/8/2 234/71/2
f 234/71/2 264/8/2 259/72/2
f 255/73/2 256/75/2 239/74/2
f 239/74/2 256/75/2 257/76/2
f 239/74/2 257/76/2 258/77/2
f 239/74/2 258/77/2 242/78/2
f 242/78/2 258/77/2 243/79/2
f 262/68/2 231/69/2 232/19/2
f 233/80/2 234/71/2 259/72/2
f 255/73/2 239/74/2 240/81/2
f 241/82/2 242/78/2 243/79/2
f 262/68/2 232/19/2 230/83/2
f 230/83/2 232/19/2 233/80/2
f 230/83/2 233/80/2 229/84/2
f 229/84/2 233/80/2 259/72/2
f 255/73/2 240/81/2 238/85/2
f 238/85/2 240/81/2 241/82/2
f 238/85/2 241/82/2 237/86/2
f 237/86/2 241/82/2 243/79/2
f 262/68/2 230/83/2 227/87/2
f 228/88/2 229/84/2 259/72/2
f 255/73/2 238/85/2 235/89/2
f 236/90/2 237/86/2 243/79/2
f 262/68/2 227/87/2 260/91/2
f 260/91/2 227/87/2 228/88/2
f 260/91/2 228/88/2 259/72/2
f 255/73/2 235/89/2 236/90/2
f 255/73/2 236/90/2 254/92/2
f 254/92/2 236/90/2 243/79/2
f 262/68/2 260/91/2 261/93/2
f 253/94/2 254/92/2 243/79/2
f 205/95/2 206/97/2 207/96/2
f 205/95/2 207/96/2 208/98/2
f 204/99/1 205/95/1 208/98/1
f 226/100/2 204/99/2 203/101/2
f 203/101/1 204/99/1 208/98/1
f 226/100/2 203/101/2 200/43/2
f 202/102/2 203/101/2 208/98/2
f 201/103/2 202/102/2 209/104/2
f 209/104/1 202/102/1 208/98/1
f 201/103/2 209/104/2 210/105/2
f 224/106/2 225/107/2 226/100/2
f 224/106/2 226/100/2 200/43/2
f 224/106/2 200/43/2 201/103/2
f 224/106/2 201/103/2 210/105/2
f 224/106/2 210/105/2 211/108/2
f 224/106/2 211/108/2 212/109/2
f 223/110/1 224/106/1 212/109/1
f 222/111/2 223/110/2 217/112/2
f 217/112/1 223/110/1 212/109/1
f 222/111/2 217/112/2 218/113/2
f 216/114/1 217/112/1 212/109/1
f 215/115/2 216/114/2 213/116/2
f 213/116/1 216/114/1 212/109/1
f 215/115/2 213/116/2 214/117/2
f 221/118/2 222/111/2 218/113/2
f 221/118/2 218/113/2 220/119/2
f 220/119/2 218/113/2 219/120/2
f 252/121/2 253/94/2 243/79/2
f 252/121/2 243/79/2 244/122/2
f 251/123/2 252/121/2 244/122/2
f 248/124/2 249/126/2 250/125/2
f 248/124/2 250/125/2 251/123/2
f 248/124/2 251/123/2 244/122/2
f 248/124/2 244/122/2 245/127/2
f 247/128/2 248/124/2 245/127/2
f 247/128/2 245/127/2 246/129/2
s 1
f 268/130/3 265/43/4 266/131/4
f 270/132/5 267/114/3 268/130/3
f 272/133/6 269/19/5 270/132/5
f 266/134/4 271/124/6 272/133/6
f 276/135/5 273/43/5 274/131/5
f 278/136/3 275/137/5 276/135/5
f 280/138/4 277/139/3 278/136/3
f 282/140/6 279/141/4 280/138/4
f 284/142/6 281/143/6 282/140/6
f 286/144/4 283/145/6 284/142/6
f 288/146/4 285/147/4 286/144/4
f 290/148/6 287/149/4 288/146/4
f 292/150/6 289/151/6 290/148/6
f 294/152/6 291/153/6 292/150/6
f 296/154/5 293/155/6 294/152/6
f 298/156/5 295/157/5 296/154/5
f 300/158/7 297/159/5 298/156/5
f 302/160/8 299/161/9 300/158/7
f 304/162/10 301/163/8 302/160/8
f 306/164/11 303/165/10 304/162/10
f 308/166/12 305/167/11 306/164/11
f 310/168/13 307/169/12 308/166/12
f 312/170/14 309/171/13 310/168/13
f 314/172/5 311/173/15 312/170/14
f 316/174/3 313/175/5 314/172/5
f 318/176/3 315/177/3 316/174/3
f 274/134/5 317/178/3 318/176/3
f 322/130/3 319/43/4 320/131/4
f 324/132/5 321/114/3 322/130/3
f 326/133/6 323/19/5 324/132/5
f 320/134/4 325/124/6 326/133/6
f 330/130/4 327/43/6 328/131/6
f 332/132/3 329/114/4 330/130/4
f 334/133/5 331/19/3 332/132/3
f 328/134/6 333/124/5 334/133/5
f 338/130/3 335/43/4 336/131/4
f 340/132/5 337/114/3 338/130/3
f 342/133/6 339/19/5 340/132/5
f 336/134/4 341/124/6 342/133/6
f 346/130/4 343/43/6 344/131/6
f 348/132/3 345/114/4 346/130/4
f 350/133/5 347/19/3 348/132/3
f 344/134/6 349/124/5 350/133/5
f 354/179/16 351/43/17 352/131/17
f 356/180/18 353/99/19 354/179/16
f 358/181/20 355/98/18 356/180/18
f 360/130/21 357/109/20 358/181/20
f 362/182/22 359/114/21 360/130/21
f 364/183/23 361/119/22 362/182/22
f 366/184/24 363/106/25 364/183/23
f 368/132/26 365/88/24 366/184/24
f 370/185/27 367/19/26 368/132/26
f 372/186/28 369/90/29 370/185/27
f 374/187/5 371/81/28 372/186/28
f 376/133/5 373/122/5 374/187/5
f 378/188/3 375/124/5 376/133/5
f 380/189/30 377/121/3 378/188/3
f 382/190/4 379/75/30 380/189/30
f 352/134/17 381/91/4 382/190/4
f 386/191/6 383/43/6 384/131/6
f 388/192/6 385/24/6 386/191/6
f 390/132/5 387/41/6 388/192/6
f 392/193/3 389/19/5 390/132/5
f 394/194/4 391/60/3 392/193/3
f 384/134/6 393/6/4 394/194/4
f 398/180/5 395/43/6 396/131/6
f 400/130/5 397/98/5 398/180/5
f 402/183/6 399/114/5 400/130/5
f 404/132/6 401/106/6 402/183/6
f 406/186/5 403/19/6 404/132/6
f 408/133/3 405/81/5 406/186/5
f 410/189/4 407/124/3 408/133/3
f 396/134/6 409/75/4 410/189/4
f 414/130/6 411/43/5 412/131/5
f 416/132/4 413/114/6 414/130/6
f 418/133/3 415/19/4 416/132/4
f 412/134/5 417/124/3 418/133/3
f 422/195/31 419/43/32 420/131/32
f 424/196/33 421/197/31 422/195/31
f 426/198/34 423/199/33 424/196/33
f 428/200/35 425/201/34 426/198/34
f 430/130/36 427/202/37 428/200/35
f 432/203/38 429/114/36 430/130/36
f 434/204/39 431/205/38 432/203/38
f 436/206/40 433/207/41 434/204/39
f 438/208/42 435/209/40 436/206/40
f 440/132/43 437/210/44 438/208/42
f 442/211/45 439/19/43 440/132/43
f 444/212/46 441/213/45 442/211/45
f 446/214/47 443/215/46 444/212/46
f 448/216/48 445/217/47 446/214/47
f 450/133/49 447/218/48 448/216/48
f 452/219/50 449/124/49 450/133/49
f 454/220/51 451/221/50 452/219/50
f 456/222/52 453/223/51 454/220/51
f 458/224/53 455/225/52 456/222/52
f 420/134/32 457/226/54 458/224/53
f 462/227/55 459/43/56 460/131/56
f 464/228/57 461/229/58 462/227/55
f 466/230/59 463/231/57 464/228/57
f 468/232/60 465/233/59 466/230/59
f 470/234/61 467/235/62 468/232/60
f 472/236/63 469/237/61 470/234/61
f 460/134/56 471/238/63 472/236/63
f 476/239/3 473/43/5 474/131/5
f 478/240/64 475/241/3 476/239/3
f 480/242/65 477/243/64 478/240/64
f 482/227/66 479/244/65 480/242/65
f 484/245/67 481/229/68 482/227/66
f 486/246/69 483/247/67 484/245/67
f 488/130/70 485/248/69 486/246/69
f 490/228/71 487/114/72 488/130/70
f 492/249/73 489/231/71 490/228/71
f 494/250/74 491/251/73 492/249/73
f 496/252/75 493/253/74 494/250/74
f 498/230/76 495/254/75 496/252/75
f 500/255/77 497/233/76 498/230/76
f 502/132/78 499/256/77 500/255/77
f 504/257/79 501/19/78 502/132/78
f 506/232/80 503/258/79 504/257/79
f 508/259/81 505/235/80 506/232/80
f 510/260/82 507/261/81 508/259/81
f 512/262/83 509/263/82 510/260/82
f 514/234/84 511/264/83 512/262/83
f 516/133/85 513/237/84 514/234/84
f 518/265/86 515/124/85 516/133/85
f 520/266/87 517/267/86 518/265/86
f 522/236/88 519/268/87 520/266/87
f 524/269/89 521/238/88 522/236/88
f 526/270/90 523/271/89 524/269/89
f 528/272/91 525/273/90 526/270/90
f 474/134/5 527/274/92 528/272/91
f 268/130/3 267/114/3 265/43/4
f 270/132/5 269/19/5 267/114/3
f 272/133/6 271/124/6 269/19/5
f 266/134/4 265/8/4 271/124/6
f 276/135/5 275/137/5 273/43/5
f 278/136/3 277/139/3 275/137/5
f 280/138/4 279/141/4 277/139/3
f 282/140/6 281/143/6 279/141/4
f 284/142/6 283/145/6 281/143/6
f 286/144/4 285/147/4 283/145/6
f 288/146/4 287/149/4 285/147/4
f 290/148/6 289/151/6 287/149/4
f 292/150/6 291/153/6 289/151/6
f 294/152/6 293/155/6 291/153/6
f 296/154/5 295/157/5 293/155/6
f 298/156/5 297/159/5 295/157/5
f 300/158/7 299/161/9 297/159/5
f 302/160/8 301/163/8 299/161/9
f 304/162/10 303/165/10 301/163/8
f 306/164/11 305/167/11 303/165/10
f 308/166/12 307/169/12 305/167/11
f 310/168/13 309/171/13 307/169/12
f 312/170/14 311/173/15 309/171/13
f 314/172/5 313/175/5 311/173/15
f 316/174/3 315/177/3 313/175/5
f 318/176/3 317/178/3 315/177/3
f 274/134/5 273/8/5 317/178/3
f 322/130/3 321/114/3 319/43/4
f 324/132/5 323/19/5 321/114/3
f 326/133/6 325/124/6 323/19/5
f 320/134/4 319/8/4 325/124/6
f 330/130/4 329/114/4 327/43/6
f 332/132/3 331/19/3 329/114/4
f 334/133/5 333/124/5 331/19/3
f 328/134/6 327/8/6 333/124/5
f 338/130/3 337/114/3 335/43/4
f 340/132/5 339/19/5 337/114/3
f 342/133/6 341/124/6 339/19/5
f 336/134/4 335/8/4 341/124/6
f 346/130/4 345/114/4 343/43/6
f 348/132/3 347/19/3 345/114/4
f 350/133/5 349/124/5 347/19/3
f 344/134/6 343/8/6 349/124/5
f 354/179/16 353/99/19 351/43/17
f 356/180/18 355/98/18 353/99/19
f 358/181/20 357/109/20 355/98/18
f 360/130/21 359/114/21 357/109/20
f 362/182/22 361/119/22 359/114/21
f 364/183/23 363/106/25 361/119/22
f 366/184/24 365/88/24 363/106/25
f 368/132/26 367/19/26 365/88/24
f 370/185/27 369/90/29 367/19/26
f 372/186/28 371/81/28 369/90/29
f 374/187/5 373/122/5 371/81/28
f 376/133/5 375/124/5 373/122/5
f 378/188/3 377/121/3 375/124/5
f 380/189/30 379/75/30 377/121/3
f 382/190/4 381/91/4 379/75/30
f 352/134/17 351/8/17 381/91/4
f 386/191/6 385/24/6 383/43/6
f 388/192/6 387/41/6 385/24/6
f 390/132/5 389/19/5 387/41/6
f 392/193/3 391/60/3 389/19/5
f 394/194/4 393/6/4 391/60/3
f 384/134/6 383/8/6 393/6/4
f 398/180/5 397/98/5 395/43/6
f 400/130/5 399/114/5 397/98/5
f 402/183/6 401/106/6 399/114/5
f 404/132/6 403/19/6 401/106/6
f 406/186/5 405/81/5 403/19/6
f 408/133/3 407/124/3 405/81/5
f 410/189/4 409/75/4 407/124/3
f 396/134/6 395/8/6 409/75/4
f 414/130/6 413/114/6 411/43/5
f 416/132/4 415/19/4 413/114/6
f 418/133/3 417/124/3 415/19/4
f 412/134/5 411/8/5 417/124/3
f 422/195/31 421/197/31 419/43/32
f 424/196/33 423/199/33 421/197/31
f 426/198/34 425/201/34 423/199/33
f 428/200/35 427/202/37 425/201/34
f 430/130/36 429/114/36 427/202/37
f 432/203/38 431/205/38 429/114/36
f 434/204/39 433/207/41 431/205/38
f 436/206/40 435/209/40 433/207/41
f 438/208/42 437/210/44 435/209/40
f 440/132/43 439/19/43 437/210/44
f 442/211/45 441/213/45 439/19/43
f 444/212/46 443/215/46 441/213/45
f 446/214/47 445/217/47 443/215/46
f 448/216/48 447/218/48 445/217/47
f 450/133/49 449/124/49 447/218/48
f 452/219/50 451/221/50 449/124/49
f 454/220/51 453/223/51 451/221/50
f 456/222/52 455/225/52 453/223/51
f 458/224/53 457/226/54 455/225/52
f 420/134/32 419/8/32 457/226/54
f 462/227/55 461/229/58 459/43/56
f 464/228/57 463/231/57 461/229/58
f 466/230/59 465/233/59 463/231/57
f 468/232/60 467/235/62 465/233/59
f 470/234/61 469/237/61 467/235/62
f 472/236/63 471/238/63 469/237/61
f 460/134/56 459/8/56 471/238/63
f 476/239/3 475/241/3 473/43/5
f 478/240/64 477/243/64 475/241/3
f 480/242/65 479/244/65 477/243/64
f 482/227/66 481/229/68 479/244/65
f 484/245/67 483/247/67 481/229/68
f 486/246/69 485/248/69 483/247/67
f 488/130/70 487/114/72 485/248/69
f 490/228/71 489/231/71 487/114/72
f 492/249/73 491/251/73 489/231/71
f 494/250/74 493/253/74 491/251/73
f 496/252/75 495/254/75 493/253/74
f 498/230/76 497/233/76 495/254/75
f 500/255/77 499/256/77 497/233/76
f 502/132/78 501/19/78 499/256/77
f 504/257/79 503/258/79 501/19/78
f 506/232/80 505/235/80 503/258/79
f 508/259/81 507/261/81 505/235/80
f 510/260/82 509/263/82 507/261/81
f 512/262/83 511/264/83 509/263/82
f 514/234/84 513/237/84 511/264/83
f 516/133/85 515/124/85 513/237/84
f 518/265/86 517/267/86 515/124/85
f 520/266/87 519/268/87 517/267/86
f 522/236/88 521/238/88 519/268/87
f 524/269/89 523/271/89 521/238/88
f 526/270/90 525/273/90 523/271/89
f 528/272/91 527/274/92 525/273/90
f 474/134/5 473/8/5 527/274/92
