# Blender 4.1.1
# www.blender.org
mtllib End.mtl
o テキスト
v -0.878874 0.766000 -0.040000
v -0.937874 0.723000 -0.040000
v -0.776374 0.577125 -0.040000
v -0.587874 0.453000 -0.040000
v -0.587874 0.017000 -0.040000
v -0.576374 -0.039750 -0.040000
v -0.534874 -0.068000 -0.040000
v -0.454999 -0.078125 -0.040000
v -0.327874 -0.080000 -0.040000
v -0.315874 -0.042000 -0.040000
v -0.297874 -0.004000 -0.040000
v -0.411874 -0.006375 -0.040000
v -0.480874 -0.005000 -0.040000
v -0.503124 0.000125 -0.040000
v -0.508874 0.018000 -0.040000
v -0.508874 0.491000 -0.040000
v -0.657249 0.580875 -0.040000
v -0.789874 0.688000 -0.040000
v -0.141874 0.688000 -0.040000
v -0.141874 0.762000 -0.040000
v -0.861874 0.762000 -0.040000
v 0.576126 0.128125 -0.040000
v 0.551126 0.040000 -0.040000
v 0.607126 0.021000 -0.040000
v 0.630626 0.110125 -0.040000
v 0.663126 0.206000 -0.040000
v 0.610126 0.223000 -0.040000
v 0.231626 0.258250 -0.040000
v 0.139126 0.200000 -0.040000
v 0.185126 0.148000 -0.040000
v 0.277251 0.208625 -0.040000
v 0.388126 0.264000 -0.040000
v 0.342126 0.312000 -0.040000
v 0.334251 0.582875 -0.040000
v 0.273126 0.511000 -0.040000
v 0.207376 0.585875 -0.040000
v 0.155126 0.669000 -0.040000
v 0.378126 0.669000 -0.040000
v 0.384126 0.660000 -0.040000
v 0.315126 0.782875 -0.040000
v 0.339126 0.736000 -0.040000
v 0.116126 0.736000 -0.040000
v 0.103126 0.739000 -0.040000
v 0.057126 0.712000 -0.040000
v 0.128876 0.577750 -0.040000
v 0.223126 0.463000 -0.040000
v 0.110876 0.379375 -0.040000
v -0.011874 0.319000 -0.040000
v 0.015376 0.290750 -0.040000
v 0.038126 0.258000 -0.040000
v 0.160501 0.324875 -0.040000
v 0.273126 0.415000 -0.040000
v 0.388376 0.329875 -0.040000
v 0.511126 0.265000 -0.040000
v 0.532376 0.296750 -0.040000
v 0.558126 0.324000 -0.040000
v 0.435626 0.384375 -0.040000
v 0.322126 0.465000 -0.040000
v 0.377376 0.532250 -0.040000
v 0.425126 0.604000 -0.040000
v 0.469626 0.551625 -0.040000
v 0.520126 0.503000 -0.040000
v 0.544251 0.528375 -0.040000
v 0.572126 0.550000 -0.040000
v 0.445376 0.692750 -0.040000
v 0.368126 0.840000 -0.040000
v 0.294126 0.829000 -0.040000
v 0.879876 0.331375 -0.040000
v 0.839126 0.376000 -0.040000
v 0.804876 0.419125 -0.040000
v 0.754126 0.490000 -0.040000
v 0.859626 0.475375 -0.040000
v 0.896126 0.466000 -0.040000
v 0.906126 0.498500 -0.040000
v 0.919126 0.534000 -0.040000
v 0.892751 0.551500 -0.040000
v 0.864126 0.590000 -0.040000
v 0.804876 0.686500 -0.040000
v 0.732126 0.843000 -0.040000
v 0.663126 0.814000 -0.040000
v 0.736751 0.671875 -0.040000
v 0.820126 0.544000 -0.040000
v 0.713126 0.553000 -0.040000
v 0.673251 0.619875 -0.040000
v 0.637126 0.689000 -0.040000
v 0.572126 0.651000 -0.040000
v 0.680501 0.479000 -0.040000
v 0.800126 0.325000 -0.040000
v 0.649126 0.346000 -0.040000
v 0.665251 0.396500 -0.040000
v 0.682126 0.444000 -0.040000
v 0.624126 0.459000 -0.040000
v 0.585751 0.348875 -0.040000
v 0.560126 0.250000 -0.040000
v 0.621126 0.231000 -0.040000
v 0.626501 0.258500 -0.040000
v 0.634126 0.289000 -0.040000
v 0.832501 0.256250 -0.040000
v 0.889126 0.240000 -0.040000
v 0.899626 0.273500 -0.040000
v 0.913126 0.310000 -0.040000
v 0.242376 0.056250 -0.040000
v 0.064126 -0.026000 -0.040000
v 0.108126 -0.085000 -0.040000
v 0.285751 0.000500 -0.040000
v 0.497126 0.074000 -0.040000
v 0.452126 0.128000 -0.040000
v 0.691251 0.086750 -0.040000
v 0.681126 -0.018000 -0.040000
v 0.739126 -0.030000 -0.040000
v 0.748751 0.075750 -0.040000
v 0.765126 0.189000 -0.040000
v 0.708126 0.199000 -0.040000
v 0.830876 0.055125 -0.040000
v 0.860126 -0.057000 -0.040000
v 0.888501 -0.045250 -0.040000
v 0.919126 -0.035000 -0.040000
v 0.889876 0.073500 -0.040000
v 0.871126 0.197000 -0.040000
v 0.809126 0.186000 -0.040000
v -0.878874 0.766000 0.040000
v -0.937874 0.723000 0.040000
v -0.776374 0.577125 0.040000
v -0.587874 0.453000 0.040000
v -0.587874 0.017000 0.040000
v -0.576374 -0.039750 0.040000
v -0.534874 -0.068000 0.040000
v -0.454999 -0.078125 0.040000
v -0.327874 -0.080000 0.040000
v -0.315874 -0.042000 0.040000
v -0.297874 -0.004000 0.040000
v -0.411874 -0.006375 0.040000
v -0.480874 -0.005000 0.040000
v -0.503124 0.000125 0.040000
v -0.508874 0.018000 0.040000
v -0.508874 0.491000 0.040000
v -0.657249 0.580875 0.040000
v -0.789874 0.688000 0.040000
v -0.141874 0.688000 0.040000
v -0.141874 0.762000 0.040000
v -0.861874 0.762000 0.040000
v 0.576126 0.128125 0.040000
v 0.551126 0.040000 0.040000
v 0.607126 0.021000 0.040000
v 0.630626 0.110125 0.040000
v 0.663126 0.206000 0.040000
v 0.610126 0.223000 0.040000
v 0.231626 0.258250 0.040000
v 0.139126 0.200000 0.040000
v 0.185126 0.148000 0.040000
v 0.277251 0.208625 0.040000
v 0.388126 0.264000 0.040000
v 0.342126 0.312000 0.040000
v 0.334251 0.582875 0.040000
v 0.273126 0.511000 0.040000
v 0.207376 0.585875 0.040000
v 0.155126 0.669000 0.040000
v 0.378126 0.669000 0.040000
v 0.384126 0.660000 0.040000
v 0.315126 0.782875 0.040000
v 0.339126 0.736000 0.040000
v 0.116126 0.736000 0.040000
v 0.103126 0.739000 0.040000
v 0.057126 0.712000 0.040000
v 0.128876 0.577750 0.040000
v 0.223126 0.463000 0.040000
v 0.110876 0.379375 0.040000
v -0.011874 0.319000 0.040000
v 0.015376 0.290750 0.040000
v 0.038126 0.258000 0.040000
v 0.160501 0.324875 0.040000
v 0.273126 0.415000 0.040000
v 0.388376 0.329875 0.040000
v 0.511126 0.265000 0.040000
v 0.532376 0.296750 0.040000
v 0.558126 0.324000 0.040000
v 0.435626 0.384375 0.040000
v 0.322126 0.465000 0.040000
v 0.377376 0.532250 0.040000
v 0.425126 0.604000 0.040000
v 0.469626 0.551625 0.040000
v 0.520126 0.503000 0.040000
v 0.544251 0.528375 0.040000
v 0.572126 0.550000 0.040000
v 0.445376 0.692750 0.040000
v 0.368126 0.840000 0.040000
v 0.294126 0.829000 0.040000
v 0.879876 0.331375 0.040000
v 0.839126 0.376000 0.040000
v 0.804876 0.419125 0.040000
v 0.754126 0.490000 0.040000
v 0.859626 0.475375 0.040000
v 0.896126 0.466000 0.040000
v 0.906126 0.498500 0.040000
v 0.919126 0.534000 0.040000
v 0.892751 0.551500 0.040000
v 0.864126 0.590000 0.040000
v 0.804876 0.686500 0.040000
v 0.732126 0.843000 0.040000
v 0.663126 0.814000 0.040000
v 0.736751 0.671875 0.040000
v 0.820126 0.544000 0.040000
v 0.713126 0.553000 0.040000
v 0.673251 0.619875 0.040000
v 0.637126 0.689000 0.040000
v 0.572126 0.651000 0.040000
v 0.680501 0.479000 0.040000
v 0.800126 0.325000 0.040000
v 0.649126 0.346000 0.040000
v 0.665251 0.396500 0.040000
v 0.682126 0.444000 0.040000
v 0.624126 0.459000 0.040000
v 0.585751 0.348875 0.040000
v 0.560126 0.250000 0.040000
v 0.621126 0.231000 0.040000
v 0.626501 0.258500 0.040000
v 0.634126 0.289000 0.040000
v 0.832501 0.256250 0.040000
v 0.889126 0.240000 0.040000
v 0.899626 0.273500 0.040000
v 0.913126 0.310000 0.040000
v 0.242376 0.056250 0.040000
v 0.064126 -0.026000 0.040000
v 0.108126 -0.085000 0.040000
v 0.285751 0.000500 0.040000
v 0.497126 0.074000 0.040000
v 0.452126 0.128000 0.040000
v 0.691251 0.086750 0.040000
v 0.681126 -0.018000 0.040000
v 0.739126 -0.030000 0.040000
v 0.748751 0.075750 0.040000
v 0.765126 0.189000 0.040000
v 0.708126 0.199000 0.040000
v 0.830876 0.055125 0.040000
v 0.860126 -0.057000 0.040000
v 0.888501 -0.045250 0.040000
v 0.919126 -0.035000 0.040000
v 0.889876 0.073500 0.040000
v 0.871126 0.197000 0.040000
v 0.809126 0.186000 0.040000
v 0.231626 0.258250 0.040000
v 0.231626 0.258250 -0.040000
v 0.139126 0.200000 0.040000
v 0.139126 0.200000 -0.040000
v 0.185126 0.148000 0.040000
v 0.185126 0.148000 -0.040000
v 0.277251 0.208625 0.040000
v 0.277251 0.208625 -0.040000
v 0.388126 0.264000 0.040000
v 0.388126 0.264000 -0.040000
v 0.342126 0.312000 0.040000
v 0.342126 0.312000 -0.040000
v 0.242376 0.056250 0.040000
v 0.242376 0.056250 -0.040000
v 0.064126 -0.026000 0.040000
v 0.064126 -0.026000 -0.040000
v 0.108126 -0.085000 0.040000
v 0.108126 -0.085000 -0.040000
v 0.285751 0.000500 0.040000
v 0.285751 0.000500 -0.040000
v 0.497126 0.074000 0.040000
v 0.497126 0.074000 -0.040000
v 0.452126 0.128000 0.040000
v 0.452126 0.128000 -0.040000
v 0.691251 0.086750 0.040000
v 0.691251 0.086750 -0.040000
v 0.681126 -0.018000 0.040000
v 0.681126 -0.018000 -0.040000
v 0.739126 -0.030000 0.040000
v 0.739126 -0.030000 -0.040000
v 0.748751 0.075750 0.040000
v 0.748751 0.075750 -0.040000
v 0.765126 0.189000 0.040000
v 0.765126 0.189000 -0.040000
v 0.708126 0.199000 0.040000
v 0.708126 0.199000 -0.040000
v 0.830876 0.055125 0.040000
v 0.830876 0.055125 -0.040000
v 0.860126 -0.057000 0.040000
v 0.860126 -0.057000 -0.040000
v 0.888501 -0.045250 0.040000
v 0.888501 -0.045250 -0.040000
v 0.919126 -0.035000 0.040000
v 0.919126 -0.035000 -0.040000
v 0.889876 0.073500 0.040000
v 0.889876 0.073500 -0.040000
v 0.871126 0.197000 0.040000
v 0.871126 0.197000 -0.040000
v 0.809126 0.186000 0.040000
v 0.809126 0.186000 -0.040000
v 0.576126 0.128125 0.040000
v 0.576126 0.128125 -0.040000
v 0.551126 0.040000 0.040000
v 0.551126 0.040000 -0.040000
v 0.607126 0.021000 0.040000
v 0.607126 0.021000 -0.040000
v 0.630626 0.110125 0.040000
v 0.630626 0.110125 -0.040000
v 0.663126 0.206000 0.040000
v 0.663126 0.206000 -0.040000
v 0.610126 0.223000 0.040000
v 0.610126 0.223000 -0.040000
v 0.334251 0.582875 0.040000
v 0.334251 0.582875 -0.040000
v 0.273126 0.511000 0.040000
v 0.273126 0.511000 -0.040000
v 0.207376 0.585875 0.040000
v 0.207376 0.585875 -0.040000
v 0.155126 0.669000 0.040000
v 0.155126 0.669000 -0.040000
v 0.378126 0.669000 0.040000
v 0.378126 0.669000 -0.040000
v 0.384126 0.660000 0.040000
v 0.384126 0.660000 -0.040000
v 0.315126 0.782875 0.040000
v 0.315126 0.782875 -0.040000
v 0.339126 0.736000 0.040000
v 0.339126 0.736000 -0.040000
v 0.116126 0.736000 0.040000
v 0.116126 0.736000 -0.040000
v 0.103126 0.739000 0.040000
v 0.103126 0.739000 -0.040000
v 0.057126 0.712000 0.040000
v 0.057126 0.712000 -0.040000
v 0.128876 0.577750 0.040000
v 0.128876 0.577750 -0.040000
v 0.223126 0.463000 0.040000
v 0.223126 0.463000 -0.040000
v 0.110876 0.379375 0.040000
v 0.110876 0.379375 -0.040000
v -0.011874 0.319000 0.040000
v -0.011874 0.319000 -0.040000
v 0.015376 0.290750 0.040000
v 0.015376 0.290750 -0.040000
v 0.038126 0.258000 0.040000
v 0.038126 0.258000 -0.040000
v 0.160501 0.324875 0.040000
v 0.160501 0.324875 -0.040000
v 0.273126 0.415000 0.040000
v 0.273126 0.415000 -0.040000
v 0.388376 0.329875 0.040000
v 0.388376 0.329875 -0.040000
v 0.511126 0.265000 0.040000
v 0.511126 0.265000 -0.040000
v 0.532376 0.296750 0.040000
v 0.532376 0.296750 -0.040000
v 0.558126 0.324000 0.040000
v 0.558126 0.324000 -0.040000
v 0.435626 0.384375 0.040000
v 0.435626 0.384375 -0.040000
v 0.322126 0.465000 0.040000
v 0.322126 0.465000 -0.040000
v 0.377376 0.532250 0.040000
v 0.377376 0.532250 -0.040000
v 0.425126 0.604000 0.040000
v 0.425126 0.604000 -0.040000
v 0.469626 0.551625 0.040000
v 0.469626 0.551625 -0.040000
v 0.520126 0.503000 0.040000
v 0.520126 0.503000 -0.040000
v 0.544251 0.528375 0.040000
v 0.544251 0.528375 -0.040000
v 0.572126 0.550000 0.040000
v 0.572126 0.550000 -0.040000
v 0.445376 0.692750 0.040000
v 0.445376 0.692750 -0.040000
v 0.368126 0.840000 0.040000
v 0.368126 0.840000 -0.040000
v 0.294126 0.829000 0.040000
v 0.294126 0.829000 -0.040000
v 0.879876 0.331375 0.040000
v 0.879876 0.331375 -0.040000
v 0.839126 0.376000 0.040000
v 0.839126 0.376000 -0.040000
v 0.804876 0.419125 0.040000
v 0.804876 0.419125 -0.040000
v 0.754126 0.490000 0.040000
v 0.754126 0.490000 -0.040000
v 0.859626 0.475375 0.040000
v 0.859626 0.475375 -0.040000
v 0.896126 0.466000 0.040000
v 0.896126 0.466000 -0.040000
v 0.906126 0.498500 0.040000
v 0.906126 0.498500 -0.040000
v 0.919126 0.534000 0.040000
v 0.919126 0.534000 -0.040000
v 0.892751 0.551500 0.040000
v 0.892751 0.551500 -0.040000
v 0.864126 0.590000 0.040000
v 0.864126 0.590000 -0.040000
v 0.804876 0.686500 0.040000
v 0.804876 0.686500 -0.040000
v 0.732126 0.843000 0.040000
v 0.732126 0.843000 -0.040000
v 0.663126 0.814000 0.040000
v 0.663126 0.814000 -0.040000
v 0.736751 0.671875 0.040000
v 0.736751 0.671875 -0.040000
v 0.820126 0.544000 0.040000
v 0.820126 0.544000 -0.040000
v 0.713126 0.553000 0.040000
v 0.713126 0.553000 -0.040000
v 0.673251 0.619875 0.040000
v 0.673251 0.619875 -0.040000
v 0.637126 0.689000 0.040000
v 0.637126 0.689000 -0.040000
v 0.572126 0.651000 0.040000
v 0.572126 0.651000 -0.040000
v 0.680501 0.479000 0.040000
v 0.680501 0.479000 -0.040000
v 0.800126 0.325000 0.040000
v 0.800126 0.325000 -0.040000
v 0.649126 0.346000 0.040000
v 0.649126 0.346000 -0.040000
v 0.665251 0.396500 0.040000
v 0.665251 0.396500 -0.040000
v 0.682126 0.444000 0.040000
v 0.682126 0.444000 -0.040000
v 0.624126 0.459000 0.040000
v 0.624126 0.459000 -0.040000
v 0.585751 0.348875 0.040000
v 0.585751 0.348875 -0.040000
v 0.560126 0.250000 0.040000
v 0.560126 0.250000 -0.040000
v 0.621126 0.231000 0.040000
v 0.621126 0.231000 -0.040000
v 0.626501 0.258500 0.040000
v 0.626501 0.258500 -0.040000
v 0.634126 0.289000 0.040000
v 0.634126 0.289000 -0.040000
v 0.832501 0.256250 0.040000
v 0.832501 0.256250 -0.040000
v 0.889126 0.240000 0.040000
v 0.889126 0.240000 -0.040000
v 0.899626 0.273500 0.040000
v 0.899626 0.273500 -0.040000
v 0.913126 0.310000 0.040000
v 0.913126 0.310000 -0.040000
v -0.878874 0.766000 0.040000
v -0.878874 0.766000 -0.040000
v -0.937874 0.723000 0.040000
v -0.937874 0.723000 -0.040000
v -0.776374 0.577125 0.040000
v -0.776374 0.577125 -0.040000
v -0.587874 0.453000 0.040000
v -0.587874 0.453000 -0.040000
v -0.587874 0.017000 0.040000
v -0.587874 0.017000 -0.040000
v -0.576374 -0.039750 0.040000
v -0.576374 -0.039750 -0.040000
v -0.534874 -0.068000 0.040000
v -0.534874 -0.068000 -0.040000
v -0.454999 -0.078125 0.040000
v -0.454999 -0.078125 -0.040000
v -0.327874 -0.080000 0.040000
v -0.327874 -0.080000 -0.040000
v -0.315874 -0.042000 0.040000
v -0.315874 -0.042000 -0.040000
v -0.297874 -0.004000 0.040000
v -0.297874 -0.004000 -0.040000
v -0.411874 -0.006375 0.040000
v -0.411874 -0.006375 -0.040000
v -0.480874 -0.005000 0.040000
v -0.480874 -0.005000 -0.040000
v -0.503124 0.000125 0.040000
v -0.503124 0.000125 -0.040000
v -0.508874 0.018000 0.040000
v -0.508874 0.018000 -0.040000
v -0.508874 0.491000 0.040000
v -0.508874 0.491000 -0.040000
v -0.657249 0.580875 0.040000
v -0.657249 0.580875 -0.040000
v -0.789874 0.688000 0.040000
v -0.789874 0.688000 -0.040000
v -0.141874 0.688000 0.040000
v -0.141874 0.688000 -0.040000
v -0.141874 0.762000 0.040000
v -0.141874 0.762000 -0.040000
v -0.861874 0.762000 0.040000
v -0.861874 0.762000 -0.040000
vn -0.0000 -0.0000 -1.0000
vn -0.0000 -0.0000 1.0000
vn -0.9899 0.1418 -0.0000
vn -0.4859 0.8740 -0.0000
vn -0.1319 -0.9913 -0.0000
vn 0.4991 -0.8665 -0.0000
vn 0.9853 -0.1709 -0.0000
vn 0.1761 0.9844 -0.0000
vn 0.1760 0.9844 -0.0000
vn -0.9692 0.2463 -0.0000
vn -0.3718 0.9283 -0.0000
vn -0.2384 -0.9712 -0.0000
vn 0.3817 -0.9243 -0.0000
vn 0.9636 -0.2674 -0.0000
vn 0.2699 0.9629 -0.0000
vn -0.8050 -0.5933 -0.0000
vn -0.9925 0.1225 -0.0000
vn 0.5956 -0.8033 -0.0000
vn -0.8049 -0.5934 -0.0000
vn 0.9931 -0.1169 -0.0000
vn 0.8099 0.5865 -0.0000
vn -0.5842 0.8116 -0.0000
vn -0.5843 0.8116 -0.0000
vn -0.4453 -0.8954 -0.0000
vn -0.9780 -0.2084 -0.0000
vn 0.3502 -0.9367 -0.0000
vn 0.8813 -0.4726 -0.0000
vn 0.9787 0.2055 -0.0000
vn 0.5829 0.8126 -0.0000
vn -0.8166 0.5772 -0.0000
vn -0.8853 -0.4650 -0.0000
vn -0.9523 0.3053 -0.0000
vn 0.4732 -0.8810 -0.0000
vn 0.9576 -0.2882 -0.0000
vn 0.4732 -0.8809 -0.0000
vn 0.8930 0.4500 -0.0000
vn -0.4423 0.8969 -0.0000
vn -0.0080 1.0000 -0.0000
vn -0.8025 0.5967 -0.0000
vn 0.8016 0.5979 -0.0000
vn -0.0079 1.0000 -0.0000
vn 0.8753 -0.4836 -0.0000
vn -0.4719 -0.8817 -0.0000
vn -1.0000 -0.0070 -0.0000
vn -0.8532 0.5217 -0.0000
vn -0.9004 -0.4352 -0.0000
vn 0.1132 0.9936 -0.0000
vn -0.8532 0.5216 -0.0000
vn -0.1514 0.9885 -0.0000
vn -0.9625 0.2712 -0.0000
vn -0.8314 -0.5557 -0.0000
vn -0.9926 0.1212 -0.0000
vn -0.5216 0.8532 -0.0000
vn -0.9926 0.1211 -0.0000
vn -0.9850 0.1723 -0.0000
vn -0.7730 -0.6344 -0.0000
vn -0.2297 -0.9733 -0.0000
vn 0.5543 -0.8323 -0.0000
vn 0.0193 -0.9998 -0.0000
vn -0.5322 -0.8466 -0.0000
vn 0.0194 -0.9998 -0.0000
vn 0.2449 -0.9696 -0.0000
vn 0.7817 -0.6237 -0.0000
vn 0.9842 0.1770 -0.0000
vn 0.5122 0.8588 -0.0000
vn 0.9842 0.1769 -0.0000
vn 0.9912 0.1323 -0.0000
vn 0.8036 -0.5952 -0.0000
vn 0.0585 -0.9983 -0.0000
vn -0.7288 -0.6848 -0.0000
vn 0.0221 -0.9998 -0.0000
vn 0.6708 -0.7417 -0.0000
vn 0.9957 -0.0923 -0.0000
vn 0.8227 0.5684 -0.0000
vn 0.4529 0.8916 -0.0000
vn 0.8227 0.5685 -0.0000
vn -0.8785 0.4777 -0.0000
vn 0.7612 0.6485 -0.0000
vn 0.6450 0.7642 -0.0000
vn 0.7983 0.6022 -0.0000
vn 0.8559 -0.5171 -0.0000
vn -0.1934 -0.9811 -0.0000
vn 0.8559 -0.5172 -0.0000
vn 0.4886 -0.8725 -0.0000
vn 0.9477 -0.3191 -0.0000
vn 0.4885 -0.8725 -0.0000
vn 0.9502 0.3117 -0.0000
vn 0.6879 0.7258 -0.0000
vn 0.8282 0.5605 -0.0000
vn 0.8810 0.4732 -0.0000
vn 0.3606 0.9327 -0.0000
vn -0.9402 0.3406 -0.0000
vn -0.8639 -0.5037 -0.0000
vn -0.9402 0.3405 -0.0000
vn -0.8585 0.5128 -0.0000
vn 0.5299 0.8480 -0.0000
vn 0.8729 0.4878 -0.0000
vn 0.2765 0.9610 -0.0000
vn -0.9714 0.2375 -0.0000
vn 0.2764 0.9610 -0.0000
vn -0.8189 -0.5740 -0.0000
vn -0.8657 0.5006 -0.0000
vn 0.8463 0.5327 -0.0000
vn 0.9476 -0.3195 -0.0000
vn 0.8832 0.4690 -0.0000
vn -0.4717 0.8818 -0.0000
vn -0.9570 0.2902 -0.0000
vn -0.8739 -0.4861 -0.0000
vn 0.5123 -0.8588 -0.0000
vn 0.9761 -0.2173 -0.0000
vn 0.5489 -0.8359 -0.0000
vn -0.2197 -0.9756 -0.0000
vn 0.5490 -0.8358 -0.0000
vn 0.4740 -0.8805 -0.0000
vn 0.9464 -0.3231 -0.0000
vn 0.9484 0.3170 -0.0000
vn -0.9986 0.0524 -0.0000
vn -0.1981 0.9802 -0.0000
vn -0.1980 0.9802 -0.0000
vn -0.6119 -0.7909 -0.0000
vn -0.8803 -0.4743 -0.0000
vn -0.9950 -0.0998 -0.0000
vn -0.8803 -0.4744 -0.0000
vn -0.8329 -0.5535 -0.0000
vn -0.3540 -0.9352 -0.0000
vn -0.0704 -0.9975 -0.0000
vn 0.5852 -0.8109 -0.0000
vn 0.9308 -0.3655 -0.0000
vn 0.8394 0.5435 -0.0000
vn -0.0005 1.0000 -0.0000
vn 0.1228 0.9924 -0.0000
vn 0.6765 0.7364 -0.0000
vn 0.9879 0.1550 -0.0000
vn 0.6765 0.7365 -0.0000
vn 0.8712 0.4909 -0.0000
vn 0.5745 0.8185 -0.0000
vn 0.9428 -0.3333 -0.0000
vn 0.7071 -0.7071 -0.0000
vn 0.9428 -0.3332 -0.0000
vn 0.7071 0.7071 -0.0000
vn 0.1153 0.9933 -0.0000
vt 1.000000 0.000000
vt 0.050000 0.000000
vt 0.000000 0.000000
vt 0.900000 0.000000
vt 0.950000 0.000000
vt 0.850000 0.000000
vt 0.100000 0.000000
vt 0.800000 0.000000
vt 0.750000 0.000000
vt 0.150000 0.000000
vt 0.700000 0.000000
vt 0.200000 0.000000
vt 0.650000 0.000000
vt 0.250000 0.000000
vt 0.600000 0.000000
vt 0.450000 0.000000
vt 0.550000 0.000000
vt 0.500000 0.000000
vt 0.300000 0.000000
vt 0.400000 0.000000
vt 0.350000 0.000000
vt 0.571429 0.000000
vt 0.591837 0.000000
vt 0.581633 0.000000
vt 0.438776 0.000000
vt 0.459184 0.000000
vt 0.448980 0.000000
vt 0.183673 0.000000
vt 0.602041 0.000000
vt 0.193878 0.000000
vt 0.204082 0.000000
vt 0.224490 0.000000
vt 0.214286 0.000000
vt 0.153061 0.000000
vt 0.234694 0.000000
vt 0.428571 0.000000
vt 0.163265 0.000000
vt 0.632653 0.000000
vt 0.653061 0.000000
vt 0.642857 0.000000
vt 0.561224 0.000000
vt 0.612245 0.000000
vt 0.173469 0.000000
vt 0.142857 0.000000
vt 0.387755 0.000000
vt 0.122449 0.000000
vt 0.663265 0.000000
vt 0.622449 0.000000
vt 0.397959 0.000000
vt 0.377551 0.000000
vt 0.551020 0.000000
vt 0.132653 0.000000
vt 0.244898 0.000000
vt 0.418367 0.000000
vt 0.408163 0.000000
vt 0.540816 0.000000
vt 0.530612 0.000000
vt 0.367347 0.000000
vt 0.520408 0.000000
vt 0.510204 0.000000
vt 0.489796 0.000000
vt 0.673469 0.000000
vt 0.357143 0.000000
vt 0.306122 0.000000
vt 0.255102 0.000000
vt 0.704082 0.000000
vt 0.724490 0.000000
vt 0.714286 0.000000
vt 0.693878 0.000000
vt 0.479592 0.000000
vt 0.316327 0.000000
vt 0.295918 0.000000
vt 0.683673 0.000000
vt 0.346939 0.000000
vt 0.265306 0.000000
vt 0.469388 0.000000
vt 0.734694 0.000000
vt 0.765306 0.000000
vt 0.806122 0.000000
vt 0.336735 0.000000
vt 0.326531 0.000000
vt 0.285714 0.000000
vt 0.275510 0.000000
vt 0.102041 0.000000
vt 0.061224 0.000000
vt 0.112245 0.000000
vt 0.795918 0.000000
vt 0.775510 0.000000
vt 0.755102 0.000000
vt 0.785714 0.000000
vt 0.091837 0.000000
vt 0.744898 0.000000
vt 0.071429 0.000000
vt 0.081633 0.000000
vt 0.857143 0.000000
vt 0.816327 0.000000
vt 0.867347 0.000000
vt 0.846939 0.000000
vt 0.826531 0.000000
vt 0.836735 0.000000
vt 0.918367 0.000000
vt 0.877551 0.000000
vt 0.928571 0.000000
vt 0.908163 0.000000
vt 0.887755 0.000000
vt 0.897959 0.000000
vt 0.979592 0.000000
vt 0.989796 0.000000
vt 0.938776 0.000000
vt 0.969388 0.000000
vt 0.959184 0.000000
vt 0.948980 0.000000
vt 0.040816 0.000000
vt 0.051020 0.000000
vt 0.030612 0.000000
vt 0.010204 0.000000
vt 0.020408 0.000000
vt 0.166667 1.000000
vt 0.000000 1.000000
vt 0.333333 1.000000
vt 0.166667 0.000000
vt 0.500000 1.000000
vt 0.333333 0.000000
vt 0.666667 1.000000
vt 0.833333 1.000000
vt 0.666667 0.000000
vt 1.000000 1.000000
vt 0.833333 0.000000
vt 0.142857 1.000000
vt 0.285714 1.000000
vt 0.428571 1.000000
vt 0.571429 1.000000
vt 0.714286 1.000000
vt 0.857143 1.000000
vt 0.035714 1.000000
vt 0.071429 1.000000
vt 0.035714 0.000000
vt 0.107143 1.000000
vt 0.107143 0.000000
vt 0.178571 1.000000
vt 0.214286 1.000000
vt 0.178571 0.000000
vt 0.250000 1.000000
vt 0.321429 1.000000
vt 0.357143 1.000000
vt 0.321429 0.000000
vt 0.392857 1.000000
vt 0.392857 0.000000
vt 0.464286 1.000000
vt 0.464286 0.000000
vt 0.535714 1.000000
vt 0.535714 0.000000
vt 0.607143 1.000000
vt 0.642857 1.000000
vt 0.607143 0.000000
vt 0.678571 1.000000
vt 0.678571 0.000000
vt 0.750000 1.000000
vt 0.785714 1.000000
vt 0.821429 1.000000
vt 0.821429 0.000000
vt 0.892857 1.000000
vt 0.928571 1.000000
vt 0.892857 0.000000
vt 0.964286 1.000000
vt 0.964286 0.000000
vt 0.029412 1.000000
vt 0.058824 1.000000
vt 0.029412 0.000000
vt 0.088235 1.000000
vt 0.058824 0.000000
vt 0.117647 1.000000
vt 0.088235 0.000000
vt 0.147059 1.000000
vt 0.117647 0.000000
vt 0.176471 1.000000
vt 0.147059 0.000000
vt 0.205882 1.000000
vt 0.176471 0.000000
vt 0.235294 1.000000
vt 0.205882 0.000000
vt 0.264706 1.000000
vt 0.235294 0.000000
vt 0.294118 1.000000
vt 0.264706 0.000000
vt 0.323529 1.000000
vt 0.294118 0.000000
vt 0.352941 1.000000
vt 0.323529 0.000000
vt 0.382353 1.000000
vt 0.352941 0.000000
vt 0.411765 1.000000
vt 0.382353 0.000000
vt 0.441176 1.000000
vt 0.411765 0.000000
vt 0.470588 1.000000
vt 0.441176 0.000000
vt 0.470588 0.000000
vt 0.529412 1.000000
vt 0.558824 1.000000
vt 0.529412 0.000000
vt 0.588235 1.000000
vt 0.558824 0.000000
vt 0.617647 1.000000
vt 0.588235 0.000000
vt 0.647059 1.000000
vt 0.617647 0.000000
vt 0.676471 1.000000
vt 0.647059 0.000000
vt 0.705882 1.000000
vt 0.676471 0.000000
vt 0.735294 1.000000
vt 0.705882 0.000000
vt 0.764706 1.000000
vt 0.735294 0.000000
vt 0.794118 1.000000
vt 0.764706 0.000000
vt 0.823529 1.000000
vt 0.794118 0.000000
vt 0.852941 1.000000
vt 0.823529 0.000000
vt 0.882353 1.000000
vt 0.852941 0.000000
vt 0.911765 1.000000
vt 0.882353 0.000000
vt 0.941176 1.000000
vt 0.911765 0.000000
vt 0.970588 1.000000
vt 0.941176 0.000000
vt 0.970588 0.000000
vt 0.047619 1.000000
vt 0.095238 1.000000
vt 0.047619 0.000000
vt 0.095238 0.000000
vt 0.190476 1.000000
vt 0.238095 1.000000
vt 0.190476 0.000000
vt 0.238095 0.000000
vt 0.380952 1.000000
vt 0.380952 0.000000
vt 0.476190 1.000000
vt 0.523810 1.000000
vt 0.476190 0.000000
vt 0.523810 0.000000
vt 0.619048 1.000000
vt 0.619048 0.000000
vt 0.761905 1.000000
vt 0.809524 1.000000
vt 0.761905 0.000000
vt 0.809524 0.000000
vt 0.904762 1.000000
vt 0.952381 1.000000
vt 0.904762 0.000000
vt 0.952381 0.000000
s 0
usemtl マテリアル
f 21/1/1 2/2/1 1/3/1
f 19/4/1 21/1/1 20/5/1
f 19/4/1 2/2/1 21/1/1
f 19/4/1 18/6/1 2/2/1
f 18/6/1 3/7/1 2/2/1
f 17/8/1 3/7/1 18/6/1
f 16/9/1 3/7/1 17/8/1
f 16/9/1 4/10/1 3/7/1
f 15/11/1 4/10/1 16/9/1
f 15/11/1 5/12/1 4/10/1
f 14/13/1 5/12/1 15/11/1
f 14/13/1 6/14/1 5/12/1
f 13/15/1 6/14/1 14/13/1
f 10/16/1 12/17/1 11/18/1
f 12/17/1 6/14/1 13/15/1
f 10/16/1 6/14/1 12/17/1
f 10/16/1 7/19/1 6/14/1
f 9/20/1 7/19/1 10/16/1
f 9/20/1 8/21/1 7/19/1
f 78/22/1 80/23/1 79/24/1
f 65/25/1 67/26/1 66/27/1
f 65/25/1 40/28/1 67/26/1
f 78/22/1 81/29/1 80/23/1
f 65/25/1 41/30/1 40/28/1
f 42/31/1 44/32/1 43/33/1
f 65/25/1 42/31/1 41/30/1
f 65/25/1 44/32/1 42/31/1
f 65/25/1 37/34/1 44/32/1
f 37/34/1 45/35/1 44/32/1
f 64/36/1 38/37/1 65/25/1
f 38/37/1 37/34/1 65/25/1
f 84/38/1 86/39/1 85/40/1
f 77/41/1 81/29/1 78/22/1
f 77/41/1 82/42/1 81/29/1
f 64/36/1 39/43/1 38/37/1
f 36/44/1 45/35/1 37/34/1
f 64/36/1 60/45/1 39/43/1
f 60/45/1 34/46/1 39/43/1
f 84/38/1 87/47/1 86/39/1
f 83/48/1 87/47/1 84/38/1
f 64/36/1 61/49/1 60/45/1
f 59/50/1 34/46/1 60/45/1
f 76/51/1 82/42/1 77/41/1
f 35/52/1 45/35/1 36/44/1
f 59/50/1 35/52/1 34/46/1
f 35/52/1 46/53/1 45/35/1
f 82/42/1 87/47/1 83/48/1
f 64/36/1 63/54/1 61/49/1
f 63/54/1 62/55/1 61/49/1
f 75/56/1 82/42/1 76/51/1
f 75/56/1 87/47/1 82/42/1
f 74/57/1 71/18/1 75/56/1
f 71/18/1 87/47/1 75/56/1
f 58/58/1 35/52/1 59/50/1
f 58/58/1 46/53/1 35/52/1
f 73/59/1 72/60/1 74/57/1
f 72/60/1 71/18/1 74/57/1
f 70/61/1 87/47/1 71/18/1
f 70/61/1 88/62/1 87/47/1
f 57/63/1 46/53/1 58/58/1
f 57/63/1 52/64/1 46/53/1
f 52/64/1 47/65/1 46/53/1
f 91/66/1 93/67/1 92/68/1
f 90/69/1 93/67/1 91/66/1
f 69/70/1 88/62/1 70/61/1
f 57/63/1 53/71/1 52/64/1
f 51/72/1 47/65/1 52/64/1
f 89/73/1 93/67/1 90/69/1
f 56/74/1 53/71/1 57/63/1
f 51/72/1 48/75/1 47/65/1
f 68/76/1 88/62/1 69/70/1
f 89/73/1 94/77/1 93/67/1
f 88/62/1 97/78/1 89/73/1
f 97/78/1 94/77/1 89/73/1
f 101/79/1 88/62/1 68/76/1
f 56/74/1 55/80/1 53/71/1
f 55/80/1 54/81/1 53/71/1
f 101/79/1 97/78/1 88/62/1
f 50/82/1 49/83/1 51/72/1
f 49/83/1 48/75/1 51/72/1
f 32/84/1 28/85/1 33/86/1
f 100/87/1 97/78/1 101/79/1
f 100/87/1 98/88/1 97/78/1
f 96/89/1 94/77/1 97/78/1
f 99/90/1 98/88/1 100/87/1
f 31/91/1 28/85/1 32/84/1
f 95/92/1 94/77/1 96/89/1
f 31/91/1 29/93/1 28/85/1
f 30/94/1 29/93/1 31/91/1
f 106/95/1 102/96/1 107/97/1
f 105/98/1 102/96/1 106/95/1
f 105/98/1 103/99/1 102/96/1
f 104/100/1 103/99/1 105/98/1
f 112/101/1 108/102/1 113/103/1
f 111/104/1 108/102/1 112/101/1
f 111/104/1 109/105/1 108/102/1
f 110/106/1 109/105/1 111/104/1
f 118/107/1 120/1/1 119/108/1
f 118/107/1 114/109/1 120/1/1
f 117/110/1 114/109/1 118/107/1
f 117/110/1 116/111/1 114/109/1
f 116/111/1 115/112/1 114/109/1
f 26/113/1 22/3/1 27/114/1
f 25/115/1 22/3/1 26/113/1
f 25/115/1 23/116/1 22/3/1
f 24/117/1 23/116/1 25/115/1
f 141/1/2 121/3/2 122/2/2
f 139/4/2 140/5/2 141/1/2
f 139/4/2 141/1/2 122/2/2
f 139/4/2 122/2/2 138/6/2
f 138/6/2 122/2/2 123/7/2
f 137/8/2 138/6/2 123/7/2
f 136/9/2 137/8/2 123/7/2
f 136/9/2 123/7/2 124/10/2
f 135/11/2 136/9/2 124/10/2
f 135/11/2 124/10/2 125/12/2
f 134/13/2 135/11/2 125/12/2
f 134/13/2 125/12/2 126/14/2
f 133/15/2 134/13/2 126/14/2
f 130/16/2 131/18/2 132/17/2
f 132/17/2 133/15/2 126/14/2
f 130/16/2 132/17/2 126/14/2
f 130/16/2 126/14/2 127/19/2
f 129/20/2 130/16/2 127/19/2
f 129/20/2 127/19/2 128/21/2
f 198/22/2 199/24/2 200/23/2
f 185/25/2 186/27/2 187/26/2
f 185/25/2 187/26/2 160/28/2
f 198/22/2 200/23/2 201/29/2
f 185/25/2 160/28/2 161/30/2
f 162/31/2 163/33/2 164/32/2
f 185/25/2 161/30/2 162/31/2
f 185/25/2 162/31/2 164/32/2
f 185/25/2 164/32/2 157/34/2
f 157/34/2 164/32/2 165/35/2
f 184/36/2 185/25/2 158/37/2
f 158/37/2 185/25/2 157/34/2
f 204/38/2 205/40/2 206/39/2
f 197/41/2 198/22/2 201/29/2
f 197/41/2 201/29/2 202/42/2
f 184/36/2 158/37/2 159/43/2
f 156/44/2 157/34/2 165/35/2
f 184/36/2 159/43/2 180/45/2
f 180/45/2 159/43/2 154/46/2
f 204/38/2 206/39/2 207/47/2
f 203/48/2 204/38/2 207/47/2
f 184/36/2 180/45/2 181/49/2
f 179/50/2 180/45/2 154/46/2
f 196/51/2 197/41/2 202/42/2
f 155/52/2 156/44/2 165/35/2
f 179/50/2 154/46/2 155/52/2
f 155/52/2 165/35/2 166/53/2
f 202/42/2 203/48/2 207/47/2
f 184/36/2 181/49/2 183/54/2
f 183/54/2 181/49/2 182/55/2
f 195/56/2 196/51/2 202/42/2
f 195/56/2 202/42/2 207/47/2
f 194/57/2 195/56/2 191/18/2
f 191/18/2 195/56/2 207/47/2
f 178/58/2 179/50/2 155/52/2
f 178/58/2 155/52/2 166/53/2
f 193/59/2 194/57/2 192/60/2
f 192/60/2 194/57/2 191/18/2
f 190/61/2 191/18/2 207/47/2
f 190/61/2 207/47/2 208/62/2
f 177/63/2 178/58/2 166/53/2
f 177/63/2 166/53/2 172/64/2
f 172/64/2 166/53/2 167/65/2
f 211/66/2 212/68/2 213/67/2
f 210/69/2 211/66/2 213/67/2
f 189/70/2 190/61/2 208/62/2
f 177/63/2 172/64/2 173/71/2
f 171/72/2 172/64/2 167/65/2
f 209/73/2 210/69/2 213/67/2
f 176/74/2 177/63/2 173/71/2
f 171/72/2 167/65/2 168/75/2
f 188/76/2 189/70/2 208/62/2
f 209/73/2 213/67/2 214/77/2
f 208/62/2 209/73/2 217/78/2
f 217/78/2 209/73/2 214/77/2
f 221/79/2 188/76/2 208/62/2
f 176/74/2 173/71/2 175/80/2
f 175/80/2 173/71/2 174/81/2
f 221/79/2 208/62/2 217/78/2
f 170/82/2 171/72/2 169/83/2
f 169/83/2 171/72/2 168/75/2
f 152/84/2 153/86/2 148/85/2
f 220/87/2 221/79/2 217/78/2
f 220/87/2 217/78/2 218/88/2
f 216/89/2 217/78/2 214/77/2
f 219/90/2 220/87/2 218/88/2
f 151/91/2 152/84/2 148/85/2
f 215/92/2 216/89/2 214/77/2
f 151/91/2 148/85/2 149/93/2
f 150/94/2 151/91/2 149/93/2
f 226/95/2 227/97/2 222/96/2
f 225/98/2 226/95/2 222/96/2
f 225/98/2 222/96/2 223/99/2
f 224/100/2 225/98/2 223/99/2
f 232/101/2 233/103/2 228/102/2
f 231/104/2 232/101/2 228/102/2
f 231/104/2 228/102/2 229/105/2
f 230/106/2 231/104/2 229/105/2
f 238/107/2 239/108/2 240/1/2
f 238/107/2 240/1/2 234/109/2
f 237/110/2 238/107/2 234/109/2
f 237/110/2 234/109/2 236/111/2
f 236/111/2 234/109/2 235/112/2
f 146/113/2 147/114/2 142/3/2
f 145/115/2 146/113/2 142/3/2
f 145/115/2 142/3/2 143/116/2
f 144/117/2 145/115/2 143/116/2
s 1
f 244/118/3 241/3/4 242/119/4
f 246/120/5 243/121/3 244/118/3
f 248/122/6 245/123/5 246/120/5
f 250/124/7 247/18/6 248/122/6
f 252/125/8 249/126/7 250/124/7
f 242/127/4 251/128/9 252/125/8
f 256/118/10 253/3/11 254/119/11
f 258/120/12 255/121/10 256/118/10
f 260/122/13 257/123/12 258/120/12
f 262/124/14 259/18/13 260/122/13
f 264/125/15 261/126/14 262/124/14
f 254/127/11 263/128/15 264/125/15
f 268/118/16 265/3/17 266/119/17
f 270/120/18 267/121/19 268/118/16
f 272/122/20 269/123/18 270/120/18
f 274/124/21 271/18/20 272/122/20
f 276/125/22 273/126/21 274/124/21
f 266/127/17 275/128/23 276/125/22
f 280/129/24 277/3/25 278/119/25
f 282/130/26 279/44/24 280/129/24
f 284/131/27 281/82/26 282/130/26
f 286/132/28 283/36/27 284/131/27
f 288/133/29 285/22/28 286/132/28
f 290/134/30 287/68/29 288/133/29
f 278/127/25 289/95/30 290/134/30
f 294/118/31 291/3/32 292/119/32
f 296/120/33 293/121/31 294/118/31
f 298/122/34 295/123/35 296/120/33
f 300/124/36 297/18/34 298/122/34
f 302/125/37 299/126/36 300/124/36
f 292/127/32 301/128/37 302/125/37
f 306/118/38 303/3/39 304/119/39
f 308/120/40 305/121/41 306/118/38
f 310/122/42 307/123/40 308/120/40
f 312/124/43 309/18/42 310/122/42
f 314/125/44 311/126/43 312/124/43
f 304/127/39 313/128/44 314/125/44
f 318/135/45 315/3/46 316/119/46
f 320/136/47 317/137/48 318/135/45
f 322/138/49 319/93/47 320/136/47
f 324/129/50 321/139/49 322/138/49
f 326/140/51 323/44/50 324/129/50
f 328/141/52 325/142/51 326/140/51
f 330/143/53 327/33/54 328/141/52
f 332/130/55 329/14/53 330/143/53
f 334/144/56 331/82/55 332/130/55
f 336/145/57 333/146/56 334/144/56
f 338/147/58 335/63/57 336/145/57
f 340/131/59 337/148/58 338/147/58
f 342/149/60 339/36/61 340/131/59
f 344/122/62 341/150/60 342/149/60
f 346/151/63 343/18/62 344/122/62
f 348/132/64 345/152/63 346/151/63
f 350/153/65 347/22/66 348/132/64
f 352/154/67 349/155/65 350/153/65
f 354/156/68 351/40/67 352/154/67
f 356/133/69 353/157/68 354/156/68
f 358/158/70 355/68/69 356/133/69
f 360/159/71 357/9/70 358/158/70
f 362/160/72 359/90/71 360/159/71
f 364/134/73 361/161/72 362/160/72
f 366/162/74 363/95/73 364/134/73
f 368/163/75 365/164/76 366/162/74
f 370/165/77 367/103/75 368/163/75
f 316/127/46 369/166/77 370/165/77
f 374/167/78 371/3/79 372/119/79
f 376/168/80 373/169/78 374/167/78
f 378/170/81 375/171/80 376/168/80
f 380/172/82 377/173/83 378/170/81
f 382/174/84 379/175/82 380/172/82
f 384/176/85 381/177/86 382/174/84
f 386/178/87 383/179/85 384/176/85
f 388/180/88 385/181/87 386/178/87
f 390/182/89 387/183/88 388/180/88
f 392/184/90 389/185/89 390/182/89
f 394/186/91 391/187/90 392/184/90
f 396/188/92 393/189/91 394/186/91
f 398/190/93 395/191/94 396/188/92
f 400/192/95 397/193/93 398/190/93
f 402/194/96 399/195/95 400/192/95
f 404/196/97 401/197/96 402/194/96
f 406/122/98 403/198/97 404/196/97
f 408/199/99 405/18/100 406/122/98
f 410/200/101 407/201/99 408/199/99
f 412/202/102 409/203/101 410/200/101
f 414/204/103 411/205/102 412/202/102
f 416/206/104 413/207/103 414/204/103
f 418/208/105 415/209/104 416/206/104
f 420/210/106 417/211/105 418/208/105
f 422/212/107 419/213/106 420/210/106
f 424/214/108 421/215/107 422/212/107
f 426/216/109 423/217/108 424/214/108
f 428/218/110 425/219/109 426/216/109
f 430/220/111 427/221/110 428/218/110
f 432/222/112 429/223/113 430/220/111
f 434/224/114 431/225/112 432/222/112
f 436/226/115 433/227/114 434/224/114
f 438/228/116 435/229/115 436/226/115
f 372/127/79 437/230/116 438/228/116
f 442/231/117 439/3/118 440/119/119
f 444/232/120 441/233/117 442/231/117
f 446/129/121 443/234/120 444/232/120
f 448/235/122 445/44/123 446/129/121
f 450/236/124 447/237/122 448/235/122
f 452/130/125 449/238/124 450/236/124
f 454/120/126 451/82/125 452/130/125
f 456/239/127 453/123/126 454/120/126
f 458/131/128 455/240/127 456/239/127
f 460/241/129 457/36/128 458/131/128
f 462/242/130 459/243/129 460/241/129
f 464/132/131 461/244/130 462/242/130
f 466/245/132 463/22/131 464/132/131
f 468/124/133 465/246/134 466/245/132
f 470/133/135 467/126/133 468/124/133
f 472/247/136 469/68/135 470/133/135
f 474/248/137 471/249/136 472/247/136
f 476/134/138 473/250/139 474/248/137
f 478/251/140 475/95/138 476/134/138
f 480/252/141 477/253/140 478/251/140
f 440/127/119 479/254/141 480/252/141
f 244/118/3 243/121/3 241/3/4
f 246/120/5 245/123/5 243/121/3
f 248/122/6 247/18/6 245/123/5
f 250/124/7 249/126/7 247/18/6
f 252/125/8 251/128/9 249/126/7
f 242/127/4 241/1/4 251/128/9
f 256/118/10 255/121/10 253/3/11
f 258/120/12 257/123/12 255/121/10
f 260/122/13 259/18/13 257/123/12
f 262/124/14 261/126/14 259/18/13
f 264/125/15 263/128/15 261/126/14
f 254/127/11 253/1/11 263/128/15
f 268/118/16 267/121/19 265/3/17
f 270/120/18 269/123/18 267/121/19
f 272/122/20 271/18/20 269/123/18
f 274/124/21 273/126/21 271/18/20
f 276/125/22 275/128/23 273/126/21
f 266/127/17 265/1/17 275/128/23
f 280/129/24 279/44/24 277/3/25
f 282/130/26 281/82/26 279/44/24
f 284/131/27 283/36/27 281/82/26
f 286/132/28 285/22/28 283/36/27
f 288/133/29 287/68/29 285/22/28
f 290/134/30 289/95/30 287/68/29
f 278/127/25 277/1/25 289/95/30
f 294/118/31 293/121/31 291/3/32
f 296/120/33 295/123/35 293/121/31
f 298/122/34 297/18/34 295/123/35
f 300/124/36 299/126/36 297/18/34
f 302/125/37 301/128/37 299/126/36
f 292/127/32 291/1/32 301/128/37
f 306/118/38 305/121/41 303/3/39
f 308/120/40 307/123/40 305/121/41
f 310/122/42 309/18/42 307/123/40
f 312/124/43 311/126/43 309/18/42
f 314/125/44 313/128/44 311/126/43
f 304/127/39 303/1/39 313/128/44
f 318/135/45 317/137/48 315/3/46
f 320/136/47 319/93/47 317/137/48
f 322/138/49 321/139/49 319/93/47
f 324/129/50 323/44/50 321/139/49
f 326/140/51 325/142/51 323/44/50
f 328/141/52 327/33/54 325/142/51
f 330/143/53 329/14/53 327/33/54
f 332/130/55 331/82/55 329/14/53
f 334/144/56 333/146/56 331/82/55
f 336/145/57 335/63/57 333/146/56
f 338/147/58 337/148/58 335/63/57
f 340/131/59 339/36/61 337/148/58
f 342/149/60 341/150/60 339/36/61
f 344/122/62 343/18/62 341/150/60
f 346/151/63 345/152/63 343/18/62
f 348/132/64 347/22/66 345/152/63
f 350/153/65 349/155/65 347/22/66
f 352/154/67 351/40/67 349/155/65
f 354/156/68 353/157/68 351/40/67
f 356/133/69 355/68/69 353/157/68
f 358/158/70 357/9/70 355/68/69
f 360/159/71 359/90/71 357/9/70
f 362/160/72 361/161/72 359/90/71
f 364/134/73 363/95/73 361/161/72
f 366/162/74 365/164/76 363/95/73
f 368/163/75 367/103/75 365/164/76
f 370/165/77 369/166/77 367/103/75
f 316/127/46 315/1/46 369/166/77
f 374/167/78 373/169/78 371/3/79
f 376/168/80 375/171/80 373/169/78
f 378/170/81 377/173/83 375/171/80
f 380/172/82 379/175/82 377/173/83
f 382/174/84 381/177/86 379/175/82
f 384/176/85 383/179/85 381/177/86
f 386/178/87 385/181/87 383/179/85
f 388/180/88 387/183/88 385/181/87
f 390/182/89 389/185/89 387/183/88
f 392/184/90 391/187/90 389/185/89
f 394/186/91 393/189/91 391/187/90
f 396/188/92 395/191/94 393/189/91
f 398/190/93 397/193/93 395/191/94
f 400/192/95 399/195/95 397/193/93
f 402/194/96 401/197/96 399/195/95
f 404/196/97 403/198/97 401/197/96
f 406/122/98 405/18/100 403/198/97
f 408/199/99 407/201/99 405/18/100
f 410/200/101 409/203/101 407/201/99
f 412/202/102 411/205/102 409/203/101
f 414/204/103 413/207/103 411/205/102
f 416/206/104 415/209/104 413/207/103
f 418/208/105 417/211/105 415/209/104
f 420/210/106 419/213/106 417/211/105
f 422/212/107 421/215/107 419/213/106
f 424/214/108 423/217/108 421/215/107
f 426/216/109 425/219/109 423/217/108
f 428/218/110 427/221/110 425/219/109
f 430/220/111 429/223/113 427/221/110
f 432/222/112 431/225/112 429/223/113
f 434/224/114 433/227/114 431/225/112
f 436/226/115 435/229/115 433/227/114
f 438/228/116 437/230/116 435/229/115
f 372/127/79 371/1/79 437/230/116
f 442/231/117 441/233/117 439/3/118
f 444/232/120 443/234/120 441/233/117
f 446/129/121 445/44/123 443/234/120
f 448/235/122 447/237/122 445/44/123
f 450/236/124 449/238/124 447/237/122
f 452/130/125 451/82/125 449/238/124
f 454/120/126 453/123/126 451/82/125
f 456/239/127 455/240/127 453/123/126
f 458/131/128 457/36/128 455/240/127
f 460/241/129 459/243/129 457/36/128
f 462/242/130 461/244/130 459/243/129
f 464/132/131 463/22/131 461/244/130
f 466/245/132 465/246/134 463/22/131
f 468/124/133 467/126/133 465/246/134
f 470/133/135 469/68/135 467/126/133
f 472/247/136 471/249/136 469/68/135
f 474/248/137 473/250/139 471/249/136
f 476/134/138 475/95/138 473/250/139
f 478/251/140 477/253/140 475/95/138
f 480/252/141 479/254/141 477/253/140
f 440/127/119 439/1/118 479/254/141
