# Blender 4.1.1
# www.blender.org
mtllib Four.mtl
o テキスト
v -0.231904 0.312000 -0.020000
v -0.231904 0.224000 -0.020000
v -0.158904 0.224000 -0.020000
v -0.158904 -0.000000 -0.020000
v -0.060904 -0.000000 -0.020000
v -0.060904 0.224000 -0.020000
v 0.228096 0.224000 -0.020000
v 0.228096 0.269000 -0.020000
v -0.116904 0.691000 -0.020000
v -0.158904 0.691000 -0.020000
v -0.158904 0.312000 -0.020000
v -0.060904 0.312000 -0.020000
v -0.060904 0.506000 -0.020000
v -0.058904 0.506000 -0.020000
v 0.097096 0.312000 -0.020000
v -0.231904 0.312000 0.020000
v -0.231904 0.224000 0.020000
v -0.158904 0.224000 0.020000
v -0.158904 0.000000 0.020000
v -0.060904 0.000000 0.020000
v -0.060904 0.224000 0.020000
v 0.228096 0.224000 0.020000
v 0.228096 0.269000 0.020000
v -0.116904 0.691000 0.020000
v -0.158904 0.691000 0.020000
v -0.158904 0.312000 0.020000
v -0.060904 0.312000 0.020000
v -0.060904 0.506000 0.020000
v -0.058904 0.506000 0.020000
v 0.097096 0.312000 0.020000
v -0.231904 0.312000 0.020000
v -0.231904 0.312000 -0.020000
v -0.231904 0.224000 0.020000
v -0.231904 0.224000 -0.020000
v -0.158904 0.224000 0.020000
v -0.158904 0.224000 -0.020000
v -0.158904 0.000000 0.020000
v -0.158904 -0.000000 -0.020000
v -0.060904 0.000000 0.020000
v -0.060904 -0.000000 -0.020000
v -0.060904 0.224000 0.020000
v -0.060904 0.224000 -0.020000
v 0.228096 0.224000 0.020000
v 0.228096 0.224000 -0.020000
v 0.228096 0.269000 0.020000
v 0.228096 0.269000 -0.020000
v -0.116904 0.691000 0.020000
v -0.116904 0.691000 -0.020000
v -0.158904 0.691000 0.020000
v -0.158904 0.691000 -0.020000
v -0.158904 0.312000 0.020000
v -0.158904 0.312000 -0.020000
v -0.060904 0.312000 0.020000
v -0.060904 0.312000 -0.020000
v -0.060904 0.506000 0.020000
v -0.060904 0.506000 -0.020000
v -0.058904 0.506000 0.020000
v -0.058904 0.506000 -0.020000
v 0.097096 0.312000 0.020000
v 0.097096 0.312000 -0.020000
vn -0.0000 -0.0000 -1.0000
vn -0.0000 -0.0000 1.0000
vn -0.7071 -0.7071 -0.0000
vn -0.7071 0.7071 -0.0000
vn 0.7071 -0.7071 -0.0000
vn 0.9419 0.3360 -0.0000
vn 0.4284 0.9036 -0.0000
vn 0.7071 0.7071 -0.0000
vn -0.4321 -0.9018 -0.0000
vn -0.9018 0.4321 -0.0000
vn -0.9019 0.4320 -0.0000
vt 0.500000 0.000000
vt 0.642857 0.000000
vt 0.571429 0.000000
vt 0.928571 0.000000
vt 0.857143 0.000000
vt 0.714286 0.000000
vt 1.000000 0.000000
vt 0.785714 0.000000
vt 0.000000 0.000000
vt 0.071429 0.000000
vt 0.428571 0.000000
vt 0.357143 0.000000
vt 0.285714 0.000000
vt 0.142857 0.000000
vt 0.214286 0.000000
vt 0.090909 1.000000
vt 0.000000 1.000000
vt 0.181818 1.000000
vt 0.090909 0.000000
vt 0.272727 1.000000
vt 0.181818 0.000000
vt 0.363636 1.000000
vt 0.272727 0.000000
vt 0.454545 1.000000
vt 0.363636 0.000000
vt 0.545455 1.000000
vt 0.454545 0.000000
vt 0.636364 1.000000
vt 0.545455 0.000000
vt 0.727273 1.000000
vt 0.636364 0.000000
vt 0.818182 1.000000
vt 0.727273 0.000000
vt 0.909091 1.000000
vt 0.818182 0.000000
vt 1.000000 1.000000
vt 0.909091 0.000000
vt 0.250000 1.000000
vt 0.500000 1.000000
vt 0.250000 0.000000
vt 0.750000 1.000000
vt 0.750000 0.000000
s 0
usemtl マテリアル
f 8/1/1 10/2/1 9/3/1
f 8/1/1 14/4/1 10/2/1
f 14/4/1 13/5/1 10/2/1
f 13/5/1 11/6/1 10/2/1
f 8/1/1 15/7/1 14/4/1
f 12/8/1 11/6/1 13/5/1
f 8/1/1 12/8/1 15/7/1
f 8/1/1 11/6/1 12/8/1
f 8/1/1 1/9/1 11/6/1
f 8/1/1 2/10/1 1/9/1
f 7/11/1 2/10/1 8/1/1
f 6/12/1 2/10/1 7/11/1
f 5/13/1 3/14/1 6/12/1
f 3/14/1 2/10/1 6/12/1
f 5/13/1 4/15/1 3/14/1
f 23/1/2 24/3/2 25/2/2
f 23/1/2 25/2/2 29/4/2
f 29/4/2 25/2/2 28/5/2
f 28/5/2 25/2/2 26/6/2
f 23/1/2 29/4/2 30/7/2
f 27/8/2 28/5/2 26/6/2
f 23/1/2 30/7/2 27/8/2
f 23/1/2 27/8/2 26/6/2
f 23/1/2 26/6/2 16/9/2
f 23/1/2 16/9/2 17/10/2
f 22/11/2 23/1/2 17/10/2
f 21/12/1 22/11/1 17/10/1
f 20/13/2 21/12/2 18/14/2
f 18/14/1 21/12/1 17/10/1
f 20/13/2 18/14/2 19/15/2
s 1
f 34/16/3 31/9/4 32/17/4
f 36/18/3 33/19/3 34/16/3
f 38/20/3 35/21/3 36/18/3
f 40/22/5 37/23/3 38/20/3
f 42/24/5 39/25/5 40/22/5
f 44/26/5 41/27/5 42/24/5
f 46/28/6 43/29/5 44/26/5
f 48/30/7 45/31/6 46/28/6
f 50/32/4 47/33/7 48/30/7
f 52/34/4 49/35/4 50/32/4
f 32/36/4 51/37/4 52/34/4
f 56/38/5 53/9/8 54/17/8
f 58/39/9 55/40/5 56/38/5
f 60/41/10 57/1/9 58/39/9
f 54/36/8 59/42/11 60/41/10
f 34/16/3 33/19/3 31/9/4
f 36/18/3 35/21/3 33/19/3
f 38/20/3 37/23/3 35/21/3
f 40/22/5 39/25/5 37/23/3
f 42/24/5 41/27/5 39/25/5
f 44/26/5 43/29/5 41/27/5
f 46/28/6 45/31/6 43/29/5
f 48/30/7 47/33/7 45/31/6
f 50/32/4 49/35/4 47/33/7
f 52/34/4 51/37/4 49/35/4
f 32/36/4 31/7/4 51/37/4
f 56/38/5 55/40/5 53/9/8
f 58/39/9 57/1/9 55/40/5
f 60/41/10 59/42/11 57/1/9
f 54/36/8 53/7/8 59/42/11
