# Blender 4.1.1
# www.blender.org
mtllib Eight.mtl
o テキスト
v 0.143596 0.047125 -0.020000
v 0.207096 0.185000 -0.020000
v 0.182971 0.279250 -0.020000
v 0.110096 0.348000 -0.020000
v 0.169721 0.413625 -0.020000
v 0.191096 0.495000 -0.020000
v 0.131221 0.635000 -0.020000
v -0.017904 0.691000 -0.020000
v -0.161529 0.634375 -0.020000
v -0.218904 0.493000 -0.020000
v -0.198154 0.415625 -0.020000
v -0.133904 0.348000 -0.020000
v -0.205029 0.279500 -0.020000
v -0.228904 0.184000 -0.020000
v -0.166654 0.046625 -0.020000
v -0.012904 -0.009000 -0.020000
v 0.062971 0.570375 -0.020000
v 0.093096 0.497000 -0.020000
v 0.061346 0.424000 -0.020000
v -0.013904 0.393000 -0.020000
v -0.089529 0.423375 -0.020000
v -0.120904 0.495000 -0.020000
v -0.091279 0.568625 -0.020000
v -0.015904 0.598000 -0.020000
v 0.075846 0.270000 -0.020000
v 0.109096 0.192000 -0.020000
v 0.075346 0.114375 -0.020000
v -0.010904 0.084000 -0.020000
v -0.100529 0.116625 -0.020000
v -0.130904 0.192000 -0.020000
v -0.097779 0.269250 -0.020000
v -0.012904 0.300000 -0.020000
v 0.143596 0.047125 0.020000
v 0.207096 0.185000 0.020000
v 0.182971 0.279250 0.020000
v 0.110096 0.348000 0.020000
v 0.169721 0.413625 0.020000
v 0.191096 0.495000 0.020000
v 0.131221 0.635000 0.020000
v -0.017904 0.691000 0.020000
v -0.161529 0.634375 0.020000
v -0.218904 0.493000 0.020000
v -0.198154 0.415625 0.020000
v -0.133904 0.348000 0.020000
v -0.205029 0.279500 0.020000
v -0.228904 0.184000 0.020000
v -0.166654 0.046625 0.020000
v -0.012904 -0.009000 0.020000
v 0.062971 0.570375 0.020000
v 0.093096 0.497000 0.020000
v 0.061346 0.424000 0.020000
v -0.013904 0.393000 0.020000
v -0.089529 0.423375 0.020000
v -0.120904 0.495000 0.020000
v -0.091279 0.568625 0.020000
v -0.015904 0.598000 0.020000
v 0.075846 0.270000 0.020000
v 0.109096 0.192000 0.020000
v 0.075346 0.114375 0.020000
v -0.010904 0.084000 0.020000
v -0.100529 0.116625 0.020000
v -0.130904 0.192000 0.020000
v -0.097779 0.269250 0.020000
v -0.012904 0.300000 0.020000
v 0.143596 0.047125 0.020000
v 0.143596 0.047125 -0.020000
v 0.207096 0.185000 0.020000
v 0.207096 0.185000 -0.020000
v 0.182971 0.279250 0.020000
v 0.182971 0.279250 -0.020000
v 0.110096 0.348000 0.020000
v 0.110096 0.348000 -0.020000
v 0.169721 0.413625 0.020000
v 0.169721 0.413625 -0.020000
v 0.191096 0.495000 0.020000
v 0.191096 0.495000 -0.020000
v 0.131221 0.635000 0.020000
v 0.131221 0.635000 -0.020000
v -0.017904 0.691000 0.020000
v -0.017904 0.691000 -0.020000
v -0.161529 0.634375 0.020000
v -0.161529 0.634375 -0.020000
v -0.218904 0.493000 0.020000
v -0.218904 0.493000 -0.020000
v -0.198154 0.415625 0.020000
v -0.198154 0.415625 -0.020000
v -0.133904 0.348000 0.020000
v -0.133904 0.348000 -0.020000
v -0.205029 0.279500 0.020000
v -0.205029 0.279500 -0.020000
v -0.228904 0.184000 0.020000
v -0.228904 0.184000 -0.020000
v -0.166654 0.046625 0.020000
v -0.166654 0.046625 -0.020000
v -0.012904 -0.009000 0.020000
v -0.012904 -0.009000 -0.020000
v 0.062971 0.570375 0.020000
v 0.062971 0.570375 -0.020000
v 0.093096 0.497000 0.020000
v 0.093096 0.497000 -0.020000
v 0.061346 0.424000 0.020000
v 0.061346 0.424000 -0.020000
v -0.013904 0.393000 0.020000
v -0.013904 0.393000 -0.020000
v -0.089529 0.423375 0.020000
v -0.089529 0.423375 -0.020000
v -0.120904 0.495000 0.020000
v -0.120904 0.495000 -0.020000
v -0.091279 0.568625 0.020000
v -0.091279 0.568625 -0.020000
v -0.015904 0.598000 0.020000
v -0.015904 0.598000 -0.020000
v 0.075846 0.270000 0.020000
v 0.075846 0.270000 -0.020000
v 0.109096 0.192000 0.020000
v 0.109096 0.192000 -0.020000
v 0.075346 0.114375 0.020000
v 0.075346 0.114375 -0.020000
v -0.010904 0.084000 0.020000
v -0.010904 0.084000 -0.020000
v -0.100529 0.116625 0.020000
v -0.100529 0.116625 -0.020000
v -0.130904 0.192000 0.020000
v -0.130904 0.192000 -0.020000
v -0.097779 0.269250 0.020000
v -0.097779 0.269250 -0.020000
v -0.012904 0.300000 0.020000
v -0.012904 0.300000 -0.020000
vn -0.0000 -0.0000 -1.0000
vn -0.0000 -0.0000 1.0000
vn 0.9959 -0.0904 -0.0000
vn 0.6756 -0.7373 -0.0000
vn 0.8615 0.5077 -0.0000
vn 0.9993 0.0385 -0.0000
vn 0.8789 -0.4770 -0.0000
vn 0.9973 0.0736 -0.0000
vn 0.6910 0.7228 -0.0000
vn -0.0082 1.0000 -0.0000
vn 0.6911 0.7228 -0.0000
vn -0.7036 0.7106 -0.0000
vn -0.0081 1.0000 -0.0000
vn -0.9981 0.0617 -0.0000
vn -0.8723 -0.4890 -0.0000
vn -0.9998 0.0222 -0.0000
vn -0.8655 0.5008 -0.0000
vn -0.9959 -0.0901 -0.0000
vn -0.8655 0.5009 -0.0000
vn -0.6789 -0.7343 -0.0000
vn -0.0014 -1.0000 -0.0000
vn -0.6789 -0.7342 -0.0000
vn -0.9999 0.0103 -0.0000
vn -0.6882 -0.7255 -0.0000
vn -0.7002 0.7140 -0.0000
vn -0.0044 1.0000 -0.0000
vn 0.6961 0.7180 -0.0000
vn 0.9999 0.0152 -0.0000
vn 0.7032 -0.7110 -0.0000
vn 0.0174 -0.9998 -0.0000
vn -1.0000 0.0036 -0.0000
vn -0.6794 -0.7338 -0.0000
vn -0.6814 0.7319 -0.0000
vn 0.0053 1.0000 -0.0000
vn 0.6950 0.7190 -0.0000
vn 0.0052 1.0000 -0.0000
vn 0.9999 -0.0110 -0.0000
vn 0.6865 -0.7271 -0.0000
vn 0.0108 -0.9999 -0.0000
vt 0.193548 0.000000
vt 0.258065 0.000000
vt 0.225806 0.000000
vt 0.161290 0.000000
vt 0.516129 0.000000
vt 0.741935 0.000000
vt 0.709677 0.000000
vt 0.290323 0.000000
vt 0.548387 0.000000
vt 0.677419 0.000000
vt 0.580645 0.000000
vt 0.129032 0.000000
vt 0.645161 0.000000
vt 0.322581 0.000000
vt 0.612903 0.000000
vt 0.354839 0.000000
vt 0.096774 0.000000
vt 0.064516 0.000000
vt 1.000000 0.000000
vt 0.387097 0.000000
vt 0.774194 0.000000
vt 0.967742 0.000000
vt 0.419355 0.000000
vt 0.032258 0.000000
vt 0.806452 0.000000
vt 0.935484 0.000000
vt 0.838710 0.000000
vt 0.903226 0.000000
vt 0.000000 0.000000
vt 0.451613 0.000000
vt 0.870968 0.000000
vt 0.483871 0.000000
vt 0.062500 1.000000
vt 0.000000 1.000000
vt 0.125000 1.000000
vt 0.062500 0.000000
vt 0.187500 1.000000
vt 0.125000 0.000000
vt 0.250000 1.000000
vt 0.187500 0.000000
vt 0.312500 1.000000
vt 0.250000 0.000000
vt 0.375000 1.000000
vt 0.312500 0.000000
vt 0.437500 1.000000
vt 0.375000 0.000000
vt 0.500000 1.000000
vt 0.437500 0.000000
vt 0.562500 1.000000
vt 0.500000 0.000000
vt 0.625000 1.000000
vt 0.562500 0.000000
vt 0.687500 1.000000
vt 0.625000 0.000000
vt 0.750000 1.000000
vt 0.687500 0.000000
vt 0.812500 1.000000
vt 0.750000 0.000000
vt 0.875000 1.000000
vt 0.812500 0.000000
vt 0.937500 1.000000
vt 0.875000 0.000000
vt 1.000000 1.000000
vt 0.937500 0.000000
s 0
usemtl マテリアル
f 7/1/1 9/2/1 8/3/1
f 6/4/1 17/5/1 7/1/1
f 17/5/1 24/6/1 7/1/1
f 24/6/1 9/2/1 7/1/1
f 24/6/1 23/7/1 9/2/1
f 23/7/1 10/8/1 9/2/1
f 6/4/1 18/9/1 17/5/1
f 22/10/1 10/8/1 23/7/1
f 6/4/1 19/11/1 18/9/1
f 5/12/1 19/11/1 6/4/1
f 21/13/1 10/8/1 22/10/1
f 21/13/1 11/14/1 10/8/1
f 5/12/1 20/15/1 19/11/1
f 20/15/1 11/14/1 21/13/1
f 20/15/1 12/16/1 11/14/1
f 4/17/1 20/15/1 5/12/1
f 4/17/1 12/16/1 20/15/1
f 3/18/1 12/16/1 4/17/1
f 3/18/1 32/19/1 12/16/1
f 32/19/1 13/20/1 12/16/1
f 3/18/1 25/21/1 32/19/1
f 31/22/1 13/20/1 32/19/1
f 31/22/1 14/23/1 13/20/1
f 2/24/1 25/21/1 3/18/1
f 2/24/1 26/25/1 25/21/1
f 30/26/1 14/23/1 31/22/1
f 2/24/1 27/27/1 26/25/1
f 29/28/1 14/23/1 30/26/1
f 1/29/1 27/27/1 2/24/1
f 29/28/1 15/30/1 14/23/1
f 28/31/1 15/30/1 29/28/1
f 1/29/1 28/31/1 27/27/1
f 1/29/1 15/30/1 28/31/1
f 16/32/1 15/30/1 1/29/1
f 39/1/2 40/3/2 41/2/2
f 38/4/2 39/1/2 49/5/2
f 49/5/2 39/1/2 56/6/2
f 56/6/2 39/1/2 41/2/2
f 56/6/2 41/2/2 55/7/2
f 55/7/2 41/2/2 42/8/2
f 38/4/2 49/5/2 50/9/2
f 54/10/2 55/7/2 42/8/2
f 38/4/2 50/9/2 51/11/2
f 37/12/2 38/4/2 51/11/2
f 53/13/2 54/10/2 42/8/2
f 53/13/2 42/8/2 43/14/2
f 37/12/2 51/11/2 52/15/2
f 52/15/2 53/13/2 43/14/2
f 52/15/2 43/14/2 44/16/2
f 36/17/2 37/12/2 52/15/2
f 36/17/2 52/15/2 44/16/2
f 35/18/2 36/17/2 44/16/2
f 35/18/2 44/16/2 64/19/2
f 64/19/2 44/16/2 45/20/2
f 35/18/2 64/19/2 57/21/2
f 63/22/2 64/19/2 45/20/2
f 63/22/2 45/20/2 46/23/2
f 34/24/2 35/18/2 57/21/2
f 34/24/2 57/21/2 58/25/2
f 62/26/2 63/22/2 46/23/2
f 34/24/2 58/25/2 59/27/2
f 61/28/2 62/26/2 46/23/2
f 33/29/2 34/24/2 59/27/2
f 61/28/2 46/23/2 47/30/2
f 60/31/2 61/28/2 47/30/2
f 33/29/2 59/27/2 60/31/2
f 33/29/2 60/31/2 47/30/2
f 48/32/2 33/29/2 47/30/2
s 1
f 68/33/3 65/29/4 66/34/4
f 70/35/5 67/36/3 68/33/3
f 72/37/6 69/38/5 70/35/5
f 74/39/7 71/40/6 72/37/6
f 76/41/8 73/42/7 74/39/7
f 78/43/9 75/44/8 76/41/8
f 80/45/10 77/46/11 78/43/9
f 82/47/12 79/48/13 80/45/10
f 84/49/14 81/50/12 82/47/12
f 86/51/15 83/52/14 84/49/14
f 88/53/16 85/54/15 86/51/15
f 90/55/17 87/56/16 88/53/16
f 92/57/18 89/58/19 90/55/17
f 94/59/20 91/60/18 92/57/18
f 96/61/21 93/62/22 94/59/20
f 66/63/4 95/64/21 96/61/21
f 100/35/23 97/29/24 98/34/24
f 102/39/25 99/38/23 100/35/23
f 104/43/26 101/42/25 102/39/25
f 106/47/27 103/46/26 104/43/26
f 108/51/28 105/50/27 106/47/27
f 110/55/29 107/54/28 108/51/28
f 112/59/30 109/58/29 110/55/29
f 98/63/24 111/62/30 112/59/30
f 116/35/31 113/29/32 114/34/32
f 118/39/33 115/38/31 116/35/31
f 120/43/34 117/42/33 118/39/33
f 122/47/35 119/46/36 120/43/34
f 124/51/37 121/50/35 122/47/35
f 126/55/38 123/54/37 124/51/37
f 128/59/39 125/58/38 126/55/38
f 114/63/32 127/62/39 128/59/39
f 68/33/3 67/36/3 65/29/4
f 70/35/5 69/38/5 67/36/3
f 72/37/6 71/40/6 69/38/5
f 74/39/7 73/42/7 71/40/6
f 76/41/8 75/44/8 73/42/7
f 78/43/9 77/46/11 75/44/8
f 80/45/10 79/48/13 77/46/11
f 82/47/12 81/50/12 79/48/13
f 84/49/14 83/52/14 81/50/12
f 86/51/15 85/54/15 83/52/14
f 88/53/16 87/56/16 85/54/15
f 90/55/17 89/58/19 87/56/16
f 92/57/18 91/60/18 89/58/19
f 94/59/20 93/62/22 91/60/18
f 96/61/21 95/64/21 93/62/22
f 66/63/4 65/19/4 95/64/21
f 100/35/23 99/38/23 97/29/24
f 102/39/25 101/42/25 99/38/23
f 104/43/26 103/46/26 101/42/25
f 106/47/27 105/50/27 103/46/26
f 108/51/28 107/54/28 105/50/27
f 110/55/29 109/58/29 107/54/28
f 112/59/30 111/62/30 109/58/29
f 98/63/24 97/19/24 111/62/30
f 116/35/31 115/38/31 113/29/32
f 118/39/33 117/42/33 115/38/31
f 120/43/34 119/46/36 117/42/33
f 122/47/35 121/50/35 119/46/36
f 124/51/37 123/54/37 121/50/35
f 126/55/38 125/58/38 123/54/37
f 128/59/39 127/62/39 125/58/38
f 114/63/32 113/19/32 127/62/39
