# Blender 4.1.0
# www.blender.org
mtllib DoorFrame.mtl
o frame
v 0.940500 0.082500 -0.165000
v 0.940500 3.217500 -0.165000
v 0.940500 0.082500 0.165000
v 0.940500 3.217500 0.165000
v -0.940500 0.082500 -0.165000
v -0.940500 3.217500 -0.165000
v -0.940500 0.082500 0.165000
v -0.940500 3.217500 0.165000
v 0.990000 -0.000000 -0.165000
v 0.990000 3.300000 -0.165000
v 0.990000 3.300000 0.165000
v 0.990000 -0.000000 0.165000
v -0.990000 -0.000000 0.165000
v -0.990000 3.300000 0.165000
v -0.990000 3.300000 -0.165000
v -0.990000 -0.000000 -0.165000
vn 1.0000 -0.0000 -0.0000
vn -1.0000 -0.0000 -0.0000
vn -0.0000 -1.0000 -0.0000
vn -0.0000 1.0000 -0.0000
vn -0.0000 -0.0000 -1.0000
vn -0.0000 -0.0000 1.0000
vt 0.625000 0.000000
vt 0.375000 0.250000
vt 0.375000 0.000000
vt 0.625000 0.500000
vt 0.375000 0.750000
vt 0.375000 0.500000
vt 0.125000 0.750000
vt 0.125000 0.500000
vt 0.875000 0.500000
vt 0.625000 0.750000
vt 0.618750 0.993750
vt 0.375000 1.000000
vt 0.381250 0.993750
vt 0.381250 0.256250
vt 0.625000 0.250000
vt 0.618750 0.256250
vt 0.381250 0.493750
vt 0.618750 0.493750
vt 0.381250 0.756250
vt 0.618750 0.756250
vt 0.625000 1.000000
vt 0.875000 0.750000
s 0
usemtl マテリアル.001
f 10/1/1 12/2/1 9/3/1
f 14/4/2 16/5/2 13/6/2
f 13/6/3 9/7/3 12/8/3
f 11/9/4 15/10/4 14/4/4
f 2/11/5 9/12/5 1/13/5
f 3/14/6 11/15/6 4/16/6
f 7/17/6 12/2/6 3/14/6
f 4/16/6 14/4/6 8/18/6
f 8/18/6 13/6/6 7/17/6
f 5/19/5 15/10/5 6/20/5
f 1/13/5 16/5/5 5/19/5
f 6/20/5 10/21/5 2/11/5
f 8/18/3 2/11/3 4/16/3
f 3/14/4 5/19/4 7/17/4
f 3/14/2 2/11/2 1/13/2
f 5/19/1 8/18/1 7/17/1
f 10/1/1 11/15/1 12/2/1
f 14/4/2 15/10/2 16/5/2
f 13/6/3 16/5/3 9/7/3
f 11/9/4 10/22/4 15/10/4
f 2/11/5 10/21/5 9/12/5
f 3/14/6 12/2/6 11/15/6
f 7/17/6 13/6/6 12/2/6
f 4/16/6 11/15/6 14/4/6
f 8/18/6 14/4/6 13/6/6
f 5/19/5 16/5/5 15/10/5
f 1/13/5 9/12/5 16/5/5
f 6/20/5 15/10/5 10/21/5
f 8/18/3 6/20/3 2/11/3
f 3/14/4 1/13/4 5/19/4
f 3/14/2 4/16/2 2/11/2
f 5/19/1 6/20/1 8/18/1
