# Blender 4.1.1
# www.blender.org
mtllib Six.mtl
o テキスト
v -0.006904 0.505625 -0.020000
v 0.072096 0.366000 -0.020000
v 0.025346 0.385250 -0.020000
v -0.034904 0.394000 -0.020000
v -0.171279 0.336875 -0.020000
v -0.225904 0.195000 -0.020000
v -0.166279 0.051375 -0.020000
v -0.024904 -0.009000 -0.020000
v 0.134221 0.058000 -0.020000
v 0.195096 0.233000 -0.020000
v 0.124971 0.481875 -0.020000
v -0.077904 0.691000 -0.020000
v -0.136904 0.616000 -0.020000
v -0.097779 0.114875 -0.020000
v -0.127904 0.196000 -0.020000
v -0.095779 0.271000 -0.020000
v -0.014904 0.301000 -0.020000
v 0.038721 0.293500 -0.020000
v 0.093096 0.265000 -0.020000
v 0.073471 0.132500 -0.020000
v -0.018904 0.084000 -0.020000
v -0.006904 0.505625 0.020000
v 0.072096 0.366000 0.020000
v 0.025346 0.385250 0.020000
v -0.034904 0.394000 0.020000
v -0.171279 0.336875 0.020000
v -0.225904 0.195000 0.020000
v -0.166279 0.051375 0.020000
v -0.024904 -0.009000 0.020000
v 0.134221 0.058000 0.020000
v 0.195096 0.233000 0.020000
v 0.124971 0.481875 0.020000
v -0.077904 0.691000 0.020000
v -0.136904 0.616000 0.020000
v -0.097779 0.114875 0.020000
v -0.127904 0.196000 0.020000
v -0.095779 0.271000 0.020000
v -0.014904 0.301000 0.020000
v 0.038721 0.293500 0.020000
v 0.093096 0.265000 0.020000
v 0.073471 0.132500 0.020000
v -0.018904 0.084000 0.020000
v -0.006904 0.505625 0.020000
v -0.006904 0.505625 -0.020000
v 0.072096 0.366000 0.020000
v 0.072096 0.366000 -0.020000
v 0.025346 0.385250 0.020000
v 0.025346 0.385250 -0.020000
v -0.034904 0.394000 0.020000
v -0.034904 0.394000 -0.020000
v -0.171279 0.336875 0.020000
v -0.171279 0.336875 -0.020000
v -0.225904 0.195000 0.020000
v -0.225904 0.195000 -0.020000
v -0.166279 0.051375 0.020000
v -0.166279 0.051375 -0.020000
v -0.024904 -0.009000 0.020000
v -0.024904 -0.009000 -0.020000
v 0.134221 0.058000 0.020000
v 0.134221 0.058000 -0.020000
v 0.195096 0.233000 0.020000
v 0.195096 0.233000 -0.020000
v 0.124971 0.481875 0.020000
v 0.124971 0.481875 -0.020000
v -0.077904 0.691000 0.020000
v -0.077904 0.691000 -0.020000
v -0.136904 0.616000 0.020000
v -0.136904 0.616000 -0.020000
v -0.097779 0.114875 0.020000
v -0.097779 0.114875 -0.020000
v -0.127904 0.196000 0.020000
v -0.127904 0.196000 -0.020000
v -0.095779 0.271000 0.020000
v -0.095779 0.271000 -0.020000
v -0.014904 0.301000 0.020000
v -0.014904 0.301000 -0.020000
v 0.038721 0.293500 0.020000
v 0.038721 0.293500 -0.020000
v 0.093096 0.265000 0.020000
v 0.093096 0.265000 -0.020000
v 0.073471 0.132500 0.020000
v 0.073471 0.132500 -0.020000
v -0.018904 0.084000 0.020000
v -0.018904 0.084000 -0.020000
vn -0.0000 -0.0000 -1.0000
vn -0.0000 -0.0000 1.0000
vn -0.7496 0.6619 -0.0000
vn -0.7707 -0.6372 -0.0000
vn 0.2642 0.9645 -0.0000
vn -0.1259 0.9920 -0.0000
vn -0.7173 0.6967 -0.0000
vn -0.9999 -0.0130 -0.0000
vn -0.7107 -0.7035 -0.0000
vn -0.0025 -1.0000 -0.0000
vn 0.7293 -0.6842 -0.0000
vn -0.0026 -1.0000 -0.0000
vn 0.9995 -0.0300 -0.0000
vn 0.8666 0.4990 -0.0000
vn 0.9995 -0.0301 -0.0000
vn -0.0518 0.9987 -0.0000
vn -0.9950 -0.1000 -0.0000
vn 0.9997 -0.0246 -0.0000
vn 0.7133 0.7009 -0.0000
vn 0.6894 -0.7244 -0.0000
vn 0.1079 -0.9942 -0.0000
vn -0.3059 -0.9521 -0.0000
vn -0.8913 -0.4533 -0.0000
vn -0.8155 0.5788 -0.0000
vn -0.0551 0.9985 -0.0000
vn -0.8155 0.5787 -0.0000
vn -0.0552 0.9985 -0.0000
vt 0.500000 0.000000
vt 0.600000 0.000000
vt 0.550000 0.000000
vt 0.000000 0.000000
vt 0.050000 0.000000
vt 0.450000 0.000000
vt 0.100000 0.000000
vt 0.200000 0.000000
vt 0.150000 0.000000
vt 0.850000 0.000000
vt 0.800000 0.000000
vt 0.750000 0.000000
vt 0.250000 0.000000
vt 0.900000 0.000000
vt 0.700000 0.000000
vt 0.950000 0.000000
vt 0.400000 0.000000
vt 0.650000 0.000000
vt 0.300000 0.000000
vt 1.000000 0.000000
vt 0.350000 0.000000
vt 0.076923 1.000000
vt 0.000000 1.000000
vt 0.153846 1.000000
vt 0.076923 0.000000
vt 0.230769 1.000000
vt 0.153846 0.000000
vt 0.307692 1.000000
vt 0.230769 0.000000
vt 0.384615 1.000000
vt 0.307692 0.000000
vt 0.461538 1.000000
vt 0.384615 0.000000
vt 0.538462 1.000000
vt 0.461538 0.000000
vt 0.615385 1.000000
vt 0.538462 0.000000
vt 0.692308 1.000000
vt 0.615385 0.000000
vt 0.769231 1.000000
vt 0.692308 0.000000
vt 0.846154 1.000000
vt 0.769231 0.000000
vt 0.923077 1.000000
vt 0.846154 0.000000
vt 1.000000 1.000000
vt 0.923077 0.000000
vt 0.125000 1.000000
vt 0.250000 1.000000
vt 0.125000 0.000000
vt 0.375000 1.000000
vt 0.500000 1.000000
vt 0.375000 0.000000
vt 0.625000 1.000000
vt 0.750000 1.000000
vt 0.625000 0.000000
vt 0.875000 1.000000
vt 0.875000 0.000000
s 0
usemtl マテリアル
f 11/1/1 13/2/1 12/3/1
f 11/1/1 1/4/1 13/2/1
f 11/1/1 2/5/1 1/4/1
f 10/6/1 2/5/1 11/1/1
f 3/7/1 5/8/1 4/9/1
f 2/5/1 5/8/1 3/7/1
f 10/6/1 18/10/1 2/5/1
f 18/10/1 5/8/1 2/5/1
f 18/10/1 17/11/1 5/8/1
f 17/11/1 16/12/1 5/8/1
f 16/12/1 6/13/1 5/8/1
f 10/6/1 19/14/1 18/10/1
f 15/15/1 6/13/1 16/12/1
f 10/6/1 20/16/1 19/14/1
f 9/17/1 20/16/1 10/6/1
f 14/18/1 6/13/1 15/15/1
f 14/18/1 7/19/1 6/13/1
f 9/17/1 21/20/1 20/16/1
f 21/20/1 7/19/1 14/18/1
f 9/17/1 7/19/1 21/20/1
f 8/21/1 7/19/1 9/17/1
f 32/1/2 33/3/2 34/2/2
f 32/1/2 34/2/2 22/4/2
f 32/1/2 22/4/2 23/5/2
f 31/6/2 32/1/2 23/5/2
f 24/7/2 25/9/2 26/8/2
f 23/5/2 24/7/2 26/8/2
f 31/6/2 23/5/2 39/10/2
f 39/10/2 23/5/2 26/8/2
f 39/10/2 26/8/2 38/11/2
f 38/11/2 26/8/2 37/12/2
f 37/12/2 26/8/2 27/13/2
f 31/6/2 39/10/2 40/14/2
f 36/15/2 37/12/2 27/13/2
f 31/6/2 40/14/2 41/16/2
f 30/17/2 31/6/2 41/16/2
f 35/18/2 36/15/2 27/13/2
f 35/18/2 27/13/2 28/19/2
f 30/17/2 41/16/2 42/20/2
f 42/20/2 35/18/2 28/19/2
f 30/17/2 42/20/2 28/19/2
f 29/21/2 30/17/2 28/19/2
s 1
f 46/22/3 43/4/4 44/23/4
f 48/24/5 45/25/3 46/22/3
f 50/26/6 47/27/5 48/24/5
f 52/28/7 49/29/6 50/26/6
f 54/30/8 51/31/7 52/28/7
f 56/32/9 53/33/8 54/30/8
f 58/34/10 55/35/9 56/32/9
f 60/36/11 57/37/12 58/34/10
f 62/38/13 59/39/11 60/36/11
f 64/40/14 61/41/15 62/38/13
f 66/42/16 63/43/14 64/40/14
f 68/44/17 65/45/16 66/42/16
f 44/46/4 67/47/17 68/44/17
f 72/48/18 69/4/19 70/23/19
f 74/49/20 71/50/18 72/48/18
f 76/51/21 73/13/20 74/49/20
f 78/52/22 75/53/21 76/51/21
f 80/54/23 77/1/22 78/52/22
f 82/55/24 79/56/23 80/54/23
f 84/57/25 81/12/26 82/55/24
f 70/46/19 83/58/27 84/57/25
f 46/22/3 45/25/3 43/4/4
f 48/24/5 47/27/5 45/25/3
f 50/26/6 49/29/6 47/27/5
f 52/28/7 51/31/7 49/29/6
f 54/30/8 53/33/8 51/31/7
f 56/32/9 55/35/9 53/33/8
f 58/34/10 57/37/12 55/35/9
f 60/36/11 59/39/11 57/37/12
f 62/38/13 61/41/15 59/39/11
f 64/40/14 63/43/14 61/41/15
f 66/42/16 65/45/16 63/43/14
f 68/44/17 67/47/17 65/45/16
f 44/46/4 43/20/4 67/47/17
f 72/48/18 71/50/18 69/4/19
f 74/49/20 73/13/20 71/50/18
f 76/51/21 75/53/21 73/13/20
f 78/52/22 77/1/22 75/53/21
f 80/54/23 79/56/23 77/1/22
f 82/55/24 81/12/26 79/56/23
f 84/57/25 83/58/27 81/12/26
f 70/46/19 69/20/19 83/58/27
