# Blender 4.1.1
# www.blender.org
mtllib Title.mtl
o テキスト
v -1.899298 0.453125 -0.050000
v -1.999923 0.579000 -0.050000
v -2.085299 0.635125 -0.050000
v -2.175923 0.590000 -0.050000
v -2.275298 0.478125 -0.050000
v -2.376924 0.361000 -0.050000
v -2.491048 0.240375 -0.050000
v -2.626924 0.110000 -0.050000
v -2.562923 0.037000 -0.050000
v -2.443173 0.159875 -0.050000
v -2.327923 0.288000 -0.050000
v -2.227298 0.407250 -0.050000
v -2.140924 0.510000 -0.050000
v -2.089423 0.541500 -0.050000
v -2.043923 0.507000 -0.050000
v -1.955923 0.392625 -0.050000
v -1.864923 0.276000 -0.050000
v -1.833173 0.235625 -0.050000
v -1.805923 0.199000 -0.050000
v -1.731924 0.274000 -0.050000
v -1.767173 0.304000 -0.050000
v -1.803923 0.340000 -0.050000
v -0.941798 0.465500 -0.050000
v -0.945923 0.674000 -0.050000
v -0.943923 0.713875 -0.050000
v -0.938923 0.747000 -0.050000
v -1.030923 0.747000 -0.050000
v -1.028048 0.717750 -0.050000
v -1.025923 0.675000 -0.050000
v -1.020548 0.458375 -0.050000
v -0.994923 0.250000 -0.050000
v -0.926173 0.098750 -0.050000
v -0.816923 -0.024000 -0.050000
v -0.741923 0.026000 -0.050000
v -0.849173 0.135125 -0.050000
v -0.915923 0.272000 -0.050000
v -1.205923 0.370125 -0.050000
v -1.205923 0.676000 -0.050000
v -1.203798 0.724250 -0.050000
v -1.200923 0.750000 -0.050000
v -1.292923 0.750000 -0.050000
v -1.290548 0.724250 -0.050000
v -1.288923 0.676000 -0.050000
v -1.288923 0.375500 -0.050000
v -1.288923 0.099000 -0.050000
v -1.440548 0.195375 -0.050000
v -1.580923 0.345000 -0.050000
v -1.627923 0.277000 -0.050000
v -1.468673 0.116000 -0.050000
v -1.286923 -0.000000 -0.050000
v -1.266548 -0.012625 -0.050000
v -1.252923 -0.023000 -0.050000
v -1.199924 0.021000 -0.050000
v -1.204423 0.047500 -0.050000
v -1.205923 0.077000 -0.050000
v -0.011173 0.720875 -0.050000
v -0.004923 0.774000 -0.050000
v -0.102923 0.774000 -0.050000
v -0.098298 0.721625 -0.050000
v -0.095923 0.670000 -0.050000
v -0.095923 0.507000 -0.050000
v -0.319548 0.429375 -0.050000
v -0.522923 0.342000 -0.050000
v -0.488923 0.257000 -0.050000
v -0.293173 0.346500 -0.050000
v -0.095923 0.418000 -0.050000
v -0.096923 0.088000 -0.050000
v -0.098423 0.029750 -0.050000
v -0.102923 -0.030000 -0.050000
v -0.005923 -0.030000 -0.050000
v -0.011298 0.027125 -0.050000
v -0.012923 0.088000 -0.050000
v -0.012923 0.368500 -0.050000
v -0.012923 0.670000 -0.050000
v 0.651452 0.658750 -0.050000
v 0.528077 0.783000 -0.050000
v 0.461077 0.721000 -0.050000
v 0.586327 0.605375 -0.050000
v 0.731077 0.498000 -0.050000
v 0.731077 0.076000 -0.050000
v 0.729577 0.015750 -0.050000
v 0.725077 -0.031000 -0.050000
v 0.823077 -0.031000 -0.050000
v 0.818952 0.015375 -0.050000
v 0.817077 0.076000 -0.050000
v 0.817077 0.446000 -0.050000
v 0.994827 0.358125 -0.050000
v 1.198077 0.283000 -0.050000
v 1.238077 0.361000 -0.050000
v 0.996327 0.445875 -0.050000
v 0.801077 0.548000 -0.050000
v 1.854077 0.671000 -0.050000
v 1.583077 0.671000 -0.050000
v 1.546327 0.673375 -0.050000
v 1.517077 0.681000 -0.050000
v 1.451077 0.641000 -0.050000
v 1.464202 0.614750 -0.050000
v 1.475077 0.587000 -0.050000
v 1.534327 0.435250 -0.050000
v 1.631077 0.276000 -0.050000
v 1.570327 0.230125 -0.050000
v 1.517077 0.188000 -0.050000
v 1.576077 0.119000 -0.050000
v 1.626452 0.162250 -0.050000
v 1.685077 0.210000 -0.050000
v 1.845577 0.069500 -0.050000
v 2.066077 -0.044000 -0.050000
v 2.138077 0.018000 -0.050000
v 1.914952 0.121625 -0.050000
v 1.751077 0.259000 -0.050000
v 1.860077 0.335500 -0.050000
v 1.963077 0.403000 -0.050000
v 1.909077 0.458000 -0.050000
v 1.805077 0.394625 -0.050000
v 1.698077 0.323000 -0.050000
v 1.613202 0.463375 -0.050000
v 1.562077 0.600000 -0.050000
v 1.900077 0.600000 -0.050000
v 2.014577 0.462625 -0.050000
v 2.165077 0.335000 -0.050000
v 2.232077 0.387000 -0.050000
v 2.024702 0.567000 -0.050000
v 1.911077 0.735000 -0.050000
v 1.893577 0.771500 -0.050000
v 1.879077 0.814000 -0.050000
v 1.788077 0.785000 -0.050000
v 1.813202 0.743000 -0.050000
v 1.833077 0.707000 -0.050000
v -1.899298 0.453125 0.050000
v -1.999923 0.579000 0.050000
v -2.085299 0.635125 0.050000
v -2.175923 0.590000 0.050000
v -2.275298 0.478125 0.050000
v -2.376924 0.361000 0.050000
v -2.491048 0.240375 0.050000
v -2.626924 0.110000 0.050000
v -2.562923 0.037000 0.050000
v -2.443173 0.159875 0.050000
v -2.327923 0.288000 0.050000
v -2.227298 0.407250 0.050000
v -2.140924 0.510000 0.050000
v -2.089423 0.541500 0.050000
v -2.043923 0.507000 0.050000
v -1.955923 0.392625 0.050000
v -1.864923 0.276000 0.050000
v -1.833173 0.235625 0.050000
v -1.805923 0.199000 0.050000
v -1.731924 0.274000 0.050000
v -1.767173 0.304000 0.050000
v -1.803923 0.340000 0.050000
v -0.941798 0.465500 0.050000
v -0.945923 0.674000 0.050000
v -0.943923 0.713875 0.050000
v -0.938923 0.747000 0.050000
v -1.030923 0.747000 0.050000
v -1.028048 0.717750 0.050000
v -1.025923 0.675000 0.050000
v -1.020548 0.458375 0.050000
v -0.994923 0.250000 0.050000
v -0.926173 0.098750 0.050000
v -0.816923 -0.024000 0.050000
v -0.741923 0.026000 0.050000
v -0.849173 0.135125 0.050000
v -0.915923 0.272000 0.050000
v -1.205923 0.370125 0.050000
v -1.205923 0.676000 0.050000
v -1.203798 0.724250 0.050000
v -1.200923 0.750000 0.050000
v -1.292923 0.750000 0.050000
v -1.290548 0.724250 0.050000
v -1.288923 0.676000 0.050000
v -1.288923 0.375500 0.050000
v -1.288923 0.099000 0.050000
v -1.440548 0.195375 0.050000
v -1.580923 0.345000 0.050000
v -1.627923 0.277000 0.050000
v -1.468673 0.116000 0.050000
v -1.286923 0.000000 0.050000
v -1.266548 -0.012625 0.050000
v -1.252923 -0.023000 0.050000
v -1.199924 0.021000 0.050000
v -1.204423 0.047500 0.050000
v -1.205923 0.077000 0.050000
v -0.011173 0.720875 0.050000
v -0.004923 0.774000 0.050000
v -0.102923 0.774000 0.050000
v -0.098298 0.721625 0.050000
v -0.095923 0.670000 0.050000
v -0.095923 0.507000 0.050000
v -0.319548 0.429375 0.050000
v -0.522923 0.342000 0.050000
v -0.488923 0.257000 0.050000
v -0.293173 0.346500 0.050000
v -0.095923 0.418000 0.050000
v -0.096923 0.088000 0.050000
v -0.098423 0.029750 0.050000
v -0.102923 -0.030000 0.050000
v -0.005923 -0.030000 0.050000
v -0.011298 0.027125 0.050000
v -0.012923 0.088000 0.050000
v -0.012923 0.368500 0.050000
v -0.012923 0.670000 0.050000
v 0.651452 0.658750 0.050000
v 0.528077 0.783000 0.050000
v 0.461077 0.721000 0.050000
v 0.586327 0.605375 0.050000
v 0.731077 0.498000 0.050000
v 0.731077 0.076000 0.050000
v 0.729577 0.015750 0.050000
v 0.725077 -0.031000 0.050000
v 0.823077 -0.031000 0.050000
v 0.818952 0.015375 0.050000
v 0.817077 0.076000 0.050000
v 0.817077 0.446000 0.050000
v 0.994827 0.358125 0.050000
v 1.198077 0.283000 0.050000
v 1.238077 0.361000 0.050000
v 0.996327 0.445875 0.050000
v 0.801077 0.548000 0.050000
v 1.854077 0.671000 0.050000
v 1.583077 0.671000 0.050000
v 1.546327 0.673375 0.050000
v 1.517077 0.681000 0.050000
v 1.451077 0.641000 0.050000
v 1.464202 0.614750 0.050000
v 1.475077 0.587000 0.050000
v 1.534327 0.435250 0.050000
v 1.631077 0.276000 0.050000
v 1.570327 0.230125 0.050000
v 1.517077 0.188000 0.050000
v 1.576077 0.119000 0.050000
v 1.626452 0.162250 0.050000
v 1.685077 0.210000 0.050000
v 1.845577 0.069500 0.050000
v 2.066077 -0.044000 0.050000
v 2.138077 0.018000 0.050000
v 1.914952 0.121625 0.050000
v 1.751077 0.259000 0.050000
v 1.860077 0.335500 0.050000
v 1.963077 0.403000 0.050000
v 1.909077 0.458000 0.050000
v 1.805077 0.394625 0.050000
v 1.698077 0.323000 0.050000
v 1.613202 0.463375 0.050000
v 1.562077 0.600000 0.050000
v 1.900077 0.600000 0.050000
v 2.014577 0.462625 0.050000
v 2.165077 0.335000 0.050000
v 2.232077 0.387000 0.050000
v 2.024702 0.567000 0.050000
v 1.911077 0.735000 0.050000
v 1.893577 0.771500 0.050000
v 1.879077 0.814000 0.050000
v 1.788077 0.785000 0.050000
v 1.813202 0.743000 0.050000
v 1.833077 0.707000 0.050000
v 1.854077 0.671000 0.050000
v 1.854077 0.671000 -0.050000
v 1.583077 0.671000 0.050000
v 1.583077 0.671000 -0.050000
v 1.546327 0.673375 0.050000
v 1.546327 0.673375 -0.050000
v 1.517077 0.681000 0.050000
v 1.517077 0.681000 -0.050000
v 1.451077 0.641000 0.050000
v 1.451077 0.641000 -0.050000
v 1.464202 0.614750 0.050000
v 1.464202 0.614750 -0.050000
v 1.475077 0.587000 0.050000
v 1.475077 0.587000 -0.050000
v 1.534327 0.435250 0.050000
v 1.534327 0.435250 -0.050000
v 1.631077 0.276000 0.050000
v 1.631077 0.276000 -0.050000
v 1.570327 0.230125 0.050000
v 1.570327 0.230125 -0.050000
v 1.517077 0.188000 0.050000
v 1.517077 0.188000 -0.050000
v 1.576077 0.119000 0.050000
v 1.576077 0.119000 -0.050000
v 1.626452 0.162250 0.050000
v 1.626452 0.162250 -0.050000
v 1.685077 0.210000 0.050000
v 1.685077 0.210000 -0.050000
v 1.845577 0.069500 0.050000
v 1.845577 0.069500 -0.050000
v 2.066077 -0.044000 0.050000
v 2.066077 -0.044000 -0.050000
v 2.138077 0.018000 0.050000
v 2.138077 0.018000 -0.050000
v 1.914952 0.121625 0.050000
v 1.914952 0.121625 -0.050000
v 1.751077 0.259000 0.050000
v 1.751077 0.259000 -0.050000
v 1.860077 0.335500 0.050000
v 1.860077 0.335500 -0.050000
v 1.963077 0.403000 0.050000
v 1.963077 0.403000 -0.050000
v 1.909077 0.458000 0.050000
v 1.909077 0.458000 -0.050000
v 1.805077 0.394625 0.050000
v 1.805077 0.394625 -0.050000
v 1.698077 0.323000 0.050000
v 1.698077 0.323000 -0.050000
v 1.613202 0.463375 0.050000
v 1.613202 0.463375 -0.050000
v 1.562077 0.600000 0.050000
v 1.562077 0.600000 -0.050000
v 1.900077 0.600000 0.050000
v 1.900077 0.600000 -0.050000
v 2.014577 0.462625 0.050000
v 2.014577 0.462625 -0.050000
v 2.165077 0.335000 0.050000
v 2.165077 0.335000 -0.050000
v 2.232077 0.387000 0.050000
v 2.232077 0.387000 -0.050000
v 2.024702 0.567000 0.050000
v 2.024702 0.567000 -0.050000
v 1.911077 0.735000 0.050000
v 1.911077 0.735000 -0.050000
v 1.893577 0.771500 0.050000
v 1.893577 0.771500 -0.050000
v 1.879077 0.814000 0.050000
v 1.879077 0.814000 -0.050000
v 1.788077 0.785000 0.050000
v 1.788077 0.785000 -0.050000
v 1.813202 0.743000 0.050000
v 1.813202 0.743000 -0.050000
v 1.833077 0.707000 0.050000
v 1.833077 0.707000 -0.050000
v 0.651452 0.658750 0.050000
v 0.651452 0.658750 -0.050000
v 0.528077 0.783000 0.050000
v 0.528077 0.783000 -0.050000
v 0.461077 0.721000 0.050000
v 0.461077 0.721000 -0.050000
v 0.586327 0.605375 0.050000
v 0.586327 0.605375 -0.050000
v 0.731077 0.498000 0.050000
v 0.731077 0.498000 -0.050000
v 0.731077 0.076000 0.050000
v 0.731077 0.076000 -0.050000
v 0.729577 0.015750 0.050000
v 0.729577 0.015750 -0.050000
v 0.725077 -0.031000 0.050000
v 0.725077 -0.031000 -0.050000
v 0.823077 -0.031000 0.050000
v 0.823077 -0.031000 -0.050000
v 0.818952 0.015375 0.050000
v 0.818952 0.015375 -0.050000
v 0.817077 0.076000 0.050000
v 0.817077 0.076000 -0.050000
v 0.817077 0.446000 0.050000
v 0.817077 0.446000 -0.050000
v 0.994827 0.358125 0.050000
v 0.994827 0.358125 -0.050000
v 1.198077 0.283000 0.050000
v 1.198077 0.283000 -0.050000
v 1.238077 0.361000 0.050000
v 1.238077 0.361000 -0.050000
v 0.996327 0.445875 0.050000
v 0.996327 0.445875 -0.050000
v 0.801077 0.548000 0.050000
v 0.801077 0.548000 -0.050000
v -0.011173 0.720875 0.050000
v -0.011173 0.720875 -0.050000
v -0.004923 0.774000 0.050000
v -0.004923 0.774000 -0.050000
v -0.102923 0.774000 0.050000
v -0.102923 0.774000 -0.050000
v -0.098298 0.721625 0.050000
v -0.098298 0.721625 -0.050000
v -0.095923 0.670000 0.050000
v -0.095923 0.670000 -0.050000
v -0.095923 0.507000 0.050000
v -0.095923 0.507000 -0.050000
v -0.319548 0.429375 0.050000
v -0.319548 0.429375 -0.050000
v -0.522923 0.342000 0.050000
v -0.522923 0.342000 -0.050000
v -0.488923 0.257000 0.050000
v -0.488923 0.257000 -0.050000
v -0.293173 0.346500 0.050000
v -0.293173 0.346500 -0.050000
v -0.095923 0.418000 0.050000
v -0.095923 0.418000 -0.050000
v -0.096923 0.088000 0.050000
v -0.096923 0.088000 -0.050000
v -0.098423 0.029750 0.050000
v -0.098423 0.029750 -0.050000
v -0.102923 -0.030000 0.050000
v -0.102923 -0.030000 -0.050000
v -0.005923 -0.030000 0.050000
v -0.005923 -0.030000 -0.050000
v -0.011298 0.027125 0.050000
v -0.011298 0.027125 -0.050000
v -0.012923 0.088000 0.050000
v -0.012923 0.088000 -0.050000
v -0.012923 0.368500 0.050000
v -0.012923 0.368500 -0.050000
v -0.012923 0.670000 0.050000
v -0.012923 0.670000 -0.050000
v -1.205923 0.370125 0.050000
v -1.205923 0.370125 -0.050000
v -1.205923 0.676000 0.050000
v -1.205923 0.676000 -0.050000
v -1.203798 0.724250 0.050000
v -1.203798 0.724250 -0.050000
v -1.200923 0.750000 0.050000
v -1.200923 0.750000 -0.050000
v -1.292923 0.750000 0.050000
v -1.292923 0.750000 -0.050000
v -1.290548 0.724250 0.050000
v -1.290548 0.724250 -0.050000
v -1.288923 0.676000 0.050000
v -1.288923 0.676000 -0.050000
v -1.288923 0.375500 0.050000
v -1.288923 0.375500 -0.050000
v -1.288923 0.099000 0.050000
v -1.288923 0.099000 -0.050000
v -1.440548 0.195375 0.050000
v -1.440548 0.195375 -0.050000
v -1.580923 0.345000 0.050000
v -1.580923 0.345000 -0.050000
v -1.627923 0.277000 0.050000
v -1.627923 0.277000 -0.050000
v -1.468673 0.116000 0.050000
v -1.468673 0.116000 -0.050000
v -1.286923 0.000000 0.050000
v -1.286923 -0.000000 -0.050000
v -1.266548 -0.012625 0.050000
v -1.266548 -0.012625 -0.050000
v -1.252923 -0.023000 0.050000
v -1.252923 -0.023000 -0.050000
v -1.199924 0.021000 0.050000
v -1.199924 0.021000 -0.050000
v -1.204423 0.047500 0.050000
v -1.204423 0.047500 -0.050000
v -1.205923 0.077000 0.050000
v -1.205923 0.077000 -0.050000
v -0.941798 0.465500 0.050000
v -0.941798 0.465500 -0.050000
v -0.945923 0.674000 0.050000
v -0.945923 0.674000 -0.050000
v -0.943923 0.713875 0.050000
v -0.943923 0.713875 -0.050000
v -0.938923 0.747000 0.050000
v -0.938923 0.747000 -0.050000
v -1.030923 0.747000 0.050000
v -1.030923 0.747000 -0.050000
v -1.028048 0.717750 0.050000
v -1.028048 0.717750 -0.050000
v -1.025923 0.675000 0.050000
v -1.025923 0.675000 -0.050000
v -1.020548 0.458375 0.050000
v -1.020548 0.458375 -0.050000
v -0.994923 0.250000 0.050000
v -0.994923 0.250000 -0.050000
v -0.926173 0.098750 0.050000
v -0.926173 0.098750 -0.050000
v -0.816923 -0.024000 0.050000
v -0.816923 -0.024000 -0.050000
v -0.741923 0.026000 0.050000
v -0.741923 0.026000 -0.050000
v -0.849173 0.135125 0.050000
v -0.849173 0.135125 -0.050000
v -0.915923 0.272000 0.050000
v -0.915923 0.272000 -0.050000
v -1.899298 0.453125 0.050000
v -1.899298 0.453125 -0.050000
v -1.999923 0.579000 0.050000
v -1.999923 0.579000 -0.050000
v -2.085299 0.635125 0.050000
v -2.085299 0.635125 -0.050000
v -2.175923 0.590000 0.050000
v -2.175923 0.590000 -0.050000
v -2.275298 0.478125 0.050000
v -2.275298 0.478125 -0.050000
v -2.376924 0.361000 0.050000
v -2.376924 0.361000 -0.050000
v -2.491048 0.240375 0.050000
v -2.491048 0.240375 -0.050000
v -2.626924 0.110000 0.050000
v -2.626924 0.110000 -0.050000
v -2.562923 0.037000 0.050000
v -2.562923 0.037000 -0.050000
v -2.443173 0.159875 0.050000
v -2.443173 0.159875 -0.050000
v -2.327923 0.288000 0.050000
v -2.327923 0.288000 -0.050000
v -2.227298 0.407250 0.050000
v -2.227298 0.407250 -0.050000
v -2.140924 0.510000 0.050000
v -2.140924 0.510000 -0.050000
v -2.089423 0.541500 0.050000
v -2.089423 0.541500 -0.050000
v -2.043923 0.507000 0.050000
v -2.043923 0.507000 -0.050000
v -1.955923 0.392625 0.050000
v -1.955923 0.392625 -0.050000
v -1.864923 0.276000 0.050000
v -1.864923 0.276000 -0.050000
v -1.833173 0.235625 0.050000
v -1.833173 0.235625 -0.050000
v -1.805923 0.199000 0.050000
v -1.805923 0.199000 -0.050000
v -1.731924 0.274000 0.050000
v -1.731924 0.274000 -0.050000
v -1.767173 0.304000 0.050000
v -1.767173 0.304000 -0.050000
v -1.803923 0.340000 0.050000
v -1.803923 0.340000 -0.050000
vn -0.0000 -0.0000 -1.0000
vn -0.0000 -0.0000 1.0000
vn 0.0323 0.9995 -0.0000
vn -0.8672 0.4980 -0.0000
vn -0.8671 0.4981 -0.0000
vn 0.1591 0.9873 -0.0000
vn -0.1444 0.9895 -0.0000
vn -0.9607 0.2775 -0.0000
vn -0.9137 -0.4065 -0.0000
vn -0.9313 -0.3643 -0.0000
vn -0.8965 -0.4431 -0.0000
vn -0.9822 0.1879 -0.0000
vn -0.6116 0.7912 -0.0000
vn -0.9953 0.0969 -0.0000
vn -0.0769 -0.9970 -0.0000
vn 0.6415 -0.7671 -0.0000
vn -0.0178 -0.9998 -0.0000
vn -0.5623 -0.8269 -0.0000
vn -0.0177 -0.9998 -0.0000
vn 0.1175 -0.9931 -0.0000
vn 0.9905 0.1376 -0.0000
vn 0.5364 0.8439 -0.0000
vn 0.9991 -0.0429 -0.0000
vn 0.5614 -0.8276 -0.0000
vn 0.9943 -0.1070 -0.0000
vn 0.1233 0.9924 -0.0000
vn -0.5384 0.8427 -0.0000
vn 0.2168 0.9762 -0.0000
vn 0.9000 0.4358 -0.0000
vn 0.8217 -0.5699 -0.0000
vn -0.4241 -0.9056 -0.0000
vn -0.7101 -0.7041 -0.0000
vn -0.0216 -0.9998 -0.0000
vn 0.9996 -0.0274 -0.0000
vn 0.7483 0.6634 -0.0000
vn 0.8674 0.4976 -0.0000
vn 0.9257 0.3783 -0.0000
vn 0.4500 0.8930 -0.0000
vn -0.9353 0.3538 -0.0000
vn -0.8669 -0.4984 -0.0000
vn -0.8697 -0.4936 -0.0000
vn 0.0211 0.9998 -0.0000
vn 0.6542 0.7564 -0.0000
vn -1.0000 -0.0006 -0.0000
vn -0.6380 -0.7701 -0.0000
vn -0.8932 -0.4496 -0.0000
vn -0.9999 0.0124 -0.0000
vn -0.9982 0.0604 -0.0000
vn -0.7402 -0.6724 -0.0000
vn 0.7377 -0.6751 -0.0000
vn 0.9982 0.0598 -0.0000
vn 0.7378 -0.6751 -0.0000
vn 0.9999 0.0155 -0.0000
vn 0.5276 -0.8495 -0.0000
vn -0.3955 -0.9185 -0.0000
vn 0.5277 -0.8494 -0.0000
vn 0.3630 -0.9318 -0.0000
vn 0.9288 0.3706 -0.0000
vn 0.3984 0.9172 -0.0000
vn 0.5308 0.8475 -0.0000
vn 0.7473 0.6645 -0.0000
vn 0.9971 -0.0757 -0.0000
vn -0.7375 0.6753 -0.0000
vn -0.9978 -0.0670 -0.0000
vn -0.9997 -0.0230 -0.0000
vn -0.8148 0.5797 -0.0000
vn -0.3616 0.9323 -0.0000
vn -0.9241 0.3822 -0.0000
vn -0.3716 -0.9284 -0.0000
vn 0.3786 -0.9256 -0.0000
vn -0.5754 -0.8179 -0.0000
vn -0.9999 0.0144 -0.0000
vn -0.5753 -0.8179 -0.0000
vn -0.9987 0.0504 -0.0000
vn -0.7332 -0.6800 -0.0000
vn 0.7395 -0.6732 -0.0000
vn -0.7332 -0.6801 -0.0000
vn 0.9982 0.0602 -0.0000
vn 0.9999 0.0133 -0.0000
vn 1.0000 -0.0000 -0.0000
vn 0.9999 -0.0172 -0.0000
vn 0.9998 -0.0220 -0.0000
vn 0.9970 -0.0775 -0.0000
vn 0.7453 0.6667 -0.0000
vn -0.7388 0.6739 -0.0000
vn -0.9980 -0.0628 -0.0000
vn -0.7389 0.6739 -0.0000
vn -0.9999 -0.0168 -0.0000
vn -1.0000 -0.0000 -0.0000
vn -0.4814 0.8765 -0.0000
vn 0.6379 0.7701 -0.0000
vn -0.4815 0.8765 -0.0000
vn -0.0743 0.9972 -0.0000
vn -0.9962 -0.0874 -0.0000
vn -0.6284 -0.7779 -0.0000
vn -0.5324 -0.8465 -0.0000
vn -0.5669 -0.8238 -0.0000
vn 0.0210 -0.9998 -0.0000
vn 0.9377 -0.3475 -0.0000
vn 0.9940 0.1093 -0.0000
vn 0.9997 0.0254 -0.0000
vn 0.9999 -0.0152 -0.0000
vn 0.9971 0.0763 -0.0000
vn 0.9950 -0.0998 -0.0000
vn 0.7580 0.6522 -0.0000
vn -0.7409 0.6717 -0.0000
vn -0.9973 -0.0738 -0.0000
vn -0.9993 -0.0372 -0.0000
vn -0.9973 -0.0737 -0.0000
vn -0.9973 -0.0735 -0.0000
vn -0.9626 -0.2711 -0.0000
vn -0.8381 -0.5455 -0.0000
vn -0.1274 -0.9918 -0.0000
vn 0.9947 -0.1029 -0.0000
vn -0.1274 -0.9919 -0.0000
vn 0.8166 0.5772 -0.0000
vn 0.9947 -0.1028 -0.0000
vn 0.9573 0.2891 -0.0000
vn 0.8166 0.5771 -0.0000
vn 0.6735 0.7392 -0.0000
vn 0.7729 0.6345 -0.0000
vn 0.0598 0.9982 -0.0000
vn -0.6078 0.7941 -0.0000
vn 0.0597 0.9982 -0.0000
vn -0.7515 0.6597 -0.0000
vn -0.7410 0.6715 -0.0000
vn -0.7096 0.7046 -0.0000
vn -0.9991 0.0431 -0.0000
vn -0.0264 -0.9997 -0.0000
vn 0.7300 -0.6835 -0.0000
vn 0.7540 -0.6569 -0.0000
vn 0.7649 -0.6442 -0.0000
vn 0.6521 -0.7581 -0.0000
vn -0.0499 -0.9988 -0.0000
vn -0.7046 -0.7096 -0.0000
vn -0.7905 -0.6125 -0.0000
vn -0.7872 -0.6167 -0.0000
vn -0.7943 -0.6076 -0.0000
vn -0.0694 -0.9976 -0.0000
vn -0.7942 -0.6076 -0.0000
vn 0.9991 0.0435 -0.0000
vn 0.6744 0.7384 -0.0000
vn 0.7330 0.6802 -0.0000
vt 0.047619 0.000000
vt 0.142857 0.000000
vt 0.095238 0.000000
vt 0.190476 0.000000
vt 0.000000 0.000000
vt 0.619048 0.000000
vt 0.666667 0.000000
vt 0.571429 0.000000
vt 0.523810 0.000000
vt 0.714286 0.000000
vt 0.238095 0.000000
vt 1.000000 0.000000
vt 0.476190 0.000000
vt 0.761905 0.000000
vt 0.285714 0.000000
vt 0.952381 0.000000
vt 0.904762 0.000000
vt 0.428571 0.000000
vt 0.809524 0.000000
vt 0.857143 0.000000
vt 0.333333 0.000000
vt 0.380952 0.000000
vt 0.500000 0.000000
vt 0.562500 0.000000
vt 0.531250 0.000000
vt 0.593750 0.000000
vt 0.468750 0.000000
vt 0.625000 0.000000
vt 0.437500 0.000000
vt 0.656250 0.000000
vt 0.687500 0.000000
vt 0.718750 0.000000
vt 0.781250 0.000000
vt 0.750000 0.000000
vt 0.812500 0.000000
vt 0.843750 0.000000
vt 0.968750 0.000000
vt 0.937500 0.000000
vt 0.906250 0.000000
vt 0.875000 0.000000
vt 0.062500 0.000000
vt 0.125000 0.000000
vt 0.093750 0.000000
vt 0.156250 0.000000
vt 0.187500 0.000000
vt 0.031250 0.000000
vt 0.218750 0.000000
vt 0.406250 0.000000
vt 0.250000 0.000000
vt 0.375000 0.000000
vt 0.281250 0.000000
vt 0.343750 0.000000
vt 0.312500 0.000000
vt 0.111111 0.000000
vt 0.055556 0.000000
vt 0.166667 0.000000
vt 0.222222 0.000000
vt 0.944444 0.000000
vt 0.277778 0.000000
vt 0.555556 0.000000
vt 0.388889 0.000000
vt 0.611111 0.000000
vt 0.888889 0.000000
vt 0.444444 0.000000
vt 0.833333 0.000000
vt 0.722222 0.000000
vt 0.777778 0.000000
vt 0.916667 0.000000
vt 0.972222 0.000000
vt 0.861111 0.000000
vt 0.083333 0.000000
vt 0.027778 0.000000
vt 0.138889 0.000000
vt 0.694444 0.000000
vt 0.194444 0.000000
vt 0.805556 0.000000
vt 0.638889 0.000000
vt 0.583333 0.000000
vt 0.527778 0.000000
vt 0.472222 0.000000
vt 0.361111 0.000000
vt 0.305556 0.000000
vt 0.416667 0.000000
vt 0.027027 1.000000
vt 0.000000 1.000000
vt 0.054054 1.000000
vt 0.027027 0.000000
vt 0.081081 1.000000
vt 0.054054 0.000000
vt 0.108108 1.000000
vt 0.081081 0.000000
vt 0.135135 1.000000
vt 0.108108 0.000000
vt 0.162162 1.000000
vt 0.135135 0.000000
vt 0.189189 1.000000
vt 0.162162 0.000000
vt 0.216216 1.000000
vt 0.189189 0.000000
vt 0.243243 1.000000
vt 0.216216 0.000000
vt 0.270270 1.000000
vt 0.243243 0.000000
vt 0.297297 1.000000
vt 0.270270 0.000000
vt 0.324324 1.000000
vt 0.297297 0.000000
vt 0.351351 1.000000
vt 0.324324 0.000000
vt 0.378378 1.000000
vt 0.351351 0.000000
vt 0.405405 1.000000
vt 0.378378 0.000000
vt 0.432432 1.000000
vt 0.405405 0.000000
vt 0.459459 1.000000
vt 0.432432 0.000000
vt 0.486486 1.000000
vt 0.459459 0.000000
vt 0.513514 1.000000
vt 0.486486 0.000000
vt 0.540541 1.000000
vt 0.513514 0.000000
vt 0.567568 1.000000
vt 0.540541 0.000000
vt 0.594595 1.000000
vt 0.567568 0.000000
vt 0.621622 1.000000
vt 0.594595 0.000000
vt 0.648649 1.000000
vt 0.621622 0.000000
vt 0.675676 1.000000
vt 0.648649 0.000000
vt 0.702703 1.000000
vt 0.675676 0.000000
vt 0.729730 1.000000
vt 0.702703 0.000000
vt 0.756757 1.000000
vt 0.729730 0.000000
vt 0.783784 1.000000
vt 0.756757 0.000000
vt 0.810811 1.000000
vt 0.783784 0.000000
vt 0.837838 1.000000
vt 0.810811 0.000000
vt 0.864865 1.000000
vt 0.837838 0.000000
vt 0.891892 1.000000
vt 0.864865 0.000000
vt 0.918919 1.000000
vt 0.891892 0.000000
vt 0.945946 1.000000
vt 0.918919 0.000000
vt 0.972973 1.000000
vt 0.945946 0.000000
vt 1.000000 1.000000
vt 0.972973 0.000000
vt 0.058824 1.000000
vt 0.117647 1.000000
vt 0.058824 0.000000
vt 0.176471 1.000000
vt 0.117647 0.000000
vt 0.235294 1.000000
vt 0.176471 0.000000
vt 0.294118 1.000000
vt 0.235294 0.000000
vt 0.352941 1.000000
vt 0.294118 0.000000
vt 0.411765 1.000000
vt 0.352941 0.000000
vt 0.470588 1.000000
vt 0.411765 0.000000
vt 0.529412 1.000000
vt 0.470588 0.000000
vt 0.588235 1.000000
vt 0.529412 0.000000
vt 0.647059 1.000000
vt 0.588235 0.000000
vt 0.705882 1.000000
vt 0.647059 0.000000
vt 0.764706 1.000000
vt 0.705882 0.000000
vt 0.823529 1.000000
vt 0.764706 0.000000
vt 0.882353 1.000000
vt 0.823529 0.000000
vt 0.941176 1.000000
vt 0.882353 0.000000
vt 0.941176 0.000000
vt 0.052632 1.000000
vt 0.105263 1.000000
vt 0.052632 0.000000
vt 0.157895 1.000000
vt 0.105263 0.000000
vt 0.210526 1.000000
vt 0.157895 0.000000
vt 0.263158 1.000000
vt 0.210526 0.000000
vt 0.315789 1.000000
vt 0.263158 0.000000
vt 0.368421 1.000000
vt 0.315789 0.000000
vt 0.421053 1.000000
vt 0.368421 0.000000
vt 0.473684 1.000000
vt 0.421053 0.000000
vt 0.526316 1.000000
vt 0.473684 0.000000
vt 0.578947 1.000000
vt 0.526316 0.000000
vt 0.631579 1.000000
vt 0.578947 0.000000
vt 0.684211 1.000000
vt 0.631579 0.000000
vt 0.736842 1.000000
vt 0.684211 0.000000
vt 0.789474 1.000000
vt 0.736842 0.000000
vt 0.842105 1.000000
vt 0.789474 0.000000
vt 0.894737 1.000000
vt 0.842105 0.000000
vt 0.947368 1.000000
vt 0.894737 0.000000
vt 0.947368 0.000000
vt 0.071429 1.000000
vt 0.142857 1.000000
vt 0.071429 0.000000
vt 0.214286 1.000000
vt 0.285714 1.000000
vt 0.214286 0.000000
vt 0.357143 1.000000
vt 0.428571 1.000000
vt 0.357143 0.000000
vt 0.500000 1.000000
vt 0.571429 1.000000
vt 0.642857 1.000000
vt 0.714286 1.000000
vt 0.642857 0.000000
vt 0.785714 1.000000
vt 0.857143 1.000000
vt 0.785714 0.000000
vt 0.928571 1.000000
vt 0.928571 0.000000
vt 0.045455 1.000000
vt 0.090909 1.000000
vt 0.045455 0.000000
vt 0.136364 1.000000
vt 0.090909 0.000000
vt 0.181818 1.000000
vt 0.136364 0.000000
vt 0.227273 1.000000
vt 0.181818 0.000000
vt 0.272727 1.000000
vt 0.227273 0.000000
vt 0.318182 1.000000
vt 0.272727 0.000000
vt 0.363636 1.000000
vt 0.318182 0.000000
vt 0.409091 1.000000
vt 0.363636 0.000000
vt 0.454545 1.000000
vt 0.409091 0.000000
vt 0.454545 0.000000
vt 0.545455 1.000000
vt 0.590909 1.000000
vt 0.545455 0.000000
vt 0.636364 1.000000
vt 0.590909 0.000000
vt 0.681818 1.000000
vt 0.636364 0.000000
vt 0.727273 1.000000
vt 0.681818 0.000000
vt 0.772727 1.000000
vt 0.727273 0.000000
vt 0.818182 1.000000
vt 0.772727 0.000000
vt 0.863636 1.000000
vt 0.818182 0.000000
vt 0.909091 1.000000
vt 0.863636 0.000000
vt 0.954545 1.000000
vt 0.909091 0.000000
vt 0.954545 0.000000
s 0
usemtl マテリアル.001
f 2/1/1 4/2/1 3/3/1
f 2/1/1 5/4/1 4/2/1
f 1/5/1 14/6/1 2/1/1
f 14/6/1 5/4/1 2/1/1
f 1/5/1 15/7/1 14/6/1
f 13/8/1 5/4/1 14/6/1
f 12/9/1 5/4/1 13/8/1
f 1/5/1 16/10/1 15/7/1
f 12/9/1 6/11/1 5/4/1
f 22/12/1 16/10/1 1/5/1
f 11/13/1 6/11/1 12/9/1
f 22/12/1 17/14/1 16/10/1
f 11/13/1 7/15/1 6/11/1
f 21/16/1 17/14/1 22/12/1
f 20/17/1 17/14/1 21/16/1
f 10/18/1 7/15/1 11/13/1
f 20/17/1 18/19/1 17/14/1
f 19/20/1 18/19/1 20/17/1
f 10/18/1 8/21/1 7/15/1
f 9/22/1 8/21/1 10/18/1
f 39/23/1 41/24/1 40/25/1
f 39/23/1 42/26/1 41/24/1
f 38/27/1 42/26/1 39/23/1
f 38/27/1 43/28/1 42/26/1
f 37/29/1 43/28/1 38/27/1
f 37/29/1 44/30/1 43/28/1
f 37/29/1 45/31/1 44/30/1
f 55/12/1 45/31/1 37/29/1
f 46/32/1 48/33/1 47/34/1
f 46/32/1 49/35/1 48/33/1
f 45/31/1 49/35/1 46/32/1
f 45/31/1 50/36/1 49/35/1
f 55/12/1 50/36/1 45/31/1
f 54/37/1 50/36/1 55/12/1
f 53/38/1 50/36/1 54/37/1
f 52/39/1 51/40/1 53/38/1
f 51/40/1 50/36/1 53/38/1
f 25/41/1 27/42/1 26/43/1
f 25/41/1 28/44/1 27/42/1
f 25/41/1 29/45/1 28/44/1
f 24/46/1 29/45/1 25/41/1
f 24/46/1 30/47/1 29/45/1
f 23/5/1 30/47/1 24/46/1
f 36/48/1 30/47/1 23/5/1
f 36/48/1 31/49/1 30/47/1
f 35/50/1 31/49/1 36/48/1
f 35/50/1 32/51/1 31/49/1
f 34/52/1 32/51/1 35/50/1
f 34/52/1 33/53/1 32/51/1
f 56/5/1 58/54/1 57/55/1
f 56/5/1 59/56/1 58/54/1
f 56/5/1 60/57/1 59/56/1
f 74/12/1 60/57/1 56/5/1
f 73/58/1 60/57/1 74/12/1
f 73/58/1 61/59/1 60/57/1
f 73/58/1 66/60/1 61/59/1
f 66/60/1 62/21/1 61/59/1
f 66/60/1 63/61/1 62/21/1
f 73/58/1 67/62/1 66/60/1
f 65/23/1 63/61/1 66/60/1
f 72/63/1 67/62/1 73/58/1
f 64/64/1 63/61/1 65/23/1
f 71/65/1 67/62/1 72/63/1
f 71/65/1 68/7/1 67/62/1
f 71/65/1 69/66/1 68/7/1
f 70/67/1 69/66/1 71/65/1
f 75/5/1 77/42/1 76/41/1
f 75/5/1 78/45/1 77/42/1
f 91/12/1 78/45/1 75/5/1
f 91/12/1 79/49/1 78/45/1
f 90/38/1 79/49/1 91/12/1
f 90/38/1 86/31/1 79/49/1
f 86/31/1 80/53/1 79/49/1
f 90/38/1 87/34/1 86/31/1
f 85/28/1 80/53/1 86/31/1
f 89/40/1 87/34/1 90/38/1
f 88/35/1 87/34/1 89/40/1
f 84/24/1 80/53/1 85/28/1
f 84/24/1 81/50/1 80/53/1
f 84/24/1 82/29/1 81/50/1
f 83/23/1 82/29/1 84/24/1
f 124/63/1 126/58/1 125/68/1
f 124/63/1 127/69/1 126/58/1
f 123/70/1 127/69/1 124/63/1
f 123/70/1 128/12/1 127/69/1
f 122/65/1 128/12/1 123/70/1
f 122/65/1 92/5/1 128/12/1
f 94/55/1 96/54/1 95/71/1
f 93/72/1 96/54/1 94/55/1
f 122/65/1 118/66/1 92/5/1
f 118/66/1 93/72/1 92/5/1
f 118/66/1 96/54/1 93/72/1
f 118/66/1 97/73/1 96/54/1
f 118/66/1 117/74/1 97/73/1
f 117/74/1 98/56/1 97/73/1
f 122/65/1 119/34/1 118/66/1
f 116/7/1 98/56/1 117/74/1
f 116/7/1 99/75/1 98/56/1
f 121/76/1 119/34/1 122/65/1
f 115/77/1 99/75/1 116/7/1
f 121/76/1 120/67/1 119/34/1
f 112/60/1 114/62/1 113/78/1
f 115/77/1 100/57/1 99/75/1
f 111/79/1 114/62/1 112/60/1
f 111/79/1 115/77/1 114/62/1
f 110/23/1 115/77/1 111/79/1
f 110/23/1 100/57/1 115/77/1
f 110/23/1 101/49/1 100/57/1
f 109/80/1 105/81/1 110/23/1
f 105/81/1 101/49/1 110/23/1
f 105/81/1 102/59/1 101/49/1
f 109/80/1 106/61/1 105/81/1
f 104/21/1 102/59/1 105/81/1
f 104/21/1 103/82/1 102/59/1
f 108/64/1 106/61/1 109/80/1
f 108/64/1 107/83/1 106/61/1
f 130/1/2 131/3/2 132/2/2
f 130/1/2 132/2/2 133/4/2
f 129/5/2 130/1/2 142/6/2
f 142/6/2 130/1/2 133/4/2
f 129/5/2 142/6/2 143/7/2
f 141/8/2 142/6/2 133/4/2
f 140/9/2 141/8/2 133/4/2
f 129/5/2 143/7/2 144/10/2
f 140/9/2 133/4/2 134/11/2
f 150/12/2 129/5/2 144/10/2
f 139/13/2 140/9/2 134/11/2
f 150/12/2 144/10/2 145/14/2
f 139/13/2 134/11/2 135/15/2
f 149/16/2 150/12/2 145/14/2
f 148/17/2 149/16/2 145/14/2
f 138/18/2 139/13/2 135/15/2
f 148/17/2 145/14/2 146/19/2
f 147/20/2 148/17/2 146/19/2
f 138/18/2 135/15/2 136/21/2
f 137/22/2 138/18/2 136/21/2
f 167/23/2 168/25/2 169/24/2
f 167/23/2 169/24/2 170/26/2
f 166/27/2 167/23/2 170/26/2
f 166/27/2 170/26/2 171/28/2
f 165/29/2 166/27/2 171/28/2
f 165/29/2 171/28/2 172/30/2
f 165/29/2 172/30/2 173/31/2
f 183/12/2 165/29/2 173/31/2
f 174/32/2 175/34/2 176/33/2
f 174/32/2 176/33/2 177/35/2
f 173/31/2 174/32/2 177/35/2
f 173/31/2 177/35/2 178/36/2
f 183/12/2 173/31/2 178/36/2
f 182/37/2 183/12/2 178/36/2
f 181/38/2 182/37/2 178/36/2
f 180/39/2 181/38/2 179/40/2
f 179/40/2 181/38/2 178/36/2
f 153/41/2 154/43/2 155/42/2
f 153/41/2 155/42/2 156/44/2
f 153/41/2 156/44/2 157/45/2
f 152/46/2 153/41/2 157/45/2
f 152/46/2 157/45/2 158/47/2
f 151/5/2 152/46/2 158/47/2
f 164/48/2 151/5/2 158/47/2
f 164/48/2 158/47/2 159/49/2
f 163/50/2 164/48/2 159/49/2
f 163/50/2 159/49/2 160/51/2
f 162/52/2 163/50/2 160/51/2
f 162/52/2 160/51/2 161/53/2
f 184/5/2 185/55/2 186/54/2
f 184/5/2 186/54/2 187/56/2
f 184/5/2 187/56/2 188/57/2
f 202/12/2 184/5/2 188/57/2
f 201/58/2 202/12/2 188/57/2
f 201/58/2 188/57/2 189/59/2
f 201/58/2 189/59/2 194/60/2
f 194/60/2 189/59/2 190/21/2
f 194/60/2 190/21/2 191/61/2
f 201/58/2 194/60/2 195/62/2
f 193/23/2 194/60/2 191/61/2
f 200/63/2 201/58/2 195/62/2
f 192/64/2 193/23/2 191/61/2
f 199/65/2 200/63/2 195/62/2
f 199/65/2 195/62/2 196/7/2
f 199/65/2 196/7/2 197/66/2
f 198/67/2 199/65/2 197/66/2
f 203/5/2 204/41/2 205/42/2
f 203/5/2 205/42/2 206/45/2
f 219/12/2 203/5/2 206/45/2
f 219/12/2 206/45/2 207/49/2
f 218/38/2 219/12/2 207/49/2
f 218/38/2 207/49/2 214/31/2
f 214/31/2 207/49/2 208/53/2
f 218/38/2 214/31/2 215/34/2
f 213/28/2 214/31/2 208/53/2
f 217/40/2 218/38/2 215/34/2
f 216/35/2 217/40/2 215/34/2
f 212/24/2 213/28/2 208/53/2
f 212/24/2 208/53/2 209/50/2
f 212/24/2 209/50/2 210/29/2
f 211/23/2 212/24/2 210/29/2
f 252/63/2 253/68/2 254/58/2
f 252/63/2 254/58/2 255/69/2
f 251/70/2 252/63/2 255/69/2
f 251/70/2 255/69/2 256/12/2
f 250/65/2 251/70/2 256/12/2
f 250/65/2 256/12/2 220/5/2
f 222/55/2 223/71/2 224/54/2
f 221/72/2 222/55/2 224/54/2
f 250/65/2 220/5/2 246/66/2
f 246/66/2 220/5/2 221/72/2
f 246/66/2 221/72/2 224/54/2
f 246/66/2 224/54/2 225/73/2
f 246/66/2 225/73/2 245/74/2
f 245/74/2 225/73/2 226/56/2
f 250/65/2 246/66/2 247/34/2
f 244/7/2 245/74/2 226/56/2
f 244/7/2 226/56/2 227/75/2
f 249/76/2 250/65/2 247/34/2
f 243/77/2 244/7/2 227/75/2
f 249/76/2 247/34/2 248/67/2
f 240/60/2 241/78/2 242/62/2
f 243/77/2 227/75/2 228/57/2
f 239/79/2 240/60/2 242/62/2
f 239/79/2 242/62/2 243/77/2
f 238/23/2 239/79/2 243/77/2
f 238/23/2 243/77/2 228/57/2
f 238/23/2 228/57/2 229/49/2
f 237/80/2 238/23/2 233/81/2
f 233/81/2 238/23/2 229/49/2
f 233/81/2 229/49/2 230/59/2
f 237/80/2 233/81/2 234/61/2
f 232/21/2 233/81/2 230/59/2
f 232/21/2 230/59/2 231/82/2
f 236/64/2 237/80/2 234/61/2
f 236/64/2 234/61/2 235/83/2
s 1
f 260/84/3 257/5/4 258/85/5
f 262/86/6 259/87/3 260/84/3
f 264/88/7 261/89/6 262/86/6
f 266/90/8 263/91/7 264/88/7
f 268/92/9 265/93/8 266/90/8
f 270/94/10 267/95/9 268/92/9
f 272/96/11 269/97/10 270/94/10
f 274/98/12 271/99/11 272/96/11
f 276/100/13 273/101/12 274/98/12
f 278/102/14 275/103/13 276/100/13
f 280/104/15 277/105/14 278/102/14
f 282/106/16 279/107/15 280/104/15
f 284/108/17 281/109/16 282/106/16
f 286/110/18 283/111/19 284/108/17
f 288/112/20 285/113/18 286/110/18
f 290/114/21 287/115/20 288/112/20
f 292/116/22 289/117/21 290/114/21
f 294/118/23 291/119/22 292/116/22
f 296/120/24 293/121/23 294/118/23
f 298/122/25 295/123/24 296/120/24
f 300/124/26 297/125/25 298/122/25
f 302/126/27 299/127/26 300/124/26
f 304/128/28 301/129/27 302/126/27
f 306/130/29 303/131/28 304/128/28
f 308/132/30 305/133/29 306/130/29
f 310/134/31 307/135/30 308/132/30
f 312/136/32 309/137/31 310/134/31
f 314/138/33 311/139/32 312/136/32
f 316/140/34 313/141/33 314/138/33
f 318/142/35 315/143/34 316/140/34
f 320/144/36 317/145/35 318/142/35
f 322/146/37 319/147/36 320/144/36
f 324/148/38 321/149/37 322/146/37
f 326/150/39 323/151/38 324/148/38
f 328/152/40 325/153/39 326/150/39
f 330/154/41 327/155/40 328/152/40
f 258/156/5 329/157/41 330/154/41
f 334/158/42 331/5/43 332/85/43
f 336/159/44 333/160/42 334/158/42
f 338/161/45 335/162/44 336/159/44
f 340/163/46 337/164/45 338/161/45
f 342/165/47 339/166/46 340/163/46
f 344/167/48 341/168/47 342/165/47
f 346/169/49 343/170/48 344/167/48
f 348/171/50 345/172/49 346/169/49
f 350/173/51 347/174/52 348/171/50
f 352/175/53 349/176/51 350/173/51
f 354/177/54 351/178/53 352/175/53
f 356/179/55 353/180/56 354/177/54
f 358/181/57 355/182/55 356/179/55
f 360/183/58 357/184/57 358/181/57
f 362/185/59 359/186/58 360/183/58
f 364/187/60 361/188/59 362/185/59
f 332/156/43 363/189/60 364/187/60
f 368/190/61 365/5/62 366/85/62
f 370/191/63 367/192/61 368/190/61
f 372/193/64 369/194/63 370/191/63
f 374/195/65 371/196/64 372/193/64
f 376/197/66 373/198/65 374/195/65
f 378/199/67 375/200/66 376/197/66
f 380/201/68 377/202/67 378/199/67
f 382/203/69 379/204/68 380/201/68
f 384/205/70 381/206/69 382/203/69
f 386/207/71 383/208/70 384/205/70
f 388/209/72 385/210/73 386/207/71
f 390/211/74 387/212/72 388/209/72
f 392/213/75 389/214/74 390/211/74
f 394/215/76 391/216/77 392/213/75
f 396/217/78 393/218/76 394/215/76
f 398/219/79 395/220/78 396/217/78
f 400/221/80 397/222/79 398/219/79
f 402/223/81 399/224/80 400/221/80
f 366/156/62 401/225/81 402/223/81
f 406/190/82 403/5/80 404/85/80
f 408/191/83 405/192/82 406/190/82
f 410/193/84 407/194/83 408/191/83
f 412/195/85 409/196/84 410/193/84
f 414/197/86 411/198/87 412/195/85
f 416/199/88 413/200/86 414/197/86
f 418/201/89 415/202/88 416/199/88
f 420/203/90 417/204/89 418/201/89
f 422/205/91 419/206/92 420/203/90
f 424/207/93 421/208/91 422/205/91
f 426/209/94 423/210/93 424/207/93
f 428/211/95 425/212/94 426/209/94
f 430/213/96 427/214/95 428/211/95
f 432/215/97 429/216/96 430/213/96
f 434/217/98 431/218/97 432/215/97
f 436/219/99 433/220/98 434/217/98
f 438/221/100 435/222/99 436/219/99
f 440/223/101 437/224/100 438/221/100
f 404/156/80 439/225/101 440/223/101
f 444/226/102 441/5/103 442/85/103
f 446/227/104 443/228/102 444/226/102
f 448/229/105 445/2/104 446/227/104
f 450/230/106 447/231/105 448/229/105
f 452/232/107 449/15/106 450/230/106
f 454/233/108 451/234/109 452/232/107
f 456/235/110 453/18/108 454/233/108
f 458/236/111 455/23/110 456/235/110
f 460/237/112 457/8/111 458/236/111
f 462/238/113 459/239/112 460/237/112
f 464/240/114 461/10/115 462/238/113
f 466/241/116 463/242/117 464/240/114
f 468/243/118 465/20/119 466/241/116
f 442/156/103 467/244/118 468/243/118
f 472/245/120 469/5/121 470/85/121
f 474/246/122 471/247/120 472/245/120
f 476/248/123 473/249/124 474/246/122
f 478/250/125 475/251/123 476/248/123
f 480/252/126 477/253/125 478/250/125
f 482/254/127 479/255/126 480/252/126
f 484/256/128 481/257/127 482/254/127
f 486/258/129 483/259/128 484/256/128
f 488/260/130 485/261/129 486/258/129
f 490/262/131 487/263/130 488/260/130
f 492/235/132 489/264/131 490/262/131
f 494/265/133 491/23/132 492/235/132
f 496/266/134 493/267/133 494/265/133
f 498/268/135 495/269/134 496/266/134
f 500/270/136 497/271/135 498/268/135
f 502/272/137 499/273/136 500/270/136
f 504/274/138 501/275/137 502/272/137
f 506/276/139 503/277/140 504/274/138
f 508/278/141 505/279/139 506/276/139
f 510/280/142 507/281/141 508/278/141
f 512/282/143 509/283/142 510/280/142
f 470/156/121 511/284/143 512/282/143
f 260/84/3 259/87/3 257/5/4
f 262/86/6 261/89/6 259/87/3
f 264/88/7 263/91/7 261/89/6
f 266/90/8 265/93/8 263/91/7
f 268/92/9 267/95/9 265/93/8
f 270/94/10 269/97/10 267/95/9
f 272/96/11 271/99/11 269/97/10
f 274/98/12 273/101/12 271/99/11
f 276/100/13 275/103/13 273/101/12
f 278/102/14 277/105/14 275/103/13
f 280/104/15 279/107/15 277/105/14
f 282/106/16 281/109/16 279/107/15
f 284/108/17 283/111/19 281/109/16
f 286/110/18 285/113/18 283/111/19
f 288/112/20 287/115/20 285/113/18
f 290/114/21 289/117/21 287/115/20
f 292/116/22 291/119/22 289/117/21
f 294/118/23 293/121/23 291/119/22
f 296/120/24 295/123/24 293/121/23
f 298/122/25 297/125/25 295/123/24
f 300/124/26 299/127/26 297/125/25
f 302/126/27 301/129/27 299/127/26
f 304/128/28 303/131/28 301/129/27
f 306/130/29 305/133/29 303/131/28
f 308/132/30 307/135/30 305/133/29
f 310/134/31 309/137/31 307/135/30
f 312/136/32 311/139/32 309/137/31
f 314/138/33 313/141/33 311/139/32
f 316/140/34 315/143/34 313/141/33
f 318/142/35 317/145/35 315/143/34
f 320/144/36 319/147/36 317/145/35
f 322/146/37 321/149/37 319/147/36
f 324/148/38 323/151/38 321/149/37
f 326/150/39 325/153/39 323/151/38
f 328/152/40 327/155/40 325/153/39
f 330/154/41 329/157/41 327/155/40
f 258/156/5 257/12/4 329/157/41
f 334/158/42 333/160/42 331/5/43
f 336/159/44 335/162/44 333/160/42
f 338/161/45 337/164/45 335/162/44
f 340/163/46 339/166/46 337/164/45
f 342/165/47 341/168/47 339/166/46
f 344/167/48 343/170/48 341/168/47
f 346/169/49 345/172/49 343/170/48
f 348/171/50 347/174/52 345/172/49
f 350/173/51 349/176/51 347/174/52
f 352/175/53 351/178/53 349/176/51
f 354/177/54 353/180/56 351/178/53
f 356/179/55 355/182/55 353/180/56
f 358/181/57 357/184/57 355/182/55
f 360/183/58 359/186/58 357/184/57
f 362/185/59 361/188/59 359/186/58
f 364/187/60 363/189/60 361/188/59
f 332/156/43 331/12/43 363/189/60
f 368/190/61 367/192/61 365/5/62
f 370/191/63 369/194/63 367/192/61
f 372/193/64 371/196/64 369/194/63
f 374/195/65 373/198/65 371/196/64
f 376/197/66 375/200/66 373/198/65
f 378/199/67 377/202/67 375/200/66
f 380/201/68 379/204/68 377/202/67
f 382/203/69 381/206/69 379/204/68
f 384/205/70 383/208/70 381/206/69
f 386/207/71 385/210/73 383/208/70
f 388/209/72 387/212/72 385/210/73
f 390/211/74 389/214/74 387/212/72
f 392/213/75 391/216/77 389/214/74
f 394/215/76 393/218/76 391/216/77
f 396/217/78 395/220/78 393/218/76
f 398/219/79 397/222/79 395/220/78
f 400/221/80 399/224/80 397/222/79
f 402/223/81 401/225/81 399/224/80
f 366/156/62 365/12/62 401/225/81
f 406/190/82 405/192/82 403/5/80
f 408/191/83 407/194/83 405/192/82
f 410/193/84 409/196/84 407/194/83
f 412/195/85 411/198/87 409/196/84
f 414/197/86 413/200/86 411/198/87
f 416/199/88 415/202/88 413/200/86
f 418/201/89 417/204/89 415/202/88
f 420/203/90 419/206/92 417/204/89
f 422/205/91 421/208/91 419/206/92
f 424/207/93 423/210/93 421/208/91
f 426/209/94 425/212/94 423/210/93
f 428/211/95 427/214/95 425/212/94
f 430/213/96 429/216/96 427/214/95
f 432/215/97 431/218/97 429/216/96
f 434/217/98 433/220/98 431/218/97
f 436/219/99 435/222/99 433/220/98
f 438/221/100 437/224/100 435/222/99
f 440/223/101 439/225/101 437/224/100
f 404/156/80 403/12/80 439/225/101
f 444/226/102 443/228/102 441/5/103
f 446/227/104 445/2/104 443/228/102
f 448/229/105 447/231/105 445/2/104
f 450/230/106 449/15/106 447/231/105
f 452/232/107 451/234/109 449/15/106
f 454/233/108 453/18/108 451/234/109
f 456/235/110 455/23/110 453/18/108
f 458/236/111 457/8/111 455/23/110
f 460/237/112 459/239/112 457/8/111
f 462/238/113 461/10/115 459/239/112
f 464/240/114 463/242/117 461/10/115
f 466/241/116 465/20/119 463/242/117
f 468/243/118 467/244/118 465/20/119
f 442/156/103 441/12/103 467/244/118
f 472/245/120 471/247/120 469/5/121
f 474/246/122 473/249/124 471/247/120
f 476/248/123 475/251/123 473/249/124
f 478/250/125 477/253/125 475/251/123
f 480/252/126 479/255/126 477/253/125
f 482/254/127 481/257/127 479/255/126
f 484/256/128 483/259/128 481/257/127
f 486/258/129 485/261/129 483/259/128
f 488/260/130 487/263/130 485/261/129
f 490/262/131 489/264/131 487/263/130
f 492/235/132 491/23/132 489/264/131
f 494/265/133 493/267/133 491/23/132
f 496/266/134 495/269/134 493/267/133
f 498/268/135 497/271/135 495/269/134
f 500/270/136 499/273/136 497/271/135
f 502/272/137 501/275/137 499/273/136
f 504/274/138 503/277/140 501/275/137
f 506/276/139 505/279/139 503/277/140
f 508/278/141 507/281/141 505/279/139
f 510/280/142 509/283/142 507/281/141
f 512/282/143 511/284/143 509/283/142
f 470/156/121 469/12/121 511/284/143
