# Blender 4.1.1
# www.blender.org
mtllib Kai.mtl
o テキスト
v 0.100680 0.210000 -0.020000
v 0.137055 0.055250 -0.020000
v 0.319680 -0.086000 -0.020000
v 0.342930 -0.054125 -0.020000
v 0.370680 -0.026000 -0.020000
v 0.208180 0.089625 -0.020000
v 0.177680 0.212000 -0.020000
v 0.177680 0.271000 -0.020000
v 0.100680 0.271000 -0.020000
v 0.027680 0.469000 -0.020000
v 0.027680 0.578000 -0.020000
v 0.257680 0.578000 -0.020000
v 0.257680 0.469000 -0.020000
v -0.279320 0.469000 -0.020000
v -0.279320 0.578000 -0.020000
v -0.047320 0.578000 -0.020000
v -0.047320 0.469000 -0.020000
v 0.027680 0.637000 -0.020000
v 0.027680 0.744000 -0.020000
v 0.257680 0.744000 -0.020000
v 0.257680 0.637000 -0.020000
v -0.279320 0.637000 -0.020000
v -0.279320 0.744000 -0.020000
v -0.047320 0.744000 -0.020000
v -0.047320 0.637000 -0.020000
v -0.135570 0.334375 -0.020000
v -0.070320 0.406000 -0.020000
v 0.039680 0.406000 -0.020000
v 0.198305 0.263250 -0.020000
v 0.393680 0.164000 -0.020000
v 0.416430 0.197000 -0.020000
v 0.443680 0.227000 -0.020000
v 0.273430 0.299250 -0.020000
v 0.131680 0.406000 -0.020000
v 0.331680 0.406000 -0.020000
v 0.331680 0.808000 -0.020000
v -0.356320 0.808000 -0.020000
v -0.356320 0.406000 -0.020000
v -0.157320 0.406000 -0.020000
v -0.299570 0.301875 -0.020000
v -0.473320 0.233000 -0.020000
v -0.445570 0.202125 -0.020000
v -0.422320 0.169000 -0.020000
v -0.316820 0.211125 -0.020000
v -0.217320 0.269000 -0.020000
v -0.217320 -0.078000 -0.020000
v -0.140320 -0.078000 -0.020000
v -0.140320 0.271000 -0.020000
v -0.214320 0.271000 -0.020000
v 0.100680 0.210000 0.020000
v 0.137055 0.055250 0.020000
v 0.319680 -0.086000 0.020000
v 0.342930 -0.054125 0.020000
v 0.370680 -0.026000 0.020000
v 0.208180 0.089625 0.020000
v 0.177680 0.212000 0.020000
v 0.177680 0.271000 0.020000
v 0.100680 0.271000 0.020000
v 0.027680 0.469000 0.020000
v 0.027680 0.578000 0.020000
v 0.257680 0.578000 0.020000
v 0.257680 0.469000 0.020000
v -0.279320 0.469000 0.020000
v -0.279320 0.578000 0.020000
v -0.047320 0.578000 0.020000
v -0.047320 0.469000 0.020000
v 0.027680 0.637000 0.020000
v 0.027680 0.744000 0.020000
v 0.257680 0.744000 0.020000
v 0.257680 0.637000 0.020000
v -0.279320 0.637000 0.020000
v -0.279320 0.744000 0.020000
v -0.047320 0.744000 0.020000
v -0.047320 0.637000 0.020000
v -0.135570 0.334375 0.020000
v -0.070320 0.406000 0.020000
v 0.039680 0.406000 0.020000
v 0.198305 0.263250 0.020000
v 0.393680 0.164000 0.020000
v 0.416430 0.197000 0.020000
v 0.443680 0.227000 0.020000
v 0.273430 0.299250 0.020000
v 0.131680 0.406000 0.020000
v 0.331680 0.406000 0.020000
v 0.331680 0.808000 0.020000
v -0.356320 0.808000 0.020000
v -0.356320 0.406000 0.020000
v -0.157320 0.406000 0.020000
v -0.299570 0.301875 0.020000
v -0.473320 0.233000 0.020000
v -0.445570 0.202125 0.020000
v -0.422320 0.169000 0.020000
v -0.316820 0.211125 0.020000
v -0.217320 0.269000 0.020000
v -0.217320 -0.078000 0.020000
v -0.140320 -0.078000 0.020000
v -0.140320 0.271000 0.020000
v -0.214320 0.271000 0.020000
v 0.100680 0.210000 0.020000
v 0.100680 0.210000 -0.020000
v 0.137055 0.055250 0.020000
v 0.137055 0.055250 -0.020000
v 0.319680 -0.086000 0.020000
v 0.319680 -0.086000 -0.020000
v 0.342930 -0.054125 0.020000
v 0.342930 -0.054125 -0.020000
v 0.370680 -0.026000 0.020000
v 0.370680 -0.026000 -0.020000
v 0.208180 0.089625 0.020000
v 0.208180 0.089625 -0.020000
v 0.177680 0.212000 0.020000
v 0.177680 0.212000 -0.020000
v 0.177680 0.271000 0.020000
v 0.177680 0.271000 -0.020000
v 0.100680 0.271000 0.020000
v 0.100680 0.271000 -0.020000
v 0.027680 0.469000 0.020000
v 0.027680 0.469000 -0.020000
v 0.027680 0.578000 0.020000
v 0.027680 0.578000 -0.020000
v 0.257680 0.578000 0.020000
v 0.257680 0.578000 -0.020000
v 0.257680 0.469000 0.020000
v 0.257680 0.469000 -0.020000
v -0.279320 0.469000 0.020000
v -0.279320 0.469000 -0.020000
v -0.279320 0.578000 0.020000
v -0.279320 0.578000 -0.020000
v -0.047320 0.578000 0.020000
v -0.047320 0.578000 -0.020000
v -0.047320 0.469000 0.020000
v -0.047320 0.469000 -0.020000
v 0.027680 0.637000 0.020000
v 0.027680 0.637000 -0.020000
v 0.027680 0.744000 0.020000
v 0.027680 0.744000 -0.020000
v 0.257680 0.744000 0.020000
v 0.257680 0.744000 -0.020000
v 0.257680 0.637000 0.020000
v 0.257680 0.637000 -0.020000
v -0.279320 0.637000 0.020000
v -0.279320 0.637000 -0.020000
v -0.279320 0.744000 0.020000
v -0.279320 0.744000 -0.020000
v -0.047320 0.744000 0.020000
v -0.047320 0.744000 -0.020000
v -0.047320 0.637000 0.020000
v -0.047320 0.637000 -0.020000
v -0.135570 0.334375 0.020000
v -0.135570 0.334375 -0.020000
v -0.070320 0.406000 0.020000
v -0.070320 0.406000 -0.020000
v 0.039680 0.406000 0.020000
v 0.039680 0.406000 -0.020000
v 0.198305 0.263250 0.020000
v 0.198305 0.263250 -0.020000
v 0.393680 0.164000 0.020000
v 0.393680 0.164000 -0.020000
v 0.416430 0.197000 0.020000
v 0.416430 0.197000 -0.020000
v 0.443680 0.227000 0.020000
v 0.443680 0.227000 -0.020000
v 0.273430 0.299250 0.020000
v 0.273430 0.299250 -0.020000
v 0.131680 0.406000 0.020000
v 0.131680 0.406000 -0.020000
v 0.331680 0.406000 0.020000
v 0.331680 0.406000 -0.020000
v 0.331680 0.808000 0.020000
v 0.331680 0.808000 -0.020000
v -0.356320 0.808000 0.020000
v -0.356320 0.808000 -0.020000
v -0.356320 0.406000 0.020000
v -0.356320 0.406000 -0.020000
v -0.157320 0.406000 0.020000
v -0.157320 0.406000 -0.020000
v -0.299570 0.301875 0.020000
v -0.299570 0.301875 -0.020000
v -0.473320 0.233000 0.020000
v -0.473320 0.233000 -0.020000
v -0.445570 0.202125 0.020000
v -0.445570 0.202125 -0.020000
v -0.422320 0.169000 0.020000
v -0.422320 0.169000 -0.020000
v -0.316820 0.211125 0.020000
v -0.316820 0.211125 -0.020000
v -0.217320 0.269000 0.020000
v -0.217320 0.269000 -0.020000
v -0.217320 -0.078000 0.020000
v -0.217320 -0.078000 -0.020000
v -0.140320 -0.078000 0.020000
v -0.140320 -0.078000 -0.020000
v -0.140320 0.271000 0.020000
v -0.140320 0.271000 -0.020000
v -0.214320 0.271000 0.020000
v -0.214320 0.271000 -0.020000
vn -0.0000 -0.0000 -1.0000
vn -0.0000 -0.0000 1.0000
vn -0.8410 -0.5410 -0.0000
vn -0.9933 -0.1152 -0.0000
vn 0.1407 -0.9901 -0.0000
vn 0.7620 -0.6476 -0.0000
vn 0.9962 0.0867 -0.0000
vn 0.8263 0.5632 -0.0000
vn 0.9926 0.1218 -0.0000
vn 0.8263 0.5633 -0.0000
vn 0.7071 0.7071 -0.0000
vn -0.7071 0.7071 -0.0000
vn 0.7071 -0.7071 -0.0000
vn -0.7071 -0.7071 -0.0000
vn 0.4041 -0.9147 -0.0000
vn 0.6851 -0.7284 -0.0000
vn -0.3583 -0.9336 -0.0000
vn -0.5658 -0.8245 -0.0000
vn -0.3582 -0.9336 -0.0000
vn 0.2461 -0.9693 -0.0000
vn 0.7835 -0.6214 -0.0000
vn 0.9768 0.2143 -0.0000
vn 0.4998 0.8661 -0.0000
vn 0.9484 -0.3172 -0.0000
vn 0.9484 -0.3171 -0.0000
vn -0.9505 -0.3107 -0.0000
vn -0.4835 0.8754 -0.0000
vn -0.9505 -0.3108 -0.0000
vn -0.9735 0.2286 -0.0000
vn -0.4835 0.8753 -0.0000
vn -0.7825 -0.6226 -0.0000
vn -0.9735 0.2285 -0.0000
vn -0.2855 -0.9584 -0.0000
vn 0.4380 -0.8990 -0.0000
vn -0.4986 -0.8668 -0.0000
vn 0.9432 0.3323 -0.0000
vn 0.9431 0.3324 -0.0000
vt 0.708333 0.000000
vt 0.395833 0.000000
vt 0.729167 0.000000
vt 0.750000 0.000000
vt 0.479167 0.000000
vt 0.458333 0.000000
vt 0.770833 0.000000
vt 0.416667 0.000000
vt 0.375000 0.000000
vt 0.354167 0.000000
vt 0.500000 0.000000
vt 0.437500 0.000000
vt 0.229167 0.000000
vt 0.312500 0.000000
vt 0.291667 0.000000
vt 0.250000 0.000000
vt 0.208333 0.000000
vt 0.187500 0.000000
vt 0.333333 0.000000
vt 0.270833 0.000000
vt 0.687500 0.000000
vt 0.666667 0.000000
vt 0.562500 0.000000
vt 0.583333 0.000000
vt 0.541667 0.000000
vt 0.520833 0.000000
vt 0.791667 0.000000
vt 0.812500 0.000000
vt 1.000000 0.000000
vt 0.833333 0.000000
vt 0.645833 0.000000
vt 0.125000 0.000000
vt 0.166667 0.000000
vt 0.145833 0.000000
vt 0.000000 0.000000
vt 0.958333 0.000000
vt 0.979167 0.000000
vt 0.916667 0.000000
vt 0.937500 0.000000
vt 0.895833 0.000000
vt 0.625000 0.000000
vt 0.604167 0.000000
vt 0.854167 0.000000
vt 0.104167 0.000000
vt 0.875000 0.000000
vt 0.020833 0.000000
vt 0.083333 0.000000
vt 0.062500 0.000000
vt 0.041667 0.000000
vt 0.111111 1.000000
vt 0.000000 1.000000
vt 0.222222 1.000000
vt 0.111111 0.000000
vt 0.333333 1.000000
vt 0.222222 0.000000
vt 0.444444 1.000000
vt 0.555556 1.000000
vt 0.444444 0.000000
vt 0.666667 1.000000
vt 0.555556 0.000000
vt 0.777778 1.000000
vt 0.888889 1.000000
vt 0.777778 0.000000
vt 1.000000 1.000000
vt 0.888889 0.000000
vt 0.250000 1.000000
vt 0.500000 1.000000
vt 0.750000 1.000000
vt 0.041667 1.000000
vt 0.083333 1.000000
vt 0.125000 1.000000
vt 0.166667 1.000000
vt 0.208333 1.000000
vt 0.291667 1.000000
vt 0.375000 1.000000
vt 0.416667 1.000000
vt 0.458333 1.000000
vt 0.541667 1.000000
vt 0.583333 1.000000
vt 0.625000 1.000000
vt 0.708333 1.000000
vt 0.791667 1.000000
vt 0.833333 1.000000
vt 0.875000 1.000000
vt 0.916667 1.000000
vt 0.958333 1.000000
s 0
usemtl マテリアル
f 35/1/1 20/2/1 36/3/1
f 20/2/1 37/4/1 36/3/1
f 20/2/1 24/5/1 37/4/1
f 24/5/1 23/6/1 37/4/1
f 23/6/1 38/7/1 37/4/1
f 35/1/1 21/8/1 20/2/1
f 19/9/1 24/5/1 20/2/1
f 18/10/1 24/5/1 19/9/1
f 18/10/1 25/11/1 24/5/1
f 22/12/1 38/7/1 23/6/1
f 35/1/1 12/13/1 21/8/1
f 12/13/1 18/10/1 21/8/1
f 12/13/1 25/11/1 18/10/1
f 12/13/1 22/12/1 25/11/1
f 12/13/1 16/14/1 22/12/1
f 16/14/1 15/15/1 22/12/1
f 15/15/1 38/7/1 22/12/1
f 35/1/1 13/16/1 12/13/1
f 11/17/1 16/14/1 12/13/1
f 10/18/1 16/14/1 11/17/1
f 10/18/1 17/19/1 16/14/1
f 14/20/1 38/7/1 15/15/1
f 35/1/1 10/18/1 13/16/1
f 35/1/1 17/19/1 10/18/1
f 35/1/1 14/20/1 17/19/1
f 35/1/1 38/7/1 14/20/1
f 34/21/1 38/7/1 35/1/1
f 33/22/1 28/23/1 34/21/1
f 28/23/1 38/7/1 34/21/1
f 33/22/1 29/24/1 28/23/1
f 27/25/1 38/7/1 28/23/1
f 26/26/1 39/27/1 27/25/1
f 39/27/2 38/7/2 27/25/2
f 26/26/1 40/28/1 39/27/1
f 49/29/1 40/28/1 26/26/1
f 49/29/1 41/30/1 40/28/1
f 32/31/1 29/24/1 33/22/1
f 7/32/1 9/33/1 8/34/1
f 7/32/1 1/35/1 9/33/1
f 47/36/1 49/29/1 48/37/1
f 47/36/1 45/38/1 49/29/1
f 45/38/1 41/30/1 49/29/1
f 47/36/1 46/39/1 45/38/1
f 44/40/1 41/30/1 45/38/1
f 32/31/1 31/41/1 29/24/1
f 31/41/1 30/42/1 29/24/1
f 44/40/1 42/43/1 41/30/1
f 6/44/1 1/35/1 7/32/1
f 43/45/1 42/43/1 44/40/1
f 6/44/1 2/46/1 1/35/1
f 5/47/1 2/46/1 6/44/1
f 5/47/1 4/48/1 2/46/1
f 4/48/1 3/49/1 2/46/1
f 84/1/2 85/3/2 69/2/2
f 69/2/2 85/3/2 86/4/2
f 69/2/2 86/4/2 73/5/2
f 73/5/2 86/4/2 72/6/2
f 72/6/2 86/4/2 87/7/2
f 84/1/2 69/2/2 70/8/2
f 68/9/1 69/2/1 73/5/1
f 67/10/2 68/9/2 73/5/2
f 67/10/2 73/5/2 74/11/2
f 71/12/2 72/6/2 87/7/2
f 84/1/2 70/8/2 61/13/2
f 61/13/2 70/8/2 67/10/2
f 61/13/2 67/10/2 74/11/2
f 61/13/2 74/11/2 71/12/2
f 61/13/2 71/12/2 65/14/2
f 65/14/2 71/12/2 64/15/2
f 64/15/2 71/12/2 87/7/2
f 84/1/2 61/13/2 62/16/2
f 60/17/1 61/13/1 65/14/1
f 59/18/2 60/17/2 65/14/2
f 59/18/2 65/14/2 66/19/2
f 63/20/2 64/15/2 87/7/2
f 84/1/2 62/16/2 59/18/2
f 84/1/2 59/18/2 66/19/2
f 84/1/2 66/19/2 63/20/2
f 84/1/2 63/20/2 87/7/2
f 83/21/1 84/1/1 87/7/1
f 82/22/2 83/21/2 77/23/2
f 77/23/1 83/21/1 87/7/1
f 82/22/2 77/23/2 78/24/2
f 76/25/1 77/23/1 87/7/1
f 75/26/2 76/25/2 88/27/2
f 88/27/1 76/25/1 87/7/1
f 75/26/2 88/27/2 89/28/2
f 98/29/2 75/26/2 89/28/2
f 98/29/2 89/28/2 90/30/2
f 81/31/2 82/22/2 78/24/2
f 56/32/2 57/34/2 58/33/2
f 56/32/2 58/33/2 50/35/2
f 96/36/2 97/37/2 98/29/2
f 96/36/2 98/29/2 94/38/2
f 94/38/2 98/29/2 90/30/2
f 96/36/2 94/38/2 95/39/2
f 93/40/2 94/38/2 90/30/2
f 81/31/2 78/24/2 80/41/2
f 80/41/2 78/24/2 79/42/2
f 93/40/2 90/30/2 91/43/2
f 55/44/2 56/32/2 50/35/2
f 92/45/2 93/40/2 91/43/2
f 55/44/2 50/35/2 51/46/2
f 54/47/2 55/44/2 51/46/2
f 54/47/2 51/46/2 53/48/2
f 53/48/2 51/46/2 52/49/2
s 1
f 102/50/3 99/35/4 100/51/4
f 104/52/5 101/53/3 102/50/3
f 106/54/6 103/55/5 104/52/5
f 108/56/7 105/19/6 106/54/6
f 110/57/8 107/58/7 108/56/7
f 112/59/9 109/60/10 110/57/8
f 114/61/11 111/22/9 112/59/9
f 116/62/12 113/63/11 114/61/11
f 100/64/4 115/65/12 116/62/12
f 120/66/13 117/35/11 118/51/11
f 122/67/14 119/16/13 120/66/13
f 124/68/12 121/11/14 122/67/14
f 118/64/11 123/4/12 124/68/12
f 128/66/13 125/35/11 126/51/11
f 130/67/14 127/16/13 128/66/13
f 132/68/12 129/11/14 130/67/14
f 126/64/11 131/4/12 132/68/12
f 136/66/13 133/35/11 134/51/11
f 138/67/14 135/16/13 136/66/13
f 140/68/12 137/11/14 138/67/14
f 134/64/11 139/4/12 140/68/12
f 144/66/13 141/35/11 142/51/11
f 146/67/14 143/16/13 144/66/13
f 148/68/12 145/11/14 146/67/14
f 142/64/11 147/4/12 148/68/12
f 152/69/15 149/35/16 150/51/16
f 154/70/17 151/49/15 152/69/15
f 156/71/18 153/47/19 154/70/17
f 158/72/20 155/32/18 156/71/18
f 160/73/21 157/33/20 158/72/20
f 162/66/22 159/17/21 160/73/21
f 164/74/23 161/16/22 162/66/22
f 166/54/24 163/15/23 164/74/23
f 168/75/13 165/19/25 166/54/24
f 170/76/11 167/9/13 168/75/13
f 172/77/12 169/8/11 170/76/11
f 174/67/14 171/6/12 172/77/12
f 176/78/26 173/11/14 174/67/14
f 178/79/27 175/25/28 176/78/26
f 180/80/29 177/24/30 178/79/27
f 182/59/31 179/41/32 180/80/29
f 184/81/33 181/22/31 182/59/31
f 186/68/34 183/1/33 184/81/33
f 188/82/35 185/4/34 186/68/34
f 190/83/14 187/27/35 188/82/35
f 192/84/13 189/30/14 190/83/14
f 194/85/11 191/45/13 192/84/13
f 196/86/36 193/38/11 194/85/11
f 150/64/16 195/36/37 196/86/36
f 102/50/3 101/53/3 99/35/4
f 104/52/5 103/55/5 101/53/3
f 106/54/6 105/19/6 103/55/5
f 108/56/7 107/58/7 105/19/6
f 110/57/8 109/60/10 107/58/7
f 112/59/9 111/22/9 109/60/10
f 114/61/11 113/63/11 111/22/9
f 116/62/12 115/65/12 113/63/11
f 100/64/4 99/29/4 115/65/12
f 120/66/13 119/16/13 117/35/11
f 122/67/14 121/11/14 119/16/13
f 124/68/12 123/4/12 121/11/14
f 118/64/11 117/29/11 123/4/12
f 128/66/13 127/16/13 125/35/11
f 130/67/14 129/11/14 127/16/13
f 132/68/12 131/4/12 129/11/14
f 126/64/11 125/29/11 131/4/12
f 136/66/13 135/16/13 133/35/11
f 138/67/14 137/11/14 135/16/13
f 140/68/12 139/4/12 137/11/14
f 134/64/11 133/29/11 139/4/12
f 144/66/13 143/16/13 141/35/11
f 146/67/14 145/11/14 143/16/13
f 148/68/12 147/4/12 145/11/14
f 142/64/11 141/29/11 147/4/12
f 152/69/15 151/49/15 149/35/16
f 154/70/17 153/47/19 151/49/15
f 156/71/18 155/32/18 153/47/19
f 158/72/20 157/33/20 155/32/18
f 160/73/21 159/17/21 157/33/20
f 162/66/22 161/16/22 159/17/21
f 164/74/23 163/15/23 161/16/22
f 166/54/24 165/19/25 163/15/23
f 168/75/13 167/9/13 165/19/25
f 170/76/11 169/8/11 167/9/13
f 172/77/12 171/6/12 169/8/11
f 174/67/14 173/11/14 171/6/12
f 176/78/26 175/25/28 173/11/14
f 178/79/27 177/24/30 175/25/28
f 180/80/29 179/41/32 177/24/30
f 182/59/31 181/22/31 179/41/32
f 184/81/33 183/1/33 181/22/31
f 186/68/34 185/4/34 183/1/33
f 188/82/35 187/27/35 185/4/34
f 190/83/14 189/30/14 187/27/35
f 192/84/13 191/45/13 189/30/14
f 194/85/11 193/38/11 191/45/13
f 196/86/36 195/36/37 193/38/11
f 150/64/16 149/29/16 195/36/37
