# Blender 4.1.1
# www.blender.org
mtllib Ro.mtl
o テキスト
v 0.143680 0.556000 -0.020000
v 0.143680 0.732000 -0.020000
v 0.332680 0.732000 -0.020000
v 0.332680 0.556000 -0.020000
v 0.399680 0.396000 -0.020000
v 0.335680 0.396000 -0.020000
v 0.335680 0.066000 -0.020000
v 0.257680 0.084000 -0.020000
v 0.257680 0.490000 -0.020000
v 0.399680 0.490000 -0.020000
v 0.399680 0.798000 -0.020000
v 0.074680 0.798000 -0.020000
v 0.074680 0.532000 -0.020000
v -0.032195 0.668875 -0.020000
v -0.108320 0.841000 -0.020000
v -0.179320 0.823000 -0.020000
v -0.164070 0.780125 -0.020000
v -0.147320 0.738000 -0.020000
v -0.341320 0.738000 -0.020000
v -0.355320 0.741000 -0.020000
v -0.402320 0.720000 -0.020000
v -0.339945 0.575125 -0.020000
v -0.254320 0.452000 -0.020000
v -0.358820 0.367875 -0.020000
v -0.484320 0.304000 -0.020000
v -0.459320 0.274750 -0.020000
v -0.437320 0.241000 -0.020000
v -0.405320 0.256000 -0.020000
v -0.405320 -0.075000 -0.020000
v -0.334320 -0.075000 -0.020000
v -0.334320 -0.041000 -0.020000
v -0.082320 -0.041000 -0.020000
v -0.082320 -0.078000 -0.020000
v -0.012320 -0.078000 -0.020000
v -0.012320 0.258000 -0.020000
v 0.017680 0.242750 -0.020000
v 0.047680 0.229000 -0.020000
v 0.063430 0.254375 -0.020000
v 0.083680 0.279000 -0.020000
v 0.189680 0.279000 -0.020000
v 0.189680 0.100000 -0.020000
v 0.057680 0.131000 -0.020000
v 0.050680 0.064000 -0.020000
v 0.255805 0.012750 -0.020000
v 0.437680 -0.031000 -0.020000
v 0.450680 0.042000 -0.020000
v 0.399680 0.052000 -0.020000
v -0.334320 0.218000 -0.020000
v -0.082320 0.218000 -0.020000
v -0.082320 0.025000 -0.020000
v -0.334320 0.025000 -0.020000
v -0.107320 0.655000 -0.020000
v -0.150070 0.579125 -0.020000
v -0.206320 0.504000 -0.020000
v -0.262945 0.583500 -0.020000
v -0.308320 0.672000 -0.020000
v -0.116320 0.672000 -0.020000
v -0.277445 0.338750 -0.020000
v -0.208320 0.402000 -0.020000
v -0.135445 0.337250 -0.020000
v -0.057320 0.283000 -0.020000
v -0.356320 0.283000 -0.020000
v -0.025320 0.530000 -0.020000
v 0.021680 0.477000 -0.020000
v 0.045930 0.499500 -0.020000
v 0.074680 0.522000 -0.020000
v 0.074680 0.490000 -0.020000
v 0.189680 0.490000 -0.020000
v 0.189680 0.346000 -0.020000
v 0.064680 0.346000 -0.020000
v 0.064680 0.298000 -0.020000
v -0.053195 0.363625 -0.020000
v -0.161320 0.454000 -0.020000
v -0.110820 0.523375 -0.020000
v -0.069320 0.592000 -0.020000
v 0.143680 0.556000 0.020000
v 0.143680 0.732000 0.020000
v 0.332680 0.732000 0.020000
v 0.332680 0.556000 0.020000
v 0.399680 0.396000 0.020000
v 0.335680 0.396000 0.020000
v 0.335680 0.066000 0.020000
v 0.257680 0.084000 0.020000
v 0.257680 0.490000 0.020000
v 0.399680 0.490000 0.020000
v 0.399680 0.798000 0.020000
v 0.074680 0.798000 0.020000
v 0.074680 0.532000 0.020000
v -0.032195 0.668875 0.020000
v -0.108320 0.841000 0.020000
v -0.179320 0.823000 0.020000
v -0.164070 0.780125 0.020000
v -0.147320 0.738000 0.020000
v -0.341320 0.738000 0.020000
v -0.355320 0.741000 0.020000
v -0.402320 0.720000 0.020000
v -0.339945 0.575125 0.020000
v -0.254320 0.452000 0.020000
v -0.358820 0.367875 0.020000
v -0.484320 0.304000 0.020000
v -0.459320 0.274750 0.020000
v -0.437320 0.241000 0.020000
v -0.405320 0.256000 0.020000
v -0.405320 -0.075000 0.020000
v -0.334320 -0.075000 0.020000
v -0.334320 -0.041000 0.020000
v -0.082320 -0.041000 0.020000
v -0.082320 -0.078000 0.020000
v -0.012320 -0.078000 0.020000
v -0.012320 0.258000 0.020000
v 0.017680 0.242750 0.020000
v 0.047680 0.229000 0.020000
v 0.063430 0.254375 0.020000
v 0.083680 0.279000 0.020000
v 0.189680 0.279000 0.020000
v 0.189680 0.100000 0.020000
v 0.057680 0.131000 0.020000
v 0.050680 0.064000 0.020000
v 0.255805 0.012750 0.020000
v 0.437680 -0.031000 0.020000
v 0.450680 0.042000 0.020000
v 0.399680 0.052000 0.020000
v -0.334320 0.218000 0.020000
v -0.082320 0.218000 0.020000
v -0.082320 0.025000 0.020000
v -0.334320 0.025000 0.020000
v -0.107320 0.655000 0.020000
v -0.150070 0.579125 0.020000
v -0.206320 0.504000 0.020000
v -0.262945 0.583500 0.020000
v -0.308320 0.672000 0.020000
v -0.116320 0.672000 0.020000
v -0.277445 0.338750 0.020000
v -0.208320 0.402000 0.020000
v -0.135445 0.337250 0.020000
v -0.057320 0.283000 0.020000
v -0.356320 0.283000 0.020000
v -0.025320 0.530000 0.020000
v 0.021680 0.477000 0.020000
v 0.045930 0.499500 0.020000
v 0.074680 0.522000 0.020000
v 0.074680 0.490000 0.020000
v 0.189680 0.490000 0.020000
v 0.189680 0.346000 0.020000
v 0.064680 0.346000 0.020000
v 0.064680 0.298000 0.020000
v -0.053195 0.363625 0.020000
v -0.161320 0.454000 0.020000
v -0.110820 0.523375 0.020000
v -0.069320 0.592000 0.020000
v 0.143680 0.556000 0.020000
v 0.143680 0.556000 -0.020000
v 0.143680 0.732000 0.020000
v 0.143680 0.732000 -0.020000
v 0.332680 0.732000 0.020000
v 0.332680 0.732000 -0.020000
v 0.332680 0.556000 0.020000
v 0.332680 0.556000 -0.020000
v 0.399680 0.396000 0.020000
v 0.399680 0.396000 -0.020000
v 0.335680 0.396000 0.020000
v 0.335680 0.396000 -0.020000
v 0.335680 0.066000 0.020000
v 0.335680 0.066000 -0.020000
v 0.257680 0.084000 0.020000
v 0.257680 0.084000 -0.020000
v 0.257680 0.490000 0.020000
v 0.257680 0.490000 -0.020000
v 0.399680 0.490000 0.020000
v 0.399680 0.490000 -0.020000
v 0.399680 0.798000 0.020000
v 0.399680 0.798000 -0.020000
v 0.074680 0.798000 0.020000
v 0.074680 0.798000 -0.020000
v 0.074680 0.532000 0.020000
v 0.074680 0.532000 -0.020000
v -0.032195 0.668875 0.020000
v -0.032195 0.668875 -0.020000
v -0.108320 0.841000 0.020000
v -0.108320 0.841000 -0.020000
v -0.179320 0.823000 0.020000
v -0.179320 0.823000 -0.020000
v -0.164070 0.780125 0.020000
v -0.164070 0.780125 -0.020000
v -0.147320 0.738000 0.020000
v -0.147320 0.738000 -0.020000
v -0.341320 0.738000 0.020000
v -0.341320 0.738000 -0.020000
v -0.355320 0.741000 0.020000
v -0.355320 0.741000 -0.020000
v -0.402320 0.720000 0.020000
v -0.402320 0.720000 -0.020000
v -0.339945 0.575125 0.020000
v -0.339945 0.575125 -0.020000
v -0.254320 0.452000 0.020000
v -0.254320 0.452000 -0.020000
v -0.358820 0.367875 0.020000
v -0.358820 0.367875 -0.020000
v -0.484320 0.304000 0.020000
v -0.484320 0.304000 -0.020000
v -0.459320 0.274750 0.020000
v -0.459320 0.274750 -0.020000
v -0.437320 0.241000 0.020000
v -0.437320 0.241000 -0.020000
v -0.405320 0.256000 0.020000
v -0.405320 0.256000 -0.020000
v -0.405320 -0.075000 0.020000
v -0.405320 -0.075000 -0.020000
v -0.334320 -0.075000 0.020000
v -0.334320 -0.075000 -0.020000
v -0.334320 -0.041000 0.020000
v -0.334320 -0.041000 -0.020000
v -0.082320 -0.041000 0.020000
v -0.082320 -0.041000 -0.020000
v -0.082320 -0.078000 0.020000
v -0.082320 -0.078000 -0.020000
v -0.012320 -0.078000 0.020000
v -0.012320 -0.078000 -0.020000
v -0.012320 0.258000 0.020000
v -0.012320 0.258000 -0.020000
v 0.017680 0.242750 0.020000
v 0.017680 0.242750 -0.020000
v 0.047680 0.229000 0.020000
v 0.047680 0.229000 -0.020000
v 0.063430 0.254375 0.020000
v 0.063430 0.254375 -0.020000
v 0.083680 0.279000 0.020000
v 0.083680 0.279000 -0.020000
v 0.189680 0.279000 0.020000
v 0.189680 0.279000 -0.020000
v 0.189680 0.100000 0.020000
v 0.189680 0.100000 -0.020000
v 0.057680 0.131000 0.020000
v 0.057680 0.131000 -0.020000
v 0.050680 0.064000 0.020000
v 0.050680 0.064000 -0.020000
v 0.255805 0.012750 0.020000
v 0.255805 0.012750 -0.020000
v 0.437680 -0.031000 0.020000
v 0.437680 -0.031000 -0.020000
v 0.450680 0.042000 0.020000
v 0.450680 0.042000 -0.020000
v 0.399680 0.052000 0.020000
v 0.399680 0.052000 -0.020000
v -0.334320 0.218000 0.020000
v -0.334320 0.218000 -0.020000
v -0.082320 0.218000 0.020000
v -0.082320 0.218000 -0.020000
v -0.082320 0.025000 0.020000
v -0.082320 0.025000 -0.020000
v -0.334320 0.025000 0.020000
v -0.334320 0.025000 -0.020000
v -0.107320 0.655000 0.020000
v -0.107320 0.655000 -0.020000
v -0.150070 0.579125 0.020000
v -0.150070 0.579125 -0.020000
v -0.206320 0.504000 0.020000
v -0.206320 0.504000 -0.020000
v -0.262945 0.583500 0.020000
v -0.262945 0.583500 -0.020000
v -0.308320 0.672000 0.020000
v -0.308320 0.672000 -0.020000
v -0.116320 0.672000 0.020000
v -0.116320 0.672000 -0.020000
v -0.277445 0.338750 0.020000
v -0.277445 0.338750 -0.020000
v -0.208320 0.402000 0.020000
v -0.208320 0.402000 -0.020000
v -0.135445 0.337250 0.020000
v -0.135445 0.337250 -0.020000
v -0.057320 0.283000 0.020000
v -0.057320 0.283000 -0.020000
v -0.356320 0.283000 0.020000
v -0.356320 0.283000 -0.020000
v -0.025320 0.530000 0.020000
v -0.025320 0.530000 -0.020000
v 0.021680 0.477000 0.020000
v 0.021680 0.477000 -0.020000
v 0.045930 0.499500 0.020000
v 0.045930 0.499500 -0.020000
v 0.074680 0.522000 0.020000
v 0.074680 0.522000 -0.020000
v 0.074680 0.490000 0.020000
v 0.074680 0.490000 -0.020000
v 0.189680 0.490000 0.020000
v 0.189680 0.490000 -0.020000
v 0.189680 0.346000 0.020000
v 0.189680 0.346000 -0.020000
v 0.064680 0.346000 0.020000
v 0.064680 0.346000 -0.020000
v 0.064680 0.298000 0.020000
v 0.064680 0.298000 -0.020000
v -0.053195 0.363625 0.020000
v -0.053195 0.363625 -0.020000
v -0.161320 0.454000 0.020000
v -0.161320 0.454000 -0.020000
v -0.110820 0.523375 0.020000
v -0.110820 0.523375 -0.020000
v -0.069320 0.592000 0.020000
v -0.069320 0.592000 -0.020000
vn -0.0000 -0.0000 -1.0000
vn -0.0000 -0.0000 1.0000
vn 0.7071 -0.7071 -0.0000
vn 0.7071 0.7071 -0.0000
vn -0.7071 -0.7071 -0.0000
vn -0.7071 0.7071 -0.0000
vn -0.6226 0.7826 -0.0000
vn 0.7826 0.6225 -0.0000
vn -0.3254 0.9456 -0.0000
vn 0.8579 0.5139 -0.0000
vn -0.3255 0.9455 -0.0000
vn 0.4377 0.8991 -0.0000
vn -0.8822 0.4710 -0.0000
vn -0.9359 -0.3524 -0.0000
vn -0.8822 0.4709 -0.0000
vn -0.8275 0.5614 -0.0000
vn 0.1054 0.9944 -0.0000
vn -0.8275 0.5615 -0.0000
vn -0.1044 0.9945 -0.0000
vn 0.1053 0.9944 -0.0000
vn -0.9316 0.3635 -0.0000
vn -0.8742 -0.4857 -0.0000
vn -0.9898 0.1422 -0.0000
vn -0.8742 -0.4856 -0.0000
vn -0.5432 0.8396 -0.0000
vn -0.9808 0.1951 -0.0000
vn -0.8006 -0.5992 -0.0000
vn -0.2739 -0.9618 -0.0000
vn -0.5364 -0.8440 -0.0000
vn -0.2738 -0.9618 -0.0000
vn -0.5365 -0.8439 -0.0000
vn 0.5229 -0.8524 -0.0000
vn -0.4350 -0.9004 -0.0000
vn 0.2886 -0.9575 -0.0000
vn 0.8128 -0.5825 -0.0000
vn 0.2886 -0.9574 -0.0000
vn 0.4271 -0.9042 -0.0000
vn -0.6210 0.7838 -0.0000
vn -0.5794 0.8150 -0.0000
vn -0.6211 0.7838 -0.0000
vn -0.8191 -0.5736 -0.0000
vn -0.2381 -0.9712 -0.0000
vn 0.5474 -0.8369 -0.0000
vn 0.8251 0.5650 -0.0000
vn 0.7721 0.6355 -0.0000
vn 0.7721 0.6354 -0.0000
vn -0.8376 0.5463 -0.0000
vn -0.9999 0.0131 -0.0000
vn 0.0119 0.9999 -0.0000
vn 0.8544 0.5196 -0.0000
vn 0.8533 -0.5215 -0.0000
vn -0.5158 -0.8567 -0.0000
vn 0.8533 -0.5214 -0.0000
vn 0.0073 -1.0000 -0.0000
vn 0.6274 -0.7787 -0.0000
vn -0.6184 -0.7859 -0.0000
vn -0.9543 0.2989 -0.0000
vn 0.9530 0.3028 -0.0000
vn -0.9543 0.2988 -0.0000
vn 0.9530 0.3029 -0.0000
vn -0.0486 -0.9988 -0.0000
vn -0.7830 -0.6220 -0.0000
vn 0.6488 -0.7610 -0.0000
vn -0.4380 -0.8990 -0.0000
vn -0.5068 0.8621 -0.0000
vn 0.5664 0.8241 -0.0000
vn 0.9925 0.1223 -0.0000
vn 0.8329 -0.5535 -0.0000
vn 0.9925 0.1224 -0.0000
vn 0.0366 -0.9993 -0.0000
vn 0.8328 -0.5535 -0.0000
vn 0.0367 -0.9993 -0.0000
vt 0.175676 0.000000
vt 0.202703 0.000000
vt 0.189189 0.000000
vt 0.216216 0.000000
vt 0.121622 0.000000
vt 0.027027 0.000000
vt 0.135135 0.000000
vt 0.148649 0.000000
vt 0.013514 0.000000
vt 0.162162 0.000000
vt 0.229730 0.000000
vt 0.243243 0.000000
vt 0.270270 0.000000
vt 0.256757 0.000000
vt 0.040541 0.000000
vt 0.000000 0.000000
vt 0.756757 0.000000
vt 0.743243 0.000000
vt 0.283784 0.000000
vt 0.689189 0.000000
vt 0.729730 0.000000
vt 1.000000 0.000000
vt 0.702703 0.000000
vt 0.837838 0.000000
vt 0.986486 0.000000
vt 0.716216 0.000000
vt 0.297297 0.000000
vt 0.878378 0.000000
vt 0.864865 0.000000
vt 0.851351 0.000000
vt 0.972973 0.000000
vt 0.891892 0.000000
vt 0.108108 0.000000
vt 0.094595 0.000000
vt 0.905405 0.000000
vt 0.918919 0.000000
vt 0.959459 0.000000
vt 0.783784 0.000000
vt 0.310811 0.000000
vt 0.797297 0.000000
vt 0.770270 0.000000
vt 0.621622 0.000000
vt 0.067568 0.000000
vt 0.054054 0.000000
vt 0.081081 0.000000
vt 0.324324 0.000000
vt 0.945946 0.000000
vt 0.527027 0.000000
vt 0.932432 0.000000
vt 0.824324 0.000000
vt 0.810811 0.000000
vt 0.337838 0.000000
vt 0.513514 0.000000
vt 0.540541 0.000000
vt 0.500000 0.000000
vt 0.459459 0.000000
vt 0.364865 0.000000
vt 0.351351 0.000000
vt 0.472973 0.000000
vt 0.445946 0.000000
vt 0.648649 0.000000
vt 0.635135 0.000000
vt 0.378378 0.000000
vt 0.486486 0.000000
vt 0.662162 0.000000
vt 0.675676 0.000000
vt 0.567568 0.000000
vt 0.554054 0.000000
vt 0.581081 0.000000
vt 0.608108 0.000000
vt 0.594595 0.000000
vt 0.418919 0.000000
vt 0.405405 0.000000
vt 0.432432 0.000000
vt 0.391892 0.000000
vt 0.250000 1.000000
vt 0.000000 1.000000
vt 0.500000 1.000000
vt 0.250000 0.000000
vt 0.750000 1.000000
vt 1.000000 1.000000
vt 0.750000 0.000000
vt 0.023256 1.000000
vt 0.046512 1.000000
vt 0.023256 0.000000
vt 0.069767 1.000000
vt 0.046512 0.000000
vt 0.093023 1.000000
vt 0.069767 0.000000
vt 0.116279 1.000000
vt 0.093023 0.000000
vt 0.139535 1.000000
vt 0.116279 0.000000
vt 0.162791 1.000000
vt 0.139535 0.000000
vt 0.186047 1.000000
vt 0.162791 0.000000
vt 0.209302 1.000000
vt 0.186047 0.000000
vt 0.232558 1.000000
vt 0.209302 0.000000
vt 0.255814 1.000000
vt 0.232558 0.000000
vt 0.279070 1.000000
vt 0.255814 0.000000
vt 0.302326 1.000000
vt 0.279070 0.000000
vt 0.325581 1.000000
vt 0.302326 0.000000
vt 0.348837 1.000000
vt 0.325581 0.000000
vt 0.372093 1.000000
vt 0.348837 0.000000
vt 0.395349 1.000000
vt 0.372093 0.000000
vt 0.418605 1.000000
vt 0.395349 0.000000
vt 0.441860 1.000000
vt 0.418605 0.000000
vt 0.465116 1.000000
vt 0.441860 0.000000
vt 0.488372 1.000000
vt 0.465116 0.000000
vt 0.511628 1.000000
vt 0.488372 0.000000
vt 0.534884 1.000000
vt 0.511628 0.000000
vt 0.558140 1.000000
vt 0.534884 0.000000
vt 0.581395 1.000000
vt 0.558140 0.000000
vt 0.604651 1.000000
vt 0.581395 0.000000
vt 0.627907 1.000000
vt 0.604651 0.000000
vt 0.651163 1.000000
vt 0.627907 0.000000
vt 0.674419 1.000000
vt 0.651163 0.000000
vt 0.697674 1.000000
vt 0.674419 0.000000
vt 0.720930 1.000000
vt 0.697674 0.000000
vt 0.744186 1.000000
vt 0.720930 0.000000
vt 0.767442 1.000000
vt 0.744186 0.000000
vt 0.790698 1.000000
vt 0.767442 0.000000
vt 0.813953 1.000000
vt 0.790698 0.000000
vt 0.837209 1.000000
vt 0.813953 0.000000
vt 0.860465 1.000000
vt 0.837209 0.000000
vt 0.883721 1.000000
vt 0.860465 0.000000
vt 0.906977 1.000000
vt 0.883721 0.000000
vt 0.930233 1.000000
vt 0.906977 0.000000
vt 0.953488 1.000000
vt 0.930233 0.000000
vt 0.976744 1.000000
vt 0.953488 0.000000
vt 0.976744 0.000000
vt 0.166667 1.000000
vt 0.333333 1.000000
vt 0.166667 0.000000
vt 0.333333 0.000000
vt 0.666667 1.000000
vt 0.833333 1.000000
vt 0.666667 0.000000
vt 0.833333 0.000000
vt 0.200000 1.000000
vt 0.400000 1.000000
vt 0.200000 0.000000
vt 0.600000 1.000000
vt 0.400000 0.000000
vt 0.800000 1.000000
vt 0.600000 0.000000
vt 0.800000 0.000000
vt 0.076923 1.000000
vt 0.153846 1.000000
vt 0.076923 0.000000
vt 0.230769 1.000000
vt 0.153846 0.000000
vt 0.307692 1.000000
vt 0.230769 0.000000
vt 0.384615 1.000000
vt 0.307692 0.000000
vt 0.461538 1.000000
vt 0.384615 0.000000
vt 0.538462 1.000000
vt 0.461538 0.000000
vt 0.615385 1.000000
vt 0.538462 0.000000
vt 0.692308 1.000000
vt 0.615385 0.000000
vt 0.769231 1.000000
vt 0.692308 0.000000
vt 0.846154 1.000000
vt 0.769231 0.000000
vt 0.923077 1.000000
vt 0.846154 0.000000
vt 0.923077 0.000000
s 0
usemtl マテリアル
f 14/1/1 16/2/1 15/3/1
f 14/1/1 17/4/1 16/2/1
f 10/5/1 3/6/1 11/7/1
f 3/6/1 12/8/1 11/7/1
f 3/6/1 2/9/1 12/8/1
f 2/9/1 13/10/1 12/8/1
f 14/1/1 18/11/1 17/4/1
f 19/12/1 21/13/1 20/14/1
f 14/1/1 19/12/1 18/11/1
f 14/1/1 21/13/1 19/12/1
f 10/5/1 4/15/1 3/6/1
f 1/16/1 13/10/1 2/9/1
f 14/1/1 57/17/1 21/13/1
f 57/17/1 56/18/1 21/13/1
f 56/18/1 22/19/1 21/13/1
f 14/1/1 52/20/1 57/17/1
f 55/21/1 22/19/1 56/18/1
f 13/10/1 52/20/1 14/1/1
f 13/10/1 75/22/1 52/20/1
f 75/22/1 53/23/1 52/20/1
f 13/10/1 63/24/1 75/22/1
f 74/25/1 53/23/1 75/22/1
f 54/26/1 22/19/1 55/21/1
f 74/25/1 54/26/1 53/23/1
f 54/26/1 23/27/1 22/19/1
f 10/5/1 1/16/1 4/15/1
f 10/5/1 13/10/1 1/16/1
f 10/5/1 66/28/1 13/10/1
f 66/28/1 63/24/1 13/10/1
f 66/28/1 65/29/1 63/24/1
f 65/29/1 64/30/1 63/24/1
f 73/31/1 54/26/1 74/25/1
f 10/5/1 67/32/1 66/28/1
f 73/31/1 23/27/1 54/26/1
f 9/33/1 67/32/1 10/5/1
f 8/34/1 68/35/1 9/33/1
f 68/35/1 67/32/1 9/33/1
f 8/34/1 69/36/1 68/35/1
f 72/37/1 23/27/1 73/31/1
f 72/37/1 59/38/1 23/27/1
f 59/38/1 24/39/1 23/27/1
f 72/37/1 60/40/1 59/38/1
f 58/41/1 24/39/1 59/38/1
f 47/42/1 6/43/1 5/44/1
f 47/42/1 7/45/1 6/43/1
f 58/41/1 25/46/1 24/39/1
f 71/47/1 60/40/1 72/37/1
f 8/34/1 40/48/1 69/36/1
f 40/48/1 70/49/1 69/36/1
f 40/48/1 71/47/1 70/49/1
f 62/50/1 25/46/1 58/41/1
f 71/47/1 61/51/1 60/40/1
f 62/50/1 26/52/1 25/46/1
f 40/48/1 61/51/1 71/47/1
f 40/48/1 62/50/1 61/51/1
f 40/48/1 39/53/1 62/50/1
f 39/53/1 26/52/1 62/50/1
f 8/34/1 41/54/1 40/48/1
f 38/55/1 35/56/1 39/53/1
f 35/56/1 26/52/1 39/53/1
f 35/56/1 28/57/1 26/52/1
f 28/57/1 27/58/1 26/52/1
f 38/55/1 36/59/1 35/56/1
f 34/60/1 49/61/1 35/56/1
f 49/61/1 28/57/1 35/56/1
f 49/61/1 48/62/1 28/57/1
f 48/62/1 29/63/1 28/57/1
f 37/64/1 36/59/1 38/55/1
f 34/60/1 50/65/1 49/61/1
f 51/66/1 29/63/1 48/62/1
f 41/54/1 43/67/1 42/68/1
f 8/34/1 43/67/1 41/54/1
f 7/45/1 43/67/1 8/34/1
f 47/42/1 43/67/1 7/45/1
f 47/42/1 44/69/1 43/67/1
f 46/70/1 44/69/1 47/42/1
f 45/71/1 44/69/1 46/70/1
f 34/60/1 32/72/1 50/65/1
f 32/72/1 51/66/1 50/65/1
f 32/72/1 31/73/1 51/66/1
f 31/73/1 29/63/1 51/66/1
f 34/60/1 33/74/1 32/72/1
f 30/75/1 29/63/1 31/73/1
f 89/1/2 90/3/2 91/2/2
f 89/1/2 91/2/2 92/4/2
f 85/5/2 86/7/2 78/6/2
f 78/6/2 86/7/2 87/8/2
f 78/6/2 87/8/2 77/9/2
f 77/9/2 87/8/2 88/10/2
f 89/1/2 92/4/2 93/11/2
f 94/12/2 95/14/2 96/13/2
f 89/1/2 93/11/2 94/12/2
f 89/1/2 94/12/2 96/13/2
f 85/5/2 78/6/2 79/15/2
f 76/16/2 77/9/2 88/10/2
f 89/1/2 96/13/2 132/17/2
f 132/17/2 96/13/2 131/18/2
f 131/18/2 96/13/2 97/19/2
f 89/1/2 132/17/2 127/20/2
f 130/21/2 131/18/2 97/19/2
f 88/10/2 89/1/2 127/20/2
f 88/10/2 127/20/2 150/22/2
f 150/22/2 127/20/2 128/23/2
f 88/10/2 150/22/2 138/24/2
f 149/25/2 150/22/2 128/23/2
f 129/26/2 130/21/2 97/19/2
f 149/25/2 128/23/2 129/26/2
f 129/26/2 97/19/2 98/27/2
f 85/5/2 79/15/2 76/16/2
f 85/5/2 76/16/2 88/10/2
f 85/5/2 88/10/2 141/28/2
f 141/28/2 88/10/2 138/24/2
f 141/28/2 138/24/2 140/29/2
f 140/29/2 138/24/2 139/30/2
f 148/31/2 149/25/2 129/26/2
f 85/5/2 141/28/2 142/32/2
f 148/31/2 129/26/2 98/27/2
f 84/33/1 85/5/1 142/32/1
f 83/34/2 84/33/2 143/35/2
f 143/35/1 84/33/1 142/32/1
f 83/34/2 143/35/2 144/36/2
f 147/37/2 148/31/2 98/27/2
f 147/37/2 98/27/2 134/38/2
f 134/38/2 98/27/2 99/39/2
f 147/37/2 134/38/2 135/40/2
f 133/41/2 134/38/2 99/39/2
f 122/42/2 80/44/2 81/43/2
f 122/42/2 81/43/2 82/45/2
f 133/41/2 99/39/2 100/46/2
f 146/47/2 147/37/2 135/40/2
f 83/34/2 144/36/2 115/48/2
f 115/48/2 144/36/2 145/49/2
f 115/48/2 145/49/2 146/47/2
f 137/50/2 133/41/2 100/46/2
f 146/47/2 135/40/2 136/51/2
f 137/50/2 100/46/2 101/52/2
f 115/48/2 146/47/2 136/51/2
f 115/48/2 136/51/2 137/50/2
f 115/48/2 137/50/2 114/53/2
f 114/53/2 137/50/2 101/52/2
f 83/34/2 115/48/2 116/54/2
f 113/55/2 114/53/2 110/56/2
f 110/56/2 114/53/2 101/52/2
f 110/56/2 101/52/2 103/57/2
f 103/57/2 101/52/2 102/58/2
f 113/55/2 110/56/2 111/59/2
f 109/60/2 110/56/2 124/61/2
f 124/61/2 110/56/2 103/57/2
f 124/61/2 103/57/2 123/62/2
f 123/62/2 103/57/2 104/63/2
f 112/64/2 113/55/2 111/59/2
f 109/60/2 124/61/2 125/65/2
f 126/66/2 123/62/2 104/63/2
f 116/54/2 117/68/2 118/67/2
f 83/34/2 116/54/2 118/67/2
f 82/45/2 83/34/2 118/67/2
f 122/42/2 82/45/2 118/67/2
f 122/42/2 118/67/2 119/69/2
f 121/70/2 122/42/2 119/69/2
f 120/71/2 121/70/2 119/69/2
f 109/60/2 125/65/2 107/72/2
f 107/72/2 125/65/2 126/66/2
f 107/72/2 126/66/2 106/73/2
f 106/73/2 126/66/2 104/63/2
f 109/60/2 107/72/2 108/74/2
f 105/75/2 106/73/2 104/63/2
s 1
f 154/76/3 151/16/4 152/77/4
f 156/78/5 153/79/3 154/76/3
f 158/80/6 155/55/5 156/78/5
f 152/81/4 157/82/6 158/80/6
f 162/83/6 159/16/4 160/77/4
f 164/84/7 161/85/6 162/83/6
f 166/86/8 163/87/7 164/84/7
f 168/88/3 165/89/8 166/86/8
f 170/90/3 167/91/3 168/88/3
f 172/92/4 169/93/3 170/90/3
f 174/94/6 171/95/4 172/92/4
f 176/96/9 173/97/6 174/94/6
f 178/98/10 175/99/11 176/96/9
f 180/100/12 177/101/10 178/98/10
f 182/102/13 179/103/12 180/100/12
f 184/104/14 181/105/15 182/102/13
f 186/106/16 183/107/14 184/104/14
f 188/108/17 185/109/18 186/106/16
f 190/110/19 187/111/20 188/108/17
f 192/112/21 189/113/19 190/110/19
f 194/114/22 191/115/21 192/112/21
f 196/116/23 193/117/24 194/114/22
f 198/118/25 195/119/23 196/116/23
f 200/120/26 197/121/25 198/118/25
f 202/122/27 199/123/26 200/120/26
f 204/124/28 201/125/27 202/122/27
f 206/126/29 203/127/30 204/124/28
f 208/128/5 205/129/31 206/126/29
f 210/130/3 207/131/5 208/128/5
f 212/132/3 209/133/3 210/130/3
f 214/134/5 211/135/3 212/132/3
f 216/136/5 213/137/5 214/134/5
f 218/138/3 215/139/5 216/136/5
f 220/140/32 217/141/3 218/138/3
f 222/142/33 219/143/32 220/140/32
f 224/144/34 221/145/33 222/142/33
f 226/146/35 223/147/36 224/144/34
f 228/148/37 225/149/35 226/146/35
f 230/150/5 227/151/37 228/148/37
f 232/152/38 229/153/5 230/150/5
f 234/154/39 231/155/40 232/152/38
f 236/156/41 233/157/39 234/154/39
f 238/158/42 235/159/41 236/156/41
f 240/160/43 237/161/42 238/158/42
f 242/162/44 239/163/43 240/160/43
f 244/164/45 241/165/44 242/162/44
f 160/81/4 243/166/46 244/164/45
f 248/76/5 245/16/3 246/77/3
f 250/78/6 247/79/5 248/76/5
f 252/80/4 249/55/6 250/78/6
f 246/81/3 251/82/4 252/80/4
f 256/167/47 253/16/48 254/77/48
f 258/168/49 255/169/47 256/167/47
f 260/78/50 257/170/49 258/168/49
f 262/171/51 259/55/50 260/78/50
f 264/172/52 261/173/53 262/171/51
f 254/81/48 263/174/52 264/172/52
f 268/175/54 265/16/55 266/77/55
f 270/176/56 267/177/54 268/175/54
f 272/178/57 269/179/56 270/176/56
f 274/180/58 271/181/59 272/178/57
f 266/81/55 273/182/60 274/180/58
f 278/183/61 275/16/62 276/77/62
f 280/184/63 277/185/61 278/183/61
f 282/186/64 279/187/63 280/184/63
f 284/188/5 281/189/64 282/186/64
f 286/190/5 283/191/5 284/188/5
f 288/192/6 285/193/5 286/190/5
f 290/194/6 287/195/6 288/192/6
f 292/196/65 289/197/6 290/194/6
f 294/198/66 291/199/65 292/196/65
f 296/200/67 293/201/66 294/198/66
f 298/202/68 295/203/69 296/200/67
f 300/204/70 297/205/71 298/202/68
f 276/81/62 299/206/72 300/204/70
f 154/76/3 153/79/3 151/16/4
f 156/78/5 155/55/5 153/79/3
f 158/80/6 157/82/6 155/55/5
f 152/81/4 151/22/4 157/82/6
f 162/83/6 161/85/6 159/16/4
f 164/84/7 163/87/7 161/85/6
f 166/86/8 165/89/8 163/87/7
f 168/88/3 167/91/3 165/89/8
f 170/90/3 169/93/3 167/91/3
f 172/92/4 171/95/4 169/93/3
f 174/94/6 173/97/6 171/95/4
f 176/96/9 175/99/11 173/97/6
f 178/98/10 177/101/10 175/99/11
f 180/100/12 179/103/12 177/101/10
f 182/102/13 181/105/15 179/103/12
f 184/104/14 183/107/14 181/105/15
f 186/106/16 185/109/18 183/107/14
f 188/108/17 187/111/20 185/109/18
f 190/110/19 189/113/19 187/111/20
f 192/112/21 191/115/21 189/113/19
f 194/114/22 193/117/24 191/115/21
f 196/116/23 195/119/23 193/117/24
f 198/118/25 197/121/25 195/119/23
f 200/120/26 199/123/26 197/121/25
f 202/122/27 201/125/27 199/123/26
f 204/124/28 203/127/30 201/125/27
f 206/126/29 205/129/31 203/127/30
f 208/128/5 207/131/5 205/129/31
f 210/130/3 209/133/3 207/131/5
f 212/132/3 211/135/3 209/133/3
f 214/134/5 213/137/5 211/135/3
f 216/136/5 215/139/5 213/137/5
f 218/138/3 217/141/3 215/139/5
f 220/140/32 219/143/32 217/141/3
f 222/142/33 221/145/33 219/143/32
f 224/144/34 223/147/36 221/145/33
f 226/146/35 225/149/35 223/147/36
f 228/148/37 227/151/37 225/149/35
f 230/150/5 229/153/5 227/151/37
f 232/152/38 231/155/40 229/153/5
f 234/154/39 233/157/39 231/155/40
f 236/156/41 235/159/41 233/157/39
f 238/158/42 237/161/42 235/159/41
f 240/160/43 239/163/43 237/161/42
f 242/162/44 241/165/44 239/163/43
f 244/164/45 243/166/46 241/165/44
f 160/81/4 159/22/4 243/166/46
f 248/76/5 247/79/5 245/16/3
f 250/78/6 249/55/6 247/79/5
f 252/80/4 251/82/4 249/55/6
f 246/81/3 245/22/3 251/82/4
f 256/167/47 255/169/47 253/16/48
f 258/168/49 257/170/49 255/169/47
f 260/78/50 259/55/50 257/170/49
f 262/171/51 261/173/53 259/55/50
f 264/172/52 263/174/52 261/173/53
f 254/81/48 253/22/48 263/174/52
f 268/175/54 267/177/54 265/16/55
f 270/176/56 269/179/56 267/177/54
f 272/178/57 271/181/59 269/179/56
f 274/180/58 273/182/60 271/181/59
f 266/81/55 265/22/55 273/182/60
f 278/183/61 277/185/61 275/16/62
f 280/184/63 279/187/63 277/185/61
f 282/186/64 281/189/64 279/187/63
f 284/188/5 283/191/5 281/189/64
f 286/190/5 285/193/5 283/191/5
f 288/192/6 287/195/6 285/193/5
f 290/194/6 289/197/6 287/195/6
f 292/196/65 291/199/65 289/197/6
f 294/198/66 293/201/66 291/199/65
f 296/200/67 295/203/69 293/201/66
f 298/202/68 297/205/71 295/203/69
f 300/204/70 299/206/72 297/205/71
f 276/81/62 275/22/62 299/206/72
