# Blender 4.1.0
# www.blender.org
mtllib DoorKnob.mtl
o doorknob
v 0.719400 1.590600 -0.099000
v 0.719400 1.709400 -0.099000
v 0.719400 1.590600 0.099000
v 0.719400 1.709400 0.099000
v 0.600600 1.590600 -0.099000
v 0.600600 1.709400 -0.099000
v 0.600600 1.590600 0.099000
v 0.600600 1.709400 0.099000
v 0.719400 1.590600 -0.330000
v 0.719400 1.709400 -0.330000
v 0.600600 1.709400 -0.330000
v 0.600600 1.590600 -0.330000
v 0.719400 1.590600 -0.214500
v 0.719400 1.709400 -0.214500
v 0.600600 1.590600 -0.214500
v 0.600600 1.709400 -0.214500
v 0.204600 1.709400 -0.330000
v 0.204600 1.590600 -0.330000
v 0.204600 1.590600 -0.214500
v 0.204600 1.709400 -0.214500
vn 1.0000 -0.0000 -0.0000
vn -0.0000 -0.0000 1.0000
vn -1.0000 -0.0000 -0.0000
vn -0.0000 -1.0000 -0.0000
vn -0.0000 1.0000 -0.0000
vn -0.0000 -0.0000 -1.0000
vt 0.625000 0.000000
vt 0.375000 0.250000
vt 0.375000 0.000000
vt 0.625000 0.250000
vt 0.375000 0.500000
vt 0.625000 0.500000
vt 0.375000 0.750000
vt 0.125000 0.750000
vt 0.125000 0.500000
vt 0.875000 0.500000
vt 0.625000 0.750000
vt 0.375000 1.000000
vt 0.875000 0.750000
vt 0.625000 1.000000
s 0
usemtl マテリアル.003
f 2/1/1 3/2/1 1/3/1
f 4/4/2 7/5/2 3/2/2
f 8/6/3 5/7/3 7/5/3
f 13/3/1 10/1/1 14/1/1
f 7/5/4 1/8/4 3/9/4
f 4/10/5 6/11/5 8/6/5
f 11/11/6 9/12/6 12/7/6
f 15/7/4 9/8/4 13/8/4
f 14/13/5 11/11/5 16/11/5
f 15/7/4 18/7/4 12/7/4
f 6/11/3 15/7/3 5/7/3
f 2/13/5 16/11/5 6/11/5
f 5/7/4 13/8/4 1/8/4
f 1/3/1 14/1/1 2/1/1
f 20/11/3 18/7/3 19/7/3
f 11/11/5 20/11/5 16/11/5
f 12/7/6 17/11/6 11/11/6
f 16/11/2 19/7/2 15/7/2
f 2/1/1 4/4/1 3/2/1
f 4/4/2 8/6/2 7/5/2
f 8/6/3 6/11/3 5/7/3
f 13/3/1 9/3/1 10/1/1
f 7/5/4 5/7/4 1/8/4
f 4/10/5 2/13/5 6/11/5
f 11/11/6 10/14/6 9/12/6
f 15/7/4 12/7/4 9/8/4
f 14/13/5 10/13/5 11/11/5
f 15/7/4 19/7/4 18/7/4
f 6/11/3 16/11/3 15/7/3
f 2/13/5 14/13/5 16/11/5
f 5/7/4 15/7/4 13/8/4
f 1/3/1 13/3/1 14/1/1
f 20/11/3 17/11/3 18/7/3
f 11/11/5 17/11/5 20/11/5
f 12/7/6 18/7/6 17/11/6
f 16/11/2 20/11/2 19/7/2
