# Blender 4.1.1
# www.blender.org
mtllib Seven.mtl
o テキスト
v 0.145096 0.029000 -0.020000
v -0.104904 0.589000 -0.020000
v 0.190096 0.589000 -0.020000
v 0.190096 0.682000 -0.020000
v -0.250904 0.682000 -0.020000
v 0.058096 -0.009000 -0.020000
v 0.145096 0.029000 0.020000
v -0.104904 0.589000 0.020000
v 0.190096 0.589000 0.020000
v 0.190096 0.682000 0.020000
v -0.250904 0.682000 0.020000
v 0.058096 -0.009000 0.020000
v 0.145096 0.029000 0.020000
v 0.145096 0.029000 -0.020000
v -0.104904 0.589000 0.020000
v -0.104904 0.589000 -0.020000
v 0.190096 0.589000 0.020000
v 0.190096 0.589000 -0.020000
v 0.190096 0.682000 0.020000
v 0.190096 0.682000 -0.020000
v -0.250904 0.682000 0.020000
v -0.250904 0.682000 -0.020000
v 0.058096 -0.009000 0.020000
v 0.058096 -0.009000 -0.020000
vn -0.0000 -0.0000 -1.0000
vn -0.0000 -0.0000 1.0000
vn 0.8389 -0.5442 -0.0000
vn 0.9325 -0.3612 -0.0000
vn 0.7071 -0.7071 -0.0000
vn 0.7071 0.7071 -0.0000
vn -0.8391 0.5440 -0.0000
vn -0.3609 -0.9326 -0.0000
vn -0.8391 0.5439 -0.0000
vt 0.400000 0.000000
vt 0.800000 0.000000
vt 0.600000 0.000000
vt 0.200000 0.000000
vt 1.000000 0.000000
vt 0.000000 0.000000
vt 0.166667 1.000000
vt 0.000000 1.000000
vt 0.333333 1.000000
vt 0.166667 0.000000
vt 0.500000 1.000000
vt 0.333333 0.000000
vt 0.666667 1.000000
vt 0.500000 0.000000
vt 0.833333 1.000000
vt 0.666667 0.000000
vt 1.000000 1.000000
vt 0.833333 0.000000
s 0
usemtl マテリアル
f 3/1/1 5/2/1 4/3/1
f 3/1/1 2/4/1 5/2/1
f 2/4/1 6/5/1 5/2/1
f 1/6/1 6/5/1 2/4/1
f 9/1/2 10/3/2 11/2/2
f 9/1/2 11/2/2 8/4/2
f 8/4/2 11/2/2 12/5/2
f 7/6/2 8/4/2 12/5/2
s 1
f 16/7/3 13/6/4 14/8/4
f 18/9/5 15/10/3 16/7/3
f 20/11/6 17/12/5 18/9/5
f 22/13/7 19/14/6 20/11/6
f 24/15/8 21/16/9 22/13/7
f 14/17/4 23/18/8 24/15/8
f 16/7/3 15/10/3 13/6/4
f 18/9/5 17/12/5 15/10/3
f 20/11/6 19/14/6 17/12/5
f 22/13/7 21/16/9 19/14/6
f 24/15/8 23/18/8 21/16/9
f 14/17/4 13/5/4 23/18/8
